<svg version="1.1" xmlns="http://www.w3.org/2000/svg" xmlns:xlink="http://www.w3.org/1999/xlink" width="217.20001" height="268.99999" viewBox="0,0,217.20001,268.99999"><g transform="translate(77.89999,33.10001)"><g data-paper-data="{&quot;isPaintingLayer&quot;:true}" fill="#ff6666" fill-rule="nonzero" stroke="none" stroke-width="0.5" stroke-linecap="butt" stroke-linejoin="miter" stroke-miterlimit="10" stroke-dasharray="" stroke-dashoffset="0" style="mix-blend-mode: normal"><path d="M-77.89999,-30.60001c0,-1.38071 1.11929,-2.5 2.5,-2.5c1.38071,0 2.5,1.11929 2.5,2.5c0,1.38071 -1.11929,2.5 -2.5,2.5c-1.38071,0 -2.5,-1.11929 -2.5,-2.5z"/><path d="M75.80943,206.02829c4.23301,-1.39843 7.77523,-3.63623 11.76001,-5.506c10.27955,-4.82346 23.89186,-4.7264 34.35002,-0.88491c1.63169,0.59935 8.85959,3.2012 9.93509,4.48848c0.13876,0.16609 0.26258,0.34051 0.37384,0.52195l0.05178,-0.03452l1.58102,2.37149c0.27681,0.40239 0.43884,0.88987 0.43884,1.4152c0,1.38071 -1.11929,2.5 -2.5,2.5c-0.2969,0 -0.58172,-0.05176 -0.84591,-0.14674l-2.34466,-0.78153l0.02058,-0.06174l-0.18672,-0.00027c-0.68525,-0.34403 -1.37704,-0.65984 -2.07458,-0.94848c0.81966,0.61533 1.42558,1.53325 2.16767,2.2584l2.21809,1.47872c0.68925,0.44514 1.14551,1.2201 1.14551,2.10163c0,0.61937 -0.22523,1.18613 -0.59826,1.62285l1.19844,2.99603c0.12866,0.30123 0.19987,0.63287 0.19987,0.98113c0,1.38071 -1.11929,2.5 -2.5,2.5c-0.52532,0 -1.0128,-0.16203 -1.41519,-0.43883l-2.1425,-1.42832c-7.92936,-2.35387 -17.49088,-3.12472 -25.72484,-2.15309c-2.98307,0.35201 -5.8083,1.53438 -8.71546,2.29003c-5.1993,1.35144 -11.02023,4.85026 -16.53504,5.70872c-0.78882,0.71699 -1.59718,1.40793 -2.48025,2.00161l-2.37155,1.58105c-0.40239,0.27681 -0.88987,0.43884 -1.4152,0.43884c-1.38071,0 -2.5,-1.11929 -2.5,-2.5c0,-0.17773 0.01855,-0.35113 0.05381,-0.51837c-0.52334,-0.45824 -0.85383,-1.13131 -0.85383,-1.88157c0,-0.5719 0.19203,-1.09895 0.51513,-1.52018l2.38484,-3.17987l0.02739,0.02054c0.02757,-0.05304 0.05557,-0.1059 0.08399,-0.15856c0.59004,-1.09316 1.69527,-1.82278 2.63416,-2.63619c3.66955,-3.17914 7.53332,-5.83033 11.71958,-8.24174c-1.37881,0.32232 -2.71342,0.53712 -3.94354,0.56093c-0.03793,0.00073 -0.07585,0.0013 -0.11377,0.0017l0.00322,0.01929l-4.75353,0.79227c-0.14831,0.02743 -0.30122,0.04176 -0.45747,0.04176c-1.38071,0 -2.5,-1.11929 -2.5,-2.5c0,-1.12459 0.74255,-2.07575 1.7641,-2.38993l2.3453,-0.78179v0.00001zM99.89782,203.36214c2.2013,-0.59633 4.43355,-1.06741 6.6776,-1.39047c-2.31247,-0.02103 -4.66881,0.08146 -6.99068,0.36805c0.09276,0.18253 0.17221,0.3911 0.23433,0.62923c0.03566,0.1367 0.06158,0.2677 0.07875,0.39319z"/><path d="M-72.89999,-25.6c0,-1.38071 1.11929,-2.5 2.5,-2.5c1.38071,0 2.5,1.11929 2.5,2.5c0,1.38071 -1.11929,2.5 -2.5,2.5c-1.38071,0 -2.5,-1.11929 -2.5,-2.5z"/><path d="M80.80943,211.02829c4.23301,-1.39843 7.77523,-3.63623 11.76,-5.506c10.27955,-4.82346 23.89186,-4.7264 34.35003,-0.88491c1.63169,0.59936 8.85958,3.2012 9.93509,4.48848c0.13876,0.16609 0.26258,0.34052 0.37384,0.52195l0.05177,-0.03451l1.58102,2.37149c0.27681,0.40239 0.43884,0.88987 0.43884,1.4152c0,1.38071 -1.11929,2.5 -2.5,2.5c-0.29691,0 -0.58172,-0.05175 -0.84591,-0.14674l-2.34466,-0.78153l0.02058,-0.06173l-0.18671,-0.00028c-0.68525,-0.34403 -1.37705,-0.65983 -2.07458,-0.94848c0.81966,0.61533 1.42558,1.53325 2.16767,2.2584l2.21809,1.47872c0.68926,0.44513 1.14551,1.22011 1.14551,2.10164c0,0.61936 -0.22523,1.18613 -0.59826,1.62284l1.19843,2.99603c0.12866,0.30123 0.19987,0.63287 0.19987,0.98113c0,1.38071 -1.11929,2.5 -2.5,2.5c-0.52532,0 -1.0128,-0.16202 -1.41518,-0.43883l-2.1425,-1.42833c-7.92936,-2.35387 -17.49089,-3.12471 -25.72484,-2.15309c-2.98307,0.35201 -5.80829,1.53438 -8.71545,2.29003c-5.1993,1.35144 -11.02023,4.85027 -16.53504,5.70872c-0.78882,0.71699 -1.59718,1.40794 -2.48025,2.00161l-2.37156,1.58104c-0.40239,0.27681 -0.88987,0.43884 -1.41519,0.43884c-1.38071,0 -2.5,-1.11929 -2.5,-2.5c0,-0.17773 0.01855,-0.35113 0.05381,-0.51837c-0.52334,-0.45824 -0.85383,-1.13131 -0.85383,-1.88157c0,-0.5719 0.19204,-1.09894 0.51514,-1.52018l2.38484,-3.17987l0.02739,0.02054c0.02757,-0.05304 0.05557,-0.1059 0.08399,-0.15856c0.59004,-1.09316 1.69527,-1.82279 2.63416,-2.6362c3.66955,-3.17914 7.53333,-5.83033 11.71958,-8.24174c-1.37881,0.32233 -2.71342,0.53712 -3.94354,0.56093c-0.03793,0.00073 -0.07585,0.0013 -0.11377,0.0017l0.00322,0.01929l-4.75353,0.79228c-0.14831,0.02742 -0.30122,0.04176 -0.45747,0.04176c-1.38071,0 -2.5,-1.11929 -2.5,-2.5c0,-1.12459 0.74255,-2.07575 1.76411,-2.38993l2.3453,-0.78179v0.00001zM104.89782,208.36214c2.2013,-0.59633 4.43355,-1.06741 6.6776,-1.39047c-2.31247,-0.02104 -4.66881,0.08147 -6.99068,0.36805c0.09276,0.18253 0.17221,0.3911 0.23433,0.62923c0.03566,0.13671 0.06158,0.2677 0.07875,0.39319z"/></g></g></svg>