<svg version="1.1" xmlns="http://www.w3.org/2000/svg" xmlns:xlink="http://www.w3.org/1999/xlink" width="44.89626" height="60.96928" viewBox="0,0,44.89626,60.96928"><g transform="translate(-201.78376,-118.92373)"><g data-paper-data="{&quot;isPaintingLayer&quot;:true}" fill="#dd0000" fill-rule="nonzero" stroke="none" stroke-width="0.5" stroke-linecap="butt" stroke-linejoin="miter" stroke-miterlimit="10" stroke-dasharray="" stroke-dashoffset="0" style="mix-blend-mode: normal"><path d="M202.16646,127.88976l0.07389,-0.12314l0.04406,-0.13217l0.6168,-0.96925l0.59109,-0.98514l0.09851,-0.09851l0.0771,-0.12116l0.05507,-0.01101l0.2985,-0.2985l0.86284,-0.51771l0.81574,-0.58914l0.49851,-0.1994l0.03262,-0.01957l0.0097,0.00265l0.29876,-0.1195l0.3606,-0.2404l0.49255,-0.17591l0.424,-0.30622l1.26636,-0.50654l1.79611,-0.76976l0.59494,-0.09596l0.55266,-0.24029l1.20059,-0.2001l1.21538,-0.40513l0.80138,-0.06164l0.77975,-0.19494h2.64593l0.59715,0.14929h0.61553l1.05837,0.26459l0.17299,0.09226l0.19547,0.01504l0.05905,0.01968l1.21968,-0.34848l0.69702,-0.02323l0.67658,-0.16915h1.32296l2.11674,0.52919l0.91292,-0.52167l1.19793,-1.3754l1.31893,-0.06281l0.27451,-0.15686l0.23228,0.13273l0.7483,-0.03563l0.83748,0.1675h0.56327l0.91868,0.22967l0.93827,0.12795l1.18654,0.47462l0.65439,0.21813l0.01658,0.01055l0.04603,0.01151l1.12151,0.24922l0.12461,0.06231l0.13932,0.03483l0.02786,0.04876l0.23739,0.11869l0.74894,0.64195l0.37491,0.07498l0.34492,0.54202l0.48779,0.4181l0.02121,0.38175l0.52958,0.8322l0.52919,1.58756l0.02013,0.26171l0.11739,0.23477l0.52919,2.38133l-0.01449,0.55045l0.13355,0.5342v4.23348l-0.06158,0.24631l0.03676,0.25121l-0.52919,5.29185l-0.05657,0.15758l0.01335,0.16689l-0.47704,2.86224l-0.24871,6.46641v11.31491l1.49052,4.17346l1.23642,2.72013l0.06792,0.36977l0.18787,0.32564l0.45893,1.60625l1.49258,3.73144l0.34818,2.55331l-0.12847,0.16178l0.04081,0.12244l-1.56454,1.79633l-1.48141,1.86548l-0.12783,-0.01784l-0.13568,0.15578l-2.57402,0.12257l-0.83748,-0.1675h-0.56327l-0.95696,-0.23924l-0.36886,0.1006l-0.5509,-0.33054l-0.62327,-0.15582l-0.08968,-0.15694l-0.04983,-0.00383l-0.81781,-0.2726h-0.24698l-0.39604,-0.09901l-0.22896,0.09901l-0.91346,-0.38462l-0.96154,-0.24038l-0.12376,-0.21658l-0.37624,-0.15842l-0.07783,-0.05837l-0.3422,0l-1.84554,0.41012l-0.2403,-0.00632l-0.22418,0.08678l-2.11674,0.26459l-0.12103,-0.01467l-0.11566,0.03855l-3.4397,0.26459l-0.19328,-0.03282l-0.1902,0.04755h-2.41912l-2.68465,0.24406l-0.22842,-0.03553l-0.22426,0.05607h-4.76267l-0.59715,-0.14929h-0.61553l-2.11674,-0.52919l-2.27377,-1.21268l-0.21121,-0.75099l-0.67734,-0.38705l-0.625,-2.5l0,-16.70548c-0.62617,-0.7614 -1.01451,-1.71476 -1.05837,-2.87437c-0.11744,-3.10473 -0.153,-6.21374 -0.1143,-9.32143l-0.95208,-2.85624l-0.0109,-0.14165l-0.06951,-0.1239l-0.79378,-2.91052l-0.00116,-0.05466l-0.02573,-0.04824l-1.05837,-4.23348l0,-0.39091l-0.12875,-0.36909l-0.21475,-2.3622l-0.01144,-0.01279l0.00471,-0.06124l-0.04312,-0.4743l0.15747,-1.01233l0.07858,-1.02149l0.1506,-0.45181l0.00715,-0.04595z"/></g></g></svg>