<svg version="1.1" xmlns="http://www.w3.org/2000/svg" xmlns:xlink="http://www.w3.org/1999/xlink" width="450.94918" height="279.6172" viewBox="0,0,450.94918,279.6172"><g transform="translate(-38.75771,-27.40211)"><g data-paper-data="{&quot;isPaintingLayer&quot;:true}" fill="#dd0000" fill-rule="nonzero" stroke="none" stroke-width="0.5" stroke-linecap="butt" stroke-linejoin="miter" stroke-miterlimit="10" stroke-dasharray="" stroke-dashoffset="0" style="mix-blend-mode: normal"><path d="M417.96506,304.03968c-2.03965,4.56507 -6.60471,2.52542 -6.60471,2.52542l-6.28745,-2.82003c-6.20646,-1.87561 -12.45879,-3.60458 -18.74362,-5.19796c-9.47113,-2.40527 -19.06576,-4.56956 -28.74649,-5.98535c-15.11774,-2.21095 -30.94944,-1.56173 -46.18279,-1.56173c-23.18887,0 -45.92271,-0.59696 -66.71924,11.34121c0,0 -0.68939,0.39394 -1.67571,0.59313c-0.33047,0.99536 -1.07579,1.99112 -2.56879,2.73768c-4.47207,2.2362 -6.70827,-2.23586 -6.70827,-2.23586l0.67197,0.16378c-3.2656,-2.46403 -6.20268,-6.5024 -9.78936,-8.40785c-1.30212,-0.69176 -2.84826,-0.78612 -4.21856,-1.33048c-2.3815,-0.94606 -4.59044,-2.31856 -7.01977,-3.13399c-6.76528,-2.27085 -8.25872,-2.0251 -14.3867,-2.99441c-4.22235,-0.66788 -8.38313,-1.69035 -12.60336,-2.37156c-4.1112,-0.66361 -8.31234,-0.52417 -12.46949,-0.76993c-6.91793,-0.40897 -13.74952,-0.85155 -20.67546,-0.49734c-11.67656,0.57723 -24.05087,1.30867 -35.10896,5.45739c-7.89869,2.96339 -15.31061,7.22421 -23.19598,10.28377c-7.9975,3.10307 -16.76183,8.29933 -25.08475,3.13867c-3.68565,-2.2853 -3.96763,-3.89384 -5.19094,-7.39306c-2.3796,-6.80673 -3.70088,-13.60314 -4.97797,-20.69787c-0.48932,-2.71839 -0.98885,-5.43472 -1.41007,-8.15928c-2.24592,1.68879 -4.45978,3.42361 -6.8027,4.97316c-1.45067,0.95944 -2.86384,2.51397 -4.6022,2.45856c-10.45763,-0.33332 -8.17134,-9.35076 -7.1991,-16.15664c1.69119,-11.83876 3.93822,-24.25009 4.74512,-36.30973c0.48403,-7.23419 0.04634,-14.66303 0.36068,-21.91592c1.0842,-24.86845 1.22964,-49.66681 1.22964,-74.57343c0,-20.42987 -0.39383,-40.95692 1.62482,-61.29753c0,0 0.21355,-2.13552 1.75993,-3.46844c-1.09195,-0.31744 -2.19848,-1.10385 -2.95381,-2.80334c-2.0307,-4.56906 2.53836,-6.59975 2.53836,-6.59975c15.0133,-6.6487 30.86782,-9.55629 46.91852,-12.61376c33.03478,-6.29273 67.64829,-8.23521 100.96967,-2.99637c22.35969,3.53333 44.23853,9.144 63.97121,20.72592c1.85447,1.08846 5.88203,4.62267 7.52255,5.81716c1.75223,1.27583 3.49386,2.56606 5.19162,3.90094c2.24923,0.32451 3.25151,1.80601 3.69814,3.06192c0.36347,0.31928 0.72347,0.64196 1.0796,0.96839c0.47002,-0.42391 0.94102,-0.84565 1.40341,-1.27243c2.46595,-2.27601 4.55594,-4.95284 7.12235,-7.11494c2.65677,-2.23823 5.66027,-4.02911 8.49284,-6.04024c10.75074,-7.63306 22.17271,-15.17486 34.93075,-19.02767c22.16496,-6.69361 45.84849,-9.04865 68.87694,-9.03772c8.56424,0.50196 19.15422,0.07929 27.41093,2.53374c5.88999,1.75091 11.80912,3.48095 17.49175,5.81876c9.36797,3.85393 17.62564,9.55223 26.24424,14.71164c1.68035,1.00592 3.63107,1.54626 5.22974,2.67751c3.27623,2.31834 5.88723,5.82997 9.15246,8.27895l3.45951,3.44169c0,0 3.53555,3.53552 0.00003,7.07107c-3.53552,3.53555 -7.07107,0.00003 -7.07107,0.00003l-2.94052,-2.95827c-1.82578,-1.36937 -3.43516,-3.15362 -5.09357,-4.81058c-7.01724,12.74537 -13.20971,25.68904 -19.04962,39.03742c-7.53113,17.21403 -14.19809,35.34774 -16.78934,54.08869c-1.14215,8.26051 -1.30533,17.08393 -1.82492,25.39961c-0.64126,10.11222 -0.16648,20.37362 -0.16648,30.50761c0,11.18306 -0.2298,22.47875 0.73543,33.5991c0.31928,3.6784 1.28073,7.27898 1.65833,10.95185l0.00621,3.44902c0,0 0,1.53849 -0.85341,2.90865c0.42986,0.20192 0.85637,0.4066 1.27926,0.61411l6.41025,3.20511c0,0 4.47214,2.23607 2.23607,6.7082c-2.23607,4.47214 -6.7082,2.23607 -6.7082,2.23607l-6.3898,-3.19491c-8.54025,-4.25893 -19.02341,-7.20216 -28.25137,-9.57995c-15.50444,-4.00829 -31.89553,-8.05594 -47.99781,-8.23786c-8.33197,-0.09413 -16.85062,0.47322 -25.14559,1.25196c-6.50347,0.61055 -13.07419,0.7081 -19.51215,1.81288c-14.97965,2.57058 -29.48931,8.81427 -43.60873,14.19632c-0.89105,0.33965 -1.78621,0.674 -2.68389,1.00575l0.02535,0.6737c0,0 0,5 -5,5c-0.36384,0 -0.7012,-0.02648 -1.01402,-0.07557c-2.2933,0.64507 -4.38596,-0.92443 -4.38596,-0.92443l-0.70491,-0.52938c-2.60171,1.03918 -5.16815,2.15064 -7.65909,3.40151c0,0 -4.47215,2.23603 -6.70819,-2.23612c-2.23603,-4.47215 2.23612,-6.70819 2.23612,-6.70819c1.14686,-0.57124 2.30682,-1.11581 3.47696,-1.63928c-4.21884,-3.54548 -8.71667,-6.85897 -13.83765,-8.59694c-12.40592,-8.15568 -26.17526,-15.18709 -40.61327,-18.8402c-3.67705,-0.93037 -7.52291,-0.9753 -11.28268,-1.47575c-2.76417,-0.36793 -5.44378,-1.24503 -8.20635,-1.62475c-8.77166,-1.20566 -17.67962,-0.75088 -26.50092,-0.75088c-6.65907,0 -13.696,-0.66032 -20.30737,-0.02433c-2.62454,0.25247 -5.14517,1.17868 -7.75273,1.56926c-2.54827,0.38169 -5.17216,0.21634 -7.69415,0.74445c-2.32008,0.48584 -4.47688,1.56173 -6.73666,2.27743c-6.76001,2.14098 -12.72066,3.4809 -19.28755,6.11256c-5.67421,3.41642 -11.43906,6.55247 -17.02065,10.02086c0.64843,9.12868 2.78086,18.85361 5.19968,27.3018c0.21142,0.73844 1.23083,5.8429 2.75184,6.82377c2.59451,1.67314 3.22719,0.6808 6.99491,-0.61013c4.70585,-1.61236 9.34025,-3.44134 13.90404,-5.42037c0.75158,-0.32591 17.90157,-8.23478 18.38294,-8.4133c12.08806,-4.48283 25.34871,-5.43054 38.10351,-6.07514c7.28713,-0.3567 14.47079,0.07116 21.74951,0.50139c4.37792,0.25877 8.79867,0.14552 13.13048,0.83004c4.35317,0.6879 8.64376,1.73862 12.99662,2.42849c6.93919,1.09977 8.06348,0.77244 16.01332,3.40562c2.55376,0.84586 4.88456,2.2616 7.38026,3.26591c1.76168,0.70893 3.72135,0.94748 5.38141,1.86959c3.57057,1.98333 6.32748,5.25173 9.43605,7.92472c0.49051,-0.44336 0.89381,-0.67381 0.89381,-0.67381c13.66507,-7.77668 29.64779,-12.09884 45.40416,-12.65114c8.7041,-0.3051 17.5662,-0.00765 26.2765,-0.00765c15.66044,0 31.87318,-0.6089 47.41731,1.63822c10.09386,1.45921 20.09678,3.71388 29.97078,6.21586c6.63575,1.68421 13.23204,3.53072 19.78207,5.52244l6.86949,3.05842c0,0 4.56507,2.03965 2.52542,6.60471zM57.20001,254.80002c0,0 0,-5 5,-5c1.07332,0 1.91624,0.2304 2.57822,0.59229c5.0153,-3.01198 10.13686,-5.84498 15.2002,-8.87163c7.13394,-2.84923 13.44058,-4.39763 20.71245,-6.68749c2.56513,-0.80774 5.0323,-1.96604 7.66337,-2.52262c2.723,-0.57603 5.55346,-0.44212 8.30585,-0.85552c2.77121,-0.41623 5.45731,-1.36745 8.24721,-1.63069c6.93899,-0.65475 14.30388,-0.02433 21.29273,-0.02433c9.30854,0 18.64042,-0.40367 27.89899,0.84909c2.62648,0.35539 5.16656,1.22432 7.79365,1.5752c4.24024,0.56634 8.56456,0.69718 12.71732,1.72432c1.92741,0.47673 13.97533,4.17713 16.00333,5.07463c2.58398,1.14354 4.89049,2.83964 7.41835,4.1024c6.62225,3.30806 13.00304,6.20703 19.16512,10.38279c6.74876,2.20494 12.61904,7.07414 18.06889,11.80994c-0.33498,-3.88268 -0.45104,-7.7551 -0.6179,-11.94069c-0.75868,-19.03081 -0.64985,-38.04659 -0.64619,-57.1026c1.35238,-27.18632 2.16014,-54.38954 5.65308,-81.41242c0.55717,-4.31054 1.67846,-8.53029 2.40243,-12.81597c0.7732,-4.57707 0.82458,-9.25913 1.64031,-13.82882c0.85688,-4.80017 3.08693,-9.55791 3.73165,-14.41186c-1.60535,-1.28427 -3.27129,-2.52849 -4.98033,-3.76995c-2.35532,-1.71092 -4.35807,-3.92408 -6.87735,-5.38285c-18.66798,-10.80958 -39.18813,-16.02805 -60.27354,-19.3548c-32.16352,-5.10141 -65.65605,-3.13044 -97.5389,2.94213c-14.83536,2.82562 -29.60737,5.41429 -43.51953,11.39892c3.75318,1.08389 3.33577,5.25801 3.33577,5.25801c-2.01603,19.99962 -1.57519,40.2123 -1.57519,60.30251c0,25.05019 -0.15456,49.99649 -1.23907,75.00779c-0.31927,7.31933 0.11454,14.80278 -0.37056,22.10295c-0.54161,8.15039 -2.14949,16.29094 -3.23782,24.37659c-0.58484,4.34501 -1.01119,8.67248 -1.6171,12.91359c-0.05677,0.3974 -0.07912,0.76039 -0.08172,1.09927c1.41629,-1.01731 2.84771,-2.01494 4.25352,-3.04587c1.15243,-0.84512 2.31834,-1.66333 3.49538,-2.45993c-0.00133,-0.13142 -0.0022,-0.26288 -0.00261,-0.3944zM265.49678,263.77638c14.72579,-5.61294 29.81697,-12.01451 45.436,-14.70056c0.27603,-0.04747 19.78311,-1.87116 20.31321,-1.92079c8.64168,-0.80907 17.52204,-1.40902 26.20159,-1.29486c16.92551,0.22261 34.07259,4.34434 50.37696,8.5551c6.41749,1.6625 13.25331,3.57453 19.77724,5.93667l0.00442,-2.10284c-0.31938,-3.30732 -1.22949,-6.54018 -1.54162,-9.8482c-1.09956,-11.65335 -0.86455,-23.48575 -0.86455,-35.20089c0,-10.34695 -0.45097,-20.80506 0.18595,-31.13138c0.53552,-8.56636 0.71701,-17.64532 1.90029,-26.14985c2.73406,-19.65047 9.63263,-38.66505 17.53292,-56.72287c6.05618,-13.84271 12.49444,-27.26287 19.79548,-40.47585c-7.96039,-4.7837 -15.5976,-10.11823 -24.26418,-13.67473c-5.2373,-2.14923 -10.69998,-3.70851 -16.10834,-5.38125c-7.31158,-2.26139 -17.76324,-1.81599 -25.389,-2.26625c-21.90433,0.01111 -44.42686,2.23725 -65.52309,8.56232c-11.78384,3.53303 -22.28279,10.6467 -32.20899,17.66643c-2.60677,1.84349 -5.38709,3.46215 -7.82526,5.52348c-2.52838,2.13761 -4.58461,4.78398 -7.01979,7.0272c-0.40947,0.37719 -0.84585,0.73428 -1.28167,1.09264c0.36854,0.50957 0.72628,1.02937 1.07239,1.56014l2.86881,2.83446c0,0 3.5355,3.53557 -0.00007,7.07107c-3.53557,3.5355 -7.07107,-0.00007 -7.07107,-0.00007l-3.53109,-3.56556c-0.84257,-1.24431 -1.73927,-2.41886 -2.68369,-3.53734c-0.78676,2.82019 -1.62895,5.6382 -2.14704,8.54951c-0.7862,4.41785 -0.81567,8.94597 -1.55964,13.37113c-0.71883,4.27565 -1.84676,8.48355 -2.39762,12.78407c-3.40993,26.62126 -4.20087,53.40918 -5.54687,80.18755c0.00373,18.84069 -0.10337,37.64036 0.64143,56.45588c0.15309,3.86749 0.23929,7.39118 0.52565,10.92162c0.11045,-0.04193 0.22087,-0.08393 0.33123,-0.126z"/><path d="M236.76023,116.77354c-2.77354,4.16023 -6.93376,1.38669 -6.93376,1.38669l-2.78085,-1.88085c-3.21522,-3.14822 -6.65183,-6.78634 -10.61276,-8.92125c-2.69349,-1.45177 -5.77624,-2.02119 -8.66437,-3.03179c-11.16415,-3.91198 -23.31608,1.51861 -34.91408,0.24381c-12.42752,-1.36597 -22.2534,-9.94111 -33.46708,-14.51943c-0.75198,-0.30702 -1.62599,0.04369 -2.43288,0.13671c-3.95402,0.4558 -7.83496,1.43731 -11.69666,2.40133c-2.81621,0.70302 -17.42776,4.40157 -20.092,4.77912c-4.04749,0.57356 -10.03,-0.37047 -13.91792,-0.79845c0,0 -4.96942,-0.55215 -4.41727,-5.52157c0.55215,-4.96942 5.52157,-4.41727 5.52157,-4.41727c2.32733,0.26118 8.81687,1.23814 11.68206,0.80152c10.83582,-1.65125 21.21273,-6.52457 32.21134,-7.21952c1.85257,-0.11705 3.80969,-0.46093 5.56712,0.13671c3.53886,1.20345 6.65191,3.41184 9.96379,5.14483c1.86328,0.97498 3.9734,1.39585 5.88771,2.26638c5.90419,2.68493 9.57886,6.20402 16.28139,6.86936c10.50924,1.04321 20.95608,-2.97785 31.45534,-1.5653c1.95376,0.26286 3.75372,1.20608 5.63058,1.80911c3.39016,1.23164 7.0041,1.96746 10.17047,3.69493c5.32045,2.90267 8.21756,6.0589 12.1525,9.952l2.01907,1.31916c0,0 4.16023,2.77354 1.38669,6.93376z"/><path d="M201.73558,159.13554c-3.53553,3.53553 -7.07107,0 -7.07107,0l-4.24173,-4.25952c-5.30022,-7.05198 -10.10566,-14.54221 -18.74783,-17.78303c-11.82415,-4.43408 -25.45313,0.66683 -36.51406,4.78668c-10.77037,4.01163 -21.44577,9.25348 -32.82984,11.43287c-3.32402,0.63636 -6.74387,0.58013 -10.1158,0.87019c0,0 -4.98273,0.41524 -5.39796,-4.56749c-0.41524,-4.98273 4.56749,-5.39796 4.56749,-5.39796c3.02807,-0.24328 6.10069,-0.15803 9.08421,-0.72984c19.38761,-3.7158 36.12939,-15.77197 56.02161,-17.48491c10.23879,-0.88167 22.04231,0.6021 29.79158,8.22555c5.43066,5.34248 7.37337,8.32101 11.69512,14.09592l3.75827,3.74048c0,0 3.53553,3.53553 0,7.07107z"/><path d="M212.00003,199.60001c0,5 -5,5 -5,5l-2.01266,-0.14929c-13.24952,-3.31683 -25.8528,-4.94474 -39.48012,-5.70367c-5.41505,-0.30158 -11.92574,-0.84639 -17.44866,-0.55372c-10.50995,0.55693 -20.9473,3.174 -31.45858,3.20667c0,0 -5,0 -5,-5c0,-5 5,-5 5,-5c10.30468,0.03943 20.6269,-2.65888 30.94144,-3.19329c19.99968,-1.03622 40.53312,1.71438 59.87127,6.54259l-0.41268,-0.14929c0,0 5,0 5,5z"/><path d="M417.7356,135.93551c-3.53551,3.53556 -7.07107,0.00004 -7.07107,0.00004l-5.51779,-5.70688c-0.66079,-2.15861 -2.65439,-3.73626 -4.44821,-5.10682c-5.46214,-4.17333 -10.5297,-5.22745 -17.47536,-3.57752c-7.31263,1.73709 -14.19516,4.9654 -21.43865,6.91335c-9.17371,2.46703 -19.59093,3.55731 -29.0611,3.061c-6.56713,-0.34417 -11.65186,-0.38052 -17.70457,-2.37526c0,0 -4.74341,-1.58116 -3.16225,-6.32457c1.58116,-4.74341 6.32457,-3.16225 6.32457,-3.16225c5.1594,1.74482 9.32814,1.57241 15.06784,1.87591c8.51066,0.45002 17.93794,-0.55368 26.1665,-2.79015c10.12554,-2.75205 20.22169,-8.5658 31.0038,-8.13752c6.34113,0.25188 11.73629,2.75988 16.48221,6.67336c2.63238,2.17066 5.60588,4.47941 6.75174,7.69317l4.08231,3.89309c0,0 3.53556,3.53551 0.00004,7.07107z"/><path d="M419.33569,202.33539c-3.5354,3.53567 -7.07107,0.00027 -7.07107,0.00027l1.05107,0.37216c-10.54295,-3.77367 -21.55447,-8.07076 -32.90164,-8.51127c-19.19225,-0.74507 -37.12251,6.18841 -55.52941,10.2844c0,0 -4.88094,1.08462 -5.96556,-3.79633c-1.08462,-4.88094 3.79633,-5.96556 3.79633,-5.96556c19.28259,-4.27864 37.95784,-11.34879 58.07056,-10.51559c12.41286,0.51422 24.3483,4.95816 35.89841,9.08883l2.65105,1.97202c0,0 3.53567,3.5354 0.00027,7.07107z"/></g></g></svg>