<svg version="1.1" xmlns="http://www.w3.org/2000/svg" xmlns:xlink="http://www.w3.org/1999/xlink" width="590" height="348.93127" viewBox="0,0,590,348.93127"><g transform="translate(70.89999,5.10001)"><g data-paper-data="{&quot;isPaintingLayer&quot;:true}" fill-rule="nonzero" stroke="none" stroke-width="0.5" stroke-linecap="butt" stroke-linejoin="miter" stroke-miterlimit="10" stroke-dasharray="" stroke-dashoffset="0" style="mix-blend-mode: normal"><path d="M234.39058,158.7717c-1.89299,0.631 -2.77871,-0.75253 -3.05915,-1.33676c-0.55492,1.35252 -1.10812,2.70578 -1.65977,4.05969c6.08079,0.21563 12.20791,2.36631 17.44982,5.37604c2.36207,1.35622 4.69988,3.09293 7.0929,4.74876c3.49574,-11.37144 7.07762,-22.71748 10.59824,-34.07949c0.83486,-2.69433 1.7294,-5.39041 2.62422,-8.0921c-7.16068,1.14316 -14.37188,1.74465 -21.65495,1.02359c-0.1751,-0.01734 -1.4236,-0.1407 -2.99726,-0.29801c-2.64098,6.1487 -5.24906,12.31693 -7.83034,18.50514c0.38886,1.32403 -0.00922,2.90876 0.11344,4.32098l0.90399,2.60989c0,0 0.79057,2.37171 -1.58114,3.16228zM228.28568,150.52662c-0.20415,-0.11604 -1.87865,-1.77933 -3.28631,-3.19273c-0.68654,2.2463 -1.35455,4.49687 -1.99568,6.75333v0.00001c-0.79859,2.81062 -1.54286,5.63673 -2.26033,8.47049c1.12482,-0.24717 2.24992,-0.47628 3.37552,-0.68371c1.52254,-3.74917 3.05607,-7.49369 4.60425,-11.23196c-0.15999,-0.00986 -0.30915,-0.04252 -0.43745,-0.11544zM213.01503,138.33335c-1.03299,-0.86159 -2.16674,-1.7527 -2.72473,-2.97665c-0.41482,-0.9099 0.35709,-2.06593 0,-3c-0.27111,-0.70916 -1.29727,-0.86322 -1.71841,-1.49493c-1.44729,-2.17093 -2.04725,-3.75135 -2.7,-5.71808c-1.07315,2.7078 -2.14523,5.41604 -3.21616,8.12473c-0.14659,1.51981 -0.33355,3.0269 -0.58464,4.5107c-1.11551,6.59205 -3.00805,13.15585 -4.50178,19.67396c-0.92396,4.03183 -1.71781,8.16959 -2.55511,12.30534c6.77597,-1.87859 13.51016,-4.09194 20.24368,-5.86711c0.92702,-3.74114 1.88546,-7.47333 2.93843,-11.17856c0.85424,-3.00594 1.75576,-6.00149 2.68512,-8.99043c-2.60714,-1.8144 -5.46107,-3.38274 -7.8664,-5.38897zM209.97171,121.60942c0.76563,2.31311 1.25604,4.22827 2.6564,6.32879c0.62651,0.93976 1.84916,1.46167 2.28159,2.50507c0.38287,0.9238 -0.30215,2.04674 0,3c0.65264,2.05902 3.55782,2.45063 5.31628,3.70495c0.73994,0.52781 1.49103,1.0416 2.23924,1.55923c1.42067,-4.43972 2.87893,-8.86949 4.31067,-13.30178c-5.57885,-3.47984 -10.85238,-8.12641 -16.5439,-11.2472c-0.75774,1.90641 -1.51503,3.81302 -2.27182,5.71983c1.48448,0.14991 2.01154,1.7311 2.01154,1.7311zM433.8144,199.89078c-2.49079,0.21439 -2.70518,-2.2764 -2.70518,-2.2764l-0.1532,-1.87143c-1.25335,-7.52862 -1.85692,-14.8169 -1.85417,-22.43891c0.66504,-8.71248 0.39464,-17.43879 1.00732,-26.11793c0.54739,-7.75432 3.34829,-15.33902 3.99411,-23.0842c0.40218,-4.8233 -0.05986,-9.93791 -0.08245,-14.77977c-0.0232,-4.97092 -0.49039,-9.78381 -0.96147,-14.73018c-0.15483,-1.6257 -0.59326,-3.63395 -0.76245,-5.5962c-2.72751,6.15019 -3.18584,13.22957 -4.36602,19.91477c-3.33168,18.87249 -5.42359,38.0332 -8.33938,56.98588c-2.99249,19.45121 -7.82631,38.6333 -12.04538,57.85354c-2.35318,10.72004 -3.76484,22.50393 -7.44612,33.02318v3.62685c0,1.38071 -1.11929,2.5 -2.5,2.5c-1.38071,0 -2.5,-1.11929 -2.5,-2.5v-3.33588c-0.22719,-1.08993 0.15539,-2.18436 0.55471,-3.27871c4.74694,-21.15136 5.60721,-43.38265 7.49623,-64.90893c1.67124,-11.47789 3.94546,-23.03665 5.04448,-34.58118c0.45198,-4.7478 0.70904,-9.53564 0.89155,-14.33349l-1.01051,0.48274c-4.30524,-0.92333 -8.60193,-1.86318 -12.89366,-2.82059c-0.60464,1.57943 -1.21314,3.15226 -1.82126,4.7171c-7.2625,18.68303 -14.30984,37.42873 -22.40144,55.76967c-2.66628,6.04356 -4.86863,12.85551 -8.20245,18.552c-2.5627,4.37889 -5.831,8.40677 -9.42764,12.03476l0.26999,0.20249l-2.98254,3.97672c-0.45492,0.62044 -1.18914,1.02328 -2.01746,1.02328c-1.38071,0 -2.5,-1.11929 -2.5,-2.5v-3c0,-5.73958 -0.42376,-11.71558 0.04597,-17.43857c0.76462,-9.31588 2.44247,-18.65172 4.48452,-27.93325c-2.80836,-0.79374 -5.99638,-2.1033 -8.86794,-3.39139c-2.67634,7.37445 -5.40695,14.72789 -8.24316,22.03916c-2.41109,6.21536 -4.81323,12.43429 -7.23329,18.64617c-1.42119,3.64796 -2.08928,6.34304 -4.83247,9.30438l-2.75199,4.12799c-0.03952,0.0612 -0.08165,0.12056 -0.12621,0.17792c0.54493,0.09789 2.29869,0.57781 2.11518,2.68453h0.00001c-0.21695,2.49057 -2.70752,2.27362 -2.70752,2.27362c-1.66038,-0.14463 -3.60875,-0.31435 -5.26913,-0.45898c-3.30622,-0.28862 -6.58509,-0.84747 -9.89116,-1.13785c-8.65679,-0.76036 -17.51244,0.79751 -26.16989,-0.08895c-8.82985,-0.90411 -17.31368,-2.8516 -26.27408,-2.31119c-2.42343,0.14616 -4.85433,0.49111 -7.27865,0.92834c-0.11716,0.3519 -0.23433,0.70379 -0.35149,1.05569c-0.13903,0.82881 -0.28105,1.65593 -0.42737,2.48082c-1.29318,5.01683 -2.5898,10.03156 -3.92148,15.03834l-0.35121,0.29669l0.12925,0.09035l-2.84443,4.06933c-0.44976,0.66179 -1.20869,1.0965 -2.06916,1.0965c-1.38071,0 -2.5,-1.11929 -2.5,-2.5c0,-0.29661 0.05165,-0.58115 0.14645,-0.84512l1.56107,-4.68859c0.50297,-3.29517 2.10601,-6.32528 3.15901,-9.48792c0.60664,-1.82202 1.21328,-3.64404 1.81992,-5.46606c-1.73099,0.37159 -3.45288,0.74799 -5.16045,1.08951c0,0 -2.45145,0.4903 -2.94175,-1.96116c-0.4903,-2.45145 1.96116,-2.94175 1.96116,-2.94175c2.39009,-0.47802 4.80471,-1.01702 7.23243,-1.51972c0.96024,-6.02331 1.88434,-12.08576 3.25875,-17.98563c0.83601,-3.58871 1.89144,-7.15423 2.98241,-10.70711c-1.78815,0.18703 -5.0163,1.04468 -6.5863,1.43309c-6.46064,1.59832 -13.00202,3.57453 -19.51382,4.88371c-2.78397,0.55971 -5.68121,1.05889 -8.62633,1.43534c-0.55409,1.3942 -1.10879,2.78812 -1.66429,4.18167c-1.84021,4.61644 -3.32563,9.27374 -4.83986,14.00569c-1.01592,3.17475 -1.5107,6.56644 -3.04776,9.52424l-1.50646,4.70768c-0.30516,1.03616 -1.26349,1.7925 -2.39848,1.7925c-1.38071,0 -2.5,-1.11929 -2.5,-2.5c0,-0.01649 0.00016,-0.03294 0.00048,-0.04935l0.05328,-3.14389l0.17291,0.00293l-0.13352,-0.40461c2.20171,-6.3419 4.6852,-12.49914 5.99424,-19.08957c0.5648,-2.82402 1.22698,-5.60402 1.95203,-8.35815c-5.12292,0.18796 -10.21569,-0.15056 -14.94573,-1.33198c0,0 -2.42536,-0.60633 -1.81903,-3.03169c0.60633,-2.42536 3.03169,-1.81903 3.03169,-1.81903c4.90238,1.22671 9.99562,1.46848 15.13552,1.12166c1.89837,-6.56308 4.0376,-13.04112 5.93805,-19.68647c1.6304,-5.70107 3.03199,-11.46744 4.43499,-17.23343c-6.67018,1.81446 -13.32451,3.96559 -20.02762,5.74773c-0.82578,3.74318 -1.74981,7.44598 -2.90284,11.0271c-2.04271,6.3443 -5.07679,12.544 -7.58171,18.7228c-6.95387,17.15287 -14.99924,33.53435 -23.28898,50.07886c-0.85304,1.29971 -1.71368,2.57993 -2.56481,3.85695c6.7937,-0.08254 13.59017,-0.10974 20.38732,-0.1098c15.75662,-0.00014 31.96455,0.17764 47.66762,1.54968c18.21554,1.59156 36.34918,4.10695 54.65275,4.88431c26.9425,1.14669 54.09437,2.59536 81.06541,1.56715c5.94215,-0.22653 11.85768,-0.77265 17.80455,-0.94298c19.3166,-0.55189 38.56415,-1.5251 57.85007,-2.76027c14.6227,-0.93651 29.65021,-1.54428 44.03594,-4.42995c6.51674,-1.30335 12.91254,-2.77453 19.34436,-4.44723c2.45836,-0.63934 5.04042,-0.82863 7.43169,-1.68543c2.25962,-0.80963 4.32378,-2.07424 6.44052,-3.21742c0.21764,-0.73338 0.80198,-1.71789 2.37082,-1.71789c2.5,0 2.5,2.5 2.5,2.5l-1.38198,3.03606c-0.87133,0.43566 -8.08952,4.05077 -8.30668,4.12861c-2.51009,0.89964 -5.2149,1.12322 -7.79534,1.79495c-6.52311,1.69808 -13.01323,3.18932 -19.62281,4.51124c-14.6126,2.91428 -29.84654,3.56573 -44.69696,4.51682c-19.3447,1.23893 -38.65134,2.21488 -58.02684,2.76846c-5.94238,0.16935 -11.85361,0.71776 -17.79146,0.94259c-27.09528,1.02593 -54.36742,-0.41727 -81.4339,-1.56924c-18.37799,-0.78381 -36.58556,-3.30072 -54.87535,-4.89876c-15.55885,-1.35943 -31.61984,-1.53084 -47.23236,-1.5307c-7.88486,0.00007 -15.76858,0.03627 -23.64794,0.15352c-1.63046,2.65324 -3.12732,5.38261 -4.34415,8.32779l-0.35237,0.24005l0.1063,0.09307l-2.20798,2.52179c-0.4584,0.52907 -1.13521,0.86373 -1.89019,0.86373c-1.38071,0 -2.5,-1.11929 -2.5,-2.5v-4h0.04536c-0.00493,-0.16027 -0.0046,-0.32103 0.00162,-0.48235c0.06752,-1.7526 1.24698,-3.27042 1.94685,-4.88776c-21.61377,0.51356 -43.18523,1.76931 -64.64772,4.69604c-7.35981,1.00362 -15.31645,1.28132 -22.54856,2.93073c-2.53942,0.57916 -7.46897,3.50908 -10.26528,0.91112c-1.22626,-1.13928 -0.59469,-3.29962 -0.73223,-4.96778c-0.31917,-3.87095 -0.59293,-8.01297 -0.80303,-11.89048c-0.86665,-15.9945 -1.59705,-32.07246 -1.59697,-48.09815c-0.31198,-34.28184 -3.12045,-68.48767 -3.75486,-102.78056c-0.35731,-19.31423 0.93344,-38.61072 1.35973,-57.91549c0.11015,-4.98833 -0.16476,-9.99783 0.02776,-14.9835c-0.4235,-0.34219 -0.76873,-0.88995 -0.8271,-1.76553c-0.08185,-1.22773 0.48085,-1.89148 1.07346,-2.249c0.23357,-3.03423 0.52282,-6.05622 0.52101,-9.11731c0,0 0,-2.5 2.5,-2.5c2.5,0 2.5,2.5 2.5,2.5c-0.00159,2.83727 -0.24228,5.64198 -0.46199,8.45287c28.03335,-1.8544 56.00926,-3.52249 84.11581,-4.01558c34.96976,-0.61349 70.18718,-1.60825 105.13741,-0.10532c3.09296,0.133 6.18607,0.25869 9.27933,0.37795l0.20896,-0.73798c0.2786,-1.0767 1.25665,-1.87191 2.42044,-1.87191c1.24722,0 2.28112,0.91331 2.46939,2.10762l0.12312,0.69768c21.48904,0.78036 42.98467,1.2758 64.48167,1.79013c1.713,-2.22347 4.02077,-4.52519 5.79133,-3.44084c1.19016,0.72889 1.85987,2.06709 2.22312,3.63404c5.97193,0.14549 11.94392,0.29535 17.91585,0.45609c15.936,0.42895 31.89223,1.18509 47.83221,1.35553c16.78185,0.17944 34.60561,-0.08398 51.05555,3.56026c14.47248,4.08567 34.69889,7.42642 43.14277,21.62978c3.6851,6.19866 4.13007,13.41495 4.76746,20.36246c1.0282,11.2073 -0.08715,22.3659 -1.18846,33.51628c-1.52344,15.95484 -3.48818,31.90408 -4.77981,47.87614c-1.4263,17.63738 -1.73095,35.54125 -1.73522,53.22826c-0.62714,10.69946 -0.25025,21.61437 -1.61661,32.22309c-0.17363,1.3481 -1.19473,7.79956 -3.12562,8.41319c-1.758,0.55869 -3.51651,-1.11578 -5.27477,-1.67368l0.31806,0.26394c0,0 -2.5,-0.00864 -2.5,-2.50864c0.00576,-2.49135 2.49999,-2.49135 2.49999,-2.49135l1.91804,0.26394c0.15217,0.20642 0.31347,0.40683 0.47278,0.60855c0.06902,-1.17459 0.58244,-2.29738 0.7268,-3.46901c0.33861,-2.74804 0.60305,-5.50638 0.78783,-8.26903c0.52104,-7.79013 0.33394,-15.68869 0.79564,-23.50788c-0.00443,-17.76991 0.31635,-35.76444 1.74933,-53.48441c1.2938,-15.99892 3.26094,-31.97484 4.78696,-47.95648c1.07,-10.83359 2.19228,-21.68474 1.18609,-32.57453c-0.57393,-6.21152 -0.83212,-12.71184 -4.09362,-18.27801c-2.18136,-3.72278 -6.56813,-6.9121 -10.22526,-8.99003c-9.23332,-5.24622 -19.67772,-7.46251 -29.83491,-10.33435c-16.04699,-3.57806 -33.53381,-3.23278 -49.90639,-3.40904c-15.96047,-0.17183 -31.93691,-0.9273 -47.89339,-1.3568c-5.79901,-0.15609 -11.59807,-0.30194 -17.39709,-0.4435c-0.03112,1.42542 -0.13166,2.73644 -0.16209,3.68485c-0.25548,7.96424 0.25355,16.44436 -0.83117,24.33457c-0.5709,4.15267 -1.60516,8.33066 -2.65897,12.47743c2.20024,-0.61059 4.39103,-1.23512 6.53227,-1.94907c2.54552,-0.84851 4.98146,-2.20481 7.6467,-2.51487c2.82158,-0.32825 5.59047,-0.31751 8.32105,-0.0644c2.14746,-5.25881 4.28599,-10.52153 6.40671,-15.79191l0.81498,-3.93655c0.21614,-1.16073 1.23429,-2.03948 2.45767,-2.03948c1.28062,0 2.33634,0.96288 2.48268,2.20416l0.65621,4.92157l-0.30664,0.04089c1.02502,3.25506 1.67822,6.58131 1.65014,10.22109c-0.01821,2.3607 -0.28502,4.79526 -0.66403,7.24738c2.19683,0.66056 4.38389,1.3765 6.56944,2.0923c0.9913,0.32467 5.82144,1.51722 8.33182,2.19423c1.69593,-4.59803 3.42764,-9.18402 5.17273,-13.76616l0.48132,-0.28181l-0.14142,-0.14142l2,-2c0.45241,-0.45241 1.07741,-0.73223 1.76777,-0.73223c1.38071,0 2.5,1.11929 2.5,2.5v5h-0.16683c0.37468,2.719 0.51622,5.45714 0.15326,8.26011c-0.24414,1.88536 -0.55879,3.77351 -0.91953,5.66188c2.30716,1.07551 4.62187,2.13394 6.99433,3.02779l3.11537,0.5961c0,0 2.45416,0.47657 1.97759,2.93073l-0.00002,-0.00005c-0.47657,2.45416 -2.93073,1.97759 -2.93073,1.97759l-3.52133,-0.69267c-2.26373,-0.84535 -4.47608,-1.83768 -6.6782,-2.85478c-1.05723,4.71585 -2.26826,9.419 -3.252,14.06943c-1.93798,9.16134 -3.34944,18.64564 -5.85576,27.66591c-0.18156,0.65343 -0.36681,1.30616 -0.55537,1.95826c0.33531,0.07907 0.67011,0.15854 1.00428,0.23858c6.52626,1.56343 13.04825,3.08288 19.57942,4.55934c2.24047,-5.98551 4.37231,-12.04908 6.15981,-18.11277c1.91314,-6.48992 3.08559,-13.04434 5.41564,-19.41797l0.0155,-0.02321l-0.0057,-0.00223l1.80055,-4.60197c0.34968,-0.95883 1.26959,-1.64341 2.3494,-1.64341c1.09927,0 2.03284,0.70949 2.36775,1.69554l1.6984,4.64066l-0.15024,0.05498c1.72862,3.13455 3.19491,6.47038 3.71024,9.8143c0.04928,0.31979 -0.39642,9.88149 -0.42353,10.48318c-0.22508,4.99493 -0.45016,9.98986 -0.67525,14.98479c-0.37537,8.33003 -0.34402,16.79943 -1.13413,25.09904c-1.10241,11.58014 -3.3745,23.17401 -5.05561,34.68633c-0.43152,4.94083 -0.80311,9.92732 -1.17865,14.9337c2.93486,-13.0306 5.68741,-26.09979 7.71099,-39.25305c2.92143,-18.98931 5.02157,-38.18495 8.35733,-57.09452c1.46217,-8.28865 1.92866,-17.15919 6.46303,-24.32704l0.68766,-2.85083c0.24544,-1.12301 1.24571,-1.96375 2.44235,-1.96375c0.88153,0 1.6565,0.45626 2.10163,1.14551l1.97849,2.96774l-0.03955,0.02637c0.11369,0.16788 0.21915,0.34194 0.31508,0.52318c0.87487,1.65295 0.41656,3.71719 0.60713,5.57765c0.68809,6.71757 1.42304,13.40324 1.45798,20.15709c0.0258,4.98823 0.47951,10.25137 0.06522,15.21986c-0.64615,7.74913 -3.46052,15.34324 -3.99515,23.09646c-0.59333,8.60438 -0.32282,17.24466 -0.99268,25.88207c0.00273,7.28023 0.58979,14.23319 1.78982,21.42503l0.20281,2.26463c0,0 0.21439,2.49079 -2.2764,2.70518zM468.50004,244.39997c-0.00001,0.00288 -0.00001,-0.00288 -0.00001,0.00001zM152.75196,245.31474c8.83111,-21.58715 17.62775,-43.1698 26.0632,-64.9149c0.29967,-0.7725 0.59948,-1.54495 0.89944,-2.31734c-3.56128,0.48139 -7.14833,0.72628 -10.77041,0.63345c-8.21395,-0.21051 -17.82257,-0.29876 -24.72004,-5.58904c-0.57204,-0.43874 -1.09541,-0.93323 -1.59969,-1.44958c-5.3299,11.35863 -11.02469,22.51435 -16.81202,33.64447c-4.52814,9.34709 -9.34012,18.52066 -13.82274,27.9011c-2.02238,4.23208 -3.51452,7.89887 -5.9498,11.94794l-0.21817,0.1223l0.06873,0.06151l-2.41965,2.70374c-0.45798,0.51626 -1.12639,0.84161 -1.8708,0.84161c-1.38071,0 -2.5,-1.11929 -2.5,-2.5c0,-0.43345 0.11031,-0.84114 0.30439,-1.19652l2.28433,-4.39295c1.00413,-3.1785 3.07568,-5.91478 4.61353,-8.87217c2.79602,-5.37696 5.59075,-10.75457 8.39412,-16.12771c2.24805,-4.30877 4.49792,-8.60802 6.73374,-12.90928c1.23315,-2.55015 2.44458,-5.11363 3.62179,-7.69826c9.78174,-21.47632 18.12172,-43.73602 26.24899,-66.01352c-8.12626,3.23645 -16.39775,5.88327 -24.7317,6.93693c-8.63061,14.10903 -18.82201,27.48718 -28.16269,41.13764c-8.08271,11.80917 -15.46855,24.14341 -23.06453,36.26978c-0.90497,1.44471 -1.71676,2.95239 -2.71732,4.33262c-1.45214,2.00319 -3.80028,3.40018 -4.79556,5.66533c-0.56761,1.29182 -0.70239,2.73323 -1.05358,4.09985l-0.61296,0.33079l0.20523,0.20523l-2,2c-0.45241,0.45241 -1.07741,0.73223 -1.76777,0.73223c-1.38071,0 -2.5,-1.11929 -2.5,-2.5c0,-0.24775 0.03604,-0.48708 0.10316,-0.71304l1.30052,-4.76857c0.39138,-3.31028 1.75412,-6.43176 2.63117,-9.64764c1.31559,-4.82382 2.63051,-9.64782 3.94676,-14.47146c6.11036,-22.39246 15.30253,-43.78537 24.51794,-65.0234c3.21559,-7.41072 5.90341,-15.50212 9.80493,-22.5716c3.1845,-5.77025 7.22074,-11.25218 11.05451,-16.72449c-0.42427,0.16455 -0.85751,0.30124 -1.3045,0.39496c-2.8401,0.59551 -5.75527,-0.75435 -8.62073,-1.21254c-1.83714,-0.29376 -3.78415,-0.20907 -5.50623,-0.91321c-8.41871,-3.44231 -11.86928,-11.00046 -11.92752,-19.54898c0,0 0,-2.5 2.5,-2.5c2.5,0 2.5,2.5 2.5,2.5c-0.05528,6.52734 2.35999,12.30536 8.81294,14.91808c1.36549,0.55287 2.92059,0.38922 4.37833,0.60182c2.39305,0.34901 4.80336,1.77255 7.15426,1.20534c1.38559,-0.3343 2.54363,-1.28745 3.82817,-1.90514c1.34141,-0.64503 2.63129,-1.29577 3.88796,-1.96141c8.93116,-13.33982 17.94002,-26.4595 27.73306,-39.2227c3.54843,-3.33828 7.35438,-8.03161 11.43494,-10.68047c3.70573,-2.40555 10.06038,-4.76086 14.30395,-6.05935c1.61584,-0.49443 3.51528,-1.83957 4.97285,-0.98464c0.77453,0.4543 5.36783,9.70025 5.48361,11.06617c0.16356,1.92967 -0.81394,3.78685 -1.2512,5.67343c-0.75262,3.24726 -1.58579,6.47532 -2.37869,9.71297c-2.12956,8.69572 -4.06536,17.44158 -6.38322,26.07367c0.58106,0.58091 1.18665,1.11196 1.82849,1.56637c1.36793,0.96847 2.80087,1.47677 4.27921,1.7311c4.12923,-6.82466 8.70156,-13.40057 14.67857,-18.60405c0.83293,-0.70106 1.49342,-1.68543 2.49878,-2.10319c1.65116,-0.68612 3.68183,-1.98011 5.24688,-1.11541c1.95829,1.08197 2.30245,3.84163 3.30631,5.84109c1.58485,3.15665 1.97336,5.81224 1.92546,8.60944c3.05029,-1.61153 6.09983,-3.22051 9.23504,-4.68615c0.84488,-0.39497 3.70098,-1.76847 6.16961,-2.85164c1.8961,-4.96868 3.8538,-9.91368 6.08975,-14.68373c2.12738,-4.53844 4.79845,-8.91992 7.17524,-13.33395c2.50116,-4.64502 4.76367,-9.30438 7.71257,-13.60152c-2.2489,-0.08932 -4.49771,-0.18215 -6.74645,-0.27885c-34.84934,-1.49859 -69.96603,-0.50255 -104.83489,0.10917c-28.24136,0.49545 -56.35,2.18197 -84.51864,4.04815c-0.17973,4.90496 0.08912,9.83386 -0.01924,14.74105c-0.42479,19.23698 -1.71542,38.46637 -1.35936,57.71262c0.63485,34.31619 3.44384,68.54487 3.75567,102.85031c0.00007,14.36809 1.43892,28.62543 1.55285,42.96558c0.03468,4.36526 0.65434,8.58086 0.84407,12.92062c0.06006,1.37374 0.182,2.7618 0.00314,4.12517c-0.06975,0.53163 -0.93522,0.93596 -0.73223,1.43225c0.15733,0.38466 0.64595,-0.54545 1.03175,-0.69995c1.49919,-0.60037 3.01472,-1.19444 4.58974,-1.55126c1.7052,-0.38632 3.46817,-0.44677 5.20263,-0.66724c5.9306,-0.75385 11.85499,-1.53423 17.77861,-2.34201c22.36496,-3.0498 44.84924,-4.30285 67.37593,-4.78849c1.86129,-4.55911 3.74101,-9.11095 5.60548,-13.66854zM253.70676,38.1835c-0.03023,6.43123 -2.52348,13.77312 -3.7029,20.10797c-1.12341,6.03399 -1.99776,12.21262 -3.18714,18.27904c2.59338,1.47183 5.17013,2.98746 7.83767,4.39734c1.16718,0.6169 2.45798,1.34606 3.79458,2.02619c4.34346,-9.26113 8.79862,-18.47938 13.38711,-27.65635c1.86915,-3.73092 3.83231,-7.12364 6.26393,-10.50615v-2.43154c0,-1.38071 1.11929,-2.5 2.5,-2.5c0.69036,0 1.31536,0.27982 1.76777,0.73223l3,3l-0.04802,0.04802c0.22643,0.24621 0.43071,0.51313 0.60726,0.80595c1.0332,1.71359 0.02238,4.00225 -0.01378,6.0029c-0.09029,4.99485 -0.36708,9.9975 -0.55517,14.98972c-0.23552,6.25103 -1.38786,12.41032 -2.58856,18.55679c1.06636,-0.21013 2.11244,-0.43071 3.13038,-0.65361c1.28297,-0.28093 2.58414,-0.49681 3.88161,-0.72561c2.06542,-5.98333 4.17698,-11.95066 6.35641,-17.89456c3.33223,-9.0879 6.46404,-19.16272 11.28423,-27.5894c0.06462,-0.11296 3.09417,-4.35787 4.80877,-6.758c-20.08917,-0.4797 -40.17689,-0.95651 -60.25896,-1.67779c1.03831,3.05385 1.75001,6.21371 1.73481,9.44686zM167.57376,99.21019c-2.16883,5.84876 -4.31196,11.72148 -6.45187,17.60415c0.73374,-1.52412 1.48185,-3.03875 2.24688,-4.54199c3.02879,-5.95143 6.7226,-11.66016 10.06022,-17.44538c1.04161,-1.80546 2.08186,-3.63144 3.13873,-5.45695c-1.5422,-0.42998 -3.08341,-1.1091 -4.67321,-2.17411c-0.10447,-0.06998 -0.20796,-0.14194 -0.31052,-0.21576c-1.20009,4.11673 -2.51562,8.19945 -4.01024,12.23004zM206.30101,84.56644c-0.5917,7.45544 -1.1834,14.91089 -1.77511,22.36633c0.97896,0.23224 1.93045,0.52005 2.85888,0.85471c3.2715,-8.22191 6.551,-16.44035 9.83564,-24.65609c0.86507,-2.16376 1.70479,-4.34899 2.53791,-6.54261c-0.51665,0.29192 -1.03674,0.57073 -1.56538,0.81781c-4.01248,1.87531 -7.88321,3.98934 -11.79667,6.03963c-0.03291,0.366 -0.06503,0.73911 -0.09528,1.12023zM245.39576,83.01713c-3.22109,12.90108 -8.06583,25.61095 -12.06332,38.29637c-0.19389,0.61529 -0.38883,1.23043 -0.58463,1.84546c1.28342,0.56223 2.6089,1.04361 3.98887,1.41951c0.91714,0.24983 1.85169,0.40391 2.79583,0.50552c5.47872,-12.68769 11.10188,-25.2928 16.92275,-37.81925c-3.68168,-1.70099 -7.18429,-3.72331 -10.7088,-5.6955c-0.11372,0.48387 -0.23053,0.96655 -0.35071,1.44789zM281.52501,90.50569c-1.48799,8.11138 -2.51797,16.48705 -4.49722,24.49087c-0.66368,2.68381 -1.43441,5.35511 -2.25819,8.01753c0.56708,-0.11674 1.13472,-0.23688 1.70289,-0.36001c3.77592,-11.54829 7.54419,-23.09839 11.45834,-34.5978c-0.54067,0.11813 -0.8961,0.1957 -0.96227,0.21017c-1.68137,0.36758 -3.43138,0.72506 -5.22111,1.04322c-0.07507,0.39863 -0.14929,0.79729 -0.22243,1.19603zM318.63339,78.45947c-2.80147,12.40653 -6.35237,24.6182 -10.1021,36.78047c5.01357,-0.84352 10.04604,-1.36523 15.0878,-1.31295c5.70075,-14.16089 11.5292,-28.26849 17.31296,-42.39588c-1.82127,-0.09449 -3.66334,-0.06053 -5.53156,0.13662c-2.4029,0.25358 -4.57422,1.55877 -6.86647,2.32285c-3.10216,1.03378 -6.31287,1.87579 -9.50356,2.76326c-0.1362,0.56968 -0.26895,1.13827 -0.39707,1.70562zM354.1063,82.41843c-1.86501,12.51088 -4.36803,24.80921 -7.12201,37.07417c2.18569,0.86278 4.36058,1.7458 6.53861,2.58396c0.75217,0.28945 1.51134,0.56312 2.27622,0.82333c1.43902,-5.41133 2.80376,-10.84617 4.40299,-16.20708c2.83739,-9.51143 6.03777,-18.89456 9.41559,-28.21714c-2.70453,-0.79744 -5.5226,-1.22678 -8.2054,-2.10302c-1.9535,-0.63804 -3.90723,-1.28334 -5.86874,-1.88674c-0.51469,2.69358 -1.05417,5.36268 -1.43726,7.93252zM409.76228,119.45517c0.19939,-4.42484 1.3751,-10.12297 0.70188,-14.49148c-0.38381,-2.49052 -1.96622,-4.67146 -2.82591,-7.03738c-1.87123,5.6586 -2.95171,11.45566 -4.64253,17.18823c-1.7561,5.95389 -3.83688,11.90665 -6.02801,17.78809c3.611,0.80373 7.22584,1.59442 10.84678,2.37223v0.00001c0.2644,-0.20837 0.79509,-0.5568 1.44986,-0.61873c0.15227,-5.08001 0.27071,-10.15885 0.49792,-15.20096zM162.8857,97.47177c1.77244,-4.77979 3.30434,-9.64069 4.69074,-14.54885c-1.53961,-1.90834 -2.99937,-3.93395 -4.65508,-5.47028c-1.38013,-1.28061 -4.24003,-3.01174 -5.80143,-4.1042c-1.12259,-0.78544 -2.00361,-2.0521 -3.32404,-2.41764c-1.10418,-0.30567 -2.26097,0.37239 -3.39145,0.55858c-4.69579,4.09937 -9.59289,6.95578 -14.86204,10.2197c-4.45738,2.76108 -8.4929,5.62288 -12.89858,8.13728c-0.69907,1.04499 -1.39769,2.09138 -2.09618,3.13913c-4.52474,6.78711 -9.80895,13.4747 -13.75212,20.61021c-2.59701,4.69952 -4.63896,9.87431 -6.66776,14.98538c1.0154,-0.57643 2.20076,-0.10229 2.20076,-0.10229c6.83106,2.73862 14.04786,3.46754 21.26689,2.89747c6.38801,-10.74222 11.86889,-22.18265 17.80534,-33.16507c0,0 1.18879,-2.19927 3.38806,-1.01047c2.19927,1.18879 1.01047,3.38806 1.01047,3.38806c-5.35433,9.90551 -10.3437,20.1768 -15.94953,29.98418c6.96199,-1.22223 13.82204,-3.47016 20.23174,-6.09811c1.17897,-0.48337 2.34324,-1.00305 3.49852,-1.54494c3.0933,-8.50814 6.17237,-17.00841 9.30569,-25.45815zM175.79308,49.5183c0.72889,-2.9763 2.56991,-5.84224 2.31683,-8.89603c-0.1113,-1.34302 -1.304,-2.37109 -1.76374,-3.63787c-0.38445,-1.05933 -0.008,-2.4501 -0.75265,-3.29596c-0.35532,-0.40361 -0.717,0.83609 -1.19347,1.08534c-1.44934,0.75818 -3.01473,1.27006 -4.52227,1.90469c-2.93662,1.23624 -6.15316,1.93609 -8.82567,3.67093c-3.74064,2.42821 -7.18108,6.78686 -10.44884,9.84025c-7.41737,9.73523 -14.40757,19.6563 -21.26083,29.72256c0.41646,-0.28168 0.83505,-0.56815 1.2565,-0.85977c3.47179,-2.40229 7.35726,-4.14707 10.81381,-6.54519c2.45084,-1.70037 4.63166,-3.76081 6.98281,-5.59656c2.16935,-0.28522 4.36177,-1.28103 6.50804,-0.85566c1.92763,0.38205 3.33963,2.07243 4.99268,3.13504c1.58587,1.01943 5.10203,3.37611 6.38238,4.55735c1.02077,0.94175 1.96675,2.07331 2.90214,3.24815c2.37071,-9.11534 4.37588,-18.3453 6.61228,-27.47728zM97.18637,135.76616c-8.60968,19.84203 -16.7728,39.68147 -23.19675,60.36852c-1.78746,5.75615 -3.20185,11.66085 -4.76928,17.48561c0.64831,-0.87705 1.28491,-1.78126 1.8828,-2.73819c7.61769,-12.19236 15.05889,-24.57498 23.17695,-36.44153c8.60936,-12.58171 17.95166,-24.92997 26.10664,-37.84006c-6.62573,0.16318 -13.27786,-0.83005 -19.91517,-3.47932c0,0 -1.18312,-0.47325 -1.52215,-1.58868c-0.57635,1.42859 -1.15998,2.84384 -1.76303,4.23366zM203.72784,116.98829c0.65019,-1.63778 1.30074,-3.2754 1.95163,-4.91289c-0.50306,-0.18079 -1.01044,-0.34569 -1.52259,-0.4931c-0.14302,1.802 -0.28603,3.60399 -0.42905,5.40599zM237.57105,129.6441c-1.20459,-0.12562 -2.07256,-0.22071 -2.14849,-0.24139c-1.42836,-0.38909 -2.81979,-0.91736 -4.18373,-1.54959c-1.51789,4.68614 -3.06055,9.37047 -4.55118,14.06787c1.36792,1.32967 2.38975,3.06092 3.93411,4.15671c2.29374,-5.49342 4.60877,-10.97118 6.94929,-16.43359zM269.58859,139.01982c-3.6556,11.79761 -7.37754,23.57792 -11.00007,35.38746c0.1073,0.06012 0.2148,0.11957 0.32249,0.17832c1.3688,-3.88569 2.73423,-7.77216 4.09082,-11.66104c4.02944,-11.55105 7.86979,-23.16593 11.67776,-34.79105c-0.55134,0.10983 -1.10294,0.21799 -1.65481,0.32413c-1.15919,3.52922 -2.34701,7.04709 -3.43619,10.56218zM291.24027,173.92018c0.74423,-0.24526 1.48563,-0.48383 2.22413,-0.70949c1.40663,-0.42983 2.81696,-0.85925 4.23141,-1.28022c7.0115,-14.46959 14.35036,-28.79157 20.24341,-43.75087c1.1996,-3.04513 2.40771,-6.08668 3.62266,-9.12538c-3.31391,0.22771 -6.70867,0.80031 -9.86274,1.23761c-1.6697,0.23149 -3.32963,0.4962 -4.98205,0.787c-5.47922,17.52261 -11.18864,34.99094 -15.47682,52.84135zM341.04093,144.94028c-1.74425,8.47442 -3.24322,17.0625 -5.05761,25.54957c1.03356,0.5582 2.0615,1.1395 3.09042,1.72476c4.00798,-11.11703 7.94105,-22.26193 11.92636,-33.38698c1.31021,-3.65319 2.43756,-7.36411 3.48498,-11.10029c-0.94415,-0.31487 -1.88081,-0.64822 -2.80796,-1.00393c-1.93503,-0.74239 -3.86842,-1.53047 -5.81082,-2.30904c-1.56892,6.83454 -3.19973,13.66616 -4.82538,20.52591zM363.00785,153.07253c-2.00324,8.42783 -4.24473,16.97825 -6.26064,25.58866c2.7072,0.02697 6.12295,0.03431 6.23895,0.03486l3.21695,0.00396c0,0 2.5,0.00308 2.49692,2.50308h0.00001c-0.00308,2.5 -2.50308,2.49692 -2.50308,2.49692l-3.22596,-0.00398c-0.81527,-0.00397 -4.55049,-0.0012 -7.35915,-0.0581c-2.04123,9.21493 -3.72359,18.48449 -4.48264,27.73249c-0.33767,4.11406 -0.19392,8.36441 -0.09462,12.5567c1.99438,-3.4296 5.32344,-6.22841 7.40776,-9.78989c1.63578,-2.79506 2.59956,-5.93253 3.90676,-8.89553c9.4173,-21.34588 17.89968,-42.96794 26.35214,-64.7122c0.51799,-1.33216 1.03632,-2.67027 1.55228,-4.01342c-6.3217,-1.43141 -12.63559,-2.90187 -18.95311,-4.41473c-0.42714,-0.10231 -0.85513,-0.20383 -1.28378,-0.30491c-2.22199,7.12527 -4.72824,14.19152 -7.0088,21.27608zM358.19217,151.72746c2.25349,-7.02083 4.7351,-14.02 6.94393,-21.07652c-1.96313,-0.46685 -3.92616,-0.95092 -5.8724,-1.48409c-1.06984,3.81827 -2.21987,7.61155 -3.55651,11.34699c-4.07861,11.38548 -8.07082,22.80988 -12.16493,34.19554c2.62923,1.40107 5.32456,2.65307 8.19077,3.45161c2.06785,-8.89523 4.38311,-17.72836 6.45914,-26.43354zM367.18386,123.75794c2.93346,-10.5276 4.56867,-21.61322 6.8311,-32.30835c0.72142,-3.41033 1.60001,-6.85783 2.39216,-10.31512c-0.65305,-0.29278 -1.30777,-0.5801 -1.96523,-0.85878c-3.33572,9.20567 -6.63482,18.41705 -9.44399,27.83148c-1.60411,5.3759 -2.97798,10.82244 -4.42307,16.24654c1.99032,0.5461 4.00053,1.03638 6.00952,1.50927c0.20377,-0.70092 0.40377,-1.40258 0.59951,-2.10505zM378.11357,72.13988c0.09623,-0.72365 0.09628,-1.45494 0.05836,-2.18892c-0.67166,1.87849 -1.34881,3.75416 -2.02764,5.62868c0.44005,0.18759 0.87882,0.37913 1.31665,0.57363c0.25268,-1.33883 0.47493,-2.67716 0.65263,-4.0134zM228.56362,119.81073c3.96689,-12.58832 8.78475,-25.20295 11.98106,-38.00479c0.22495,-0.90097 0.43782,-1.80675 0.64064,-2.7164c-2.04365,-1.06224 -4.12252,-2.05626 -6.27397,-2.91297c-1.6416,-0.6618 -6.26993,-2.83397 -8.36479,-2.59033c-0.10989,0.01278 -0.21912,0.02793 -0.32774,0.04533c-1.44077,3.80471 -2.85941,7.61339 -4.35569,11.35597c-3.31318,8.28711 -6.62112,16.57697 -9.9209,24.87037c5.69101,3.09186 10.70472,7.57618 16.30713,10.9472c0.10503,-0.33142 0.2098,-0.66287 0.31426,-0.99437zM245.08832,57.37629c0.91514,-4.91534 1.80976,-9.83515 2.74552,-14.7466c0.28412,-1.49122 0.86583,-2.95166 0.87297,-4.4697c0.00559,-1.19024 -0.86846,-4.4705 -1.36738,-6.90689c-2.77829,4.18551 -5.00283,8.62349 -7.42675,13.12507c-2.33189,4.33064 -4.96018,8.62749 -7.04776,13.08019c-1.71175,3.65109 -3.25772,7.40701 -4.73788,11.19755c2.96931,0.36708 6.13056,1.88073 8.64161,2.87843c1.87108,0.75186 3.67477,1.60673 5.44301,2.52019c1.04113,-5.54827 1.85216,-11.17547 2.87666,-16.67825zM197.75211,132.07219c0.38709,-4.32646 0.45759,-8.75341 0.7955,-13.01104c0.21954,-2.76616 0.43907,-5.53232 0.65861,-8.29848c-1.01367,-0.04139 -2.04842,-0.00505 -3.10703,0.11937c-4.27153,0.50205 -9.42353,3.29201 -13.50178,4.69075c-6.29425,2.51885 -12.76336,5.54424 -19.36026,8.50546c-5.36447,11.73943 -10.05116,23.91489 -15.19848,35.67355c-1.03349,2.36094 -2.08628,4.71076 -3.15603,7.051c0.75161,0.82126 1.49409,1.65273 2.36436,2.34137c5.88359,4.65565 14.8216,4.37454 21.83201,4.57361c4.26473,0.1211 8.49416,-0.25158 12.69781,-0.93921c5.28738,-13.58263 10.6167,-27.15026 15.97528,-40.70638zM200.9211,89.15518c0.08032,-1.01203 0.15811,-2.02428 0.23569,-3.03654c-2.62371,1.31405 -7.69915,3.84746 -7.99595,3.91767c-1.7248,0.40796 -3.54478,0.01861 -5.31715,0.01093c-2.10253,-0.00911 -4.04965,0.07064 -5.9191,0.02476c-1.41587,2.42936 -2.78828,4.86783 -4.16468,7.25359c-3.2915,5.70527 -6.94082,11.33351 -9.92867,17.20205c-0.33182,0.65174 -0.66042,1.30565 -0.98602,1.96159c4.61179,-1.98811 9.34856,-3.73931 14.01173,-5.60374c4.44543,-1.52623 9.98848,-4.41763 14.64392,-4.96752c1.35139,-0.15962 2.71069,0.07218 4.06851,0.26877c0.45057,-5.67718 0.90114,-11.35437 1.35171,-17.03155zM201.71226,79.18653c0.12759,-1.45618 0.66373,-2.92288 0.42358,-4.36478c-0.23188,-1.39221 -1.3155,-2.508 -1.78967,-3.83735c-0.37878,-1.06193 -0.1574,-2.34102 -0.75508,-3.29703c-0.20529,-0.32836 -0.47757,0.61249 -0.75312,0.88459c-0.5434,0.53658 -1.13272,1.02457 -1.69908,1.53686c-4.87446,4.20833 -8.75165,9.46178 -12.22099,14.99195c0.98713,-0.03689 1.9826,-0.07199 2.98145,-0.05321c1.38024,0.02595 2.79695,0.43624 4.13983,0.1162c3.05197,-0.72736 5.5808,-2.86892 8.38707,-4.27192c0.39801,-0.19899 0.79502,-0.39956 1.19119,-0.60141c0.03101,-0.36801 0.06258,-0.73598 0.09481,-1.10389zM215.67318,182.93572c2.0566,-5.17736 4.12126,-10.35149 6.2034,-15.51826c-0.82652,0.17728 -1.6524,0.36397 -2.47777,0.55873c-1.22074,4.99254 -2.4128,9.99325 -3.72563,14.95953zM257.21006,179.41009c-0.04333,-0.02103 -0.08663,-0.04214 -0.12989,-0.06333c-0.30875,1.01596 -0.61658,2.03219 -0.92341,3.04871c0.35111,-0.99513 0.70224,-1.99026 1.0533,-2.98538zM286.48391,196.42793c0.95005,-2.17159 1.90012,-4.34316 2.85026,-6.51471c1.74422,-3.98638 3.56589,-7.93828 5.42982,-11.87127c-1.60224,0.49278 -3.21474,1.03354 -4.83841,1.57039c-1.24653,5.61017 -2.38051,11.20649 -3.44168,16.81559zM334.02668,179.00105c-2.41279,9.69347 -5.98925,19.10065 -8.36257,28.80333c-0.12848,0.52527 -0.2538,1.04839 -0.37668,1.56957c0.57299,-1.64304 1.15054,-3.26829 1.7621,-4.84478c3.48269,-8.97778 6.83352,-18.0049 10.12128,-27.05552c-0.83096,-0.44972 -1.62625,-0.96623 -2.41384,-1.49691c-0.23684,1.01035 -0.47995,2.01858 -0.73029,3.02432zM247.41104,194.30643c1.69204,-5.82812 3.43196,-11.64249 5.2002,-17.44859c-7.9343,-4.85957 -15.24232,-11.14122 -24.94334,-10.42658c-5.21789,12.90214 -10.31483,25.85516 -15.4428,38.79321c6.81618,-1.16957 13.57205,-2.98083 19.93263,-4.51308c4.03283,-0.9715 9.09983,-2.83274 13.28259,-2.81106c0.29727,0.00154 0.59267,0.01225 0.88629,0.03156c0.36985,-1.20924 0.73376,-2.41759 1.08443,-3.62546zM272.17223,113.80342c1.91634,-7.74632 2.92366,-15.85186 4.34617,-23.71316c-4.46419,0.52416 -8.99908,0.65167 -13.19114,-0.03535c-0.79843,-0.13085 -1.54583,-0.45031 -2.28662,-0.79304c-5.56265,11.96788 -10.94392,24.00772 -16.19083,36.12312c0.47781,0.02818 0.95436,0.06341 1.42868,0.11115c7.70942,0.77599 15.34511,-0.06528 22.9152,-1.41172c1.09398,-3.4115 2.12628,-6.83593 2.97854,-10.281zM280.18961,70.11035c0.75119,-6.85019 0.20425,-13.82347 0.77228,-20.69636c-1.63966,2.66309 -3.23418,5.31482 -4.65368,8.15977c-4.53225,9.0645 -8.93381,18.16928 -13.22576,27.31597c0.40133,0.10748 0.79881,0.19406 1.19036,0.25542c4.20381,0.65879 8.79219,0.41139 13.25597,-0.21475c1.01651,-4.92042 2.11983,-9.88655 2.66084,-14.82005zM314.10001,232.39999c0,-0.21812 0.02793,-0.42972 0.08042,-0.63141l0.60311,-2.53928l0.06954,0.01652l-0.02477,-0.18012c2.88597,-7.48683 4.08504,-14.70642 5.97899,-22.44932c2.37457,-9.70779 5.95165,-19.11953 8.36604,-28.81744c0.37962,-1.52483 0.74246,-3.05545 1.09194,-4.59054c-0.05377,-0.02524 -0.10772,-0.05015 -0.16185,-0.07472c-3.48379,-1.58114 -7.72409,-1.20531 -11.36176,-0.79576c-5.92515,0.62287 -11.7578,2.08682 -17.50942,3.75886c-1.82097,3.76635 -3.61735,7.54353 -5.35943,11.34454c-2.76013,6.02228 -5.31479,12.14901 -7.97013,18.21836c-0.29196,0.66734 -0.5582,1.34889 -0.81557,2.03534c6.56228,-1.28419 13.09077,-3.47665 19.33232,-4.92664c2.73971,-0.63647 5.54325,-0.98052 8.27517,-1.64963l3.50546,-0.01873c0,0 2.5,0 2.5,2.5l-0.00001,-0.00001c0,2.5 -2.5,2.5 -2.5,2.5l-2.89456,-0.01873c-2.5444,0.65074 -5.16614,0.95835 -7.72483,1.55038c-7.45394,1.72469 -15.02657,4.22418 -22.63246,5.38235c-0.31369,0.62316 -0.65993,1.22834 -1.0537,1.80725l-1.98112,4.52827c-0.37384,0.90982 -1.26879,1.55047 -2.31337,1.55047c-1.38071,0 -2.5,-1.11929 -2.5,-2.5c0,-0.26165 0.0402,-0.51391 0.11475,-0.75095l1.13138,-3.90701c0.00616,-0.03718 0.01233,-0.07435 0.0185,-0.11152c-4.37589,0.12009 -8.75462,-0.40366 -13.12,-1.97232c-1.63995,-0.60041 -3.33832,-1.06048 -4.91985,-1.80122c-2.34154,-1.09671 -4.60902,-2.79279 -6.98034,-4.23575c-2.78887,8.03671 -5.54424,16.08451 -8.23112,24.1544c-0.0766,0.23006 -0.1532,0.46012 -0.22979,0.69018c1.71232,-0.257 3.42621,-0.45466 5.13772,-0.55942c9.24442,-0.56588 17.9868,1.37157 27.09383,2.31979c8.61531,0.89702 17.43946,-0.65941 26.06218,0.08012c3.33311,0.28586 6.63783,0.85447 9.97061,1.14414c0.412,0.03589 0.82399,0.07178 1.23599,0.10766c-0.1813,-0.34622 -0.28384,-0.74019 -0.28384,-1.1581zM336.15908,143.85971c1.67077,-7.05473 3.50012,-14.11001 5.25489,-21.18106c-4.67718,-1.74525 -9.45151,-3.19808 -14.4671,-3.61126c-1.46322,3.64347 -2.9163,7.29123 -4.3556,10.94484c-5.39451,13.69375 -11.97303,26.86904 -18.44225,40.09276c4.63275,-1.22261 9.31565,-2.22747 14.06324,-2.73895c4.25139,-0.43032 9.01053,-0.73995 13.13877,0.87397c1.70526,-8.10547 3.14308,-16.29551 4.80805,-24.38029zM346.22992,101.35836c1.56439,-8.12123 2.44865,-16.44127 3.66824,-24.62249c0.17718,-1.18856 0.40534,-2.41528 0.64714,-3.66133c-1.46634,-0.36833 -2.94045,-0.69088 -4.42539,-0.94769c-5.7313,14.04423 -11.54394,28.05321 -17.22895,42.11611c4.72939,0.57615 9.26265,1.94587 13.71423,3.57431c1.32064,-5.47244 2.56479,-10.95639 3.62474,-16.45891zM352.08254,62.24913c0.00225,-0.29105 -0.22559,-1.84568 -0.49129,-3.62131c-1.17779,2.9302 -2.36201,5.85764 -3.55077,8.78311c1.14931,0.22241 2.29328,0.47801 3.43303,0.75922c0.34116,-2.01193 0.59429,-4.01091 0.60903,-5.92103zM318.12042,58.08115c0.62041,-4.48112 0.30405,-9.35116 0.45637,-13.87097c0.11227,-3.33144 0.21882,-6.66308 0.33681,-9.99433c0.0144,-0.40654 -0.00493,-1.99902 0.09292,-3.63917c-0.22405,-0.00539 -0.44809,-0.01078 -0.67214,-0.01616c-0.30441,0.38023 -0.60766,0.76107 -0.88766,1.15523c-1.87884,2.64496 -4.0558,5.09686 -5.66885,7.9118c-4.68871,8.18228 -7.70765,18.02482 -10.94558,26.85555c-1.80119,4.91235 -3.55597,9.84073 -5.27661,14.78094c4.48566,-1.61039 8.48671,-4.67274 12.93691,-6.39349c2.07699,-0.80311 4.21641,-1.48484 6.37953,-2.11815c1.2324,-4.86233 2.57193,-9.78592 3.24831,-14.67125zM302.98801,116.29281c3.88926,-12.53756 7.60157,-25.11833 10.53311,-37.90167c-1.08442,0.35409 -2.15745,0.73025 -3.21369,1.13839c-4.56842,1.76526 -8.65426,4.90135 -13.27971,6.51743c-0.07308,0.02553 -1.56903,0.35777 -3.38658,0.75791c-3.93456,11.4741 -7.71031,23.00335 -11.48049,34.53532c6.88099,-1.66961 13.8322,-3.58249 20.82736,-5.04738zM267.72284,164.57141c-1.38891,3.98154 -2.78424,7.96121 -4.18173,11.94033c1.276,0.27617 2.62662,0.2003 3.92962,0.35331c2.74758,0.32264 5.47366,1.21515 8.23435,1.03674c3.36898,-0.21773 6.69149,-1.09504 9.96346,-2.13319c4.18367,-18.13841 9.92059,-35.85981 15.49098,-53.61812c-6.9735,1.44956 -13.85762,3.22692 -20.82805,4.78401c-4.11381,12.57515 -8.25044,25.14345 -12.60863,37.63692zM255.05116,200.71537c4.01956,2.07891 7.8739,4.79002 11.90217,6.24386c4.0116,1.47854 8.11356,1.91928 12.24243,1.73594c1.5695,-9.17563 3.26657,-18.25891 5.23526,-27.36773c-2.80866,0.78849 -5.65255,1.3974 -8.53607,1.57075c-3.02555,0.18189 -6.02271,-0.69038 -9.02986,-1.06995c-1.65858,-0.20935 -3.37492,-0.16338 -4.9879,-0.5811c-2.28026,6.48749 -4.56177,12.97497 -6.82603,19.46823zM191.62197,161.3088c-1.34799,3.44346 -2.69354,6.88782 -4.03645,10.33312c0.68307,-0.15361 1.36558,-0.31341 2.04755,-0.47864c0.6852,-3.28731 1.31772,-6.59139 1.9889,-9.85448zM183.4767,182.20816c-8.44646,21.77348 -17.25437,43.38442 -26.097,64.99974c-1.00696,2.46145 -2.01391,4.9229 -3.02087,7.38434c0.47531,-0.70816 0.95058,-1.41901 1.42246,-2.13525c8.15916,-16.35497 16.11936,-32.51941 22.98777,-49.46148c2.45488,-6.05537 5.4412,-12.13078 7.4465,-18.34677c0.86059,-2.66765 1.59036,-5.40599 2.24594,-8.17921c-1.00046,0.22765 -2.00239,0.44297 -3.00598,0.64363c-0.66028,1.6981 -1.31989,3.39643 -1.97881,5.09501z" fill="#000000"/><path d="M257.69615,295.64674c-0.74443,1.07721 -1.63643,2.04179 -2.98185,2.87989c-4.02369,2.5065 -7.99283,-0.18377 -12.12549,-0.73318c-3.21663,-0.42763 -6.48095,-0.3566 -9.72476,-0.44193c-13.1941,-0.34709 -26.81392,-0.23243 -39.86165,-2.48334c-7.83744,-1.35206 -15.61208,-3.1875 -23.39068,-4.83838c-10.98417,-2.9933 -22.20587,-6.09436 -33.42271,-7.9638c-1.66429,-0.27738 -3.34457,-0.47355 -4.99161,-0.83969c-0.10976,-0.0244 -3.38792,-1.34866 -3.91439,-0.97301c-3.41604,2.43741 -3.60241,7.89451 -3.84695,11.48705c-0.52597,7.72704 -0.38575,15.45502 0.41379,23.15092c0.26015,2.5041 0.83571,4.9908 0.81788,7.50831c3.67716,10.82706 15.55449,13.13238 25.39982,14.69066c19.37632,3.06681 39.76701,1.60976 59.33244,1.60976c33.62924,0 67.21966,-0.80281 100.85002,-0.79949c17.33132,0.69153 34.60665,0.79949 51.95003,0.79949c4.96871,0 9.82996,-0.00272 14.78472,-0.39076c2.27041,-0.17781 6.38033,-0.13271 8.51062,-1.5392c3.97052,-2.62147 2.80573,-7.97695 3.00634,-11.85966c0.0109,-0.21092 0.66477,-6.5156 0.80155,-7.83771c0.00359,-4.78669 -0.34195,-9.67664 -0.77065,-14.43647c-0.09875,-1.09639 -1.16536,-3.6332 -2.08794,-4.13547c-1.40867,-0.7669 -7.48548,-0.91584 -8.66439,-0.98473c-2.88916,-0.16881 -5.7413,-0.80362 -8.63283,-0.92518c-3.26451,-0.13724 -6.51902,0.47142 -9.78404,0.59592c-15.98455,0.60951 -32.03159,-0.68431 -48.03795,-0.68782c-13.25412,-0.7884 -26.5334,-1.90543 -39.82254,-1.59643c-4.58254,0.10655 -9.19389,0.48187 -13.80677,0.74425zM259.98355,290.5177c3.8122,-0.24502 7.61971,-0.52589 11.40315,-0.61386c13.37822,-0.31107 26.74512,0.79768 40.08782,1.5973c15.89354,-0.00359 31.82679,1.29582 47.69816,0.68923c0.45959,-0.01757 9.90077,-0.60662 10.18045,-0.59533c2.92148,0.11794 5.80351,0.75522 8.72216,0.92966c2.9096,0.17389 8.5256,0.20507 11.08007,1.77457c4.74935,2.91806 4.03949,8.24292 4.40394,12.75506c0.27639,3.42199 0.73521,6.83984 0.73748,10.27298c-0.26443,2.6138 -0.66667,5.21687 -0.80169,7.84054c-0.3058,5.9424 0.51169,11.70493 -5.16248,15.71923c-5.25473,3.71756 -15.04725,2.8117 -21.13256,2.8129c-19.0421,0.00375 -38.02132,-0.03743 -57.04997,-0.80049c-33.59693,0.00339 -67.15418,0.80049 -100.75008,0.80049c-21.681,0 -43.5862,0.98683 -65.05106,-2.45074c-10.79773,-1.72925 -21.01201,-7.12154 -24.61664,-18.04877c-0.01662,-2.60657 -0.58468,-5.18043 -0.85362,-7.77314c-0.82763,-7.97886 -1.01693,-16.02899 -0.43013,-24.04c0.39788,-5.43186 1.21077,-12.49201 6.66854,-15.64056c2.53033,-1.45973 9.36277,0.9654 11.89392,1.38725c11.33663,1.88942 22.6791,5.00689 33.77736,8.0362c7.65309,1.61978 15.29997,3.42721 23.00922,4.7616c6.45577,1.11743 13.05826,1.63699 19.67821,1.92097c-0.13909,-0.33635 -0.20963,-0.75054 -0.16714,-1.26037c0.20761,-2.49136 2.69898,-2.28375 2.69898,-2.28375l4.61725,0.38477c3.95406,0.32953 7.90949,0.68139 11.8641,1.03033c-0.05335,-0.1698 -0.10646,-0.33669 -0.16124,-0.49799c-1.00971,-2.97305 -0.54141,-9.64767 -3.31128,-11.95533c-0.30626,-0.25516 -0.21553,0.79476 -0.47473,1.09761c-0.59988,0.7009 -1.26962,1.36893 -2.05315,1.85595c-1.56353,0.97184 -3.21364,1.82479 -4.93186,2.48571c-1.25628,0.48323 -2.66706,1.38613 -3.93103,0.92341c-5.91166,-2.16415 -4.32566,-8.16761 -4.32566,-12.83309c0,0 0,-2.5 2.5,-2.5c2.5,0 2.5,2.5 2.5,2.5c0,1.6 0.04322,3.20058 0,4.79999c-0.02027,0.75018 -0.30148,1.50112 -0.19031,2.24329c0.27454,1.8327 0.95054,0.56507 1.53359,0.247c1.31013,-0.71472 2.74922,-1.19168 4.01243,-1.98638c1.68996,-1.06318 3.58475,-4.63673 6.1278,-3.7743c4.72465,1.60228 5.53961,6.80681 6.42914,10.66995c0.35683,1.54969 0.57753,3.12762 0.87326,4.69013c0.0708,0.3741 -0.11189,0.94471 0.22632,1.11957c2.96618,1.53354 3.48745,-0.48569 5.63034,-2.28491c4.81661,-4.04415 12.94047,-10.99263 17.13195,-1.07152c0.66036,1.56305 0.19923,3.32945 -0.09101,5.06487zM245.59682,290.81588c3.08861,0.16945 6.19027,0.12413 9.29455,-0.01246c0.04618,-0.07577 0.09294,-0.15112 0.1406,-0.22582c0.12154,-1.11977 0.66761,-2.27448 0.36463,-3.35932c-0.75923,-2.71852 -1.92417,-2.19615 -3.37745,-1.33542c-1.84322,1.09168 -4.52236,3.4468 -5.95306,4.54584c-0.15926,0.12234 -0.31534,0.25218 -0.46927,0.38718z" fill="#000000"/><path d="M-25.89999,102.39999c0,-1.38071 1.11929,-2.5 2.5,-2.5c1.38071,0 2.5,1.11929 2.5,2.5c0,1.38071 -1.11929,2.5 -2.5,2.5c-1.38071,0 -2.5,-1.11929 -2.5,-2.5z" fill="#000000"/><path d="M-30.89999,5.39999c0,-1.38071 1.11929,-2.5 2.5,-2.5c1.38071,0 2.5,1.11929 2.5,2.5c0,1.38071 -1.11929,2.5 -2.5,2.5c-1.38071,0 -2.5,-1.11929 -2.5,-2.5z" fill="#000000"/><path d="M-70.89999,-2.60001c0,-1.38071 1.11929,-2.5 2.5,-2.5c1.38071,0 2.5,1.11929 2.5,2.5c0,1.38071 -1.11929,2.5 -2.5,2.5c-1.38071,0 -2.5,-1.11929 -2.5,-2.5z" fill="#000000"/><path d="M266.81831,89.52694c0.13474,-0.09791 0.26921,-0.19747 0.40372,-0.29728c-0.29627,-1.75729 -0.63959,-3.49067 -1.54813,-4.96906c-0.00945,0.00342 -0.0189,0.00684 -0.02834,0.01027c-2.23488,0.81068 -3.69755,2.98951 -5.56751,4.45755c-4.17056,3.21653 -5.82985,6.48739 -8.57607,10.95185c-4.08751,6.64495 -7.31753,14.47285 -8.26885,22.22482c-0.38871,3.16751 -1.0907,6.30706 -1.22055,9.49569c-0.04314,1.0592 -0.25818,2.25885 0.28845,3.16712c0.26248,0.43614 1.02433,-0.04173 1.51812,-0.16535c2.70068,-0.6761 5.14596,-2.28568 7.31479,-4.03123c0.94935,-0.76407 1.8451,-1.55575 2.69378,-2.37292c-5.66809,-2.37197 -4.01946,-7.46227 -3.55238,-11.59812c0.63916,-5.65955 2.5768,-9.92987 4.75351,-15.14836c0.15147,-0.19668 1.40024,-1.8251 2.77596,-3.60674c0.57202,-1.61566 1.28712,-3.11823 2.10001,-4.40881c0.73041,-1.15964 2.04628,-1.82369 3.06941,-2.73554l0.65801,-0.66859c0,0 1.54216,-1.54216 3.18608,-0.3053zM256.73487,109.64576c-0.36503,0.89706 -0.68954,1.80775 -0.93687,2.74451c-0.74647,2.82722 -1.51067,5.77261 -1.24027,8.68419c0.08219,0.88504 0.41668,2.10195 1.27205,2.34357c0.71738,0.20264 1.92597,-0.47803 3.2022,-1.4583c0.76532,-1.06068 1.48851,-2.14853 2.17947,-3.26034c-2.03518,-0.82175 -2.28051,-3.88025 -3.32664,-5.85309c-0.52088,-0.9823 -0.89874,-2.06105 -1.14994,-3.20053zM265.49626,122.59975c-1.25675,2.5108 -2.77776,5.53793 -2.86814,5.66201c-3.14263,4.31459 -7.66123,7.71801 -12.26833,10.21434c-4.70023,2.54679 -5.69688,4.10266 -11.44945,2.09019c-1.78119,-0.62313 -3.10628,-2.14453 -4.62661,-3.26235c-1.53359,-1.12758 -3.4659,-1.89653 -4.53337,-3.47255c-1.14824,-1.69527 -1.19807,-3.91589 -1.79711,-5.87384c-0.08299,-4.37603 -0.74815,-9.47142 -0.4123,-13.97872c-0.67047,0.8951 -6.01753,8.03422 -6.17844,8.19418c-3.46864,3.44805 -8.3916,6.24859 -12.32779,9.16429c-4.88458,3.61821 -9.85321,8.38872 -15.21639,11.24574c-0.21975,0.11707 -9.16621,3.68869 -9.57461,3.85205c-6.5451,2.61804 -12.51845,5.4796 -19.55636,6.27507c-1.72125,0.187 -3.42567,0.37355 -5.12595,0.54061c0.92171,1.13947 1.84342,2.27894 2.76512,3.4184c2.6765,3.30884 6.29394,6.72286 8.40764,10.42875c3.29325,5.77396 5.54138,12.50631 8.22594,18.59132c1.34547,3.04973 2.89596,6.01701 4.0364,9.14918c0.78278,2.14987 2.92364,4.44741 2.03432,6.55544c-0.88933,2.10803 -4.02893,2.17787 -6.11506,3.11742c-7.53723,3.3946 -15.67698,5.84476 -23.42494,8.73339c-1.67474,0.55059 -3.267,1.79337 -5.02423,1.65176c-0.70661,-0.05695 -8.88853,-4.21233 -9.92889,-4.73251c-0.48412,-0.24206 -9.08734,-4.53043 -9.31856,-4.70247c-0.23123,-0.17204 -6.81088,-7.18015 -7.18184,-7.5743c-5.71139,-6.06832 -11.42278,-12.13663 -17.13417,-18.20495c-0.38022,-0.40399 -6.97136,-7.38883 -7.13214,-7.63733c-2.0346,-3.14457 -3.34001,-7.13918 -4.28208,-10.98154c-0.21454,0.28419 -0.52646,0.55054 -0.97085,0.77274c-2.23607,1.11803 -3.3541,-1.11803 -3.3541,-1.11803c-3.52244,-7.11368 -3.60901,-14.88391 -2.92949,-22.69212c0.05758,-0.66163 0.87439,-10.16156 0.98358,-10.50349c0.10997,-0.34439 4.94857,-8.55489 5.28581,-9.12967c0.13188,-0.22477 0.26376,-0.44954 0.39563,-0.67431c1.25088,-4.26955 2.48745,-8.54405 3.76709,-12.80484c0.53171,-1.77043 0.72658,-3.68606 1.62246,-5.30301c0.11819,-0.21332 3.08343,-3.56764 5.11021,-5.85157c-6.27079,-7.91597 -12.52164,-15.84882 -18.75354,-23.7998c-0.19346,-0.24216 -0.34286,-0.52107 -0.43603,-0.82459c-0.24867,-0.70899 -0.32238,-1.76671 0.81998,-2.68002c0.02133,-0.01724 0.04295,-0.03413 0.06484,-0.05067c1.16014,-0.88606 2.16915,-0.55722 2.79624,-0.14541c0.26764,0.16166 0.50252,0.37209 0.69234,0.61896c6.0346,7.69924 12.08697,15.38147 18.15804,23.04781c2.74277,-3.32467 5.57794,-7.19632 8.76509,-9.7519c3.77014,-3.02304 9.23079,-5.1651 13.46522,-7.51578c7.41715,-4.11751 14.82332,-8.25493 22.27113,-12.31676c13.45129,-2.06422 26.73888,-4.44088 40.35743,-4.44088c4.57415,0 9.81064,-0.65921 14.33765,0.02291c0.24545,0.03698 9.53414,2.6246 9.96664,2.74474c5.44617,1.51283 8.53894,2.31488 13.13964,5.69151c1.20842,0.88691 2.87153,1.35878 3.63329,2.64975c1.00956,1.71093 0.93144,3.86277 1.35481,5.80371c0.81863,3.75301 1.49396,7.26322 1.8207,10.92761c1.2917,-2.42691 2.75723,-5.17261 2.84728,-5.34023c3.30117,-6.14472 8.16745,-10.73573 14.65068,-13.27943c1.48011,-0.58072 2.89937,-1.71923 4.48625,-1.62028c1.06553,0.06644 6.98269,2.92115 8.70374,3.73089c0.20971,0.2623 6.19611,7.6278 6.424,8.35749c0.06379,0.20426 0.09901,1.57789 0.11802,3.28505c2.678,1.72022 4.98468,5.06865 5.63539,7.71147c0.45645,1.85381 -0.17424,3.81459 -0.29618,5.71987c-0.42883,6.70061 -3.10167,13.8266 -6.44506,19.72431c-2.22657,3.92765 -5.21832,7.45906 -8.48061,10.5704zM270.46022,78.19248c-0.05457,-0.32981 -0.12824,-0.65703 -0.2249,-0.98114c-0.73374,-2.46026 -3.23465,-3.98927 -4.77595,-6.04247c-1.94326,-0.7878 -3.6084,-2.47511 -5.69628,-2.66913c-0.9326,-0.08666 -1.65835,0.87502 -2.51755,1.24788c-2.63185,1.14211 -4.93698,2.55104 -6.93107,4.31351c1.50017,-0.07686 9.51631,-0.33587 10.31306,-0.02019c1.80645,0.71573 3.11883,2.31961 4.63857,3.53037c0.57988,0.46198 1.21266,0.87911 1.83234,1.30912c0.63964,-0.10148 1.28083,-0.19584 1.91418,-0.31245c0.47745,-0.0879 0.96216,-0.23623 1.44761,-0.37549zM261.49256,80.8826c-0.79076,-0.79187 -1.505,-1.69791 -2.52005,-2.12353c-0.91477,-0.38357 -1.98055,0.14609 -2.97247,0.14093c-1.35949,-0.00707 -2.74617,-0.46637 -4.07465,-0.17756c-0.56111,0.12198 -0.71556,0.90149 -1.12185,1.30726c-3.69708,3.69239 -6.67085,6.01453 -9.16852,10.64902c-1.08025,2.00443 -2.19961,4.07451 -3.27086,6.19686c-0.40351,2.01969 -0.71613,4.05085 -1.0084,6.00592c-1.12609,7.53263 -1.68995,14.63576 0.34581,21.83797c0.22554,-1.2596 0.44311,-2.42996 0.56995,-3.43285c1.61448,-12.76549 8.55702,-28.39406 18.71899,-36.49102c1.5483,-1.21552 2.91364,-2.76212 4.50205,-3.91299zM275.1006,88.64761c0.29249,0.23155 0.53942,0.4934 0.74711,0.78108c0.08185,-0.58134 0.11063,-1.15982 -0.00438,-1.73146c-0.17022,-0.84604 -0.42235,-1.54963 -0.74178,-2.12956c-0.00081,0.40464 -0.00155,0.69682 -0.00155,0.83233c0,0.11253 0.0005,1.01709 0.0006,2.24762zM232.87233,126.05765c0.01378,0.39483 0.02334,0.785 0.02729,1.16953c0.31669,1.24714 0.20015,2.69582 0.95006,3.74142c0.72573,1.01188 2.02635,1.42665 3.0884,2.0989c-0.03534,-0.44623 -0.05098,-0.90132 -0.05033,-1.36205c-1.85299,0.31294 -2.60895,-1.57697 -2.60895,-1.57697c-0.50533,-1.27974 -0.98052,-2.64886 -1.40648,-4.07083zM268.49271,94.40279c-0.06754,0.0482 -0.1359,0.09504 -0.20527,0.14024c-1.06893,0.6965 -2.36097,1.07435 -3.30153,1.93637c-0.81655,0.74836 -1.53062,1.59066 -2.1989,2.47512c-1.54202,3.6908 -1.45286,8.13073 -0.33314,11.86108c0.31547,1.05099 -0.31342,2.63375 0.60379,3.23611c0.49191,0.32305 0.92868,-0.36568 1.33783,-1.00294c0.80252,-1.54979 1.57762,-3.13171 2.34766,-4.73854c0.45522,-1.11349 0.8825,-2.23704 1.27299,-3.37383c0.53005,-2.57036 1.40698,-5.11932 1.24848,-7.72343c-0.05919,-0.97241 -0.4153,-1.89108 -0.77191,-2.81016zM120.52633,131.29822c-1.40757,2.01498 -2.87333,3.98959 -4.39195,5.92911c1.95382,4.34646 5.31154,8.27432 9.31276,9.61984c2.92594,0.98393 4.06676,2.27923 6.93137,0.87105c1.19677,-0.58831 2.29665,-1.31305 3.31909,-2.13877c-2.60807,-4.64194 -3.23297,-10.52638 -3.44692,-15.71192c-0.0085,-0.20605 -0.02322,-0.41259 -0.04101,-0.61938c-1.52752,1.44901 -3.2719,2.60723 -5.3423,3.16116c-2.45564,0.65699 -4.81045,0.4027 -6.34104,-1.11107zM107.50347,147.33332c-1.76768,0.34512 -3.66457,1.7832 -5.30303,1.03537c-8.58764,-3.91955 -3.76481,-15.92884 -0.94501,-21.75921c3.70725,-7.66531 7.54945,-15.27608 13.19916,-21.44854c-1.22442,-1.53779 -2.44807,-3.07619 -3.67095,-4.61522c-1.45785,2.48056 -2.92054,4.95833 -4.37647,7.43978c-2.28998,3.90297 -4.57997,7.80595 -6.86995,11.70892c-1.03205,3.54124 -2.05993,7.08427 -3.12797,10.61416c-0.59832,1.97747 -1.32853,4.13052 -0.84762,6.13977c1.31349,6.53597 2.63495,13.07041 3.94047,19.60798c0.85399,4.27649 2.04978,9.53677 4.46682,13.27242c1.72936,2.67281 4.39334,4.60842 6.5752,6.92663c5.71139,6.06832 11.42278,12.13663 17.13417,18.20495c2.18456,2.32108 3.96824,5.08699 6.5255,6.98966c2.55726,1.90267 5.71906,2.81634 8.56998,4.2418c1.49071,0.74536 2.99899,1.45657 4.47214,2.23607c1.18095,0.62489 2.1577,1.8464 3.48752,1.9757c1.09385,0.10636 2.00715,-0.89591 3.01072,-1.34387c6.24665,-2.3289 12.4933,-4.65781 18.73995,-6.98671c1.56166,-0.58223 3.07487,-1.31624 4.68499,-1.74668c1.05513,-0.28207 2.83038,0.63036 3.25492,-0.37594c0.42453,-1.0063 -1.46783,-1.64114 -2.00209,-2.59374c-2.39579,-4.27179 -4.07664,-9.24039 -6.0546,-13.72377c-1.93098,-4.37689 -3.55468,-9.26513 -5.90147,-13.43081c-1.97297,-3.50213 -5.50265,-6.76794 -8.02674,-9.88837c-1.6402,-2.02771 -3.2804,-4.05542 -4.9206,-6.08313c-1.32881,0.07327 -2.66419,0.12109 -4.0121,0.1345c-2.77548,0.02761 -5.69791,0.29706 -8.23546,-1.34762c-1.07158,-0.69453 -1.84279,-1.73774 -2.60339,-2.79054c-1.30181,1.03145 -2.70841,1.9051 -4.24608,2.55489c-9.16831,3.87438 -17.01573,-3.69306 -21.44506,-11.15884c-1.7658,2.10669 -3.59254,4.1744 -5.47294,6.21036zM121.49833,99.00756c1.21394,-0.83049 7.72778,-5.35454 8.95734,-5.74688c1.20282,-0.38381 2.36525,-0.65112 3.4828,-0.76279c0.24898,-0.30736 0.50039,-0.61236 0.75465,-0.91459c3.04671,-3.62148 6.46009,-7.0017 9.66992,-10.47901c0,0 1.6957,-1.83701 3.53271,-0.14131c1.83701,1.6957 0.14131,3.53271 0.14131,3.53271c-2.81179,3.0461 -5.78607,6.01471 -8.52042,9.1439c1.04947,0.64272 2.03306,1.56667 2.94455,2.8261c1.16151,1.6049 0.95281,3.84671 1.36438,5.7846c0.33284,1.56721 1.01865,3.13235 0.86816,4.72743c-0.45511,4.82379 -3.50072,10.10371 -6.20164,14.10733c-0.42925,1.51967 -0.86417,3.03758 -1.20339,4.60106c2.39695,2.97864 4.79696,5.95512 7.20011,8.92952c0.46297,-0.7071 0.92231,-1.40416 1.38323,-2.08167c7.52143,-11.05573 13.13271,-22.80169 12.24956,-36.60615c-0.28422,-4.44259 -3.2889,-10.29205 -5.62821,-13.98081c-0.7226,-1.13944 -1.06544,-2.58544 -2.08447,-3.46979c-0.55635,-0.48282 -1.47093,-0.11673 -2.19629,-0.24519c-1.49326,-0.26445 -2.93689,-0.89462 -4.45291,-0.93236c-2.58097,-0.06424 -4.97108,1.03202 -7.31535,1.88314c-4.87448,1.76975 -8.57315,2.86453 -12.65398,6.09899c-2.50335,1.95667 -5.44456,3.44425 -7.5372,5.8351c-0.99497,1.13675 -1.49677,2.62459 -2.25521,3.93109c-0.16827,0.28988 -0.33673,0.57965 -0.50535,0.86933c1.51998,1.91424 3.04115,3.82751 4.56351,5.73982c1.084,-0.93402 2.22873,-1.81941 3.44219,-2.64957zM123.62289,126.64696c-0.08797,0.56488 0.02668,0.99873 0.55676,1.14886c1.91909,0.54352 3.99247,-1.15686 5.77042,-3.25802c-0.97295,-1.21139 -1.94539,-2.42314 -2.91734,-3.63525c-1.08331,1.95355 -2.22122,3.86706 -3.40984,5.74442zM133.93153,118.89873c0.01685,-0.02402 0.03373,-0.04813 0.05065,-0.07231c0.50578,-1.82594 0.94866,-3.67968 1.12848,-5.65695l-0.01065,-0.76947c0,0 0,-2.5 2.5,-2.5c0.50537,0 0.90857,0.10216 1.23028,0.26517c0.44316,-1.19948 0.75826,-2.39533 0.87609,-3.5429c0.11794,-1.14867 -0.56402,-2.24083 -0.78042,-3.37508c-0.25385,-1.33056 0.03728,-2.83551 -0.62943,-4.01462c-0.4946,-0.87473 -1.2094,-1.38131 -2.01446,-1.6309c-1.20876,1.57929 -2.37782,3.19673 -3.55918,4.80312c1.21396,3.90483 -1.57358,10.39859 -3.16185,13.65756c1.14137,1.4245 2.28343,2.84849 3.42619,4.27199c0.3823,-0.58652 0.70214,-1.08587 0.94431,-1.4356zM103.06885,137.50663c-0.18387,1.10656 -1.97144,7.51541 1.8277,5.56008c1.81818,-2.26033 3.69689,-4.50316 5.55785,-6.7677c-0.44916,-0.8213 -0.8977,-1.64282 -1.09302,-2.5485c-0.31979,-1.48288 -0.04091,-3.03366 -0.06136,-4.55049v-0.80002c0,0 0,-2.5 2.5,-2.5c2.5,0 2.5,2.5 2.5,2.5v0.80002c-0.01233,0.69305 0.03056,1.41316 0.12481,2.1494c1.59714,-2.06141 3.13548,-4.16241 4.55983,-6.33063c0.49406,-3.35266 2.13971,-7.47126 3.21545,-10.15117c-0.03771,-0.04715 -0.07541,-0.0943 -0.11312,-0.14146c-4.88825,4.96246 -10.0162,9.73863 -14.91919,14.64163l-0.00001,0l0,0l-2.70136,2.70133c-0.5889,1.66441 -1.06135,3.41408 -1.39757,5.43751zM149.19321,73.32912c1.34215,0.29029 2.91693,0.14683 3.99791,0.99365c3.63106,2.84452 5.9697,9.08358 7.36173,13.23008c0.86163,2.56656 2.31198,5.02046 2.52557,7.71935c1.18555,14.9804 -4.91102,28.07784 -13.07238,40.0742c-0.72909,1.07169 -1.46423,2.19958 -2.22001,3.34699c2.66055,3.28913 5.32111,6.57826 7.98166,9.86738c2.78494,-0.21451 5.55712,-0.51472 8.37963,-0.82136c6.5322,-0.67688 12.16257,-3.51596 18.23944,-5.9467c2.99576,-1.1983 6.14244,-2.06783 8.99492,-3.57576c5.16345,-2.7296 9.97791,-7.41671 14.67689,-10.89743c3.7404,-2.77067 8.48115,-5.41433 11.77893,-8.69254c2.27871,-2.26519 3.83359,-5.15736 5.7625,-7.72698c2.79275,-3.72039 4.94189,-7.44892 7.3212,-11.44078c0.74122,-1.24358 1.79627,-2.3363 2.26402,-3.70638c0.82219,-2.40825 -0.11038,-5.08852 -0.12153,-7.63322c-0.00982,-5.06467 -1.04971,-9.36115 -1.93455,-14.32643c-0.23672,-1.32833 0.04883,-2.82259 -0.60635,-4.00209c-0.44104,-0.794 -1.61854,-0.83529 -2.36671,-1.35025c-1.26487,-0.87059 -2.3053,-2.0742 -3.65972,-2.79764c-3.53129,-1.88619 -8.89861,-2.41711 -12.74787,-3.49619c-6.0462,-1.69495 -11.8773,-1.24701 -18.14848,-1.24701c-13.10018,0 -25.79138,2.4062 -38.75721,4.17789c-4.67206,2.64876 -9.3666,5.25774 -14.06427,7.86105c2.83913,-0.29885 5.67808,-0.20171 8.41469,0.39019zM137.57159,134.00698c0.28943,2.63541 0.79986,5.41495 1.76246,7.91955c0.78752,-0.94821 1.53069,-1.94312 2.24478,-2.95693c-1.33671,-1.65356 -2.67245,-3.30777 -4.00724,-4.96262zM143.92907,148.28254c1.22993,0.87396 4.11652,0.60314 5.51693,0.58288c0.04517,-0.00065 0.09032,-0.00134 0.13546,-0.00207c-1.58102,-1.95454 -3.16203,-3.90909 -4.74305,-5.86363c-0.89198,1.2244 -1.8288,2.41855 -2.82861,3.53686c0.56777,0.65081 1.20459,1.23812 1.91927,1.74596zM93.12508,149.71892c0.19273,1.67735 0.51048,3.33251 0.99603,4.95003c-0.33268,-1.64987 -0.66457,-3.29991 -0.99603,-4.95003z" fill="#dd0000"/><path d="M368.1097,121.25144c-0.04839,-0.00968 -0.09563,-0.02012 -0.14176,-0.03129c-0.972,1.03859 -1.98335,2.00675 -3.0287,2.88954c-0.10053,0.0849 -0.19989,0.17165 -0.29835,0.25982c-1.12314,1.87387 -2.326,3.70984 -3.58323,5.51983c-1.1818,1.7014 -2.73905,3.13285 -4.42175,4.38197c0.17256,0.74138 0.19426,2.0087 -1.31785,2.76476c-1.04386,0.52193 -1.84406,0.31291 -2.40062,-0.05835c-0.70301,0.55115 -1.43377,1.02242 -2.29073,1.08562c-6.56749,0.4844 -7.08353,-1.95676 -10.17672,-6.36796c-1.0787,-1.53833 -2.49668,-2.91667 -3.13657,-4.68319c-0.63989,-1.76651 -0.40638,-3.7357 -0.59035,-5.60551c-0.0549,-0.55797 -0.92858,-10.15005 -0.89971,-10.43594c0.18335,-1.81568 1.01333,-3.50636 1.53041,-5.25648c1.60332,-5.42671 2.83345,-9.66323 5.98538,-14.40319c1.32802,-1.9746 2.53146,-3.7857 3.80746,-5.49347c0.29924,-0.72499 0.61817,-1.45893 0.9552,-2.20878c0.77214,-1.71791 1.13408,-3.70269 2.35657,-5.1355c1.3946,-1.63454 3.17594,-3.14602 5.23451,-3.76159c1.42065,-0.42481 2.6578,-0.58291 3.75087,-0.5241c5.6179,-2.91757 14.8576,-3.63684 19.30589,1.87187c1.21819,1.50859 1.33395,3.64194 1.94962,5.48063c0.56649,1.69182 1.50058,3.3273 1.59617,5.10888c0.02263,0.42169 -1.85328,9.69754 -2.00515,10.44709c-1.34308,6.62843 -4.47796,13.82512 -8.75259,19.76297l-0.48626,2.43123c0,0 -0.4903,2.45145 -2.94175,1.96115zM375.22993,96.86416c0.05496,-0.24571 0.10748,-0.49515 0.15746,-0.74866c0.60378,-3.06201 2.07772,-6.04769 1.91718,-9.16452c-0.06992,-1.35744 -0.93734,-2.55255 -1.35421,-3.84628c-0.42801,-1.32834 -0.38753,-2.8681 -1.17954,-4.01718c-1.74024,-2.52484 -2.92193,-1.80808 -5.17083,-1.78753c-1.50909,0.01379 -3.0374,-0.28581 -4.52723,-0.04511c-0.01081,0.00175 -0.02162,0.00352 -0.03242,0.00533c1.26282,1.51941 2.31114,3.44271 3.43846,5.39902c0.93445,1.62162 2.24573,3.0893 2.76265,4.88809c0.12148,0.42274 0.19522,0.85332 0.23803,1.28896c1.23235,0.28319 2.37696,1.24291 3.3247,3.1841c0.71312,1.46063 0.589,3.16995 0.42574,4.84378zM357.58391,106.25568c-0.52725,0.84445 -0.97284,1.71017 -1.30394,2.58896c-0.52102,1.38285 -0.33193,2.93688 -0.51631,4.40308c-0.04074,0.32396 -1.15475,7.6137 -0.8219,8.53104c0.32089,0.88438 1.46089,1.18582 2.19133,1.77874c1.25546,-0.47852 2.40484,-1.11882 3.46402,-1.88178c0.42023,-0.66725 0.82561,-1.35735 1.21511,-2.0658c-0.83413,-0.57855 -1.67183,-1.45566 -2.52725,-2.67698c-1.12721,-1.60937 -0.91212,-3.82287 -1.317,-5.74555c-0.25644,-1.21776 -0.7671,-2.43304 -0.66647,-3.67344c0.01267,-0.15615 0.11892,-0.61625 0.28241,-1.25827zM364.73321,91.98407c0.60905,-0.58535 1.24506,-1.13521 1.89382,-1.6099c-0.00639,-0.49044 -0.05562,-0.97454 -0.19107,-1.44588c-0.40383,-1.40527 -1.53128,-2.49147 -2.27604,-3.74971c-1.10656,-1.86949 -1.96678,-4.50395 -3.72663,-5.54502c-1.46885,1.16529 -2.81716,2.51424 -3.9976,3.49319c-2.03976,1.6916 -3.58808,3.41591 -5.00086,5.27169c-0.84694,1.87451 -1.48668,3.4314 -1.97021,6.02088c-1.35124,7.23644 -0.87466,14.85747 0.80168,22.19716c0.34926,-2.70962 1.27461,-9.37507 1.33476,-9.53472c1.82213,-4.83619 6.27596,-9.3497 10.10838,-12.56633c0.99288,-0.83334 1.95178,-1.78613 3.02377,-2.53137zM344.08753,100.92655c-0.68959,1.94166 -1.25488,3.96588 -1.94484,6.22521c-0.4406,1.44278 -1.19304,2.82039 -1.34461,4.32132c-0.31901,3.15912 0.64595,6.31788 0.90462,9.48251c0.11853,1.45012 -0.18371,2.98574 0.31182,4.35371c0.49553,1.36797 1.7327,2.33887 2.54878,3.5434c1.41544,2.0892 1.89903,4.83039 5.21005,4.28399c0.20771,-0.03428 0.39343,-0.11672 0.56565,-0.22929c-0.95252,-1.71309 -1.88603,-3.43421 -2.50038,-5.28662c-0.07508,-0.22639 -2.03771,-9.67895 -2.12558,-10.10071c-0.03557,-0.17073 -1.99175,-9.52436 -2.00629,-9.73693c-0.0093,-0.1359 0.20821,-3.91013 0.38077,-6.85659zM366.75627,96.66369c-0.01109,0.00889 -0.02217,0.0178 -0.03323,0.02674c-0.82261,1.00703 -1.50285,2.12661 -2.26459,3.18176c-0.68333,2.61448 -1.89914,5.12419 -2.15991,7.81388c-0.08315,0.85762 0.41573,1.67347 0.57234,2.52075c0.27065,1.46416 0.40883,3.86808 1.15577,4.78584c1.27935,-3.06999 2.26826,-6.28478 2.89961,-9.35408c0.53373,-2.59472 0.13737,-5.93648 -0.16999,-8.97488zM354.49373,129.49696c0.50288,-0.42493 0.93355,-0.82869 1.32908,-1.24247c-0.77366,-0.57779 -1.64727,-1.07099 -2.48291,-1.59633c0.36785,0.95818 0.75301,1.90503 1.15383,2.8388z" fill="#dd0000"/><path d="M449.08202,130.63607c-2.23607,-1.11802 -1.11805,-3.3541 -1.11805,-3.3541l0.16392,-0.32784c2.26508,-4.49568 3.19815,-8.65478 4.46562,-13.51179c0.3721,-1.42591 1.13047,-2.79494 1.15124,-4.26846c0.02076,-1.47351 -0.71161,-2.86046 -1.03052,-4.2992c-0.31458,-1.41921 -0.21975,-2.97308 -0.86965,-4.27337c-0.1937,-0.38755 -0.40532,-0.74677 -0.63312,-1.07952c-0.33024,8.18415 -2.06727,16.80147 -6.06722,23.90564c-2.7826,4.94208 -3.99262,7.29545 -8.55613,10.81565c-1.26294,0.97421 -2.33877,2.30427 -3.83138,2.8666c-2.57791,0.97121 -9.06511,1.21081 -11.66466,-0.06863c-0.71019,-0.34954 -1.31132,-0.85665 -1.868,-1.42701c-6.46531,3.59235 -15.27521,5.87269 -18.55748,-2.31683c-0.70474,-1.75839 -0.43754,-3.76376 -0.60895,-5.65035c-0.13637,-1.50093 -0.64129,-3.0392 -0.31423,-4.51039c0.41123,-1.84979 1.62436,-3.42424 2.45664,-5.12663c1.93341,-3.95473 3.76253,-7.35128 6.23122,-10.53444c0.22897,-2.87841 0.11016,-5.83181 0.9697,-8.57859c1.78727,-5.71145 5.51574,-11.51214 9.48563,-15.8857c0.07808,-0.08602 0.1552,-0.17319 0.23153,-0.26127c0.39535,-1.51273 0.8455,-2.99999 1.66746,-4.3101c0.97848,-1.55958 1.83152,-3.48971 3.49637,-4.27582c1.84582,-0.87156 4.07737,-0.21549 6.11804,-0.26394c1.07415,-0.0255 10.46185,-0.02803 11.00666,0.21163c1.83387,0.80672 2.8099,2.85655 4.21486,4.28482c3.06257,3.38712 4.80567,4.47033 5.80236,9.32328c0.03266,0.15902 -0.00569,2.58684 -0.05448,5.0743c3.50994,2.53156 5.24487,6.63419 6.22449,10.99022c0.4081,1.81466 1.17658,3.60029 1.15038,5.46009c-0.0262,1.8598 -0.85875,3.61954 -1.30376,5.42551c-1.28282,5.20604 -2.4497,9.70567 -4.84046,14.52034l-0.16392,0.32784c0,0 -1.11802,2.23607 -3.3541,1.11805zM443.24632,90.63129c-0.25413,-0.61863 -0.49261,-1.23925 -0.65631,-1.86714c-0.67011,-2.57027 -0.81214,-5.64153 -3.37105,-7.31169c-2.94433,-1.92171 -6.66088,-1.05308 -9.56505,0.0521c-1.37627,0.52374 -2.93404,0.68737 -4.14717,1.52207c-0.73617,0.50652 -1.28745,1.2194 -1.82603,1.94737c-0.40373,1.40774 -0.67967,2.52974 -0.72783,2.67316c-0.93149,2.77381 -1.61014,5.81465 -1.9929,8.89254c0.95789,-0.27556 1.935,-0.50359 2.88372,-0.79957c3.28559,-1.02504 6.90276,-2.51019 10.49085,-1.82712c2.34191,-1.16187 5.65412,-2.74302 6.49106,-3.14612c0.80054,0.00283 1.61143,-0.07246 2.4207,-0.1356zM418.24197,116.11948c-0.15467,-0.54783 -0.29476,-1.08717 -0.4207,-1.61399c-0.62137,-2.59921 -1.57163,-5.15131 -1.96642,-7.78637c-0.9585,0.89744 -1.81811,1.75816 -2.60436,2.63332c-0.21553,1.29857 -0.59959,2.59635 -0.45568,3.89663c0.16364,1.47848 1.00238,2.80112 1.48898,4.2068c1.0285,2.97113 1.30826,6.28295 2.96831,8.95308c0.69334,1.11522 1.84741,1.85553 2.82336,2.74552c0.08679,-0.0658 0.17139,-0.13059 0.25369,-0.19423c-0.28614,-1.04555 -0.52684,-2.33622 -0.96717,-4.00459c-0.45549,-1.7258 -1.17049,-3.42217 -1.25743,-5.20495c-0.07193,-1.47491 -0.02138,-2.62995 0.13741,-3.63122zM443.25346,99.493c0.40495,-1.24098 1.02604,-2.43356 1.21954,-3.71832c-0.8204,-0.10589 -1.65951,-0.14645 -2.49863,-0.14155c-0.82313,0.43219 -1.65257,0.8547 -2.4797,1.28029c0.13373,0.09402 0.26872,0.18523 0.40538,0.27267c1.09383,0.7916 2.52862,1.26139 3.35341,2.30691zM430.60408,127.00954c0.54935,0.30399 1.18042,0.3778 1.82341,0.41804c0.03336,-0.02807 0.06611,-0.0561 0.0982,-0.08405c2.37439,-2.06792 4.27585,-5.01497 5.67495,-8.07312c-1.00469,1.05252 -1.99845,2.08595 -2.91947,3.11355c-1.51127,1.68022 -3.06699,3.19144 -4.67709,4.62558zM408.54559,116.46503c-1.37429,2.50706 -3.23701,4.82833 -3.88889,7.59851c-0.2408,1.02327 0.28515,2.08375 0.3804,3.13065c0.12356,1.35814 -0.40025,5.19908 1.66156,6.26959c2.49444,1.29513 5.9992,0.14184 9.04048,-1.49868c-1.00843,-0.89465 -2.02871,-1.78291 -2.73328,-2.9162c-0.18773,-0.30196 -3.245,-9.35016 -3.45701,-9.9867c-0.29133,-0.87468 -0.67092,-1.73074 -1.00325,-2.59717zM427.25806,123.2962c1.4809,-1.31151 2.91298,-2.69619 4.29976,-4.24941c2.99851,-3.3455 7.14437,-6.87309 9.19453,-10.94128c0.01525,-0.03026 0.03036,-0.06058 0.04533,-0.09095c-0.18366,-0.44069 -0.37521,-0.88109 -0.494,-1.33293c-0.34994,-1.3311 -0.22832,-2.84011 -0.93343,-4.0221c-0.44586,-0.74741 -1.50199,-0.87959 -2.25299,-1.31938c-0.78813,-0.56139 -1.48143,-1.31613 -2.27504,-1.86634c-2.15105,1.32287 -4.16193,2.851 -5.85665,4.84526c-1.65784,1.95086 -2.1939,4.62665 -3.32523,6.92326c-0.97185,1.97286 -1.82155,3.23499 -2.26753,4.77942c0.44805,1.44107 1.02306,2.83863 1.84136,4.0882c0.48438,0.73967 1.20161,1.95982 2.02388,3.18625zM421.36537,108.6405c1.53898,-3.16229 3.01619,-5.98271 5.0135,-8.47026c-0.40333,0.13663 -0.76416,0.25784 -1.06474,0.34879c-1.41585,0.42841 -2.92262,0.61133 -4.25992,1.24362c-0.1558,0.07367 -0.30697,0.15404 -0.45402,0.24039c-0.00561,1.00762 0.02406,2.00436 0.09059,2.98183c0.0844,1.24009 0.34909,2.45245 0.6746,3.65563zM413.87133,101.60092c0.59762,-0.65362 1.18454,-1.32361 1.80141,-1.95045c0.06705,-1.24662 0.18045,-2.49922 0.3374,-3.74611c-0.72396,1.44181 -1.34049,2.91615 -1.81105,4.39885c-0.13556,0.42714 -0.24254,0.86018 -0.32776,1.29772z" fill="#dd0000"/><path d="M314.33232,195.21846c-0.01391,0.24738 -0.02369,0.50212 -0.02967,0.76497c1.37153,2.34476 2.72439,4.85131 4.34688,6.87971c1.92704,-0.45696 3.33169,-2.3139 4.44106,-4.408c-2.77261,-0.78483 -5.4873,-2.01884 -8.02457,-2.86456l-0.05657,-0.01885c0,0 -0.315,-0.105 -0.67714,-0.35327zM328.19659,199.2c-1.21883,2.56422 -2.63408,5.11002 -4.77463,6.84006c3.24576,0.38581 6.49427,-2.24363 8.90698,-4.89806c1.10962,-1.22079 2.07386,-2.75333 2.86486,-4.4537c-1.21554,0.92632 -2.64554,1.6529 -4.31905,2.11894c-0.88858,0.24745 -1.7826,0.36922 -2.67815,0.39276zM341.34097,179.73213c2.40557,8.19216 0.51675,18.21657 -5.26982,24.72585c-5.33852,6.00527 -12.88017,9.33492 -19.56315,3.43761c-2.69259,-0.39618 -5.4114,-1.7676 -6.77448,-3.68862c-1.16749,-1.64538 -0.85925,-3.94324 -1.22147,-5.92796c-0.30036,-1.64575 -0.84872,-3.28864 -0.81777,-4.95672c-0.60632,-6.4207 -1.21715,-12.78781 1.86409,-18.82907c4.3032,-8.43712 18.26432,-14.82236 26.83837,-8.94628c3.37377,2.31215 4.02772,6.13627 4.56471,9.79409c0.20268,1.3806 0.33848,2.86376 0.37953,4.39111zM331.39853,192.84287c2.67353,-1.6722 4.54357,-4.81595 5.13986,-8.07912c0.24541,-1.34299 0.22493,-2.70824 0.09633,-4.07746c-0.28461,-0.53106 -0.59482,-1.05428 -0.83393,-1.60085c-1.7661,-4.03702 -3.11103,-7.41629 -8.00078,-8.18544c-0.4211,-0.06624 -0.83849,0.234 -1.18364,0.48415c-2.28937,1.65923 -4.62785,3.32851 -6.50749,5.44067c-1.11657,1.2547 -2.01193,2.67803 -2.87119,4.12931c0.97791,-0.7584 1.97277,-1.40709 2.94037,-1.90952c4.39047,-2.27977 10.36249,-0.57735 12.33168,4.39867c0.80217,2.02702 0.55548,4.40243 0.1216,6.53879c-0.20772,1.02277 -0.69666,1.95 -1.2328,2.8608zM315.40022,190.71773c0.65047,-0.06939 1.19036,0.11057 1.19036,0.11057l0.05657,0.01885c2.85844,0.95283 5.59399,2.35201 8.53215,2.99769c0.18146,-0.41064 0.35639,-0.78829 0.52747,-1.11912c1.07408,-2.07693 3.20691,-4.67133 2.18358,-7.36902c-1.89333,-4.99116 -6.85081,-0.91287 -8.80101,0.88614c-1.77741,1.63962 -2.94923,2.99178 -3.68911,4.47488zM314.65336,176.07643c0.431,-0.66137 0.82013,-1.25476 1.12034,-1.70609c-0.42633,0.5352 -0.79474,1.10092 -1.12034,1.70609z" fill="#dd0000"/><path d="M429.39532,197.53373c0.58593,0.51275 1.26603,0.81261 2.05182,0.68756c1.20299,-0.19144 4.78992,-4.69522 5.28223,-5.2672c0.6149,-4.16839 2.00982,-8.66195 1.41128,-12.90516c-0.04543,-0.32206 -0.10974,-0.63913 -0.18917,-0.95222c-0.28282,3.04181 -0.96198,6.05725 -2.30724,8.80482c-1.3482,2.75356 -3.49734,5.04217 -5.07294,7.67223zM423.74943,167.86587c-0.76815,0.41964 -1.53079,0.84341 -2.14009,1.45935c-0.88647,0.89613 -1.24891,2.19009 -1.8931,3.27356c-2.43521,4.09576 -3.80599,8.23065 -4.22827,12.42567c0.5665,0.50244 1.14538,0.94248 1.69879,1.29542c0,0 2.08013,1.38674 0.69339,3.46687c-0.73624,1.10437 -1.66792,1.23153 -2.38,1.10783c0.33929,3.34575 1.23176,6.73469 2.62107,10.17703c0,0 0.92846,2.3212 -1.39273,3.24966c-2.3212,0.92846 -3.24966,-1.39273 -3.24966,-1.39273c-2.13591,-5.38285 -3.23711,-10.73526 -3.10983,-16.00548c-1.55572,-1.74034 -2.83484,-3.75692 -3.37828,-5.85571c-1.63191,-6.30241 1.77666,-15.27427 5.83383,-19.98199c0.32229,-0.37397 6.25152,-6.03494 7.23976,-6.32726c1.06165,-0.31403 2.12723,0.71164 3.2333,0.75975c1.49778,0.06514 2.98502,-0.28293 4.47753,-0.42439l4.61725,-0.3848c0,0 2.49136,-0.20763 2.69899,2.28374c0.20763,2.49136 -2.28374,2.69899 -2.28374,2.69899l-4.61725,0.3848c-1.82931,0.13537 -3.65708,0.51881 -5.48792,0.40612c-0.59151,-0.03641 -0.99133,-0.98212 -1.56675,-0.84035c-0.59442,0.14645 -0.64875,1.04913 -1.07281,1.49068c-1.09774,1.14301 -2.42106,2.06118 -3.47501,3.24469c-2.74251,3.07967 -5.60026,9.78129 -4.98258,14.34869c0.83306,-2.93836 2.09569,-5.84143 3.82345,-8.6997c1.7589,-2.90978 4.26679,-5.46943 7.14474,-7.27992c1.38809,-0.87324 2.63127,-2.45034 4.27117,-2.44156c0.99731,0.00534 1.92378,0.36764 2.82443,0.84365c4.29267,-1.35811 6.03129,0.49874 7.23608,3.66662c0.32489,0.22756 0.62645,0.48446 0.89514,0.78222c1.32057,1.46345 1.52384,3.63626 2.24924,5.46913c1.0582,2.67379 2.60934,5.23709 3.00979,8.08464c0.74572,5.30267 -0.82256,10.73759 -1.78867,15.89495c-1.96534,2.41039 -5.59751,7.86041 -9.31237,8.14906c-3.37866,0.26252 -5.29319,-1.02667 -6.74936,-2.89273c-0.09648,-0.04573 -0.19489,-0.09839 -0.29517,-0.15856c-1.06602,-0.63961 -1.28388,-1.49127 -1.2335,-2.18591c-0.42369,-0.73233 -0.83903,-1.48793 -1.28495,-2.22906c-0.97777,-1.62508 -2.35121,-3.09787 -2.83944,-4.93051c-0.48823,-1.83264 -0.01341,-3.79325 0.01012,-5.68966c0.0673,-5.42454 1.15354,-10.43849 3.33462,-15.46238c0.20463,-0.47134 0.49373,-1.09057 0.84878,-1.78039zM430.02905,167.07745c-0.16433,0.24345 -0.31097,0.47339 -0.42756,0.65482c-0.79548,1.23791 -1.53359,2.52432 -2.1039,3.88077c-1.90176,4.5232 -2.80333,8.74931 -2.93245,13.58955c-0.03833,1.4369 -0.54779,2.9196 -0.17775,4.30857c0.32963,1.23729 1.31216,2.18557 2.04229,3.25115c1.49213,-2.4084 3.46585,-4.52666 4.72608,-7.06386c1.88814,-3.80136 2.07987,-8.30756 1.91868,-12.40544c-0.05443,-1.38372 0.05988,-3.36633 -0.22345,-5.1426c-0.80843,-0.318 -1.73383,-0.47634 -2.49686,-0.87826c-0.11082,-0.05837 -0.21895,-0.12391 -0.32507,-0.19469z" fill="#dd0000"/><path d="M263.72117,166.92857c-0.92851,2.32118 -3.24969,1.39267 -3.24969,1.39267l-3.1476,-1.26556c5.3825,10.73453 -10.56385,28.19117 -21.32013,21.24963c-2.93239,-1.89241 -3.89531,-4.33771 -4.69659,-7.09592c-1.40476,2.23424 -2.59291,4.64422 -3.56635,7.26844c0,0 -0.87782,2.34082 -3.21864,1.463c-2.34082,-0.87782 -1.463,-3.21864 -1.463,-3.21864c1.51129,-3.99147 3.64836,-8.02105 6.3272,-11.6751c-0.07744,-0.373 -0.11425,-0.74976 -0.08489,-1.13264c0.14714,-1.91829 1.24697,-3.64043 1.90405,-5.44868c0.58425,-1.60783 0.73111,-3.47895 1.8196,-4.79866c3.43083,-4.1596 10.99212,-6.41273 16.16469,-5.71406c3.79532,0.51265 6.19463,2.33654 9.32108,4.20733l3.8176,1.5185c0,0 2.32118,0.92851 1.39267,3.24969zM235.05855,176.20654c0.05594,0.19891 0.11869,0.39839 0.18842,0.59831c0.76224,2.64799 1.03309,5.56752 3.53409,7.34275c5.1909,3.68453 12.46934,-4.8473 13.93362,-9.16858c0.59638,-1.75998 1.15993,-4.79717 -0.35435,-6.48626c-3.19867,-3.56793 -8.39988,-0.15664 -11.03282,1.88631c-2.33396,1.81097 -4.42288,3.73837 -6.26896,5.82747zM238.2351,166.1331c1.34758,-0.96594 2.75947,-1.82616 4.23133,-2.55927c-1.57612,0.58092 -3.02381,1.46003 -4.23133,2.55927z" fill="#dd0000"/></g></g></svg>