<svg version="1.1" xmlns="http://www.w3.org/2000/svg" xmlns:xlink="http://www.w3.org/1999/xlink" width="478.41662" height="327.53127" viewBox="0,0,478.41662,327.53127"><g transform="translate(-40.68338,-16.29999)"><g data-paper-data="{&quot;isPaintingLayer&quot;:true}" fill="#000000" fill-rule="nonzero" stroke="none" stroke-width="0.5" stroke-linecap="butt" stroke-linejoin="miter" stroke-miterlimit="10" stroke-dasharray="" stroke-dashoffset="0" style="mix-blend-mode: normal"><path d="M468.50003,244.39999c0,-2.5 2.5,-2.5 2.5,-2.5l1.91804,0.26394c0.15217,0.20642 0.31347,0.40683 0.47278,0.60855c0.06902,-1.17459 0.58244,-2.29738 0.7268,-3.46901c0.33861,-2.74804 0.60305,-5.50638 0.78783,-8.26903c0.52104,-7.79013 0.33394,-15.68869 0.79564,-23.50788c-0.00443,-17.76991 0.31635,-35.76444 1.74933,-53.48441c1.2938,-15.99892 3.26094,-31.97484 4.78696,-47.95648c1.07,-10.83359 2.19228,-21.68474 1.18609,-32.57453c-0.57393,-6.21152 -0.83212,-12.71184 -4.09362,-18.27801c-2.18136,-3.72278 -6.56813,-6.9121 -10.22526,-8.99003c-9.23332,-5.24622 -19.67772,-7.46251 -29.83491,-10.33435c-16.04699,-3.57806 -33.53381,-3.23278 -49.90639,-3.40904c-15.96047,-0.17183 -31.93691,-0.9273 -47.89339,-1.3568c-35.00342,-0.94218 -70.0087,-1.51119 -104.99349,-3.0156c-34.84934,-1.49859 -69.96603,-0.50255 -104.83489,0.10917c-28.24136,0.49545 -56.35,2.18197 -84.51864,4.04815c-0.17973,4.90496 0.08912,9.83386 -0.01924,14.74105c-0.42479,19.23698 -1.71542,38.46637 -1.35936,57.71262c0.63485,34.31619 3.44384,68.54487 3.75567,102.85031c0.00007,14.36809 1.43892,28.62543 1.55285,42.96558c0.03468,4.36526 0.65434,8.58086 0.84407,12.92062c0.06006,1.37374 0.182,2.7618 0.00314,4.12517c-0.06975,0.53163 -0.93522,0.93596 -0.73223,1.43225c0.15733,0.38466 0.64595,-0.54545 1.03175,-0.69995c1.49919,-0.60037 3.01472,-1.19444 4.58974,-1.55126c1.7052,-0.38632 3.46817,-0.44677 5.20263,-0.66724c5.9306,-0.75385 11.85499,-1.53423 17.77861,-2.34201c32.54821,-4.43844 65.34914,-5.07144 98.16575,-5.07172c15.75662,-0.00014 31.96455,0.17764 47.66762,1.54968c18.21554,1.59156 36.34918,4.10695 54.65275,4.88431c26.9425,1.14669 54.09437,2.59536 81.06541,1.56715c5.94215,-0.22653 11.85768,-0.77265 17.80455,-0.94298c19.3166,-0.55189 38.56415,-1.5251 57.85007,-2.76027c14.6227,-0.93651 29.65021,-1.54428 44.03594,-4.42995c6.51674,-1.30335 12.91254,-2.77453 19.34436,-4.44723c2.45836,-0.63934 5.04042,-0.82863 7.43169,-1.68543c2.25962,-0.80963 4.32378,-2.07424 6.44052,-3.21742c0.21764,-0.73338 0.80198,-1.71789 2.37082,-1.71789c2.5,0 2.5,2.5 2.5,2.5l-1.38198,3.03606c-0.87133,0.43566 -8.08952,4.05077 -8.30668,4.12861c-2.51009,0.89964 -5.2149,1.12322 -7.79534,1.79495c-6.52311,1.69808 -13.01323,3.18932 -19.62281,4.51124c-14.6126,2.91428 -29.84654,3.56573 -44.69696,4.51682c-19.3447,1.23893 -38.65134,2.21488 -58.02684,2.76846c-5.94238,0.16935 -11.85361,0.71776 -17.79146,0.94259c-27.09528,1.02593 -54.36742,-0.41727 -81.4339,-1.56924c-18.37799,-0.78381 -36.58556,-3.30072 -54.87535,-4.89876c-15.55885,-1.35943 -31.61984,-1.53084 -47.23236,-1.5307c-32.59211,0.00029 -65.16477,0.61781 -97.49023,5.02587c-7.35981,1.00362 -15.31645,1.28132 -22.54856,2.93073c-2.53942,0.57916 -7.46897,3.50908 -10.26528,0.91112c-1.22626,-1.13928 -0.59469,-3.29962 -0.73223,-4.96778c-0.31917,-3.87095 -0.59293,-8.01297 -0.80303,-11.89048c-0.86665,-15.9945 -1.59705,-32.07246 -1.59697,-48.09815c-0.31198,-34.28184 -3.12045,-68.48767 -3.75486,-102.78056c-0.35731,-19.31423 0.93344,-38.61072 1.35973,-57.91549c0.11015,-4.98833 -0.16476,-9.99783 0.02776,-14.9835c-0.4235,-0.34219 -0.76873,-0.88995 -0.8271,-1.76553c-0.08185,-1.22773 0.48085,-1.89148 1.07346,-2.249c0.23357,-3.03423 0.52282,-6.05622 0.52101,-9.11731c0,0 0,-2.5 2.5,-2.5c2.5,0 2.5,2.5 2.5,2.5c-0.00159,2.83727 -0.24228,5.64198 -0.46199,8.45287c28.03335,-1.8544 56.00926,-3.52249 84.11581,-4.01558c34.96976,-0.61349 70.18718,-1.60825 105.13741,-0.10532c34.95801,1.50326 69.93657,2.07134 104.91321,3.01279c15.936,0.42895 31.89223,1.18509 47.83221,1.35553c16.78185,0.17944 34.60561,-0.08398 51.05555,3.56026c14.47248,4.08567 34.69889,7.42642 43.14277,21.62978c3.6851,6.19866 4.13007,13.41495 4.76746,20.36246c1.0282,11.2073 -0.08715,22.3659 -1.18846,33.51628c-1.52344,15.95484 -3.48818,31.90408 -4.77981,47.87614c-1.4263,17.63738 -1.73095,35.54125 -1.73522,53.22826c-0.62714,10.69946 -0.25025,21.61437 -1.61661,32.22309c-0.17363,1.3481 -1.19473,7.79956 -3.12562,8.41319c-1.758,0.55869 -3.51651,-1.11578 -5.27477,-1.67368l0.31806,0.26394c0,0 -2.5,0 -2.5,-2.5z"/><path d="M394.25417,84.87656c-0.47657,2.45416 -2.93073,1.97759 -2.93073,1.97759l-3.52133,-0.69267c-5.70074,-2.12883 -11.07564,-5.18984 -16.78173,-7.2309c-3.12062,-1.11624 -6.45762,-1.52894 -9.60808,-2.55792c-8.46168,-2.76371 -16.92763,-5.66357 -26.01182,-4.70492c-2.4029,0.25358 -4.57422,1.55877 -6.86647,2.32285c-5.97915,1.99252 -12.36155,3.27264 -18.22659,5.53893c-4.56842,1.76526 -8.65426,4.90135 -13.27971,6.51743c-0.18696,0.06532 -9.68742,2.13823 -10.05916,2.2195c-7.37347,1.61197 -16.06699,3.02979 -23.6413,1.78846c-1.34515,-0.22045 -2.54545,-0.97623 -3.81333,-1.47675c-8.62271,-3.40401 -16.03742,-8.99096 -24.60258,-12.40159c-1.6416,-0.6618 -6.26993,-2.83397 -8.36479,-2.59033c-3.04141,0.35372 -5.5797,2.5239 -8.3536,3.82034c-5.28225,2.46876 -10.31884,5.35123 -15.53064,7.95738c-0.64186,0.32096 -9.11536,4.58102 -9.50147,4.67235c-1.7248,0.40796 -3.54478,0.01861 -5.31715,0.01093c-5.97702,-0.02591 -10.69811,0.6664 -15.94918,-2.85133c-3.49494,-2.34128 -5.89551,-6.88755 -8.97315,-9.74327c-1.38013,-1.28061 -4.24003,-3.01174 -5.80143,-4.1042c-1.12259,-0.78544 -2.00361,-2.0521 -3.32404,-2.41764c-1.10418,-0.30567 -2.26097,0.37239 -3.39145,0.55858c-4.69579,4.09937 -9.59289,6.95578 -14.86204,10.2197c-6.16027,3.81591 -11.51476,7.82422 -18.15425,10.84197c-1.7377,0.78981 -3.36551,1.932 -5.23365,2.32371c-2.8401,0.59551 -5.75527,-0.75435 -8.62073,-1.21254c-1.83714,-0.29376 -3.78415,-0.20907 -5.50623,-0.91321c-8.41871,-3.44231 -11.86928,-11.00046 -11.92752,-19.54898c0,0 0,-2.5 2.5,-2.5c2.5,0 2.5,2.5 2.5,2.5c-0.05528,6.52734 2.35999,12.30536 8.81294,14.91808c1.36549,0.55287 2.92059,0.38922 4.37833,0.60182c2.39305,0.34901 4.80336,1.77255 7.15426,1.20534c1.38559,-0.3343 2.54363,-1.28745 3.82817,-1.90514c5.55893,-2.67308 10.23299,-5.44414 15.32521,-8.96768c3.47179,-2.40229 7.35726,-4.14707 10.81381,-6.54519c2.45084,-1.70037 4.63166,-3.76081 6.98281,-5.59656c2.16935,-0.28522 4.36177,-1.28103 6.50804,-0.85566c1.92763,0.38205 3.33963,2.07243 4.99268,3.13504c1.58587,1.01943 5.10203,3.37611 6.38238,4.55735c2.98061,2.74988 5.32365,7.11815 8.62683,9.45674c3.94701,2.79441 8.43516,1.75767 12.99387,1.84339c1.38024,0.02595 2.79695,0.43624 4.13983,0.1162c3.05197,-0.72736 5.5808,-2.86892 8.38707,-4.27192c5.25149,-2.62549 10.32703,-5.52672 15.64947,-8.01484c1.42693,-0.66706 8.59068,-4.12532 9.93566,-4.26201c3.51245,-0.35698 7.63689,1.67955 10.75727,2.91936c6.32075,2.53987 11.87261,6.25537 17.88573,9.4335c2.8471,1.50479 6.42976,3.6776 9.61842,4.1773c6.92411,1.0851 14.89152,-0.28825 21.62708,-1.76314c3.15815,-0.69154 6.42661,-0.98888 9.47867,-2.05523c4.55769,-1.5924 8.60534,-4.71286 13.11403,-6.45623c5.94472,-2.29864 12.40085,-3.60298 18.46031,-5.62335c2.54552,-0.84851 4.98146,-2.20481 7.6467,-2.51487c9.90457,-1.15225 19.15982,1.8726 28.3882,4.89506c1.25106,0.40975 8.61642,2.20181 9.71661,2.59535c5.60233,2.00395 10.86945,5.02193 16.45683,7.12704l3.11537,0.5961c0,0 2.45416,0.47657 1.97759,2.93073z"/><path d="M407.81449,135.27486c0.49516,-0.39023 1.92422,-1.27167 3.35328,0.15739c1.76777,1.76777 0,3.53553 0,3.53553l-3.09131,1.47678c-12.30062,-2.63807 -24.5315,-5.41099 -36.77604,-8.3432c-6.55624,-1.57032 -13.31037,-2.95592 -19.6233,-5.37795c-8.41166,-3.22723 -16.79243,-7.31762 -26.01646,-7.73848c-4.52603,-0.20651 -9.48608,0.68641 -13.96152,1.3069c-12.49701,1.73263 -24.44624,5.32555 -36.80303,7.79846c-9.60901,1.92181 -19.29632,3.35316 -29.11423,2.38114c-0.50928,-0.05042 -10.09872,-0.99774 -10.35932,-1.06872c-13.72064,-3.7375 -24.03279,-20.31785 -39.32338,-18.52067c-4.27153,0.50205 -9.42353,3.29201 -13.50178,4.69075c-25.54422,10.22236 -53.96835,28.78741 -82.12585,17.54839c0,0 -2.32119,-0.92848 -1.39271,-3.24967c0.92848,-2.32119 3.24967,-1.39271 3.24967,-1.39271c15.4226,6.18303 32.8114,2.12205 47.75297,-4.00394c5.70081,-2.33731 11.05802,-5.52348 16.71638,-7.96521c4.62672,-1.99655 9.37995,-3.75335 14.05909,-5.62417c4.44543,-1.52623 9.98848,-4.41763 14.64392,-4.96752c1.82826,-0.21595 3.671,0.28452 5.50497,0.44499c14.23747,1.24577 22.46719,14.60252 35.73084,18.21553c3.08294,0.83979 6.36259,0.59766 9.5418,0.91766c9.31521,0.93762 18.52278,-0.4859 27.63705,-2.30876c16.95965,-3.38978 34.41876,-9.99822 51.97303,-9.19726c9.80153,0.44722 18.69149,4.64502 27.63434,8.08645c6.08262,2.34075 12.62316,3.64882 18.94216,5.16232c11.77073,2.81979 23.52756,5.49653 35.34943,8.03596z"/><path d="M368.70004,181.2031c-0.00308,2.5 -2.50308,2.49692 -2.50308,2.49692l-3.22596,-0.00398c-1.25527,-0.00611 -9.4328,0.00376 -10.49233,-0.21283c-4.44216,-0.9081 -10.45475,-3.67871 -14.56515,-5.63164c-2.74719,-1.30524 -5.04051,-3.46089 -7.8101,-4.71789c-3.48379,-1.58114 -7.72409,-1.20531 -11.36176,-0.79576c-8.09837,0.85133 -16.02393,3.27386 -23.80599,5.65141c-6.17756,1.88735 -12.50742,4.5161 -19.04072,4.90886c-3.02555,0.18189 -6.02271,-0.69038 -9.02986,-1.06995c-1.80671,-0.22805 -3.68197,-0.15313 -5.41749,-0.70463c-12.61362,-4.00826 -21.70404,-17.16799 -36.28102,-14.35836c-18.67964,3.38235 -36.95533,12.44449 -56.2224,11.9507c-8.21395,-0.21051 -17.82257,-0.29876 -24.72004,-5.58904c-1.41225,-1.08318 -2.52791,-2.50609 -3.79187,-3.75914c0,0 -1.76777,-1.76777 0,-3.53553c1.76777,-1.76777 3.53553,0 3.53553,0c1.09307,1.10398 2.06091,2.3479 3.2792,3.31193c5.88359,4.65565 14.8216,4.37454 21.83201,4.57361c18.81235,0.5342 36.93795,-8.53978 55.19313,-11.87187c7.74973,-1.34123 16.04525,1.11809 22.84933,5.02476c5.12387,2.94195 10.13355,7.67429 15.84037,9.48775c1.44139,0.45803 3.00678,0.33025 4.50888,0.50664c2.74758,0.32264 5.47366,1.21515 8.23435,1.03674c6.07904,-0.39287 12.00679,-2.93331 17.75933,-4.69111c8.09968,-2.47502 16.3219,-4.9369 24.74786,-5.84466c4.43999,-0.44941 9.43379,-0.76718 13.68437,1.10028c7.16569,3.1482 13.6817,8.49429 21.58577,10.11868c0.4448,0.09141 9.31559,0.11017 9.50376,0.11107l3.21695,0.00396c0,0 2.5,0.00308 2.49692,2.50308z"/><path d="M320.70004,203.60001c0,2.5 -2.5,2.5 -2.5,2.5l-2.89456,-0.01873c-2.5444,0.65074 -5.16614,0.95835 -7.72483,1.55038c-13.88425,3.21254 -28.18031,9.11325 -42.33603,4.02654c-1.63995,-0.60041 -3.33832,-1.06048 -4.91985,-1.80122c-4.79055,-2.24375 -9.27113,-6.99631 -14.96508,-6.9573c-1.56556,0.01073 -5.40421,1.03444 -7.16269,1.46948c-6.46064,1.59832 -13.00202,3.57453 -19.51382,4.88371c-10.04558,2.01963 -21.56584,3.25115 -31.48949,0.77251c0,0 -2.42536,-0.60633 -1.81903,-3.03169c0.60633,-2.42536 3.03169,-1.81903 3.03169,-1.81903c14.14961,3.54062 29.88923,-1.12391 43.75137,-4.46327c4.03283,-0.9715 9.09983,-2.83274 13.28259,-2.81106c7.86612,0.04078 14.41992,6.49895 21.51302,9.0589c12.92476,4.76364 26.78743,-1.24544 39.46609,-4.19085c2.73971,-0.63647 5.54325,-0.98052 8.27517,-1.64963l3.50546,-0.01873c0,0 2.5,0 2.5,2.5z"/><path d="M320.69061,236.61694c-0.21695,2.49057 -2.70752,2.27362 -2.70752,2.27362c-1.66038,-0.14463 -3.60875,-0.31435 -5.26913,-0.45898c-3.30622,-0.28862 -6.58509,-0.84747 -9.89116,-1.13785c-8.65679,-0.76036 -17.51244,0.79751 -26.16989,-0.08895c-8.82985,-0.90411 -17.31368,-2.8516 -26.27408,-2.31119c-6.05601,0.36524 -12.15868,1.97188 -18.08853,3.15786c0,0 -2.45145,0.4903 -2.94175,-1.96116c-0.4903,-2.45145 1.96116,-2.94175 1.96116,-2.94175c6.13989,-1.22799 12.44165,-2.85836 18.71152,-3.24216c9.24442,-0.56588 17.9868,1.37157 27.09383,2.31979c8.61531,0.89702 17.43946,-0.65941 26.06218,0.08012c3.33311,0.28586 6.63783,0.85447 9.97061,1.14414c1.66038,0.14463 3.32076,0.28926 4.98114,0.4339l0.28799,0.02509c0,0 2.49057,0.21695 2.27362,2.70752z"/><path d="M257.69615,295.64674c-0.74443,1.07721 -1.63643,2.04179 -2.98185,2.87989c-4.02369,2.5065 -7.99283,-0.18377 -12.12549,-0.73318c-3.21663,-0.42763 -6.48095,-0.3566 -9.72476,-0.44193c-13.1941,-0.34709 -26.81392,-0.23243 -39.86165,-2.48334c-7.83744,-1.35206 -15.61208,-3.1875 -23.39068,-4.83838c-10.98417,-2.9933 -22.20587,-6.09436 -33.42271,-7.9638c-1.66429,-0.27738 -3.34457,-0.47355 -4.99161,-0.83969c-0.10976,-0.0244 -3.38792,-1.34866 -3.91439,-0.97301c-3.41604,2.43741 -3.60241,7.89451 -3.84695,11.48705c-0.52597,7.72704 -0.38575,15.45502 0.41379,23.15092c0.26015,2.5041 0.83571,4.9908 0.81788,7.50831c3.67716,10.82706 15.55449,13.13238 25.39982,14.69066c19.37632,3.06681 39.76701,1.60976 59.33244,1.60976c33.62924,0 67.21966,-0.80281 100.85002,-0.79949c17.33132,0.69153 34.60665,0.79949 51.95003,0.79949c4.96871,0 9.82996,-0.00272 14.78472,-0.39076c2.27041,-0.17781 6.38033,-0.13271 8.51062,-1.5392c3.97052,-2.62147 2.80573,-7.97695 3.00634,-11.85966c0.0109,-0.21092 0.66477,-6.5156 0.80155,-7.83771c0.00359,-4.78669 -0.34195,-9.67664 -0.77065,-14.43647c-0.09875,-1.09639 -1.16536,-3.6332 -2.08794,-4.13547c-1.40867,-0.7669 -7.48548,-0.91584 -8.66439,-0.98473c-2.88916,-0.16881 -5.7413,-0.80362 -8.63283,-0.92518c-3.26451,-0.13724 -6.51902,0.47142 -9.78404,0.59592c-15.98455,0.60951 -32.03159,-0.68431 -48.03795,-0.68782c-13.25412,-0.7884 -26.5334,-1.90543 -39.82254,-1.59643c-4.58254,0.10655 -9.19389,0.48187 -13.80677,0.74425zM259.98355,290.5177c3.8122,-0.24502 7.61971,-0.52589 11.40315,-0.61386c13.37822,-0.31107 26.74512,0.79768 40.08782,1.5973c15.89354,-0.00359 31.82679,1.29582 47.69816,0.68923c0.45959,-0.01757 9.90077,-0.60662 10.18045,-0.59533c2.92148,0.11794 5.80351,0.75522 8.72216,0.92966c2.9096,0.17389 8.5256,0.20507 11.08007,1.77457c4.74935,2.91806 4.03949,8.24292 4.40394,12.75506c0.27639,3.42199 0.73521,6.83984 0.73748,10.27298c-0.26443,2.6138 -0.66667,5.21687 -0.80169,7.84054c-0.3058,5.9424 0.51169,11.70493 -5.16248,15.71923c-5.25473,3.71756 -15.04725,2.8117 -21.13256,2.8129c-19.0421,0.00375 -38.02132,-0.03743 -57.04997,-0.80049c-33.59693,0.00339 -67.15418,0.80049 -100.75008,0.80049c-21.681,0 -43.5862,0.98683 -65.05106,-2.45074c-10.79773,-1.72925 -21.01201,-7.12154 -24.61664,-18.04877c-0.01662,-2.60657 -0.58468,-5.18043 -0.85362,-7.77314c-0.82763,-7.97886 -1.01693,-16.02899 -0.43013,-24.04c0.39788,-5.43186 1.21077,-12.49201 6.66854,-15.64056c2.53033,-1.45973 9.36277,0.9654 11.89392,1.38725c11.33663,1.88942 22.6791,5.00689 33.77736,8.0362c7.65309,1.61978 15.29997,3.42721 23.00922,4.7616c6.45577,1.11743 13.05826,1.63699 19.67821,1.92097c-0.13909,-0.33635 -0.20963,-0.75054 -0.16714,-1.26037c0.20761,-2.49136 2.69898,-2.28375 2.69898,-2.28375l4.61725,0.38477c3.95406,0.32953 7.90949,0.68139 11.8641,1.03033c-0.05335,-0.1698 -0.10646,-0.33669 -0.16124,-0.49799c-1.00971,-2.97305 -0.54141,-9.64767 -3.31128,-11.95533c-0.30626,-0.25516 -0.21553,0.79476 -0.47473,1.09761c-0.59988,0.7009 -1.26962,1.36893 -2.05315,1.85595c-1.56353,0.97184 -3.21364,1.82479 -4.93186,2.48571c-1.25628,0.48323 -2.66706,1.38613 -3.93103,0.92341c-5.91166,-2.16415 -4.32566,-8.16761 -4.32566,-12.83309c0,0 0,-2.5 2.5,-2.5c2.5,0 2.5,2.5 2.5,2.5c0,1.6 0.04322,3.20058 0,4.79999c-0.02027,0.75018 -0.30148,1.50112 -0.19031,2.24329c0.27454,1.8327 0.95054,0.56507 1.53359,0.247c1.31013,-0.71472 2.74922,-1.19168 4.01243,-1.98638c1.68996,-1.06318 3.58475,-4.63673 6.1278,-3.7743c4.72465,1.60228 5.53961,6.80681 6.42914,10.66995c0.35683,1.54969 0.57753,3.12762 0.87326,4.69013c0.0708,0.3741 -0.11189,0.94471 0.22632,1.11957c2.96618,1.53354 3.48745,-0.48569 5.63034,-2.28491c4.81661,-4.04415 12.94047,-10.99263 17.13195,-1.07152c0.66036,1.56305 0.19923,3.32945 -0.09101,5.06487zM245.59682,290.81588c3.08861,0.16945 6.19027,0.12413 9.29455,-0.01246c0.04618,-0.07577 0.09294,-0.15112 0.1406,-0.22582c0.12154,-1.11977 0.66761,-2.27448 0.36463,-3.35932c-0.75923,-2.71852 -1.92417,-2.19615 -3.37745,-1.33542c-1.84322,1.09168 -4.52236,3.4468 -5.95306,4.54584c-0.15926,0.12234 -0.31534,0.25218 -0.46927,0.38718z"/></g></g></svg>