<svg version="1.1" xmlns="http://www.w3.org/2000/svg" xmlns:xlink="http://www.w3.org/1999/xlink" width="487.0577" height="316.35693" viewBox="0,0,487.0577,316.35693"><g transform="translate(-10.10691,-34.607)"><g data-paper-data="{&quot;isPaintingLayer&quot;:true}" fill-rule="nonzero" stroke-width="0.5" stroke-linejoin="miter" stroke-miterlimit="10" stroke-dasharray="" stroke-dashoffset="0" style="mix-blend-mode: normal"><path d="" fill="#ff6666" stroke="none" stroke-linecap="butt"/><path d="" fill="#ff6666" stroke="none" stroke-linecap="butt"/><path d="" fill="#ff6666" stroke="none" stroke-linecap="butt"/><path d="" fill="#ff6666" stroke="none" stroke-linecap="butt"/><path d="" fill="#ff6666" stroke="none" stroke-linecap="butt"/><path d="" fill="#ff6666" stroke="none" stroke-linecap="butt"/><path d="" fill="#ff6666" stroke="none" stroke-linecap="butt"/><path d="" fill="#ff6666" stroke="none" stroke-linecap="butt"/><path d="" fill="#ff6666" stroke="none" stroke-linecap="butt"/><path d="" fill="#ff6666" stroke="none" stroke-linecap="butt"/><path d="M51.74052,168.01953l-0.112,2.29599" fill="none" stroke="#000000" stroke-linecap="round"/><path d="M150.77369,140.48973c-2.48973,-0.22634 -2.2634,-2.71607 -2.2634,-2.71607l0.34732,-3.82052c0.98629,-10.84905 3.075,-22.21025 1.2984,-33.01017c-0.45412,-2.76057 -0.50004,-7.37074 -3.94479,-8.57067c-0.70295,-0.24486 -1.48505,0.11485 -2.22922,0.13219c-3.25966,0.07593 -6.52087,0.07214 -9.78051,0.14914c-11.73345,1.88838 -23.12396,1.74554 -34.9213,2.4936c-6.67657,0.42336 -13.33089,1.15737 -20.03206,1.35519c-9.66388,0.28529 -19.6695,-0.42146 -29.25501,1.09765c0.22538,0.45165 0.28177,0.84638 0.28177,0.84638c0.72325,5.0972 0.3644,9.9901 0.81204,15.06839c0.90475,10.26388 0.81309,20.52656 0.81309,30.88516c0,9.27872 0.81847,18.43686 0.78126,27.69455l0.74408,2.89914c0,0 0.60633,2.42536 -1.81903,3.03169c-2.42536,0.60633 -3.03169,-1.81903 -3.03169,-1.81903l-0.8559,-3.50089c-0.03419,-9.46811 -0.81872,-18.81879 -0.81872,-28.30545c0,-10.20246 0.0832,-20.31024 -0.7911,-30.41681c-0.4338,-5.01451 -0.06111,-9.80694 -0.78378,-14.82965c0,0 -0.10551,-0.73858 0.20223,-1.46643c-0.43508,-0.29069 -0.81561,-0.78075 -0.97882,-1.5968c-0.4903,-2.45145 1.96115,-2.94175 1.96115,-2.94175c10.65266,-2.09944 21.77358,-1.32462 32.59089,-1.64396c6.64542,-0.19618 13.24326,-0.9307 19.86438,-1.34742c11.75487,-0.73983 23.08852,-0.62789 34.77923,-2.48259c3.53538,-0.09128 6.68273,-0.20478 10.21617,-0.17005c1.27675,0.01255 2.64447,-0.35477 3.82846,0.12317c5.70513,2.30301 6.4096,7.2167 7.29915,12.49328c1.89359,11.2322 -0.22528,23.00242 -1.25091,34.28483l-0.34732,3.82052c0,0 -0.22634,2.48973 -2.71607,2.2634z" fill="#ff6666" stroke="none" stroke-linecap="butt"/><path d="M143.80002,197.29999c-2.5,0 -2.5,-2.5 -2.5,-2.5l0.04485,-2.07138c0.60469,-3.14673 1.12756,-6.30998 1.58025,-9.48215c0,0 0.35355,-2.47487 2.82842,-2.12133c2.47487,0.35355 2.12133,2.82842 2.12133,2.82842c-0.46488,3.2509 -1.00094,6.49271 -1.6197,9.71786l0.04485,1.12857c0,0 0,2.5 -2.5,2.5z" fill="#ff6666" stroke="none" stroke-linecap="butt"/><path d="M127.89999,194.00006c0,2.5 -2.5,2.5 -2.5,2.5h-1.59998c-5.03735,0 -9.83012,0.47514 -14.83972,0.79478c-6.06712,0.38712 -12.21186,-0.21208 -18.28776,0.0361c-12.44842,0.50847 -24.79618,0.76906 -37.27251,0.76906c0,0 -2.5,0 -2.5,-2.5c0,-2.5 2.5,-2.5 2.5,-2.5c12.40867,0 24.68812,-0.25964 37.06854,-0.7649c6.03531,-0.24631 12.14579,0.35988 18.17117,-0.02997c5.10965,-0.33061 10.02118,-0.80507 15.16028,-0.80507h1.59998c0,0 2.5,0 2.5,2.5z" fill="#ff6666" stroke="none" stroke-linecap="butt"/><path d="M180.60001,187.70001c-2.5,0 -2.5,-2.5 -2.5,-2.5c0,-2.06669 0,-7.33333 0,-9.40002c0,-27.50009 2.77014,-54.93044 0.80634,-82.42185c0,0 -0.17813,-2.49365 2.31552,-2.67177c2.49365,-0.17813 2.67177,2.31552 2.67177,2.31552c1.97252,27.6136 -0.79363,55.15708 -0.79363,82.7781c0,2.06669 0,4.13338 0,6.20007v3.19995c0,0 0,2.5 -2.5,2.5z" fill="#ff6666" stroke="none" stroke-linecap="butt"/><path d="M281.50003,194.79999c0,2.5 -2.5,2.5 -2.5,2.5h-0.60004c-4.43109,0 -8.80451,0.01555 -13.22694,-0.25607c-0.76926,-0.04747 -1.53814,-0.09706 -2.30672,-0.14837c-0.36069,0.24882 -0.84723,0.41392 -1.50349,0.40416c-0.79804,-0.01186 -1.33752,-0.27471 -1.70219,-0.62709c-9.38093,-0.67515 -18.72869,-1.51892 -28.15504,-1.76783c-6.51858,-0.17213 -13.05621,0.6826 -19.55536,1.09602c-10.05078,0.63934 -20.13641,1.15494 -29.75965,4.37094c0,0 -2.3717,0.79061 -3.1623,-1.58109c-0.79061,-2.3717 1.58109,-3.1623 1.58109,-3.1623c10.04969,-3.34224 20.52887,-3.95001 31.02348,-4.61747c6.65196,-0.42306 13.33025,-1.27474 20.00247,-1.10442c9.15491,0.23369 18.23896,1.03648 27.34848,1.70379c0.19462,-3.84612 0.72351,-7.59982 0.71711,-11.46583c0.08225,-23.18461 2.79921,-46.32524 4.00304,-69.48462c0.24677,-4.74738 1.25546,-9.45878 1.59998,-14.19998c0.21741,-2.99197 0.97949,-4.87494 -1.90439,-5.59212c-3.59444,0.03538 -6.93796,-0.58258 -10.53056,-0.77114c-14.84575,-0.77919 -29.7513,-0.00762 -44.62472,-0.81185c-8.90348,-0.48142 -17.94172,-1.59212 -26.84429,-1.58471c0,0 -2.5,0 -2.5,-2.5c0,-2.5 2.5,-2.5 2.5,-2.5c12.29981,0.00953 24.80384,1.46251 37.10246,2.14647c11.52761,0.64109 23.1095,-0.34763 34.62861,0.25696c3.7756,0.19817 7.29266,0.79743 11.06941,0.82883c1.17235,0.42699 2.55459,0.487 3.51706,1.28098c3.3443,2.75886 2.7488,5.53745 2.57855,9.52693c-0.20266,4.74881 -1.35449,9.45361 -1.59998,14.19998c-1.19316,23.06965 -3.9136,46.11984 -3.99518,69.21376c-0.00791,3.98492 -0.55922,7.84127 -0.73429,11.80336c0.50465,0.03289 1.00943,0.06497 1.51436,0.09613c4.3196,0.26782 8.59045,0.24657 12.919,0.24657h0.60004c0,0 2.5,0 2.5,2.5z" fill="#ff6666" stroke="none" stroke-linecap="butt"/><path d="M389.48072,186.4899c0.31009,2.48069 -2.1706,2.79079 -2.1706,2.79079l-1.43864,0.17983c-6.58354,0.8191 -13.20262,0.91807 -19.81072,1.563c-13.27408,1.29551 -26.41473,4.30412 -39.66517,5.46889c-3.98011,0.34987 -7.75729,0.71146 -11.68753,1.30433c-0.33493,0.57245 -0.95609,1.10327 -2.10807,1.10327c-2.5,0 -2.5,-2.5 -2.5,-2.5l0.01345,-0.52906c-0.04265,-0.33688 -0.03007,-0.63348 0.02274,-0.89441l0.01236,-0.48618c-1.42793,-7.17125 -1.72183,-14.46312 -2.15059,-21.75216c-0.98061,-16.67097 -1.09797,-33.24201 -1.09797,-49.93819c0,-7.71878 -0.61285,-15.71665 0.00852,-23.40619c0.31029,-3.8399 0.79153,-7.13529 0.79153,-10.9938c0,0 0,-2.5 2.5,-2.5c2.5,0 2.5,2.5 2.5,2.5c0,3.97324 -0.48315,7.462 -0.80857,11.40623c-0.62257,7.54588 0.00852,15.41705 0.00852,22.99377c0,16.59861 0.11443,33.07122 1.08934,49.64459c0.39905,6.78397 0.64869,13.58847 1.90749,20.27063c3.71264,-0.53138 7.33424,-0.88089 11.10766,-1.20748c13.21476,-1.14374 26.33157,-4.16848 39.57061,-5.46056c6.56186,-0.64042 13.14085,-0.72707 19.67621,-1.54803l1.43864,-0.17983c0,0 2.48069,-0.31009 2.79079,2.1706z" fill="#ff6666" stroke="none" stroke-linecap="butt"/><path d="M383.94221,156.41191c-2.41191,-0.6578 -1.75411,-3.06971 -1.75411,-3.06971l1.08442,-3.97617c2.86266,-10.46928 3.07009,-20.67599 3.45216,-31.4576c0.36485,-10.29567 0.33481,-20.13713 -1.61329,-30.27043c-3.66029,-1.5623 -8.73007,-1.5434 -12.7114,-1.53799c-6.47339,0.0088 -12.94703,0.01385 -19.42027,-0.02966c-12.09821,-0.08133 -23.24205,-1.90977 -35.0822,-4.10448c-3.95475,-0.73306 -7.61305,-0.58929 -11.50381,-1.54051c0,0 -2.42536,-0.60633 -1.81903,-3.03169c0.60633,-2.42536 3.03169,-1.81903 3.03169,-1.81903c3.74456,0.96106 7.34365,0.77038 11.1956,1.47371c3.27014,0.5971 6.45211,1.6304 9.72788,2.19585c9.58987,1.65536 19.18292,1.8253 28.87856,1.85583c7.90587,0.02489 15.6271,-0.07467 23.43795,0.81214c1.16865,0.13268 2.40294,-0.28802 3.52805,0.05471c1.62951,0.49638 3.00951,1.59675 4.51427,2.39513c2.98341,7.66214 3.01164,15.52725 3.01133,23.638c-0.00056,14.31705 -0.02645,28.79794 -3.80366,42.68163l-1.08442,3.97617c0,0 -0.6578,2.41191 -3.06971,1.75411z" fill="#ff6666" stroke="none" stroke-linecap="butt"/><path d="M374.10001,182.00006c0,-1.38071 1.11929,-2.5 2.5,-2.5c1.38071,0 2.5,1.11929 2.5,2.5c0,1.38071 -1.11929,2.5 -2.5,2.5c-1.38071,0 -2.5,-1.11929 -2.5,-2.5z" fill="#ff6666" stroke="none" stroke-linecap="butt"/><path d="M338.83224,237.16776c-1.76777,-1.76777 0,-3.53553 0,-3.53553l2.76777,-1.73223c4.00673,0 8.22433,-0.26369 12.21208,0.00901c4.41796,0.30212 8.86665,1.63102 13.24815,2.26406c4.95977,0.71659 10.18172,0.74439 15.08166,1.78636c5.46548,1.16224 10.5936,3.87115 15.96657,5.44705c0.33985,0.03564 0.67964,0.07212 1.01944,0.10832c0.84791,-0.56016 1.89885,-0.3781 1.89885,-0.3781l1.27993,0.22644l4.93944,0.54882c0.77172,0.0754 1.44057,0.50169 1.84492,1.11725c0.30496,0.0314 0.60957,0.06493 0.91367,0.10142c9.97978,1.19757 19.54391,1.76937 29.59529,1.76937c2.75874,0 5.60864,0.8132 8.27554,0.10727c1.10772,-0.29321 3.21556,-2.63057 3.95669,-3.37504c1.93035,-1.93905 5.32351,-4.49781 6.39606,-7.0228c0.32805,-0.77231 -0.22532,-1.68382 -0.10956,-2.51489c0.53838,-3.86526 2.10127,-8.136 3.1226,-11.88088c2.15587,-7.90486 3.91313,-15.87138 5.58304,-23.85931l-3.57285,-0.71525c-5.25743,-1.33105 -10.85197,-1.54739 -16.25796,-1.96299c-12.54877,-0.96472 -25.0144,-1.17606 -37.59357,-1.17606c0,0 -2.5,0 -2.5,-2.5c0,-1.35479 0.73418,-1.9754 1.40682,-2.25969c-1.12033,-0.14198 -1.79431,-1.16474 -1.79431,-1.16474l-1.78002,-2.73978c-0.59366,-1.77699 -1.18732,-3.55397 -1.78098,-5.33096c-1.78518,-20.09537 -1.96791,-40.38484 -1.65083,-60.56167c0.11554,-7.35247 0.78156,-14.67613 0.799,-22.03358c-0.31069,-0.28413 -0.57414,-0.69989 -0.725,-1.30332c-0.60633,-2.42536 1.81903,-3.03169 1.81903,-3.03169c7.73375,-1.91272 15.85259,-1.67284 23.77649,-1.67379c8.33343,-0.001 16.66686,-0.00084 25.00029,-0.00085c3.85648,-0.00001 10.74186,-1.04938 13.71296,2.456c1.369,1.61518 1.38933,4.01475 1.79668,6.09249c1.2656,6.45533 1.201,13.7971 1.20858,20.3544c0.00775,9.82988 0.22277,19.68239 -0.21313,29.50321c-0.1906,4.29411 0.11849,9.01058 -0.60169,13.2544c-1.30819,7.7088 -4.01624,15.37087 -6.48326,22.77348l-0.01886,0.05659c0,0 -0.79056,2.37171 -3.16227,1.58116c-2.37171,-0.79056 -1.58116,-3.16227 -1.58116,-3.16227l0.01886,-0.05659c2.37532,-7.12472 4.99671,-14.49837 6.27894,-21.91333c0.70296,-4.06514 0.37112,-8.63828 0.55437,-12.75546c0.43375,-9.74511 0.21589,-19.52305 0.2082,-29.27725c-0.00202,-4.97015 -0.39387,-9.8227 -0.77768,-14.77605c-0.01758,-0.22694 -0.42909,-7.61415 -0.99441,-8.38677c-0.79204,-1.08249 -3.90682,-0.75038 -4.94613,-0.74401c-3.33326,0.02044 -6.66665,-0.00002 -9.99998,0.00001c-8.33053,0.00008 -16.66149,-0.02385 -24.99198,0.00142c-4.93899,0.01498 -9.9991,0.06408 -14.87879,0.94388c-0.01556,7.41719 -0.68545,14.7997 -0.80036,22.21146c-0.3072,19.81517 -0.04713,39.69371 1.54912,59.43846c0.46047,1.38528 0.92093,2.77056 1.3814,4.15584l1.45761,2.17332c0,0 1.37562,2.0875 -0.71188,3.46312c-0.12607,0.08308 -0.24955,0.15353 -0.37028,0.21257c12.63697,0.00232 25.16417,0.22034 37.77171,1.19076c5.6578,0.43549 11.46212,0.7085 16.97145,2.07008l3.49062,0.69753c1.30298,-6.32421 2.59109,-12.65668 4.01837,-18.97749c2.15305,-9.53493 3.82346,-19.30126 6.33202,-28.74391c2.02114,-7.60795 5.40777,-14.85354 7.57116,-22.42281c2.88107,-10.08031 5.63484,-21.57471 6.34322,-32.05347c0.30123,-4.45599 -0.51673,-9.33354 -0.75636,-13.79124c-0.26721,-4.9706 -0.98025,-9.95064 -1.24123,-14.89231c-0.05294,-1.00245 0.59998,-2.04295 0.28952,-2.99758c-0.40242,-1.23743 -3.41169,-0.68604 -3.84858,-0.67964c-4.99557,0.07312 -9.99897,0.00014 -14.99521,0.00965c-8.32663,0.01584 -16.50403,0.33764 -24.7748,0.98406c-9.92862,0.77599 -20.20932,0.00629 -30.17722,0.00629c-12.42658,0 -24.80865,-0.26623 -37.19063,-1.00728c-4.35527,-0.26066 -8.65786,-1.58012 -13,-2c-2.71439,-0.26248 -5.47595,0.32427 -8.18111,-0.02051c-4.44467,-0.56649 -8.58059,-3.33546 -13,-4c-6.19277,-0.93119 -13.35419,0.02779 -19.62826,0.02779c-14.18819,0 -28.37638,0.0002 -42.56457,-0.00442c-8.32257,-0.00271 -16.88532,0.53276 -25.18424,-0.08383c-4.99741,-0.3713 -9.97872,-1.56287 -14.95582,-2.15438c-6.57959,-0.78196 -13.21814,-1.23428 -19.81556,-1.8511c-4.98508,-0.32357 -10.14678,-0.33298 -15.098,-0.98599c-4.91308,-0.64798 -9.71274,-2.38734 -14.63547,-2.93318c-9.58859,-1.06319 -19.5042,0.54716 -29.13191,-0.16549c-6.63188,-0.4909 -13.16857,-2.23328 -19.79166,-2.8279c-7.46749,-0.67043 -15.32001,0.00629 -22.82149,0.00629c-28.73612,0.02961 -57.14666,0.50034 -85.78471,2.9906c0,0 -2.4906,0.21657 -2.70718,-2.27403c-0.21657,-2.4906 2.27403,-2.70718 2.27403,-2.70718c28.78117,-2.50271 57.33578,-2.97965 86.21529,-3.0094c7.62621,0 15.58439,-0.6634 23.17851,0.00629c6.62901,0.58458 13.17161,2.33785 19.80632,2.82896c9.67764,0.71635 19.62595,-0.88318 29.27011,0.17765c4.97715,0.54747 9.8187,2.29571 14.78195,2.9503c4.8646,0.64158 9.94153,0.64029 14.83891,0.95867c6.66256,0.62224 13.36641,1.08076 20.01094,1.87044c4.90221,0.58261 9.81444,1.76751 14.73621,2.13318c8.1749,0.60738 16.6167,0.06741 24.8154,0.07009c14.18765,0.00463 28.37529,0.00442 42.56294,0.00442c6.52832,0 13.92467,-0.94164 20.37174,0.02779c4.41439,0.66378 8.58411,3.45649 13,4c2.18073,0.26841 5.50589,-0.23991 7.81889,-0.02051c4.33868,0.41153 8.65117,1.74683 13,2c12.25933,0.71367 24.50641,0.99272 36.80937,0.99272c20.039,0 39.91912,-0.98056 59.94482,-0.9999c4.96915,-0.0048 15.09766,-2.1261 18.25937,3.32025c0.83856,1.44451 0.12292,3.34049 0.28952,5.00242c0.50282,5.0158 0.97533,9.9323 1.2466,14.97835c0.24964,4.64383 1.06339,9.69555 0.75581,14.3381c-0.71878,10.84912 -3.54581,22.71509 -6.52796,33.14905c-2.15858,7.55243 -5.54589,14.7837 -7.55766,22.37467c-2.48322,9.36992 -4.13963,19.05909 -6.27581,28.51932c-3.61632,16.01515 -6.34843,32.10291 -10.66954,47.94698c-0.95857,3.51475 -2.45181,7.53856 -2.98388,11.17621c-0.16822,1.15004 0.35061,2.41781 -0.10956,3.48511c-1.56141,3.62144 -6.53053,8.6508 -9.78674,11.14279c-1.21167,0.92729 -2.39866,2.02233 -3.86051,2.45937c-0.48534,0.1451 -9.39739,0.10727 -9.72446,0.10727c-13.27903,0 -27.32304,-0.1267 -40.36664,-3.0387c-0.69993,-0.15626 -1.39455,-0.33733 -2.08508,-0.53751c-1.0143,-0.09865 -2.02944,-0.18312 -3.04689,-0.22573c-3.27339,-0.13708 -6.53889,0.4225 -9.80896,0.62375c-21.00201,-1.9684 -41.97733,-2.22181 -63.06643,-2.21551c-13.28459,0.00397 -26.61611,-0.26142 -39.88952,0.30566c-34.97672,1.49113 -69.7195,4.55448 -104.59568,7.56104c-28.35349,2.44427 -57.50476,5.14151 -85.13445,12.05238c0,0 -2.42535,0.60637 -3.03172,-1.81898c-0.60637,-2.42535 1.81898,-3.03172 1.81898,-3.03172c27.89055,-6.96988 57.29828,-9.71601 85.91775,-12.1832c34.94814,-3.01277 69.76315,-6.08077 104.81215,-7.57498c13.34433,-0.5677 26.74552,-0.30621 40.10099,-0.3102c21.10758,-0.0063 42.13065,0.18015 63.14788,2.21615c0.0003,-0.00002 0.0006,-0.00004 0.0009,-0.00006c-1.09454,-0.34384 -2.19796,-0.64548 -3.31519,-0.88183c-4.77484,-1.01011 -9.87994,-1.02061 -14.71286,-1.71888c-4.27769,-0.61804 -8.64444,-1.94357 -12.95733,-2.2307c-3.85082,-0.25637 -7.92157,0.00901 -11.78792,0.00901l0.76777,0.26777c0,0 -1.76777,1.76777 -3.53553,0z" fill="#ff6666" stroke="none" stroke-linecap="butt"/><path d="M141.30002,265.19998c0,-1.38071 1.11929,-2.5 2.5,-2.5c1.38071,0 2.5,1.11929 2.5,2.5c0,1.38071 -1.11929,2.5 -2.5,2.5c-1.38071,0 -2.5,-1.11929 -2.5,-2.5z" fill="#ff6666" stroke="none" stroke-linecap="butt"/><path d="M26.60001,272.89999c-2.5,0 -2.5,-2.5 -2.5,-2.5c0,-12.33333 0,-26.66667 0,-39c0,-7.5624 0.44651,-15.26441 0.00728,-22.80937c-0.25314,-4.34838 -1.59358,-8.65812 -1.99976,-12.99689c-0.7184,-7.67383 0.13074,-15.62387 -0.06465,-23.33168c-0.29468,-11.62498 -1.34945,-23.10076 -2.73361,-34.63542c-3.4717,-28.93084 -5.57675,-58.01092 -9.18995,-86.91654c0,0 -0.31009,-2.48069 2.17061,-2.79078c2.48069,-0.31009 2.79078,2.17061 2.79078,2.17061c3.61423,28.91388 5.72027,58.00198 9.19295,86.94099c1.40277,11.68971 2.46898,23.32351 2.76762,35.10444c0.19303,7.61493 -0.66985,15.49228 0.05122,23.07091c0.41334,4.34433 1.73949,8.6463 2.00024,13.00311c0.45905,7.67022 0.00728,15.50243 0.00728,23.19063c0,12.33333 0,24.66667 0,37v2c0,0 0,2.5 -2.5,2.5z" fill="#ff6666" stroke="none" stroke-linecap="butt"/><path d="M210.10001,261.39999c0,-1.38071 1.11929,-2.5 2.5,-2.5c1.38071,0 2.5,1.11929 2.5,2.5c0,1.38071 -1.11929,2.5 -2.5,2.5c-1.38071,0 -2.5,-1.11929 -2.5,-2.5z" fill="#ff6666" stroke="none" stroke-linecap="butt"/><path d="M214.36061,321.62121c-10.14562,2.09659 -20.24097,4.38438 -30.27614,6.39141c-19.3317,3.86633 -39.8783,7.4001 -59.6864,6.07039c-10.33087,-0.6935 -19.91851,-3.99838 -29.6647,-7.129c-3.16892,-1.0179 -6.36727,-1.28829 -9.42929,-2.45582c-0.31307,-0.14927 -1.02038,-0.78503 -0.93921,-0.44782c0.63504,2.63823 3.88603,5.60381 5.90128,7.28576c5.43381,4.53512 13.21793,6.85616 19.86784,9.0733c17.92524,5.97643 36.54394,5.48918 55.18369,5.49018c8.31441,0.00045 16.64358,0.14475 24.95657,0.00076c7.69544,-0.13329 15.4734,-1.0117 23.16564,-0.80004c18.12533,0.49874 36.21111,0.79047 54.36076,0.79967c13.33391,0 26.67743,-0.84941 39.99279,-0.79933c8.31939,0.03129 16.60565,0.89958 24.94011,0.78863c12.64496,-0.16834 25.17018,-1.01213 37.74326,-2.26945c18.77658,-1.87768 37.48806,-3.80459 56.16923,-6.49465c14.18499,-2.04262 27.78366,-3.8574 40.39347,-11.05004c2.54502,-0.62946 4.13162,-0.93686 0.74915,-1.71044c-2.73505,-0.62551 -5.55546,-0.82846 -8.35406,-1.02731c-6.56345,-0.46637 -13.18377,-0.54412 -19.7657,-0.43018c-19.91011,0.34466 -39.70839,2.71756 -59.56171,4.06946c-21.036,1.43243 -42.19672,2.16671 -63.2591,0.7636c-13.3001,-0.88601 -26.55708,-2.57776 -39.85654,-3.54149c-10.67404,-0.77499 -21.2771,-2.08813 -31.89172,-2.53615c0.00012,0.24573 0.00018,0.49152 0.00018,0.73736v3c0,0 0,2.5 -2.5,2.5c-2.5,0 -2.5,-2.5 -2.5,-2.5v-3c0,-0.29307 -0.00008,-0.58606 -0.00023,-0.87897c-6.6813,-0.08922 -13.3723,0.25113 -20.09356,1.37045l-3.40621,0.00852c0,0 -1.59899,0 -2.23939,-1.27879zM277.35299,319.21186c13.28966,0.96342 26.53721,2.65412 39.82744,3.53947c20.83848,1.3882 41.77494,0.65408 62.58707,-0.76311c24.94427,-1.69856 49.90102,-4.95929 74.95369,-3.99887c1.69291,0.0649 3.37983,0.23945 5.06964,0.36075c4.5198,0.32444 19.20973,0.78681 14.08848,9.83793c-0.85514,1.51133 -3.09091,1.58362 -4.63636,2.37543c-13.04576,7.46875 -27.21024,9.39773 -41.88892,11.51136c-18.75107,2.70002 -37.5329,4.63551 -56.37968,6.52021c-12.71584,1.2716 -25.38603,2.12358 -38.17423,2.29382c-8.36311,0.11134 -16.67808,-0.75683 -25.02547,-0.78822c-13.30905,-0.05005 -26.64737,0.79937 -39.97525,0.79937c-18.17592,-0.00921 -36.28768,-0.2873 -54.43929,-0.80031c-7.63421,-0.21576 -15.36117,0.66763 -22.99925,0.79993c-8.34196,0.14449 -16.70005,0.00044 -25.04343,-0.00001c-13.44619,-0.00072 -27.00751,0.52954 -40.33541,-1.63478c-9.95252,-1.61619 -19.47544,-4.94393 -28.69648,-8.89622c-4.43242,-1.89981 -7.9883,-3.72262 -11.2289,-7.3711c-1.23138,-1.38637 -2.92581,-2.48176 -3.67066,-4.17986c-0.98984,-2.2566 -2.34546,-5.01349 -1.35081,-7.26798c0.78471,-1.77864 3.64054,-1.3652 5.46082,-2.0478c3.60708,1.0853 7.12709,1.53266 10.7604,2.68973c9.36938,2.98381 18.54692,6.23606 28.4766,6.90263c19.36539,1.29998 39.47306,-2.20496 58.37093,-5.98453c18.82391,-3.76477 37.83537,-8.46959 56.99935,-11.1275c0.01039,-2.36287 0.03344,-4.72301 0.08159,-7.08222c-4.19494,0 -8.38989,0 -12.58483,0c-12.94658,0 -26.05133,-0.46951 -38.98154,0.19715c-16.05696,0.82787 -31.89311,2.80285 -48.01846,2.80285c0,0 -2.5,0 -2.5,-2.5c0,-2.5 2.5,-2.5 2.5,-2.5c16.03921,0 31.78953,-1.97276 47.76101,-2.79622c13.01644,-0.6711 26.20623,-0.20378 39.23899,-0.20378c4.24296,0 8.48592,0 12.72888,0c0.14901,-3.91256 0.39126,-7.82608 0.78353,-11.74876c0,0 0.24876,-2.48759 2.73635,-2.23883c2.48759,0.24876 2.23883,2.73635 2.23883,2.73635c-0.37563,3.75629 -0.61054,7.50426 -0.75683,11.25124c11.48381,0 22.96761,0 34.45142,0c0.08796,-6.04476 0.14809,-12.10915 -0.4083,-18.08991c-0.36008,-3.87056 0.13435,-8.16521 -1.1456,-11.81955c0,0 -0.5088,-1.52645 0.51456,-2.53835c-1.47022,0.11926 -2.9408,0.23469 -4.41185,0.34502c-34.3511,2.57636 -68.67588,5.49027 -103.0107,8.27421c-21.50529,1.74369 -43.05115,2.70301 -64.55278,4.42318c-7.4875,0.59901 -15.17646,0.32754 -22.55651,1.57141c0,0 -2.46599,0.41099 -2.87698,-2.05499c-0.41099,-2.46599 2.05499,-2.87698 2.05499,-2.87698c7.54172,-1.24392 15.33623,-1.01201 22.97976,-1.62351c21.49992,-1.72003 43.04392,-2.6792 64.54744,-4.42275c34.34486,-2.78475 68.67968,-5.69945 103.04083,-8.27656c19.25873,-1.44442 38.43735,-3.74942 57.77869,-4.1104c9.58106,-0.17882 19.40845,-0.49019 28.97756,0.00174c4.63492,0.23827 9.03403,0.79993 13.68669,0.79748c3.05122,0 6.11587,0.29814 9.15367,0.01217c2.42811,-0.22858 4.71411,-1.35146 7.14092,-1.59347c3.28756,-0.32786 6.61758,-0.23572 9.8851,-0.72448l0.45395,-0.06725c0,0 2.47301,-0.36637 2.83938,2.10664c0.36637,2.47301 -2.10664,2.83938 -2.10664,2.83938l-0.45395,0.06725c-3.3093,0.48586 -6.67721,0.42404 -10.00693,0.741c-2.4671,0.23484 -4.79224,1.36926 -7.25911,1.6066c-3.20068,0.30795 -6.43092,0.01217 -9.64638,0.01217c-4.726,-0.00237 -9.2088,-0.55926 -13.91328,-0.80262c-9.45029,-0.48885 -19.1598,-0.17263 -28.62242,0.00174c-16.6519,0.30686 -33.18235,2.0714 -49.74804,3.4732c0.61462,0.51454 0.85546,1.23708 0.85546,1.23708c0.82834,2.57944 0.79633,5.36857 0.92558,8.07466c0.37384,7.82681 0.63764,15.59776 0.74679,23.41037c12.78956,-0.06577 25.533,-0.65392 38.1239,1.80196l3.00969,0.20989c0,0 2.49368,0.17768 2.316,2.67136c-0.17768,2.49368 -2.67136,2.316 -2.67136,2.316l-3.30964,-0.24037c-12.36738,-2.39008 -24.85987,-1.82513 -37.42032,-1.7591c0.00509,0.96759 0.00768,1.93614 0.00768,2.90582v3.79999c0,0 0,2.5 -2.5,2.5c-2.5,0 -2.5,-2.5 -2.5,-2.5v-3.79999c0,-0.96515 0.00592,-1.93196 0.01531,-2.90002c-11.51059,0 -23.02117,0 -34.53176,0c-0.04449,2.1446 -0.06754,4.28994 -0.07891,6.4374c7.54273,-0.89593 15.10855,-1.43553 22.69533,-1.4374c0,0 2.5,0 2.5,2.5c0,2.5 -2.5,2.5 -2.5,2.5c-7.58769,-0.00194 -15.15743,0.54716 -22.70526,1.4581c0.00004,0.09986 0.00009,0.19974 0.00015,0.29962c10.73945,0.45211 21.46905,1.77357 32.25808,2.55416z" fill="#ff6666" stroke="none" stroke-linecap="butt"/></g></g></svg>