<svg version="1.1" xmlns="http://www.w3.org/2000/svg" xmlns:xlink="http://www.w3.org/1999/xlink" width="529.96473" height="419.62534" viewBox="0,0,529.96473,419.62534"><g transform="translate(47.89999,43.92536)"><g data-paper-data="{&quot;isPaintingLayer&quot;:true}" fill="#9966ff" fill-rule="nonzero" stroke="none" stroke-width="0.5" stroke-linecap="butt" stroke-linejoin="miter" stroke-miterlimit="10" stroke-dasharray="" stroke-dashoffset="0" style="mix-blend-mode: normal"><path d=""/><path d=""/><path d=""/><path d=""/><path d=""/><path d=""/><path d=""/><path d=""/><path d=""/><path d=""/><path d=""/><path d=""/><path d="M480.86326,158.42308c0.40089,0.08636 0.80134,0.17268 1.20148,0.25862c-1.84557,1.30429 -3.68995,2.61288 -5.52773,3.92946c-0.05106,-0.01047 -0.10214,-0.02093 -0.15323,-0.03137c1.49716,-1.38163 2.99038,-2.76679 4.47949,-4.15671z"/><path d=""/><path d=""/><path d=""/><path d=""/><path d=""/><path d=""/><path d=""/><path d="M275.28263,7.25605c-0.04466,-0.35333 -0.08872,-0.70668 -0.13209,-1.06005c1.78611,-1.68514 3.57477,-3.36744 5.36642,-5.0464c0.13741,0.772 0.26692,1.54511 0.38521,2.3187c-1.87318,1.26258 -3.74636,2.52517 -5.61954,3.78775z"/><path d=""/><path d=""/><path d=""/><path d="M232.02562,37.96687c1.73893,-0.41616 3.60697,-0.37637 5.47748,-0.10415c-3.24561,1.75619 -6.31235,3.97375 -9.57128,5.69374c-3.24187,1.71099 -6.48056,3.42846 -9.71092,5.16136c3.26332,-5.12759 7.61945,-9.27068 13.80472,-10.75095z"/><path d="M329.65892,77.07827c1.16316,-0.93938 2.26982,-1.94234 3.29131,-3.04116c0.01433,-0.01541 0.02864,-0.03083 0.04295,-0.04625l0.00685,0.00914l2.48716,-1.86537c-0.00104,0.86078 -0.14724,1.71498 -0.47189,2.54698c-1.78293,0.80389 -3.57287,1.59392 -5.35639,2.39666z"/><path d="M191.91727,100.98072c0.76534,-1.82468 2.2739,-3.26133 3.65962,-4.67377c2.49062,-2.53864 4.96326,-3.4855 8.05454,-5.01803c-0.40652,1.84434 -0.60527,3.75601 -0.40998,5.52709c-0.26613,0.2055 -0.53223,0.41106 -0.79829,0.61666c-0.16857,0.09346 -0.33566,0.18961 -0.50094,0.28906c-1.0223,0.61514 -1.99741,1.33015 -2.85213,2.16258c-0.2283,0.22234 -0.45856,0.44661 -0.68518,0.67533c-2.3798,1.84645 -4.75667,3.69708 -7.13074,5.55181l-0.21376,0.16626c-0.1681,-1.68284 0.11384,-3.4779 0.87684,-5.297z"/><path d="M204.61549,124.44903l0.51897,-1.64056c2.04729,-0.8231 3.94402,-2.01948 5.81631,-3.27363c-0.1156,0.6712 -0.23594,1.34231 -0.36212,2.0135c-1.94707,1.61875 -3.89391,3.23695 -5.84144,4.85312c-0.45685,-0.9201 -0.13172,-1.95243 -0.13172,-1.95243z"/><path d="M196.99135,227.73656l-1.26851,3.18779c0,0 -0.92433,2.32285 -3.24717,1.39852c-2.32285,-0.92433 -1.39852,-3.24717 -1.39852,-3.24717l1.26851,-3.18779c1.46465,-3.68069 2.94312,-7.35448 4.38511,-11.0426c1.39376,0.73726 2.98274,1.15475 4.66923,1.15475c0.08298,0 0.16573,-0.00101 0.24823,-0.00302c-1.52803,3.92222 -3.1,7.82706 -4.65688,11.73952z"/><path d="M312.38678,208.08019c-2.08013,1.38675 -3.46688,-0.69338 -3.46688,-0.69338l-1.7657,-2.68843c-1.30523,-3.96054 -4.43236,-8.49333 -7.83199,-10.9496c-1.89168,-1.36676 -4.50362,-1.22888 -6.73526,-1.91172c-1.38498,-0.42378 -2.69298,-1.28399 -4.14099,-1.31606c-1.44801,-0.03207 -2.79257,0.77033 -4.1952,1.13141c-1.94452,0.50058 -3.11071,0.73039 -4.14728,1.00504c-0.83691,0.3984 -1.65024,0.7916 -2.41358,1.19248c-1.44206,0.64137 -2.88709,1.26226 -4.32783,1.88512c-1.89292,1.14072 -3.70479,2.42461 -5.58732,3.58441c-1.51666,0.93439 -2.81973,2.39499 -4.55601,2.79336c-0.11227,0.02576 -0.22478,0.04945 -0.33753,0.07121l0.0132,0.0462l-4.7521,1.35774c-0.23453,0.07283 -0.48384,0.11205 -0.74232,0.11205c-1.38071,0 -2.5,-1.11929 -2.5,-2.5c0,-0.90342 0.4792,-1.69492 1.19728,-2.13418l3.62303,-2.29664l0.00992,0.01565l0.0388,-0.04576c4.09924,-2.33688 8.36331,-4.17264 12.66355,-6.04102c1.43625,-0.75241 2.86571,-1.40133 4.33969,-1.97174c3.15025,-1.48128 7.18268,-2.96993 9.293,-5.48054c0.97597,-1.16109 1.23837,-2.77333 1.9725,-4.10062c3.55653,-6.43014 1.29582,-12.67912 1.26225,-19.54516c-0.05894,-12.05076 0.48985,-24.8304 4.97879,-36.12848c0,0 0.92846,-2.3212 3.24966,-1.39273c2.3212,0.92846 1.39273,3.24966 1.39273,3.24966c-2.97993,7.39483 -3.58278,15.18716 -4.31395,23.06508c-0.40784,4.39425 -0.99025,9.59866 -0.33952,14.006c0.17173,1.16308 0.33234,2.30576 0.46319,3.43233c0.66113,-0.5591 1.32349,-1.11707 1.98709,-1.67389c0.2865,0.13087 0.57218,0.26744 0.85666,0.40836c-0.93842,0.5116 -1.8759,1.02482 -2.81248,1.53964c0.60345,5.3877 0.4882,10.41321 -2.39989,15.54883c-0.74957,1.33289 -1.1638,2.8819 -1.98683,4.15663c1.22166,0.33421 2.41175,0.88159 3.62958,1.23093c2.63795,0.75671 5.62204,0.83857 7.87273,2.40885c4.14652,2.89298 8.15028,8.24925 9.76799,13.0504l1.43437,2.11168c0,0 1.38675,2.08013 -0.69338,3.46688z"/><path d=""/><path d=""/><path d="M114.0907,298.09762c-2.49761,-0.10931 -2.3883,-2.60692 -2.3883,-2.60692l0.22068,-4.9939c1.04999,-8.3168 2.61679,-16.55181 3.80206,-24.85032c0,0 0.35355,-2.47487 2.82842,-2.12132c2.47487,0.35355 2.12132,2.82842 2.12132,2.82842c-1.17219,8.20386 -2.72642,16.34576 -3.76978,24.56681l-0.20749,4.78893c0,0 -0.10931,2.49761 -2.60692,2.3883z"/><path d="M84.40184,365.2265c-2.42648,0.60182 -3.0283,-1.82466 -3.0283,-1.82466l-0.76348,-3.07827c-2.41492,-9.75601 -3.69888,-19.87645 -5.02729,-29.83704c-1.73145,-13.01311 -2.36572,-26.3664 -2.28274,-39.4865c0.02078,-3.28552 0.43195,-6.77395 2.02786,-9.6459c1.06656,-1.91934 1.53787,-4.50701 3.42749,-5.62538c1.04817,-0.62036 5.97534,0.9146 7.52056,1.52972c1.58781,0.63208 3.35126,0.99498 4.70384,2.03958c1.29293,0.99854 2.38725,2.13308 3.31703,3.36863c0.22054,-3.93781 0.64886,-7.8375 1.46318,-11.61099c0.04043,-0.18736 3.21511,-9.16339 3.21844,-9.17277c2.00981,-5.65825 5.6101,-14.33685 12.29695,-15.92727c1.8901,-0.44955 3.85771,0.47342 5.77534,0.78528c2.75833,0.44859 5.55471,0.76655 8.34927,0.75908c0,0 2.5,0 2.5,2.5c0,2.5 -2.5,2.5 -2.5,2.5c-3.09628,-0.00747 -6.21732,-0.22008 -9.2507,-0.84101c-1.277,-0.2614 -2.54433,-1.05941 -3.82463,-0.81469c-1.17985,0.22552 -2.10951,1.22289 -2.92505,2.10483c-2.77486,3.00076 -4.39034,6.84393 -5.70623,10.59788c-1.00601,2.86991 -2.41464,5.62398 -3.05334,8.59728c-1.58991,7.40149 -1.61337,15.33426 -1.56305,23.03863c0.05802,0.34112 0.11278,0.6822 0.16466,1.02283c0.27244,1.78864 0.89245,3.63674 0.50571,5.40418c-0.02014,0.09205 -0.04156,0.18367 -0.06418,0.2749l0.04353,0.00568l-0.64257,4.92395c-0.14348,1.24434 -1.20062,2.21051 -2.48342,2.21051c-1.38071,0 -2.5,-1.11929 -2.5,-2.5c0,-0.00065 0,-0.00129 0,-0.00194l0.00331,-4.99972l0.00097,0l-0.00097,-0.00312c0.00345,-1.09366 0.00058,-2.19569 -0.00447,-3.30405c-0.28397,-2.96184 -0.12693,-6.18724 -1.3738,-8.77798c-1.12296,-2.33327 -2.71584,-4.54581 -4.75246,-6.14499c-1.16979,-0.91854 -4.17965,-1.41533 -5.67227,-2.09288c-0.52433,-0.23801 -1.04007,-1.32682 -1.45638,-0.92901c-0.83853,0.80126 -0.60071,2.24741 -1.04464,3.31889c-0.43005,1.03795 -1.34396,1.88303 -1.56688,2.98421c-0.29273,1.44604 0.05641,2.95028 0.06688,4.42562c0.09174,12.92945 0.52434,25.99397 2.23889,38.82569c1.30298,9.77516 2.54508,19.72194 4.92412,29.29421l0.76348,3.07827c0,0 0.60182,2.42648 -1.82466,3.0283z"/><path d="M456.11994,316.18681c-1.38679,-2.0801 0.69331,-3.46689 0.69331,-3.46689l2.39996,-1.60004c0,0 2.0801,-1.38679 3.46689,0.69331c1.38679,2.0801 -0.69331,3.46689 -0.69331,3.46689l-2.39996,1.60004c0,0 -2.0801,1.38679 -3.46689,-0.69331z"/><path d="M256.76781,29.83225c1.23638,1.2364 0.74328,2.47279 0.33512,3.10437c1.1823,-0.53278 2.3721,-0.97705 3.55164,-1.3229c0.01104,-0.00324 0.02207,-0.00647 0.03311,-0.00969c-0.12689,-2.67664 0.55813,-5.04787 1.56486,-8.06393l1.62631,-4.0686c0,0 0.9285,-2.32118 3.24968,-1.39269c2.32118,0.9285 1.39269,3.24968 1.39269,3.24968l-1.57376,3.9314c-0.57516,1.72805 -1.13915,3.54102 -1.34997,5.36134c5.46606,-0.60959 10.65703,0.35624 16.29679,1.44521c7.0067,3.27584 13.35665,7.38827 16.94179,14.41554l0.79999,1.60001c0,0 1.11802,2.23608 -1.11806,3.35409c-2.23608,1.11802 -3.35409,-1.11806 -3.35409,-1.11806l-0.79999,-1.60001c-2.7881,-5.7209 -8.37489,-9.24284 -14.00802,-11.89412c-3.04088,-0.5622 -6.02121,-1.66898 -9.11283,-1.73876c-1.68085,-0.03794 -3.39694,0.10482 -5.1073,0.41229c0.14147,0.3569 0.30979,0.71126 0.50777,1.06245c0.76159,1.35099 2.95921,0.93545 4.40773,1.4895c3.05416,1.16819 5.92782,2.76505 8.93354,4.05275c0,0 2.29787,0.98479 1.31308,3.28266c-0.98479,2.29787 -3.28266,1.31308 -3.28266,1.31308c-2.91752,-1.25079 -5.70113,-2.81438 -8.66643,-3.94725c-2.88261,-1.10128 -4.65131,-0.33038 -6.79234,-3.31049c-0.56669,-0.78878 -0.71057,-1.78271 -0.88886,-2.76131c-4.11987,1.44338 -7.98549,3.80516 -10.98049,6.8448c-0.75224,2.37622 -1.35321,4.82957 -2.10087,7.22208c0,0 -0.74569,2.3862 -3.13189,1.64051c-0.08366,-0.02614 -0.16347,-0.0543 -0.23959,-0.08431c-0.8412,2.27182 -1.25453,4.63583 -0.65786,7.26429c0.15649,0.68937 0.989,1.01237 1.44189,1.55515c0.97119,1.16395 1.67791,2.5738 2.82763,3.56178c0.80716,0.69361 7.72781,4.19441 8.38954,4.58411c1.65968,0.9774 3.29835,1.99555 4.9629,2.96569c-0.1556,-0.74872 -0.18443,-1.58546 -0.06393,-2.50571c0.64413,-4.91911 3.07241,-6.80414 6.1675,-7.32404c1.17303,-0.72284 2.56271,-1.29269 4.08822,-1.82738c1.28853,-0.45163 4.07348,-0.46325 5.96043,0.21245c0.87128,-0.44499 2.01002,-0.63678 3.49097,-0.45236c7.9189,0.98612 1.81806,8.66524 0.37981,9.98351c-0.16826,0.15423 -0.34435,0.29757 -0.52694,0.4318c-0.00283,0.00596 -0.00567,0.01192 -0.0085,0.01788c0.28686,0.59799 0.57077,1.15845 0.78744,1.64653c1.77778,4.00461 3.54108,6.93927 5.86616,10.6594c0,0 1.325,2.12 -0.795,3.44499c-2.12,1.325 -3.44499,-0.795 -3.44499,-0.795c-2.20289,-3.52462 -3.98062,-6.50132 -5.6847,-10.1576c-0.88669,0.87237 -1.8773,1.64444 -2.93324,2.28335c-1.5521,0.93912 -3.30626,1.80592 -5.11994,1.84522c-1.52307,0.033 -3.38131,-0.11088 -4.58557,-1.0146c-1.07961,0.5522 -2.27463,-0.0453 -2.27463,-0.0453c-7.50838,-3.76198 -16.13245,-7.74557 -21.3708,-14.37046c-0.78279,-0.98999 -1.93677,-1.81396 -2.26798,-3.0318c-2.05156,-7.54351 1.27985,-15.07877 6.70486,-20.77029c1.01356,-2.82624 2.26458,-5.53526 4.16332,-8.10152l2.52091,-2.52977c0,0 1.76778,-1.76776 3.53553,0.00002zM270.01656,70.22115c0.10383,-0.19812 0.22324,-0.39542 0.36899,-0.58142c0.15614,-0.19926 0.72683,-0.03085 0.70474,-0.28304c-0.04575,-0.5224 -1.13421,0.24868 -1.41216,0.69336c-0.0207,0.03312 -0.04133,0.0663 -0.06187,0.09954c0.0484,0.02144 0.10274,0.03704 0.1634,0.04621c0.07673,0.0116 0.15575,0.02 0.2369,0.02534z"/><path d="M243.00003,142.10001c-2.5,0 -2.5,-2.5 -2.5,-2.5l1.21635,-3.74529c8.03995,-4.81078 16.5873,-9.10118 25.21805,-12.79732c2.87039,-1.22925 5.79725,-2.32621 8.7371,-3.37859c0.99856,-0.35745 2.19155,-0.29322 3.04507,-0.92282c0.39479,-0.29122 0.26479,-0.97595 0.18524,-1.46004c-0.29175,-1.7753 -0.52381,-3.55991 -0.77653,-5.34118c-1.1881,-8.37415 -3.20351,-16.62649 -3.22531,-25.15478c0,0 0,-2.5 2.5,-2.5c2.5,0 2.5,2.5 2.5,2.5c-0.0259,9.13326 1.90561,18.6195 3.16773,27.59955c0.44593,3.17278 2.70157,3.92142 -0.58431,7.64446c-1.20282,1.36284 -3.28678,1.55512 -4.95493,2.27719c-2.82888,1.2245 -5.79231,2.11979 -8.62619,3.33267c-8.42611,3.60632 -16.77005,7.79516 -24.61861,12.49142l1.21635,-0.54528c0,0 0,2.5 -2.5,2.5z"/><path d="M333.2929,136.59638c-0.99637,2.29287 -3.28924,1.2965 -3.28924,1.2965l-3.01902,-1.31192c-12.33379,-5.35985 -23.52592,-12.54617 -34.90964,-19.66097c0,0 -2.12,-1.32499 -0.795,-3.44499c1.32499,-2.12 3.44499,-0.795 3.44499,-0.795c11.17148,6.98215 22.14974,14.05617 34.2524,19.31523l3.01902,1.31192c0,0 2.29287,0.99637 1.2965,3.28924z"/><path d="M284.50003,20.39999c0,-1.38071 1.11929,-2.5 2.5,-2.5c1.38071,0 2.5,1.11929 2.5,2.5c0,1.38071 -1.11929,2.5 -2.5,2.5c-1.38071,0 -2.5,-1.11929 -2.5,-2.5z"/><path d="M301.2323,18.63219c1.7678,-1.76773 3.53553,0.00007 3.53553,0.00007l-0.17726,0.19604c0.80001,0.26666 1.60002,0.53333 2.40002,0.79999c0,0 2.37171,0.79055 1.58116,3.16227c-0.79055,2.37171 -3.16227,1.58116 -3.16227,1.58116c-0.80001,-0.26666 -1.60002,-0.53333 -2.40002,-0.79999l-1.77724,-1.404c0,0 -1.76773,-1.7678 0.00007,-3.53553z"/><path d="M234.69036,42.74857c2.45145,0.49032 1.96113,2.94177 1.96113,2.94177l-0.79246,3.9604c-0.79753,4.73345 -0.75902,9.16448 -0.75902,13.94928c0,0 0,2.5 -2.5,2.5c-2.5,0 -2.5,-2.5 -2.5,-2.5c0,-5.09389 0.00796,-9.80281 0.84095,-14.85071l0.80764,-4.0396c0,0 0.49032,-2.45145 2.94177,-1.96113z"/><path d="M117.90295,72.82829c-3.08529,0.91595 -7.57448,4.49272 -11.17714,2.02623c-1.22665,-0.83981 0.17658,-2.9687 0.2065,-4.45499c0.06224,-3.09209 -0.10811,-6.18635 -0.03105,-9.27811c0.01843,-0.73936 0.03919,-1.47996 0.06248,-2.2216c-2.46374,-0.02405 -2.46374,-2.49982 -2.46374,-2.49982l0.12829,-0.80945c-1.93339,-5.82818 -5.13062,-11.00865 -7.86436,-16.47251c0,0 -1.11803,-2.23607 1.11803,-3.3541c2.23607,-1.11803 3.3541,1.11803 3.3541,1.11803c2.05219,4.10719 4.32848,8.06074 6.19821,12.22282c0.1725,-2.5963 0.3869,-5.19439 0.65205,-7.78574c-0.30936,-0.48048 -0.62716,-0.98169 -0.9726,-1.50768c-0.17396,-0.6678 -0.34792,-1.3356 -0.52187,-2.0034c-0.63863,-0.30537 -1.29184,-0.93006 -1.29184,-2.20796c0,-2.5 2.5,-2.5 2.5,-2.5l1.20867,0.70963c0.52411,-3.62186 1.16612,-7.21383 1.95087,-10.75196c0,0 0.54233,-2.44047 2.9828,-1.89814c2.44047,0.54233 1.89814,2.9828 1.89814,2.9828c-1.16147,5.21619 -1.89675,10.47588 -2.42378,15.76101c1.52411,1.56378 3.31348,2.75539 5.2651,3.6989c-0.34697,-1.88602 -0.70425,-3.77237 -0.58085,-5.6716c0.30529,-4.6985 1.94345,-9.39564 2.71713,-14.01904c0.26067,-1.55776 0.17634,-3.1707 0.50948,-4.71233c-0.08047,0.04806 -0.1609,0.09622 -0.24131,0.14448c0,0 -2.14373,1.28625 -3.42998,-0.85748c-1.28625,-2.14373 0.85748,-3.42998 0.85748,-3.42998c1.50042,-0.90011 3.01044,-1.76797 4.52982,-2.60644c0.05654,-0.38698 0.09804,-0.77608 0.12034,-1.16789l3.93608,-3.28196c0,0 2,-1.49999 3.5,0.50001c0.00846,0.01128 0.01681,0.02254 0.02505,0.03379c9.86027,-4.76881 20.08463,-8.53891 30.61464,-12.04892c0.94592,-0.31531 1.89065,-0.62908 2.83459,-0.9407c-0.08181,-0.76555 -0.17452,-1.52972 -0.27907,-2.29233c-3.37746,0.11432 -6.74968,0.25898 -10.07455,0.29142c-20.66221,2.27929 -39.7709,12.43884 -57.93147,21.95129c-5.71062,2.9912 -11.54001,5.74765 -17.25239,8.73266c-0.14873,0.07772 -8.82969,4.82241 -8.87211,4.83474c-0.0478,0.01389 -0.09567,0.02747 -0.1436,0.04073l0.0074,0.01851l-3.94736,1.57895c-0.30123,0.12865 -0.63286,0.19987 -0.98112,0.19987c-1.38071,0 -2.5,-1.11929 -2.5,-2.5c0,-0.54226 0.17264,-1.04419 0.46596,-1.45383l1.75269,-2.51765l0.09953,0.06929l0.10635,-0.32695c1.30113,-1.09803 2.60226,-2.19606 3.90339,-3.29408c3.23222,-3.88322 6.75555,-6.90031 10.46788,-10.30589c9.12289,-8.36907 17.96261,-16.67765 28.38633,-23.49529c3.50364,-2.29156 7.65816,-3.95174 11.3764,-5.86607c10.29564,-5.3007 20.8597,-10.46842 31.81908,-14.25313c14.07174,-4.85232 28.14996,-9.38851 43.11279,-10.64757c7.78838,-0.65536 15.9329,0.23767 23.72296,0.57636c11.32217,0.49226 22.6364,0.90673 33.942,1.70131c13.29771,0.93458 26.72254,1.23959 39.98592,2.52518c13.28622,1.2878 26.6654,3.43443 39.7721,5.91409c7.71763,1.4601 15.68495,2.47048 23.18754,4.80532c5.88297,1.83842 11.72395,3.73421 17.54942,5.74621c0.40262,0.13906 9.56556,3.29614 9.76479,3.39696c0.19626,0.09932 8.17257,5.61557 8.52028,5.85622c3.7685,2.60816 7.28791,5.48794 10.17127,8.88969c2.08728,0.81222 4.16597,1.6465 6.2296,2.51879c0.34159,-0.20539 0.78588,-0.33895 1.36374,-0.33895c1.77636,0 2.29054,1.26218 2.43937,1.99287c4.78089,2.1219 9.50794,4.3255 14.42052,6.15966c4.51949,1.6874 7.37257,2.00515 11.20661,-1.46483c1.45225,-1.31436 4.05081,-6.85755 7.62304,-3.92948c1.81149,1.48483 1.33464,4.49039 2.00195,6.73558c0.00895,4.42151 0.13058,8.50478 -0.75525,12.88524c-0.74523,3.68517 -2.93747,6.3935 -4.20628,9.82727c-1.78292,4.82509 -3.71878,9.18585 -5.86873,13.89485c-1.15915,2.53886 -3.27489,9.24361 -6.37093,10.05029c-1.36217,0.35492 -2.51076,-1.29919 -3.84703,-1.74175c-1.05938,-0.35086 -2.17771,-0.52703 -3.28964,-0.62186c-5.31105,-0.45292 -10.82636,-0.9058 -16.29441,-1.62565c-0.33498,12.24056 -0.14939,24.52285 -0.15856,36.69728c-0.00071,34.26947 0.13581,68.25252 -2.96896,102.40531c-0.53413,5.81083 -0.09531,11.66523 -0.23238,17.49398c-0.10167,4.32354 -0.20994,8.64268 -0.31285,12.9603c3.59378,0.09278 7.13789,0.26846 10.76886,0.68573c1.50033,0.17242 3.2249,-0.33187 4.50647,0.46707c1.04303,0.65023 0.99772,2.24949 1.584,3.32976c0.53262,0.98139 1.511,1.75883 1.76745,2.84559c0.25243,1.0697 0.04173,2.18583 -0.07251,3.29229c0.43383,0.09477 0.86752,0.18564 1.30103,0.27205c3.9267,0.7827 7.82179,0.2519 9.86791,4.9317c1.67424,3.82925 -1.0991,5.98351 -1.44196,9.35716c-0.25193,2.47892 -0.12696,4.98822 0.02918,7.47501c0.76019,12.10774 2.45689,24.14341 3.59838,36.22265c2.56739,-0.19168 5.24189,0.10788 7.99498,0.65044c0,0 2.45145,0.49028 1.96117,2.94174c-0.49028,2.45145 -2.94174,1.96117 -2.94174,1.96117c-1.62748,-0.33087 -4.52917,-1.08935 -6.61184,-0.98764c0.25447,2.83978 0.31196,5.70415 0.76702,8.51863c0.19234,1.18958 0.84072,2.31276 0.83312,3.51776c-0.00567,0.89861 -0.08291,1.75812 -0.21717,2.5889c1.515,1.83541 2.62451,3.09369 3.98865,6.06237c4.42424,9.6282 5.0305,21.49892 5.0305,31.84852v0.40002c0,0 0,2.5 -2.5,2.5c-2.5,0 -2.5,-2.5 -2.5,-2.5v-0.40002c0,-7.41311 -0.5135,-14.17017 -2.31564,-21.35618c-0.93053,-3.71048 -0.59517,-4.77789 -2.25383,-8.39527c-0.42338,-0.92336 -0.84509,-1.67791 -1.27926,-2.34763c-0.66827,1.53494 -1.4234,3.05747 -2.14155,4.65578c-0.4528,1.00776 -0.43338,2.30659 -1.22105,3.08131c-5.22776,5.14183 -15.49511,3.26399 -22.08865,3.26202c-14.6926,-0.0044 -29.1704,3.18732 -43.77512,4.40659c-12.75743,1.0614 -25.62486,1.25114 -38.42202,1.19339c-2.39378,-0.0108 -10.54824,0.84348 -11.25624,-3.61938c-0.74673,-4.70697 6.75061,-6.80023 9.36729,-7.85875c4.4474,-1.7991 8.88902,-2.32349 13.60705,-3.10984c2.38836,-0.39806 4.77243,-0.7639 7.1566,-1.08022c-2.6383,-0.1674 -5.27303,-0.27537 -7.90154,-0.28088c-9.47223,-0.01987 -19.01292,1.14484 -28.42908,2.04164c-12.80637,1.21968 -25.64139,3.25496 -38.49117,4.8989c7.16134,2.24788 14.24117,4.81351 21.44329,6.93177l4.00638,1.17834c0,0 2.39841,0.70541 1.693,3.10383c-0.70541,2.39841 -3.10383,1.693 -3.10383,1.693l-4.00638,-1.17834c-8.83667,-2.59901 -17.48735,-5.86406 -26.3299,-8.4038c-2.38693,-0.68557 -4.82481,-1.26667 -7.2894,-1.78573c-6.88752,0.6526 -13.77787,1.0709 -20.6689,1.06943c-5.98835,-0.00128 -17.21998,1.34589 -20.94474,-4.83257c-0.1718,-0.28497 -0.03952,-1.12441 0.21129,-2.11822c-15.49137,-0.35874 -31.11879,1.52656 -46.43762,2.94028c-5.86301,0.54108 -11.72949,1.04621 -17.59137,1.59923c-1.58987,0.14999 -8.23776,0.85833 -8.69001,0.77001c-0.86955,-0.1698 -1.6521,-0.58515 -2.41286,-1.062c1.78971,13.06319 3.72165,26.10549 6.43546,39.02574c0.18596,1.14289 0.37181,2.2858 0.55698,3.42882c0.35776,1.13601 0.6191,2.28918 0.68111,3.47771c0.00119,0.02272 0.00227,0.04543 0.00327,0.06814l0.01382,-0.00346l0.78639,3.14562c0.05753,0.21047 0.08824,0.432 0.08824,0.66072c0,1.38071 -1.11929,2.5 -2.5,2.5c-1.12461,0 -2.07577,-0.74257 -2.38994,-1.76414l-0.78176,-2.34533l0.09481,-0.0316l-0.15057,-0.16116c-0.09065,-0.5489 -0.18105,-1.09784 -0.27125,-1.64681c-0.71259,-2.30766 -2.49104,-8.16747 -2.53536,-8.31322l-1.73465,-2.99414c0,0 -1.24359,-2.16875 0.92516,-3.41234c0.21076,-0.12085 0.41278,-0.20948 0.60578,-0.271c-1.11475,-6.01949 -2.0909,-12.06056 -2.99264,-18.11305c-0.01604,0.41257 -0.03201,0.82516 -0.0479,1.23778c-0.48622,12.62788 -0.18193,24.96382 -2.67018,37.40528l0.04855,0.3097c0,0 0,2.5 -2.5,2.5c-2.5,0 -2.5,-2.5 -2.5,-2.5l0.04855,-1.29027c2.43414,-12.17087 2.10198,-24.2604 2.57678,-36.61689c0.3518,-9.15553 0.74584,-18.29865 1.02155,-27.44578c-2.44201,0.66127 -4.88241,1.32949 -7.32119,2.00524c-0.77804,12.26279 -0.26849,24.86685 0.52374,36.96849l0.14764,3.05881c0,0 0.12045,2.4971 -2.37665,2.61754c-2.4971,0.12045 -2.61754,-2.37665 -2.61754,-2.37665l-0.14538,-3.01589c-0.76822,-11.72813 -1.26427,-23.91592 -0.6238,-35.82955c-5.88157,1.6573 -11.75349,3.36098 -17.61532,5.11955c0,0 -2.39456,0.71838 -3.11294,-1.67619c-0.71838,-2.39456 1.67619,-3.11294 1.67619,-3.11294c6.46003,-1.93803 12.93228,-3.8097 19.41617,-5.62626c0.12065,-1.42885 0.2598,-2.85209 0.41897,-4.26842c0.45647,-4.06166 1.23329,-8.16744 2.11687,-12.25433l-0.75352,1.13027c0,0 -1.38675,2.08013 -3.46688,0.69338c-2.08013,-1.38675 -0.69338,-3.46688 -0.69338,-3.46688l0.85299,-1.27949c2.37006,-3.55509 5.01368,-6.56146 6.00179,-10.74007c0,0 0.55311,-2.21247 2.71591,-1.88286c-0.114,-0.61458 -0.22946,-1.22892 -0.34643,-1.84302c0,0 -0.46778,-2.45585 1.98806,-2.92363c2.45585,-0.46778 2.92363,1.98806 2.92363,1.98806c0.17207,0.90334 0.34085,1.8072 0.50659,2.71156c5.26381,-1.75787 10.57811,-3.57645 15.92552,-5.26514c2.09786,-10.3808 3.33746,-20.94582 5.88671,-31.18495c0,0 0.60634,-2.42536 3.0317,-1.81902c2.42536,0.60634 1.81902,3.0317 1.81902,3.0317c-2.33413,9.29513 -3.57398,18.86476 -5.34611,28.32407c3.15388,-0.92843 6.31718,-1.78995 9.48637,-2.5459c8.10399,-1.93304 16.54715,-2.96145 24.75029,-4.4275c7.85729,-1.40424 15.5531,-2.78287 23.411,-3.61611c-1.09406,-7.62265 -2.11989,-15.25062 -2.81661,-22.91462c0,0 -0.11835,-1.30186 0.75751,-2.10838c-0.80938,0.10479 -1.61718,0.22942 -2.42311,0.37724l-0.53622,-0.42052l-0.09902,0.29706l-2.34533,-0.78179c-1.02156,-0.31418 -1.76411,-1.26534 -1.76411,-2.38994c0,-1.38071 1.11929,-2.5 2.5,-2.5h4c2.32737,-0.4261 4.70974,-0.28573 7.08845,-0.14132c4.30285,-0.11973 8.65689,0.14132 12.91157,0.14132c2.11864,0.00004 4.23885,-0.01027 6.36001,-0.025c1.22393,-2.19886 2.38575,-4.42639 3.50956,-6.67177l6.92259,-2.83195c-1.51782,3.17997 -3.07249,6.34189 -4.72792,9.45766c7.27839,-0.06155 14.56142,-0.11306 21.82415,0.0836c11.30476,0.3061 22.66932,1.71236 33.98345,1.53795c0.75343,-0.01161 1.50743,-0.02866 2.2619,-0.05061c1.03624,-0.04979 2.0731,-0.10328 3.11065,-0.16055c2.42309,-0.13362 4.84628,-0.26578 7.26949,-0.39753c7.39227,-0.54309 14.79548,-1.32051 22.13561,-1.83561c21.59548,-1.51549 43.25728,-5.69121 64.9378,-5.47659c0.10306,-4.327 0.21151,-8.65549 0.3134,-12.98834c0.13979,-5.94449 -0.28185,-11.9012 0.25153,-17.82911c0.8419,-9.26106 1.44387,-18.5096 1.87415,-27.7548c-0.70237,5.20834 -1.45193,10.39247 -1.93684,15.67135l0.01048,0.57134c0,0 0,2.5 -2.5,2.5c-2.5,0 -2.5,-2.5 -2.5,-2.5l0.01048,-1.0287c0.59586,-6.48677 1.55911,-12.83176 2.40509,-19.25018c0.99469,-7.54665 0.14975,-15.8053 0.46298,-23.44469c0.73445,-17.91262 1.28579,-35.82733 1.78357,-53.7478c0.2912,-10.46519 0.16973,-20.8243 -0.38022,-31.12857c-2.15097,-0.43942 -4.27201,-0.94579 -6.34667,-1.53654c-3.27593,-0.56384 -6.59353,-1.11985 -9.91454,-1.72224c-1.67616,1.07529 -3.35242,1.98772 -4.92061,2.70236c-6.55784,2.98849 -14.51614,4.32626 -21.81159,5.47246c-0.08414,-1.76595 -0.62634,-3.4119 -1.51042,-4.82164c6.77861,-1.04957 14.28216,-2.20944 20.49929,-4.86976c-5.26265,-1.12715 -10.45841,-2.47921 -15.43259,-4.27551l-1.86286,-0.91315c0,0 -2.23605,-1.11807 -1.11798,-3.35412c1.11807,-2.23605 3.35412,-1.11798 3.35412,-1.11798l1.3371,0.68689c2.99058,1.09837 6.15574,1.65946 9.27533,2.30611c2.87346,0.59563 5.58905,1.81457 8.44734,2.47918c0.82264,0.19128 1.6518,0.36686 2.48555,0.53073c4.2619,-2.99452 8.36376,-7.14257 9.2877,-11.46951c0.68718,-3.21817 -0.14527,-4.17196 -1.26361,-6.96046c-5.21747,-5.50114 -9.87555,-10.82996 -16.09905,-15.27353c-12.56913,-8.97435 -27.29973,-14.01394 -42.43484,-17.31447c-13.06517,-1.44866 -26.59058,-0.70506 -39.66788,-0.22072c-18.14648,0.67208 -36.32742,0.37182 -54.4857,0.37182c-7.7132,0 -15.53992,-0.36924 -23.25264,-0.04974c-4.1483,0.71806 -8.28007,1.46042 -12.39133,2.20782c0.09081,0.26598 0.14397,0.57738 0.14397,0.94193c0,2.5 -2.5,2.5 -2.5,2.5l-0.99322,-0.00748c-2.85292,-0.22117 -5.70888,-0.51386 -8.56413,-0.80086c-5.67685,1.46172 -11.2694,3.16771 -16.87039,4.97986c0.14698,2.42514 0.2067,4.85868 0.20544,7.29619c6.57596,-2.48553 13.28579,-4.57127 20.0619,-6.0041c13.0664,-2.76292 26.64856,-4.0765 39.96977,-4.05635c1.58412,-0.24616 3.16823,-0.49232 4.75235,-0.73848l0.25815,-0.03971c0,0 2.47093,-0.38014 2.85107,2.09079c0.38014,2.47093 -2.09079,2.85107 -2.09079,2.85107l-0.25815,0.03971c-1.71046,0.26069 -3.42092,0.52138 -5.13137,0.78206c-13.09193,0.01836 -26.38156,1.24867 -39.23018,3.94365c-7.19475,1.50909 -14.31579,3.79242 -21.27406,6.51486c-0.19297,6.13583 -0.64919,12.276 -0.95142,18.34987c-0.36458,7.32671 -0.74152,14.64063 -1.1821,21.94938c12.44752,0.31113 24.96217,-0.39814 37.43321,-0.77443c2.97618,-0.08979 5.95102,-0.12793 8.92481,-0.12471c-2.37883,1.29167 -4.7518,2.59402 -7.11685,3.91065l-0.19156,0.44171l-0.14946,-0.22419l-1.49981,0.99987c-12.51056,0.38493 -25.20127,1.5422 -37.7339,1.10396c-0.44496,6.85078 -0.95682,13.69865 -1.57784,20.54987c-0.85162,9.39534 -2.17443,18.7549 -2.95877,28.15242c-1.8805,22.53114 -1.44156,45.4232 0.16717,67.92359c0.75737,10.63856 1.24651,21.32474 1.2501,31.99045l0,4.00042c0,0 0,2.5 -2.5,2.5c-0.032,0 -0.0636,-0.00041 -0.09479,-0.00122c1.05688,6.84884 1.80025,13.72583 1.77361,20.57632l0.73677,2.68068c0,0 0.64415,2.41559 -1.77144,3.05974c-2.41559,0.64415 -3.05974,-1.77144 -3.05974,-1.77144l-0.86321,-3.31932c-0.05036,-14.09249 -3.13997,-28.19222 -5.62428,-42.03446c-2.65731,-14.83893 -2.39691,-29.67773 -2.39691,-44.69036c0,-18.4754 0.42889,-36.85281 1.19011,-55.31152c0.33896,-8.21922 0.26901,-16.38263 0.03642,-24.53557c-2.19563,0.37398 -4.62419,0.78764 -6.8536,1.16737c0.75088,14.62203 2.11057,29.21165 3.28595,43.82494l0.13744,2.51943c0,0 0.13534,2.49633 -2.36099,2.63167c-2.49633,0.13534 -2.63167,-2.36099 -2.63167,-2.36099l-0.12868,-2.38924c-1.16442,-14.47709 -2.50508,-28.93053 -3.26506,-43.41502c-1.64425,0.24178 -3.31453,0.46102 -4.99462,0.67981c0.01566,1.25183 0.03781,2.50368 0.07131,3.75567c0.50042,1.05287 1.04269,2.08136 1.69355,3.04669c0,0 1.38676,2.08012 -0.69337,3.46688c-0.23373,0.15582 -0.4587,0.26787 -0.67394,0.34402c0.0521,0.71698 0.11081,1.43408 0.17704,2.15133c0.86624,9.381 2.34601,18.52291 2.40863,27.97919l0.00145,0.22954c0,0 0.01579,2.49995 -2.48416,2.51574c-2.49995,0.01579 -2.51574,-2.48416 -2.51574,-2.48416l-0.00145,-0.22954c-0.0559,-9.31489 -1.53588,-18.32021 -2.38852,-27.56174c-0.22228,-2.40924 -0.36139,-4.81682 -0.45064,-7.22365c-0.17226,-0.28627 -0.33533,-0.57786 -0.48559,-0.87686c-0.60335,-1.20054 -0.62556,-2.638 -1.22649,-3.83976c-0.05847,-0.11693 -0.1203,-0.23192 -0.18494,-0.34526c-3.37896,0.51801 -6.70967,1.1542 -9.8595,2.08931zM112.09968,58.10789c-0.16997,2.69284 -0.19121,5.39394 -0.19965,8.09213c-0.00383,1.22464 0.21243,2.47964 0.15707,3.69805c1.39375,-0.79196 2.89395,-1.41489 4.43142,-1.86555c2.68025,-0.78562 5.47719,-1.36982 8.32031,-1.85287c-2.4341,-5.07782 -4.18897,-10.98135 -5.19159,-16.62581c-2.44792,-0.75858 -4.77226,-1.72026 -6.76543,-3.04818c-0.28503,3.86024 -0.50772,7.72997 -0.75213,11.60223zM150.92911,55.97376c-2.3239,-0.317 -4.64295,-0.67948 -6.95165,-1.08284c0.05816,2.8007 0.14746,5.59959 0.26234,8.39705c2.30807,-0.39313 4.61613,-0.78627 6.9242,-1.1794c-0.07255,-2.04477 -0.15215,-4.08947 -0.23489,-6.13482zM138.9585,53.94775c-1.57646,-0.31681 -3.14613,-0.65138 -4.70722,-1.0022c0.01837,0.30947 0.03381,0.6194 0.04563,0.92991c0.13861,3.64194 0.15865,7.27943 0.17884,10.9156c1.61324,-0.21586 3.21593,-0.43543 4.79538,-0.67674c-0.14391,-3.38658 -0.25135,-6.77521 -0.31264,-10.16657zM407.10001,26.79999c0,0 0,1.35383 -0.99627,2.06895c-0.50712,5.22825 -0.84093,10.4803 -1.05852,15.7442c1.29965,0.1572 2.6069,0.32216 3.92463,0.51437c0.53485,0.07801 8.5624,1.57343 8.65466,1.5826c3.91919,0.38941 4.7502,-0.73286 8.73219,0.98018c0.53342,0.22948 0.39521,1.29687 0.95302,1.45826c0.38601,0.11168 -0.20117,-0.82285 -0.072,-1.20336c0.36198,-1.06635 1.02161,-2.00747 1.50689,-3.02366c0.94071,-1.96987 2.65541,-5.95693 3.47977,-7.61743c1.44073,-2.90205 2.51313,-5.9748 3.64572,-9.01039c1.17879,-3.15941 3.31394,-5.70048 3.97951,-9.07328c0.76542,-3.87878 0.65014,-7.49831 0.65894,-11.41422c0.05036,-0.35889 0.07623,-0.72356 0.10522,-1.08749c-0.38551,0.5741 -0.83836,1.1037 -1.35978,1.54663c-1.50418,1.27777 -3.09974,2.5521 -4.94125,3.26209c-5.58022,2.15145 -9.75175,-0.13075 -14.7988,-2.14929c-3.17748,-1.27081 -6.34938,-2.5559 -9.51684,-3.85216c-0.30659,2.78108 -0.81284,5.53335 -1.36336,8.28027c2.75756,1.71246 5.33407,3.64387 7.59441,5.93198l1.80794,3.54373c0,0 1.11803,2.23607 -1.11805,3.3541c-2.23607,1.11803 -3.3541,-1.11805 -3.3541,-1.11805l-1.39201,-2.85624c-1.46894,-1.44355 -3.0057,-2.59364 -4.60778,-3.58726c-0.10465,0.52933 -0.20726,1.05903 -0.30671,1.58924c-0.07005,2.08218 -0.15743,4.14244 -0.15743,6.13622zM401.04325,6.8183c-0.90382,-2.39568 -2.11395,-4.53183 -3.55722,-6.472c-0.7983,-0.3338 -1.59642,-0.66805 -2.39436,-1.00271c0.54352,2.76035 1.08023,5.53941 1.5957,8.33034c1.76222,0.80554 3.52553,1.62184 5.26255,2.47681c-0.21025,-1.14865 -0.50379,-2.26457 -0.90667,-3.33244zM379.25749,-14.56447c-2.87344,-1.45411 -6.09546,-2.08086 -9.13944,-3.13219c-3.88227,-1.34086 -7.7713,-2.62954 -11.67531,-3.88394c0.91892,0.38758 1.83366,0.77386 2.7438,1.15707c6.04939,2.54762 11.88565,5.63655 17.95912,8.10926c2.53756,1.03312 5.09477,2.01911 7.65976,2.98724c-2.50088,-1.77232 -4.81545,-3.85468 -7.54792,-5.23745zM250.90481,-36.42583c-11.26113,-0.79145 -22.53097,-1.2034 -33.80864,-1.69372c-7.5724,-0.32923 -15.51499,-1.22636 -23.08653,-0.58925c-14.55639,1.22486 -28.21601,5.67271 -41.90208,10.39205c-10.73462,3.69584 -21.07954,8.78161 -31.16031,13.97168c-3.59267,1.84968 -7.65102,3.44705 -11.02937,5.66952c-10.13726,6.66887 -18.72734,14.74875 -27.61367,22.90467c-2.11265,1.939 -4.14653,3.73669 -6.10294,5.64379c4.26586,-2.20602 8.58221,-4.30512 12.8596,-6.4983c20.43325,-10.47686 41.15824,-22.22805 64.35732,-24.8222c7.9623,-0.08769 16.18014,-0.76763 24.12417,-0.24837c1.99993,0.13072 4.00241,0.30545 6.00595,0.49705c0.84051,-0.22278 1.67782,-0.43442 2.51064,-0.63519c7.62237,-1.82858 15.33073,-3.46784 23.19474,-3.86164c0.26257,-0.01315 0.52528,-0.02545 0.78812,-0.03695c29.2708,-5.04058 59.2924,-8.8088 88.83045,-4.93552c9.75203,1.28491 19.77923,2.71584 29.64695,4.84958c0.38708,0.04287 0.77378,0.0876 1.16008,0.13426c20.26011,2.44699 39.28688,9.40629 57.28889,18.75733c1.32677,0.6892 2.68696,1.35192 4.06662,2.00234c-0.4703,-2.68881 -0.97162,-5.37883 -1.50422,-8.07099c-10.1029,-4.26113 -20.18526,-8.56831 -30.28433,-12.81966c-9.82459,-4.13666 -20.20097,-8.66491 -30.56738,-11.22264c-4.69599,-1.15865 -9.82451,-1.50275 -14.60687,-2.23915c-17.70231,-2.72583 -36.13064,-2.85424 -53.94808,-0.92439c-19.36974,2.09403 -38.5681,4.60479 -57.71563,8.27339c-8.76797,1.67991 -18.15014,2.65808 -26.61765,5.49985c0,0 -2.3717,0.7906 -3.1623,-1.5811c-0.7906,-2.3717 1.5811,-3.1623 1.5811,-3.1623c8.70525,-2.88447 18.25568,-3.94268 27.25807,-5.66715c19.28076,-3.69335 38.61439,-6.22512 58.119,-8.33373c1.58131,-0.17064 3.16722,-0.32551 4.75686,-0.46425c-4.48664,-0.23252 -8.96986,-0.47495 -13.43856,-0.78902zM168.90673,-6.1737c0.57061,-0.24606 1.14322,-0.48624 1.71743,-0.72062c-0.60081,0.00152 -1.20235,0.00707 -1.80439,0.01585c0.03001,0.23481 0.05899,0.46974 0.08696,0.70477zM390.74955,42.18927c1.64075,0.47041 3.27641,0.83527 4.91302,1.13533c-0.72408,-10.69023 -1.91378,-21.33069 -3.58681,-31.97892c-2.47895,-1.26486 -4.94593,-2.55446 -7.4124,-3.83562c-4.23103,-2.19778 -8.51839,-4.26047 -12.86595,-6.15843c0.47414,0.3232 0.94556,0.6515 1.41419,0.98501c6.78512,4.82869 11.93461,10.61608 17.50093,16.72647c1.7311,4.33497 2.96449,5.67319 1.93646,10.63958c-0.8805,4.25367 -3.89545,8.27163 -7.5814,11.58146c1.90399,0.29291 3.8054,0.57936 5.68196,0.90513zM405.1841,3.54676c-0.0255,-0.01054 -0.05101,-0.02107 -0.07651,-0.03161c0.02253,0.05207 0.04493,0.10425 0.06719,0.15653c0.00316,-0.04163 0.00627,-0.08327 0.00932,-0.12491zM126.22558,20.20552c-0.35793,1.4724 -0.22623,3.0262 -0.47435,4.52104c-0.72878,4.39082 -2.32688,8.88562 -2.65219,13.34281c-0.18248,2.5003 0.65364,4.97117 0.96149,7.45915c0.00214,0.01732 0.00429,0.03465 0.00645,0.05198c1.516,0.4262 3.068,0.78299 4.62016,1.11349c-0.10781,-1.2912 -0.18589,-2.58683 -0.18711,-3.89399c0,0 0,-2.5 2.5,-2.5c0.55614,0 0.98857,0.12372 1.32479,0.31611c1.05843,-8.23488 3.49035,-16.71627 7.51824,-23.43859c2.50129,-4.17451 5.67642,-7.86759 9.31329,-11.12008c-7.40958,2.80934 -14.64195,5.93317 -21.67215,9.67185c-0.29566,1.50301 -0.8967,2.98739 -1.25863,4.47624zM129.30312,54.12453c-0.02895,-0.77597 -0.0795,-1.54869 -0.14163,-2.31965c-1.36537,-0.28483 -2.77552,-0.56803 -4.19342,-0.87872c0.98089,4.63434 2.4989,9.35914 4.51025,13.42734c-0.021,-3.40745 -0.04789,-6.81626 -0.1752,-10.22898zM138.89999,47.60001c0,0 0,-2.5 2.5,-2.5c2.5,0 2.5,2.5 2.5,2.5c0,0.76828 0.0027,1.53641 0.00798,2.30438c2.26618,0.39307 4.537,0.72273 6.81176,0.99738c-0.23331,-5.59896 -0.46616,-11.20718 -0.61895,-16.83933c-0.12255,-4.5172 -0.11959,-9.04435 -0.08763,-13.57178c-0.36581,0.18145 -0.73086,0.36327 -1.09511,0.5454c0,0 -2.23607,1.11803 -3.3541,-1.11804c-1.11803,-2.23607 1.11804,-3.3541 1.11804,-3.3541c1.11927,-0.55963 2.24563,-1.11606 3.37868,-1.66776c0.00821,-0.94129 0.01595,-1.88242 0.02236,-2.82331c-2.27077,2.33423 -4.28107,4.8876 -5.95095,7.67455c-4.84085,8.07911 -7.20853,19.19674 -7.41721,28.68246c0.7287,0.17351 1.45797,0.33946 2.18776,0.49815c-0.00175,-0.44261 -0.00264,-0.88528 -0.00264,-1.328zM288.10066,-16.06841c1.78045,-0.06594 3.56873,-0.13612 5.36272,-0.20471c-16.2139,-1.68973 -32.57447,-1.11846 -48.85034,0.59892c14.4984,0.05572 29.00417,0.14221 43.48762,-0.3942zM398.10522,14.34138c-0.08613,-0.04136 -0.17223,-0.08278 -0.2583,-0.12426c1.17909,6.98421 2.15682,14.00893 2.71054,20.96856c0.20479,-2.89766 0.45471,-5.78963 0.75924,-8.67391c0.23304,-2.20715 0.60272,-4.39728 1.0251,-6.5806c0.04886,-1.18606 0.08577,-2.3806 0.08643,-3.56931c-1.40046,-0.6598 -2.8419,-1.30922 -4.323,-2.02048zM413.89798,233.94347c-3.6814,-0.97868 -7.35801,-2.07962 -11.00149,-2.98744c-0.64469,-0.16109 -1.29521,-0.32008 -1.95056,-0.47605c-0.13923,7.0286 -0.23769,14.05961 -0.2438,21.10546l-0.00209,2.41676c0,0 -0.00217,2.5 -2.50217,2.49783c-2.5,-0.00217 -2.49783,-2.50217 -2.49783,-2.50217l0.00209,-2.41676c0.00643,-7.4109 0.11462,-14.80558 0.265,-22.19829c-4.08467,-0.82149 -8.25607,-1.45012 -12.29238,-1.68594c-10.77315,-0.62942 -22.16898,1.01501 -32.93061,1.73243c-3.86601,0.25772 -7.7329,0.50113 -11.6004,0.73453c-0.00808,0.00938 -0.01616,0.01876 -0.02424,0.02815c-0.23984,0.01337 -0.47967,0.02683 -0.7195,0.04037c0.00584,-0.00827 0.01168,-0.01654 0.01751,-0.02481c-9.72224,0.58361 -19.44825,1.10566 -29.17377,1.63454c-3.31144,0.24186 -6.62076,0.43702 -9.92154,0.54188c-10.73962,0.57599 -21.62794,1.04875 -32.3568,0.91582c-5.18648,-0.06426 -10.38082,-0.31112 -15.57627,-0.61837c1.05,1.36201 1.57593,3.08023 2.36797,4.61431c0.84246,1.63174 1.99141,3.14876 2.48195,4.91842c1.02656,3.70337 0.41231,7.35597 -0.18978,10.90176c1.7915,-0.03523 3.57853,-0.04264 5.35957,-0.01588c19.5733,0.29413 38.88482,4.07916 58.14654,7.16105c20.80668,3.32954 42.30798,6.36571 62.3125,13.10872c2.55742,-0.16955 5.13121,-0.26941 7.73211,-0.26979c4.95216,-0.00071 14.34504,-1.38263 17.75766,3.34519c1.89843,2.63006 1.88533,6.03502 2.09436,9.06729l0.7197,2.09694c0,0 0.79057,2.37171 -1.58114,3.16228c-2.37171,0.79057 -3.16228,-1.58114 -3.16228,-1.58114l-0.88028,-2.70299c-0.12235,-1.67985 -0.22699,-5.4785 -1.10571,-6.93271c-0.35914,-0.59434 -1.21315,-0.71926 -1.88916,-0.87807c-3.86117,-0.9071 -8.03609,-0.57622 -11.95315,-0.57679c-0.35686,-0.00005 -0.71319,0.00183 -1.06903,0.00556c-0.32604,0.8386 -1.09158,1.45772 -2.01375,1.57448l-4.91335,0.70195l-0.00463,-0.03244c-0.07761,0.01909 -0.15546,0.0374 -0.23358,0.05491c-0.05513,0.01236 -10.01954,-0.48572 -10.22698,-0.49603c-0.93285,-0.04637 -1.86483,-0.08255 -2.79631,-0.11076c-3.93888,0.50878 -7.88587,1.0545 -11.88343,1.51869c-1.62999,0.18927 -3.25008,0.33334 -4.86599,0.47116c2.29178,1.41913 7.39937,4.62991 7.71276,4.82652c9.41778,5.90837 18.54756,12.82987 28.4845,17.78596c1.17595,0.58798 2.35191,1.17595 3.52786,1.76393l1.44972,1.26829c0,0 1.36161,1.36161 0.49984,2.88984c3.75609,-0.10124 7.45238,0.14362 10.90415,1.20577c2.568,-0.01612 5.1463,0.31256 7.70376,0.07948c0.36504,-0.03327 0.89089,-0.14018 0.9818,-0.49528c0.32562,-1.27196 0.06718,-2.62578 0.15261,-3.93597c0.34293,-5.25926 0.28959,-10.49976 0.29007,-15.77606c0.00145,-15.80268 -1.77313,-31.6087 -0.33705,-47.40582c0.32564,-3.58207 0.38203,-6.74442 0.93501,-10.05071zM220.65833,288.67302c0.50057,5.09202 1.35116,10.00004 1.40213,14.90004l3.78079,-2.87985c2.59047,-2.05602 5.21776,-4.06648 7.77164,-6.16778c1.35351,-1.11365 2.408,-2.68422 4.00428,-3.40817c0.09309,-0.04222 0.18685,-0.08236 0.28124,-0.12058l-0.01639,-0.03278l3.15503,-1.57748c0.34741,-0.1829 0.74312,-0.28642 1.163,-0.28642c1.38071,0 2.5,1.11929 2.5,2.5c0,0.41792 -0.10254,0.81188 -0.28385,1.15811l-1.5379,3.09365c-0.34841,1.04965 -0.69682,2.0993 -1.04523,3.14895c3.78677,-1.36455 7.53343,-2.90509 11.17784,-4.46816l1.00431,-0.43042c0,0 2.29786,-0.9848 3.28266,1.31306c0.9848,2.29786 -1.31306,3.28266 -1.31306,3.28266l-1.00431,0.43042c-7.92331,3.39323 -17.43659,8.06289 -26.23993,8.20243l-4.88301,0.82667c-0.1504,0.02824 -0.30554,0.043 -0.46414,0.043c-0.56464,0 -1.08556,-0.18719 -1.50409,-0.5029c-0.14474,1.45633 -0.38821,2.9163 -0.76043,4.3845c5.38113,0.3433 10.74176,0.98951 16.0643,2.04716c6.22254,1.24451 12.67283,2.17566 18.97641,3.46599c6.18137,-0.75533 12.3494,-1.77287 18.43805,-2.64049c10.94087,-1.55906 21.86337,-2.69172 32.86523,-3.73954c9.57829,-0.91224 19.27835,-2.08436 28.91362,-2.06415c7.91008,0.01659 16.13287,0.51362 24.00751,1.18205c5.54276,0.47049 11.41016,1.37052 16.97066,1.16729c3.70587,-0.13545 7.63363,-0.62609 11.57329,-0.93623c-1.12795,-0.56397 -2.25589,-1.12795 -3.38384,-1.69192c-10.08011,-5.05187 -19.34392,-12.02395 -28.90562,-18.02261c-2.71714,-1.70464 -5.19291,-3.86306 -8.13617,-5.13814c-8.74757,-3.7896 -19.18852,-4.16129 -28.52076,-5.08549c-9.72635,-0.96323 -19.71208,-2.75778 -29.47353,-2.15719c-11.53021,0.6905 -23.32528,0.72336 -34.79328,2.07946c-6.52998,0.77217 -13.0734,2.32373 -19.54932,3.47268c-5.2501,0.93147 -10.48146,1.87408 -15.69943,2.85434c0.06255,0.59905 0.12335,1.19833 0.18229,1.79784zM340.98901,277.93401c3.59474,-0.5973 7.15523,-0.85527 10.7387,-1.17101c0.27288,-2.06302 2.47233,-2.06302 2.47233,-2.06302h2.79999c3.72343,0 7.42995,-0.01396 11.14325,0.09031c0.24125,-0.03085 0.48248,-0.06155 0.72369,-0.09208c-16.3888,-4.36346 -33.46392,-6.83829 -50.10152,-9.49995c-19.00694,-3.04112 -38.06094,-6.79022 -57.37432,-7.09828c-0.64049,-0.01022 -1.28181,-0.0159 -1.92387,-0.01736c1.16593,2.305 2.78615,5.99337 3.07772,6.63468l1.93099,4.24821c0,0 1.0345,2.27592 -1.24142,3.31042c-2.27592,1.0345 -3.31042,-1.24142 -3.31042,-1.24142l-1.93099,-4.24821c-1.08183,-2.38058 -1.56713,-5.14511 -3.26732,-7.13179c-0.57418,-0.67093 -1.61319,-0.85037 -2.25106,-1.43636c-11.42286,0.44356 -22.99357,1.86039 -34.29573,2.55929c-0.38457,0.02378 -0.76854,0.04921 -1.15194,0.07623c1.02155,7.00398 2.05271,14.00916 2.89062,21.03921c5.11366,-0.95893 10.24014,-1.8825 15.38432,-2.79518c6.57122,-1.16586 13.20935,-2.73141 19.83561,-3.51497c11.56484,-1.36754 23.45437,-1.4088 35.08154,-2.10511c10.04656,-0.58643 20.25725,1.18146 30.26518,2.17258c6.47956,0.64169 13.40343,1.07319 20.01228,2.42776c0.28474,-0.10938 0.49238,-0.14399 0.49238,-0.14399zM188.79556,264.87905c-8.10867,1.44917 -16.45945,2.45833 -24.46984,4.36905c-3.93261,0.93804 -7.85612,2.04223 -11.76356,3.23564c-0.62987,2.8975 -1.34063,5.77734 -2.17988,8.62826c-1.80656,6.13681 -4.00556,12.18939 -5.95878,18.30247c14.38057,-3.74652 28.81428,-7.29276 43.29482,-10.75993c9.07461,-2.17279 18.15753,-4.06832 27.27639,-5.826c-0.84904,-7.19701 -1.9048,-14.3673 -2.95017,-21.53643c-7.80648,0.81677 -15.44437,2.1921 -23.24899,3.58693zM215.68231,289.16219c-0.04419,-0.44953 -0.08943,-0.89892 -0.13567,-1.34819c-8.91334,1.72213 -17.79243,3.57892 -26.66405,5.7031c-15.4595,3.70156 -30.8654,7.49308 -46.21002,11.52344c-1.18508,3.74424 -2.28677,7.35284 -1.72245,11.39517c2.93199,1.21522 5.92184,0.16721 9.01236,-0.12438c7.52602,-0.71007 15.0575,-1.36354 22.58448,-2.06371c14.36789,-1.33653 28.96946,-2.84035 43.46319,-2.40412c2.30309,-7.4982 0.4288,-14.98431 -0.32785,-22.68131zM383.87961,316.02269c0.01334,0.11897 0.02038,0.24462 0.02038,0.3773c0,2.5 -2.5,2.5 -2.5,2.5h-1.39996c-4.87479,-0.00093 -9.68007,-0.25614 -14.5464,-0.52649c-10.99733,-0.62021 -21.62843,1.1069 -32.44263,2.8925c-4.45841,0.73616 -7.60575,2.11147 -11.83476,3.62112c-0.69537,0.24823 -1.58283,0.12882 -2.12287,0.63232c-0.45794,0.42695 1.21675,-0.32866 1.84147,-0.36997c1.49758,-0.09902 3.00146,-0.03878 4.50227,-0.04946c2.87058,-0.02044 5.7413,-0.01333 8.61195,-0.01982c9.78371,-0.02212 19.65023,-0.34244 29.4006,-1.1563c14.74933,-1.2268 29.35046,-4.41952 44.19034,-4.42386c4.11998,-0.0012 8.64511,0.34569 12.75364,0.01217c0.48271,-0.03918 4.78348,-0.74796 5.55774,-1.5502c0.40741,-0.42213 0.15976,-1.17454 0.37893,-1.71874c0.45464,-1.12889 1.13111,-2.15695 1.62914,-3.26739c0.6604,-1.47249 1.08965,-2.90249 1.35066,-4.31283c-0.09467,-0.12555 -0.19059,-0.25443 -0.28782,-0.38698c-0.76065,-1.03697 -1.19683,-2.32421 -2.10928,-3.23049c-2.30681,-2.2912 -7.28107,-3.58006 -7.16668,-8.02284c0.04642,-1.80299 2.06004,-2.99837 3.38819,-4.2186c1.61891,-1.48737 3.31621,-2.52812 5.08075,-3.21919c-1.14702,-12.35968 -2.90403,-24.6725 -3.67213,-37.06043c-0.17586,-2.83623 -0.29084,-5.70139 0.02918,-8.52499c0.18747,-1.65413 2.48431,-4.85243 1.758,-6.64284c-0.88645,-2.18515 -4.59395,-1.61554 -6.11682,-1.92109c-0.46884,-0.09407 -0.93786,-0.19303 -1.407,-0.29625c-0.47161,3.04334 -0.5203,5.9661 -0.82405,9.30749c-1.42191,15.64126 0.35617,31.30519 0.35758,46.95314c0.00049,5.38916 0.35948,10.9196 -0.31488,16.27357c-0.25298,2.0085 0.11189,4.22908 -0.84241,6.0144c-2.37387,4.44106 -9.91044,2.80471 -13.71447,2.78427c-6.08933,-1.87377 -12.96629,-1.08333 -19.54864,-0.44954zM228.48467,231.32289c-4.79102,-0.20388 -9.554,-0.40794 -14.34751,-0.42211c-0.60556,0.02887 -1.21053,0.065 -1.81479,0.10978c1.04577,0.62512 1.1674,1.96309 1.1674,1.96309c0.69682,7.66516 1.72335,15.29462 2.818,22.91888c0.51987,-0.03803 1.04072,-0.07326 1.56265,-0.10554c10.91805,-0.67515 22.07379,-2.00048 33.11492,-2.50326c0.19633,-0.69209 0.65371,-1.35356 0.74512,-2.07255c0.56511,-4.44504 -0.4191,-7.7588 -2.41559,-11.62059c-1.17607,-2.27486 -2.02764,-5.33487 -4.76594,-6.43991c-0.89823,-0.36248 -1.94224,0.01098 -2.9026,0.13715c-1.12694,0.14806 -2.25101,0.31743 -3.37432,0.49224l0.05644,0.14111l-3.94736,1.57892c-0.30123,0.12865 -0.63285,0.19986 -0.9811,0.19986c-1.38071,0 -2.5,-1.11929 -2.5,-2.5c0,-0.52534 0.16204,-1.01283 0.43886,-1.41522l0.21231,-0.31845c-1.02247,-0.05182 -2.04465,-0.09994 -3.06648,-0.14342zM135.00003,284.30002c2.5,0 2.5,2.5 2.5,2.5c0,4.83117 -0.06657,9.65777 -0.17657,14.48216c0.46543,-0.12365 0.93091,-0.24707 1.39645,-0.37026c2.15255,-7.10785 4.77337,-14.10375 6.86588,-21.21192c0.53419,-1.81464 1.01632,-3.64096 1.45867,-5.47609c-4.58192,1.48438 -9.13701,3.04218 -13.65389,4.54779c0,0 -0.05381,0.01794 -0.14792,0.0403c0.31943,1.86399 0.62759,3.72979 0.92637,5.5971c0.24064,-0.06939 0.51598,-0.10909 0.83102,-0.10909zM125.48321,302.28927c-0.08416,0.75112 -0.16254,1.50423 -0.23538,2.25913c2.18982,-0.60336 4.38095,-1.20078 6.57337,-1.7927c-0.87004,-6.3043 -1.77984,-12.60192 -2.80161,-18.88143c-1.41416,6.09111 -2.85196,12.30657 -3.53637,18.415zM414.99903,229.07644c0.05295,-0.27978 0.07074,-0.55635 -0.01231,-0.82367c-0.23964,-0.77135 -1.11786,-1.21048 -1.4325,-1.9544c-0.19092,-0.45141 0.41791,-1.24233 -0.01598,-1.47029c-0.57551,-0.30236 -1.24362,0.48165 -1.89356,0.46707c-3.51835,-0.07895 -7.04328,-0.34331 -10.57723,-0.54601c-0.00466,0.20785 -0.0093,0.4157 -0.01391,0.62354c1.02819,0.23697 2.04656,0.48188 3.0518,0.73167c3.60649,0.89861 7.24803,2.00049 10.89368,2.97208zM428.64334,295.41362c-0.83845,0.47426 -1.67528,0.95343 -2.53784,1.38227c-0.4557,0.22656 -1.47886,0.07686 -1.41174,0.58133c0.09072,0.6818 1.09676,0.83049 1.65336,1.23458c0.97488,0.70778 2.04762,1.2995 3.01474,2.01532c-0.18292,-1.70369 -0.43489,-3.442 -0.64693,-5.25447c-0.02381,0.01378 -0.04767,0.02744 -0.07158,0.04097zM218.94471,317.13265c1.1947,1.22073 6.05889,1.1312 6.84563,1.1912c2.86559,0.21856 5.69973,0.30942 8.54285,0.34763c-5.08875,-0.92834 -10.21372,-1.47894 -15.35855,-1.75184c-0.08015,0.06593 -0.10694,0.13434 -0.02994,0.21301zM236.70746,300.72036c-0.41081,-0.91589 -0.07914,-1.91091 -0.07914,-1.91091c0.04479,-0.13385 0.08958,-0.2677 0.13438,-0.40156c-0.26521,0.2109 -2.13546,1.69536 -3.98461,3.16298c0.79848,-0.06296 1.59696,-0.15929 2.39496,-0.39096c0.51159,-0.14852 1.02312,-0.30183 1.53442,-0.45955zM155.10001,7.60001c0,1.6349 -0.00831,3.27099 -0.02029,4.90779c3.12702,-1.45144 6.29894,-2.85165 9.50762,-4.17021c0.0311,-2.29603 0.01144,-4.58896 -0.08306,-6.87396c-3.31918,1.78552 -6.492,3.81507 -9.40485,6.10916c0.00058,0.01776 0.00058,0.02722 0.00058,0.02722zM156.28587,91.89451c-0.75841,18.39028 -1.18587,36.69856 -1.18587,55.10549c0,14.71132 -0.29721,29.26732 2.31828,43.8071c0.45026,2.50878 0.92444,5.02955 1.39887,7.55948c-0.1681,-8.00792 -0.58241,-16.01823 -1.15456,-24.00116c-1.62384,-22.75678 -2.06443,-45.90842 -0.16255,-68.69568c0.78534,-9.40949 2.10916,-18.7807 2.96186,-28.18792c0.61528,-6.78791 1.12274,-13.57243 1.56402,-20.3598c-2.02217,-0.13973 -4.04727,-0.31942 -6.0717,-0.53602c0.46848,11.74354 0.81993,23.46828 0.33164,35.30851zM155.09923,33.93756c0.159,5.8483 0.40276,11.67094 0.64379,17.48416c2.201,0.19146 4.40521,0.33745 6.612,0.44555c0.44256,-7.33043 0.82048,-14.66604 1.18615,-22.01467c0.26376,-5.30067 0.66221,-10.66704 0.88793,-16.03744c-3.1747,1.34706 -6.31005,2.77038 -9.39727,4.23692c-0.0464,5.29848 -0.07633,10.59892 0.0674,15.88549z"/><path d="M423.31376,66.54372c-2.14373,-1.28625 -0.85748,-3.42998 -0.85748,-3.42998l3.31201,-4.88925c1.50242,-0.07241 3.03965,0.11234 4.50727,-0.21722c1.95863,-0.43983 3.97318,-3.5224 4.65425,-5.20825c2.99344,-7.40973 4.28574,-15.0438 6.4664,-22.68582c0,0 0.68679,-2.40381 3.09061,-1.71702c2.40381,0.68679 1.71702,3.09061 1.71702,3.09061c-2.24333,7.84158 -3.47915,15.77161 -6.70044,23.33271c-1.30393,3.06063 -4.36857,7.04295 -7.77889,7.97323c-1.12537,0.30698 -2.32849,-0.14482 -3.49273,-0.21722l-1.48804,3.11075c0,0 -1.28625,2.14373 -3.42998,0.85748z"/><path d="M79.70001,138.79999c0,-1.38071 1.11929,-2.5 2.5,-2.5c1.38071,0 2.5,1.11929 2.5,2.5c0,1.38071 -1.11929,2.5 -2.5,2.5c-1.38071,0 -2.5,-1.11929 -2.5,-2.5z"/><path d="M37.30002,164.39999c0,-1.38071 1.11929,-2.5 2.5,-2.5c1.38071,0 2.5,1.11929 2.5,2.5c0,1.38071 -1.11929,2.5 -2.5,2.5c-1.38071,0 -2.5,-1.11929 -2.5,-2.5z"/><path d="M74.10001,160.39999c0,-1.38071 1.11929,-2.5 2.5,-2.5c1.38071,0 2.5,1.11929 2.5,2.5c0,1.38071 -1.11929,2.5 -2.5,2.5c-1.38071,0 -2.5,-1.11929 -2.5,-2.5z"/><path d="M114.10001,159.60001c0,-1.38071 1.11929,-2.5 2.5,-2.5c1.38071,0 2.5,1.11929 2.5,2.5c0,1.38071 -1.11929,2.5 -2.5,2.5c-1.38071,0 -2.5,-1.11929 -2.5,-2.5z"/><path d="M70.90002,205.20001c0,-1.38071 1.11929,-2.5 2.5,-2.5c1.38071,0 2.5,1.11929 2.5,2.5c0,1.38071 -1.11929,2.5 -2.5,2.5c-1.38071,0 -2.5,-1.11929 -2.5,-2.5z"/><path d="M464.91992,157.78676c-1.38677,-2.08011 0.69334,-3.46688 0.69334,-3.46688l2.37152,-1.58105c0.25706,-0.17684 0.54885,-0.30683 0.86305,-0.37766c0.72252,-0.19344 1.77777,-0.18845 2.6002,1.00473c0.0246,0.03506 0.04832,0.07079 0.07113,0.10714c0.77791,1.21742 0.37135,2.19194 -0.08587,2.78182c-0.1834,0.25585 -0.41388,0.47566 -0.67879,0.64675l-2.3677,1.5785c0,0 -2.08011,1.38677 -3.46688,-0.69334z"/><path d="M431.70004,168.39999c0,-1.38071 1.11929,-2.5 2.5,-2.5c1.38071,0 2.5,1.11929 2.5,2.5c0,1.38071 -1.11929,2.5 -2.5,2.5c-1.38071,0 -2.5,-1.11929 -2.5,-2.5z"/><path d="M473.30002,168.39999c0,-1.38071 1.11929,-2.5 2.5,-2.5c1.38071,0 2.5,1.11929 2.5,2.5c0,1.38071 -1.11929,2.5 -2.5,2.5c-1.38071,0 -2.5,-1.11929 -2.5,-2.5z"/><path d="M-47.89999,10.39999c0,-1.38071 1.11929,-2.5 2.5,-2.5c1.38071,0 2.5,1.11929 2.5,2.5c0,1.38071 -1.11929,2.5 -2.5,2.5c-1.38071,0 -2.5,-1.11929 -2.5,-2.5z"/></g></g></svg>