<svg version="1.1" xmlns="http://www.w3.org/2000/svg" xmlns:xlink="http://www.w3.org/1999/xlink" width="562.82391" height="399.00257" viewBox="0,0,562.82391,399.00257"><g transform="translate(1.32388,22.90751)"><g data-paper-data="{&quot;isPaintingLayer&quot;:true}" fill="#9966ff" fill-rule="nonzero" stroke="none" stroke-width="0.5" stroke-linecap="butt" stroke-linejoin="miter" stroke-miterlimit="10" stroke-dasharray="" stroke-dashoffset="0" style="mix-blend-mode: normal"><path d=""/><path d=""/><path d=""/><path d=""/><path d=""/><path d=""/><path d=""/><path d=""/><path d=""/><path d=""/><path d=""/><path d=""/><path d=""/><path d=""/><path d=""/><path d=""/><path d="M184.37156,368.38722c-0.07013,-0.52879 -0.13294,-1.05508 -0.18919,-1.57942c1.20946,-0.34964 2.32462,-0.92146 3.2984,-1.6684l1.4718,-1.10384c0.03143,0.4316 0.06677,0.86406 0.10649,1.29774c-1.55853,1.28321 -3.14751,2.5449 -4.6451,3.87173z"/><path d=""/><path d=""/><path d=""/><path d=""/><path d=""/><path d=""/><path d=""/><path d=""/><path d=""/><path d=""/><path d=""/><path d=""/><path d=""/><path d=""/><path d=""/><path d=""/><path d=""/><path d=""/><path d="M182.89999,374.80002c0,-2.5 2.5,-2.5 2.5,-2.5l0.71406,0.10263l-1.95422,2.34506c-0.3557,0.42076 -0.67727,0.8713 -0.96044,1.34735c-0.18282,-0.33188 -0.2994,-0.75516 -0.2994,-1.29504z"/><path d="M221.28663,368.32632c0.48427,-0.5216 0.96962,-1.04381 1.45661,-1.56629c0.7385,-0.22175 1.47159,-0.46181 2.19973,-0.71815c-1.21704,0.76441 -2.4353,1.52676 -3.65634,2.28443z"/><path d=""/><path d=""/><path d=""/><path d=""/><path d=""/><path d=""/><path d=""/><path d=""/><path d=""/><path d=""/><path d="M162.42866,198.49565c0.04363,-0.77612 0.07893,-1.56749 0.10488,-2.36656c0.56941,-0.33904 1.13979,-0.67684 1.71094,-1.01363c0.06978,-0.03214 0.13955,-0.06428 0.20933,-0.09642c0.41601,-0.19164 0.83175,-0.38389 1.24727,-0.57667c-1.09121,1.3508 -2.18206,2.70186 -3.27242,4.05328z"/><path d=""/><path d=""/><path d=""/><path d=""/><path d=""/><path d=""/><path d="M415.00003,170.89999c-2.5,0 -2.5,-2.5 -2.5,-2.5v-2.19998c0.00019,-9.54337 0.36145,-18.9437 1.71799,-28.4038c0.38476,-2.6832 0.35165,-5.41361 0.7007,-8.10169c0.08738,-0.67294 0.24312,-1.34222 0.46414,-1.9869l-1.93695,0.64563c-0.2642,0.09498 -0.54901,0.14674 -0.84591,0.14674c-1.38071,0 -2.5,-1.11929 -2.5,-2.5c0,-0.57191 0.19204,-1.09897 0.51516,-1.52021l2.38487,-3.17981l0.11395,0.08546l0.16801,-0.40159c0.91042,-0.62132 1.82083,-1.24264 2.73125,-1.86396c0,0 2.08013,-1.38675 3.46688,0.69338c0.89819,1.34729 0.34199,2.4037 -0.16139,2.98084c1.60556,1.65112 1.45211,4.49999 1.09019,7.0538c0.03835,-0.04074 0.07672,-0.08146 0.11509,-0.12215c2.65686,0.07006 5.32046,0.14346 7.97878,0.2606c-0.25034,0.27458 -0.50068,0.54915 -0.75101,0.82373c-1.11974,-0.13636 -2.23894,-0.27329 -3.35697,-0.41356c-1.33012,-0.16687 -2.6589,-0.34975 -3.98697,-0.54102c-0.1877,1.32267 -0.43093,2.56575 -0.51414,3.52173c-0.96104,11.04211 -2.3939,21.68968 -2.39367,32.82278v2.19998c0,0 0,2.5 -2.5,2.5z"/><path d=""/><path d="M259.22913,133.03764c0.35436,-0.23161 0.70888,-0.46301 1.06355,-0.69419c-0.86091,1.06333 -1.72223,2.12637 -2.58332,3.18959c-0.30657,0.07063 -0.61308,0.14147 -0.91953,0.21252c0.81334,-0.9024 1.62644,-1.80505 2.43931,-2.70792z"/><path d=""/><path d=""/><path d=""/><path d="M400.60001,159.70001c-2.5,0 -2.5,-2.5 -2.5,-2.5v-3.20001c0.00254,-9.31409 0.88826,-18.62788 1.35345,-27.93108c0.70877,-14.17434 1.04657,-28.27702 1.04657,-42.46892c0,0 0,-2.5 2.5,-2.5c2.5,0 2.5,2.5 2.5,2.5c0,14.2749 -0.33991,28.46139 -1.05281,42.71862c-0.46097,9.21894 -1.34982,18.45178 -1.34721,27.68138v3.20001c0,0 0,2.5 -2.5,2.5z"/><path d="M258.10001,184.39999c0,-1.38071 1.11929,-2.5 2.5,-2.5c1.38071,0 2.5,1.11929 2.5,2.5c0,1.38071 -1.11929,2.5 -2.5,2.5c-1.38071,0 -2.5,-1.11929 -2.5,-2.5z"/><path d="M139.46229,173.81312c-1.41313,2.0623 -3.47543,0.64917 -3.47543,0.64917l-3.95137,-2.70771c-3.50467,-2.51159 -6.94144,-4.17667 -10.00324,-7.18683c0,0 -1.76777,-1.76777 0,-3.53553c1.76777,-1.76777 3.53553,0 3.53553,0c2.72733,2.78679 6.11982,4.33673 9.33406,6.62553l3.91128,2.67995c0,0 2.0623,1.41313 0.64917,3.47543z"/><path d="M335.6309,268.41912c-2.41909,0.63087 -3.04996,-1.78823 -3.04996,-1.78823l-0.58148,-2.22973c-1.0728,-4.12327 -2.10927,-9.85627 -4.37228,-13.52223c-2.78247,-4.50745 -9.89435,-6.4524 -14.6382,-7.21297c0,0 -2.46598,-0.41102 -2.05496,-2.877c0.41102,-2.46598 2.877,-2.05496 2.877,-2.05496c6.36144,1.09501 14.25,3.65648 18.03297,9.4582c2.58835,3.9696 3.80696,10.40679 4.99366,14.94723l0.58148,2.22973c0,0 0.63087,2.41909 -1.78823,3.04996z"/><path d="M38.10762,135.40508c2.76928,-29.1064 6.39629,-58.53612 6.39238,-87.80507c0,0 0,-2.5 2.5,-2.5c2.5,0 2.5,2.5 2.5,2.5c-0.00383,29.40065 -3.62025,58.95766 -6.4076,88.19493c-1.82084,29.77564 -5.11789,60.40689 -2.86563,90.27894c0.47324,0.70193 0.47324,1.52614 0.47324,1.52614v8c0,1.38071 -1.11929,2.5 -2.5,2.5c-1.38071,0 -2.5,-1.11929 -2.5,-2.5v-3.9062c-3.20446,-31.74871 0.46133,-64.53639 2.4076,-96.28873z"/><path d="M204.54748,295.69943c-2.49945,-0.05253 -2.44692,-2.55197 -2.44692,-2.55197l0.05563,-2.64701c0.03586,-1.69018 0.07172,-3.38037 0.10759,-5.07055c0.14426,-1.78886 0.2182,-3.58948 0.22785,-5.39221c-3.27692,-3.43862 -6.36393,-7.03885 -8.94218,-11.08191c-3.50524,-5.49671 -6.46501,-11.6541 -5.8199,-18.44264c0.17562,-1.84803 1.13252,-3.53577 1.69878,-5.30366c0,0 0.79056,-2.37171 3.16227,-1.58115c2.37171,0.79056 1.58115,3.16227 1.58115,3.16227c-0.48782,1.3944 -1.33186,2.7118 -1.46346,4.18319c-0.62152,6.94902 3.40119,13.82565 7.47477,19.10382c0.64281,0.83289 1.30813,1.64795 1.9917,2.44844c-0.01996,-0.22675 -0.04082,-0.45332 -0.06256,-0.67969c-0.36851,-3.83651 -2.0656,-7.13379 -2.40287,-11.03137c-0.37297,-4.31025 -0.57726,-8.95196 -0.84075,-13.28685c-0.26889,-4.42361 -0.63029,-8.90681 -0.93842,-13.39594c-6.77186,-0.06625 -13.54553,-0.02413 -20.33013,-0.03219c-2.70805,-0.00322 -9.10688,0.54001 -11.16306,-2.04652c-0.01551,-0.01951 -0.0305,-0.03933 -0.04496,-0.05944c-11.37858,1.75466 -22.90214,2.12138 -34.51709,2.61441c-28.4998,1.20976 -57.05245,3.04163 -85.42611,5.87917c0,0 -2.48759,0.24877 -2.73637,-2.23882c-0.24877,-2.48759 2.23882,-2.73637 2.23882,-2.73637c23.16651,-2.31679 46.45243,-3.96587 69.73161,-5.15384c-0.32231,-0.92693 -0.50264,-1.99628 -0.84066,-2.85103c-1.25308,-3.16869 -1.47399,-4.93051 -2.05648,-8.01811c-1.84124,-9.81998 -2.4591,-19.44123 -2.68517,-29.43734c-0.2322,-10.2669 0.84438,-20.71622 -1.50608,-30.80329c-1.80142,-7.73086 -2.72687,-14.89479 -7.59447,-21.34882c0,0 -1.50001,-2 0.49999,-3.5c2,-1.50001 3.5,0.49999 3.5,0.49999c4.35604,5.83705 5.71113,11.36149 7.33365,18.34728c4.9866,21.46991 1.30554,43.6625 5.36644,65.32074c0.47283,2.5388 1.54104,4.95 1.93125,7.5028c0.08524,0.55765 -0.99818,1.55434 -0.43974,1.63426c0.62295,0.08915 0.72693,-1.02743 1.09039,-1.54115l3.61805,3.03608c0,0 0,0.33714 -0.12381,0.7638c2.62921,-0.12243 5.25815,-0.23929 7.88663,-0.35086c12.03564,-0.51089 23.98527,-0.8573 35.76339,-2.84519c0.71015,-1.39972 1.45309,-2.66267 1.56083,-3.294c0.4454,-2.60998 -1.21278,-5.18495 -2.92608,-6.87773c-0.75945,-0.75035 -1.79622,-1.15455 -2.68744,-1.74237c-5.26811,-3.47462 -17.49349,-9.34929 -12.90396,-17.36184c0.62713,-1.09486 1.74973,-1.81839 2.62459,-2.72758c3.38692,-5.37052 7.01792,-10.738 9.14322,-16.78163c3.17803,-9.0372 4.52512,-19.17679 6.77249,-28.49762c1.39237,-5.77477 2.22136,-14.13026 -3.44697,-18.23932c-1.97775,-1.4337 -4.96014,-1.55218 -7.82202,-1.42196c0.05404,2.70676 0.11947,5.41313 0.1984,8.11933c1.96069,0.33084 1.96069,2.45695 1.96069,2.45695c0,6.66667 0,17.73333 0,24.39999c0,3.33333 0.7081,6.74275 0,10l0,4c0,1.38071 -1.11929,2.5 -2.5,2.5c-1.38071,0 -2.5,-1.11929 -2.5,-2.5l0,-3.14131c-0.02171,-0.34499 -0.04341,-0.68997 -0.06509,-1.03496c-0.59213,-1.6719 -0.51974,-3.46719 -0.33115,-5.28406c-0.13295,-2.12611 -0.26566,-4.25224 -0.39854,-6.37835c-0.73225,-10.95739 -1.13895,-21.90649 -1.35964,-32.86192c-0.04892,0.00041 -0.09744,0.00062 -0.14557,0.00062c0,0 -0.23229,0 -0.55526,-0.07081c0.11381,6.00246 0.32376,12.00622 0.64023,18.01867l0.01502,1.93618c0,0 0.01595,2.49995 -2.484,2.5159c-2.49995,0.01595 -2.5159,-2.484 -2.5159,-2.484l-0.00821,-1.70527c-0.86037,-16.34598 -0.94098,-32.62897 -0.44506,-48.9933c0.81134,-26.77245 3.27325,-53.38212 5.01622,-80.08928c-11.42173,1.29219 -22.8377,2.61623 -34.19254,4.44766c-21.44508,3.45889 -42.87717,7.54435 -64.14343,11.96806c-5.64872,1.17502 -11.17306,2.87386 -16.83677,4.00764c0,0 -2.45145,0.4903 -2.94175,-1.96115c-0.4903,-2.45145 1.96115,-2.94175 1.96115,-2.94175c5.63959,-1.12691 11.13895,-2.82074 16.76326,-3.99236c21.35,-4.44749 42.87076,-8.54396 64.40138,-12.01664c11.8472,-1.91084 23.76048,-3.27041 35.67743,-4.61714c0.36402,-0.56947 1.02119,-1.09148 2.20419,-1.01754c0.59856,0.03741 1.04456,0.20943 1.37674,0.44934c1.17712,-11.42534 3.16733,-22.42267 3.16733,-33.9542c0,0 0,-2.5 2.5,-2.5c2.5,0 2.5,2.5 2.5,2.5c0,11.39586 -1.89528,22.27325 -3.09664,33.53929c7.65868,-0.88192 15.31264,-1.81238 22.94533,-2.93435c5.01678,-0.73745 9.93051,-1.29007 14.95262,-1.84829c3.74056,-0.41577 8.46812,-2.16911 12.01303,0.31671c1.53962,1.07964 2.66287,2.65581 3.9943,3.98371c0.0814,0.21659 3.48294,9.1549 3.56575,9.7862c0.2389,1.82127 -0.18578,3.66908 -0.29117,5.50293c-0.29729,5.17275 -1.12573,10.20706 -2.02889,15.23904c2.90694,-0.55308 5.811,-1.12021 8.7138,-1.69405c0.77469,-12.1048 2.23409,-24.13394 2.23187,-36.29117c0,0 0,-2.5 2.5,-2.5c2.5,0 2.5,2.5 2.5,2.5c-0.0021,11.82022 -1.36123,23.51823 -2.15546,35.28207c1.26941,-0.25335 2.53876,-0.50717 3.80819,-0.76084c-0.61821,-12.28538 -1.05275,-24.58245 -1.05275,-36.92126c0,0 0,-2.5 2.5,-2.5c2.5,0 2.5,2.5 2.5,2.5c0,12.00814 0.41359,23.97665 1.00752,35.9334c4.31066,-0.85626 8.62426,-1.7016 12.94612,-2.51201c2.66629,-0.49996 12.23667,-3.15649 14.52407,-1.76215c1.82539,1.11271 3.15086,3.78423 2.61823,5.85461c-0.53033,2.06144 -3.35059,2.6314 -5.10968,3.82989c-5.20775,3.54809 -10.92753,6.59753 -16.41847,9.68652c-2.49057,1.40094 -5.0118,2.74887 -7.48203,4.18499c0.00533,0.08839 0.01066,0.17678 0.01599,0.26517c3.16257,-0.54412 6.53401,-0.67441 9.26522,-1.12409l3.07225,-0.76809c0.21048,-0.05753 0.43203,-0.08825 0.66075,-0.08825c1.38071,0 2.5,1.11929 2.5,2.5c0,0.85068 -0.42488,1.60213 -1.07401,2.0537l-4.04155,2.88683l-0.01008,-0.01411c-0.02827,0.0264 -0.05665,0.05269 -0.08514,0.07887c-0.01079,0.00991 -8.7351,5.09976 -8.78278,5.12621c-0.2751,0.15259 -0.55048,0.30482 -0.82614,0.45668c0.09747,1.59255 0.19459,3.18532 0.29083,4.77836c3.43,-0.20437 6.89922,-0.26653 10.4289,-0.26653h1.59998c0,0 2.5,0 2.5,2.5c0,2.5 -2.5,2.5 -2.5,2.5h-1.59998c-3.32619,0 -6.73252,-0.01396 -10.14024,0.10013c0.25039,4.25069 0.49049,8.50384 0.70983,12.76071c0.73436,14.25169 2.00172,28.8354 1.52954,43.10422c-0.27523,8.31719 -1.23373,16.76045 -2.15135,25.02877l-0.05903,1.08971c6.88621,-2.25659 13.82727,-4.43024 20.95775,-5.45835c0,0 2.47488,-0.35352 2.8284,2.12136c0.35352,2.47488 -2.12136,2.8284 -2.12136,2.8284c-3.80285,0.53772 -7.55557,1.42676 -11.2754,2.48545c1.98152,0.13957 3.94064,0.28199 5.86602,0.41034c6.09387,0.40625 12.1991,0.85357 18.29981,1.38247c0.69733,-5.22597 1.47927,-10.42892 2.20991,-15.6632c-1.06514,-9.9499 -3.21437,-19.81435 -5.64676,-29.5263c-1.06207,-4.24057 -2.1335,-8.46903 -3.27848,-12.67558c-0.73842,0.03903 -2.11753,-0.13586 -2.55401,-1.88179c-0.41034,-1.64137 0.56783,-2.44964 1.24308,-2.80067c-0.20204,-0.70028 -0.4068,-1.39985 -0.61459,-2.09866c-3.67051,1.31329 -7.30747,2.7868 -10.87463,4.21419c0,0 -2.32119,0.92848 -3.24967,-1.39271c-0.92848,-2.32119 1.39271,-3.24967 1.39271,-3.24967c3.6923,-1.47641 7.45663,-2.99755 11.25571,-4.35155c-0.22897,-0.71316 -0.46184,-1.4254 -0.69894,-2.13669c0,0 -0.79058,-2.37171 1.58113,-3.16228c2.37171,-0.79058 3.16228,1.58113 3.16228,1.58113c0.23684,0.71051 0.46955,1.42196 0.69843,2.13431c0.61143,-0.18862 1.22336,-0.37071 1.83563,-0.5454c5.8037,-1.65591 11.8418,-2.5592 17.69727,-4.026c10.16941,-2.54744 20.26812,-5.32274 30.33274,-8.2265c-0.03063,-0.17948 -0.06113,-0.35895 -0.0915,-0.53841c-3.04717,0.46718 -6.08608,1.00065 -9.11235,1.63535c-6.08981,1.27722 -11.96556,3.57214 -18.05133,4.87209c-6.51382,1.39138 -12.94222,1.72848 -19.29004,3.85685c0,0 -2.37171,0.79056 -3.16227,-1.58114c-0.1656,-0.4968 -0.19245,-0.92422 -0.1314,-1.28953c-0.26802,-0.25563 -0.50299,-0.61368 -0.66859,-1.11048c-0.79055,-2.37171 1.58116,-3.16227 1.58116,-3.16227c6.95974,-2.30595 14.407,-2.69452 21.60572,-3.91805c6.4649,-1.0988 12.88322,-2.80239 19.37942,-3.6993c-0.75267,-0.09061 -1.51278,-0.20732 -2.28484,-0.35947c0,0 -2.45145,-0.49028 -1.96117,-2.94174c0.49028,-2.45145 2.94174,-1.96117 2.94174,-1.96117c2.65078,0.5389 5.15102,0.59392 7.71074,0.63766c-1.99478,-12.85868 -3.81959,-25.74314 -5.86973,-38.59186c-2.35179,-14.7392 -5.18174,-29.29627 -6.42269,-44.18674c0,0 -0.20763,-2.49136 2.28374,-2.69899c2.49136,-0.20763 2.69899,2.28374 2.69899,2.28374c1.23042,14.76419 4.04542,29.19869 6.37736,43.81326c1.89909,11.90184 3.60477,23.83433 5.43133,35.7486c0,-13.65141 0,-27.30283 0,-40.95424c0,-7.47507 -0.54091,-14.86591 -0.79909,-22.33063c-0.13837,-4.00081 0.0517,-7.62382 -0.7524,-11.57909c0,0 -0.49028,-2.45145 1.96117,-2.94174c2.45145,-0.49028 2.94174,1.96117 2.94174,1.96117c0.83657,4.24496 0.69819,8.13161 0.84757,12.42091c0.17227,4.94659 0.46507,9.86123 0.64492,14.78911c0.18465,-6.54329 0.58808,-13.07481 0.76723,-19.62837c0.18583,-6.7981 -0.03362,-13.43455 0.80813,-20.20144c0,0 0.31008,-2.4807 2.79078,-2.17061c2.4807,0.31008 2.17061,2.79078 2.17061,2.79078c-0.82941,6.60183 -0.59003,13.08329 -0.77139,19.7179c-0.27226,9.95986 -1.07437,19.86802 -0.80858,29.84592c0.3179,11.93395 1.90582,23.65728 3.10777,35.49226c6.22028,1.90583 12.41815,3.95323 18.58621,6.05732c0.64249,-0.10067 1.28459,-0.20439 1.92626,-0.31147c3.34255,-0.55709 6.66664,-1.04893 9.981,-1.47987c4.37088,-1.32226 8.78411,-2.77326 13.18158,-3.31204c1.6858,-0.20655 3.40335,0.13863 5.09522,-0.0103c7.73127,-0.68057 15.32946,-2.56222 23.11735,-3.20763l3.30391,-0.00216c0,0 1.87569,0 2.37768,1.62469c3.34352,-0.4786 6.66913,-1.03365 10.01131,-1.59068l4.79998,-0.80002c0,0 2.46598,-0.41101 2.87699,2.05498c0.41101,2.46598 -2.05498,2.87699 -2.05498,2.87699l-4.8,0.80002c-4.11411,0.68568 -8.20421,1.36669 -12.3314,1.91183c-0.23825,2.12219 -2.47956,2.12219 -2.47956,2.12219h-1.60004c-3.43169,0 -6.835,0.04437 -10.21955,0.13789c-2.21435,0.93377 -4.32559,2.16947 -6.60394,2.93844c-0.55336,0.18677 -1.11366,0.36188 -1.67937,0.52749c0.12632,0.29776 0.20287,0.65869 0.20287,1.09616c0,2.5 -2.5,2.5 -2.5,2.5h-0.79999c-3.31304,0 -6.62607,-0.00007 -9.93911,-0.0001c2.86418,1.03404 5.77322,1.92449 8.88297,2.41406l3.85187,0.61756c0,0 2.46848,0.39577 2.07271,2.86424c-0.39577,2.46848 -2.86424,2.07271 -2.86424,2.07271l-3.85187,-0.61756c-6.18072,-1.0071 -11.57977,-3.40454 -17.35466,-5.54187c-4.30389,1.14711 -8.59225,2.34659 -12.88801,3.57395c-8.76483,2.50424 -17.54949,4.94613 -26.3492,7.33606c-0.02461,1.27701 -0.05303,2.55294 -0.08569,3.82821c2.40039,12.66599 4.80239,25.38222 5.68369,38.13998c0.5812,8.41352 0.00906,16.93929 -0.60188,25.32696l-0.05837,1.58046c0,0 -0.09466,2.49821 -2.59287,2.40355c-2.49821,-0.09466 -2.40355,-2.59287 -2.40355,-2.59287l0.06799,-1.75436c0.59379,-8.15225 1.16546,-16.44155 0.60055,-24.61916c-0.36819,-5.33001 -1.00568,-10.65359 -1.79868,-15.96962c-0.1459,1.9217 -0.30698,3.8471 -0.48465,5.77754c-0.89741,9.75023 -1.81977,19.42486 -5.49065,28.57263l-0.7449,3.77793c0,0 -0.06704,0.33521 -0.2755,0.73294c1.15654,0.33166 2.31307,0.66333 3.46961,0.99499l2.5401,1.08432c0,0 2.29747,0.98571 1.31176,3.28318c-0.98571,2.29747 -3.28318,1.31176 -3.28318,1.31176l-2.24457,-0.96849c-1.55216,-0.44173 -3.10432,-0.88346 -4.65648,-1.32519c0,0 -2.40381,-0.68681 -1.717,-3.09062c0.10493,-0.36725 0.24994,-0.66236 0.42033,-0.89881c-0.71084,-0.89027 -0.46797,-2.10465 -0.46797,-2.10465l0.85508,-4.22207c3.53555,-8.86685 4.43407,-18.15817 5.30443,-27.60638c0.01356,-0.14724 0.02703,-0.29446 0.0404,-0.44164c-0.17651,0.03951 -0.36007,0.06036 -0.54851,0.06036c-1.38071,0 -2.5,-1.11929 -2.5,-2.5c0,-1.38071 1.11929,-2.5 2.5,-2.5c0.33553,0 0.65562,0.0661 0.94796,0.18598c0.57679,-7.45533 0.92007,-14.85174 1.11634,-22.26951c-0.16993,-0.89445 -0.33977,-1.78864 -0.50899,-2.68256c-16.14987,4.34348 -32.34696,8.51954 -48.56179,12.59213c1.13851,4.18948 2.20616,8.40019 3.26379,12.6229c1.14431,4.56878 2.21935,9.16559 3.15244,13.786c0.17932,-0.70797 0.38355,-1.41622 0.61855,-2.12549c0,0 0.79055,-2.37171 3.16227,-1.58116c2.37171,0.79055 1.58116,3.16227 1.58116,3.16227c-1.62889,4.85387 -1.62146,9.70423 -2.29216,14.72835c-0.13246,0.99222 -0.26788,1.98285 -0.40532,2.97226c0.54501,5.37488 0.78377,10.77373 0.6056,16.18977c7.57372,0.75341 15.12995,1.65962 22.63823,2.79637c2.8933,0.43838 5.78005,0.85169 8.66292,1.23788c33.76576,0.6611 67.58749,1.31698 101.31705,2.96227c25.65754,1.25154 51.25798,2.3337 76.70478,5.96901l1.95075,0.27868c0,0 2.47487,0.35356 2.12131,2.82843c-0.35356,2.47487 -2.82843,2.12131 -2.82843,2.12131l-1.95075,-0.27868c-3.71888,-0.53128 -7.44111,-1.00752 -11.16638,-1.43737c1.24173,0.36431 2.46911,0.72606 3.7016,1.06159c-1.35459,1.43018 -2.7589,2.80864 -4.2286,4.11263c-1.23349,-0.42337 -2.41073,-0.82719 -3.47555,-1.12541c-3.38352,-0.9476 -6.79318,-1.87115 -10.21736,-2.72877l3.63485,-2.42323c-2.95955,-0.2775 -5.92082,-0.53096 -8.88364,-0.76471l1.52261,2.28392c-1.69246,-0.39653 -3.38744,-0.77335 -5.08352,-1.12544c-0.27339,-0.05675 -0.54657,-0.11226 -0.81955,-0.16657c1.29907,-0.3492 2.60144,-0.68968 3.90413,-1.02932c-15.01039,-1.17351 -30.06058,-1.84696 -45.12986,-2.58202c-15.63727,-0.76277 -31.29436,-1.31242 -46.95648,-1.7485c-0.08063,2.37699 -2.49794,2.37699 -2.49794,2.37699h-1c-17.22028,0 -34.04668,-1.33058 -50.99988,-3.59133c-0.36378,-0.00712 -0.72755,-0.01425 -1.09131,-0.02137c-10.14738,-0.19878 -20.28242,-0.54337 -30.41476,-0.94027c-0.09702,0.85175 -0.20565,1.70384 -0.32631,2.55625l-0.09289,0.65026c0,0 -0.35355,2.47487 -2.82842,2.12133c-0.19421,-0.02774 -0.371,-0.06855 -0.53191,-0.1202c-0.16631,2.01115 -0.3355,4.02195 -0.64207,6.01529c-0.18511,1.20362 -0.61302,2.36337 -0.77317,3.57056c-0.04827,0.3639 -0.19995,0.8542 -0.11857,1.20079c0.35487,0.22435 0.7181,0.45751 1.07841,0.69448c0.77342,0.21706 1.63665,0.21513 2.43967,0.25483c4.0064,0.19805 8.21359,-0.40352 12.2305,-0.57593c6.03181,-1.05552 12.17015,-1.85863 18.15299,-3.1605c8.06289,-1.75448 15.95554,-4.33801 24.12506,-5.62317c13.28907,-2.09053 26.44299,-2.23074 39.83274,-1.68796l3.00778,0.05745c0,0 2.49954,0.04786 2.45168,2.5474c-0.04786,2.49954 -2.5474,2.45168 -2.5474,2.45168l-3.06111,-0.05876c-13.08046,-0.5295 -25.91433,-0.4133 -38.89843,1.62814c-8.08371,1.27097 -15.89585,3.84255 -23.87494,5.57684c-6.14517,1.33568 -12.45019,2.16805 -18.64693,3.23947c-1.54876,0.0721 -3.42584,0.30602 -5.42528,0.51276c1.87518,0.27024 3.74557,0.56296 5.61273,0.87096c4.81173,0.01569 9.62291,0.06108 14.4254,0.05222c22.97207,-0.04239 45.94431,-0.02125 68.91641,-0.02125c33.42017,0 67.97474,-2.33107 100.93678,4.11399c5.05395,1.00706 8.9639,2.9128 13.44182,5.44111l0.83684,0.12185c0,0 2.42306,0.61546 1.8076,3.03852c-0.61546,2.42306 -3.03852,1.8076 -3.03852,1.8076l-2.06742,-0.61584c-4.01432,-2.27455 -7.40397,-4.01705 -11.94059,-4.88632c-32.62791,-6.39089 -66.8944,-4.02091 -99.9765,-4.02091c-18.08871,0 -36.1775,-0.01311 -54.26622,0.00201c15.74644,2.35824 31.50655,4.64244 47.28852,6.76277c2.56915,-0.03332 5.1387,-0.08252 7.70869,-0.14842c23.27312,-0.59669 46.41663,0.38363 69.66898,0.38363h0.20001c0,0 2.5,0 2.5,2.5c0,2.5 -2.5,2.5 -2.5,2.5h-0.20001c-13.27163,0 -26.50733,-0.32071 -39.75203,-0.48401c25.12887,2.99568 50.24652,5.64759 75.4941,7.94166c13.99977,1.27216 27.98045,1.69103 41.99629,2.58108c6.97236,0.44277 14.47866,0.39311 21.32991,1.80552c3.24896,0.66979 6.41139,1.71745 9.65531,2.41122l1.87646,-0.05544c0,0 2.5,0 2.5,2.5c0,2.5 -2.5,2.5 -2.5,2.5l-2.92359,-0.05544c-3.20675,-0.68776 -6.33442,-1.71742 -9.54464,-2.38882c-6.63205,-1.38707 -13.95544,-1.29824 -20.71029,-1.72709c-14.06071,-0.8927 -28.08711,-1.3153 -42.13193,-2.59155c-33.25345,-3.02199 -66.28258,-6.66266 -99.4074,-10.8914c-4.52354,-0.57748 -9.04518,-1.17038 -13.56508,-1.77669c-21.53927,0.26658 -43.05041,-0.57222 -64.54835,-2.05487c-9.70232,-0.66914 -19.47834,-1.04062 -29.13047,-2.2363c-13.16619,-1.63399 -26.2536,-3.57603 -39.31317,-5.65975c-1.06695,0.04512 -2.13388,0.09143 -3.2008,0.1392c-0.49643,2.02773 -1.01064,4.05037 -1.54168,6.06886c18.90002,0.28941 37.7696,0.86398 56.708,1.76584c34.63467,1.64934 68.5848,9.38613 102.82083,14.22859c18.13039,2.56442 36.28727,4.81152 54.49343,6.78008c15.98227,1.7281 32.19781,3.34997 47.67166,7.93292c6.33556,1.88091 12.68676,3.62061 18.83951,6.04028l-0.11607,-0.17388c0,0 2.5,0 2.5,2.5c0,2.5 -2.5,2.5 -2.5,2.5l-1.71604,-0.17388c-6.0142,-2.37191 -12.23497,-4.06 -18.43042,-5.8993c-15.17156,-4.51543 -31.11177,-6.06031 -46.78614,-7.75512c-18.26048,-1.97443 -36.47168,-4.22831 -54.65618,-6.80038c-34.08037,-4.82044 -67.88167,-12.54315 -102.35842,-14.18497c-19.30893,-0.91951 -38.54542,-1.49775 -57.81619,-1.77979c-1.33073,4.79838 -2.75249,9.57763 -4.25205,14.35064c-0.23691,0.51713 -0.4813,1.03122 -0.73303,1.54196c11.0757,0.51126 22.1499,0.90975 33.23684,1.30244c16.19378,0.57357 32.32968,1.4135 48.49507,0.00784l-0.75128,-0.07715c0,0 1.7677,-1.76783 3.53553,-0.00013c1.76783,1.7677 0.00013,3.53553 0.00013,3.53553l-2.35125,1.52295c-16.37042,1.42349 -32.70611,0.58867 -49.1049,0.00784c-11.92582,-0.42241 -23.83702,-0.85167 -35.75112,-1.42012c-0.57235,0.93325 -1.16987,1.85047 -1.79145,2.7495c-1.14506,1.65618 -3.10657,3.18338 -3.0792,5.19668c0.05007,3.68219 1.02081,4.9872 2.45666,8.369l1.35884,3.23945c0,0 0.96703,2.3054 -1.33836,3.27243c-2.3054,0.96703 -3.27243,-1.33836 -3.27243,-1.33836l-1.35884,-3.23945c-1.74288,-4.19996 -2.96323,-5.95458 -2.82567,-10.75208c0.07676,-2.67701 2.65911,-5.71563 3.94094,-7.58344c0.04582,-0.06677 0.09153,-0.13362 0.13713,-0.20057c-0.97919,-0.05069 -1.95842,-0.10247 -2.93769,-0.1554c-4.10292,-0.22178 -8.20366,-0.35425 -12.30425,-0.43263c0.3028,4.36383 0.6532,8.72123 0.91315,13.02213c0.26164,4.32877 0.48764,8.85126 0.83139,13.15943c0.3068,3.84493 2.0008,7.13926 2.39706,10.96863c0.23473,2.26844 0.36678,4.56592 0.40065,6.86532c3.98076,3.98613 8.18151,7.78699 11.95861,11.89565c6.76783,7.36192 12.85573,15.38467 19.47311,22.88749c7.32879,8.30991 14.66504,16.61309 21.96126,24.95161l1.4863,1.47847c0,0 1.76777,1.76777 0,3.53553c-1.76777,1.76777 -3.53553,0 -3.53553,0l-1.71365,-1.72148c-7.29193,-8.33362 -14.62388,-16.63189 -21.94836,-24.93691c-6.59395,-7.47713 -12.65992,-15.47466 -19.40407,-22.81083c-2.71646,-2.95492 -5.59812,-5.75996 -8.45369,-8.58383c-0.01712,0.25484 -0.03541,0.50937 -0.05487,0.76356c-0.03417,1.64241 -0.06834,3.28483 -0.10252,4.92724l-0.05563,2.64701c0,0 -0.05253,2.49945 -2.55197,2.44692zM197.30018,218.77148c0.00487,-4.33076 0.61545,-7.98181 0.14927,-12.24435c-1.35472,0.17357 -2.67755,0.33571 -3.97845,0.56428c-0.65017,5.28802 -1.6008,10.53987 -3.04078,15.60302l-0.22638,0.79235c0,0 -0.6868,2.40381 -3.09061,1.71702c-2.40381,-0.6868 -1.71702,-3.09061 -1.71702,-3.09061l0.22638,-0.79235c1.18656,-4.13269 2.01909,-8.40781 2.62,-12.72484c-0.30862,0.13594 -0.61674,0.28224 -0.92451,0.44005c0,0 -2.23607,1.11803 -3.3541,-1.11803c-1.11803,-2.23607 1.11803,-3.3541 1.11803,-3.3541c0.04516,-0.02212 0.0903,-0.04406 0.13542,-0.0658c-3.44698,0.67309 -6.79699,1.65718 -9.63058,3.58203c0,0 -2.08009,1.38681 -3.46689,-0.69328c-1.38681,-2.08009 0.69328,-3.46689 0.69328,-3.46689c4.88977,-3.21167 10.70383,-4.18752 16.44669,-5.12613c0.09207,-1.23978 0.17269,-2.47676 0.24475,-3.70859c-0.43852,-0.07317 -0.87708,-0.14626 -1.31568,-0.21928c0,0 -2.46598,-0.41101 -2.05498,-2.87699c0.41101,-2.46598 2.87699,-2.05498 2.87699,-2.05498c0.22943,0.03828 0.45884,0.07659 0.68825,0.11491c0.08711,-3.70384 0.1315,-7.44838 0.66238,-11.07273c-0.51402,0.55317 -1.41668,1.10486 -2.76557,0.51339c-2.28957,-1.00394 -1.28563,-3.2935 -1.28563,-3.2935l1.9161,-4.36983c2.67328,-6.0962 5.14649,-12.27127 7.73033,-18.4053c1.25952,-2.99008 2.88487,-5.84229 3.8489,-8.94029c3.24634,-10.43241 2.95931,-22.20492 4.15738,-32.98734c2.09799,-18.86181 3.07314,-37.76529 5.72281,-56.58173c0.26693,-1.8956 0.57176,-3.77605 0.89303,-5.64831c-0.75425,-0.10109 -1.76718,-0.52308 -2.03863,-2.01609c-0.44721,-2.45968 2.01247,-2.90688 2.01247,-2.90688c0.30909,-0.0562 0.61814,-0.11261 0.92715,-0.16924c0.97879,-5.46981 1.93091,-10.92344 2.31302,-16.53677c0.10164,-1.49319 0.52251,-2.99305 0.3326,-4.4776c-0.35157,-2.74825 -1.92216,-5.19758 -2.83428,-7.81378c-0.80187,-0.80544 -1.49148,-1.74096 -2.4056,-2.41632c-2.09235,-1.54583 -7.00713,0.19633 -8.82838,0.39903c-4.96918,0.55304 -9.81727,1.09642 -14.78144,1.82614c-8.04289,1.18228 -16.10958,2.15145 -24.18051,3.07532c-1.41495,14.86272 -2.28897,29.78231 -3.14043,44.68294c-0.72081,12.61439 -0.45493,25.25654 -0.45493,37.88995c0,8.05233 0.03309,16.09415 0.15512,24.13133c3.79239,-0.12172 7.69243,0.02915 10.78199,2.22304c7.53322,5.34933 7.27968,15.65649 5.43678,23.48874c-2.23134,9.48306 -3.68606,19.78801 -6.91131,28.97427c-2.31299,6.58794 -6.2329,12.43047 -9.95755,18.26216c-0.98836,0.96837 -3.02112,1.79469 -2.71134,3.14326c0.45051,1.96113 3.3364,3.72817 4.47521,4.59929c3.29165,2.51791 7.93408,4.39797 10.77011,7.38187c3.03088,3.18893 4.9231,6.52714 4.40236,11.14402c-0.05419,0.48045 -0.16492,0.94938 -0.3157,1.40848c1.57562,-0.35255 3.14786,-0.74054 4.71652,-1.16836l1.45779,-0.08809c0,0 2.5,0 2.5,2.5c0,1.28827 -0.66385,1.91268 -1.30738,2.21533c2.2096,0.02364 4.41911,0.08469 6.60737,0.08469c3.34676,0 6.6834,0.00506 10.01656,0.03476c-0.19227,-3.47107 -0.32024,-6.93379 -0.31639,-10.36329zM202.29986,218.8285c-0.00088,3.43241 0.13162,6.89817 0.32778,10.37198c4.29312,0.07645 8.58597,0.21012 12.89272,0.44292c1.88538,0.10191 3.77058,0.19952 5.65567,0.29335c0.54992,-1.00509 1.06554,-2.0281 1.53975,-3.0691c1.31138,-4.20283 2.56419,-8.40954 3.748,-12.6297c-7.81168,-0.09296 -15.63057,-0.13793 -23.46374,-0.13793c0,0 -0.22871,0 -0.54777,-0.06917c-0.07462,1.55209 -0.15198,3.13058 -0.15241,4.79766zM203.00003,209.10001c8.2888,0 16.56177,0.05024 24.82719,0.15426c0.50987,-1.9131 1.0048,-3.82972 1.48384,-5.75074c-4.98608,0.2489 -9.97218,0.53955 -14.95895,0.90022c-4.03574,0.29189 -7.97916,0.82818 -11.95714,1.41443c0.12265,1.14071 0.17752,2.24215 0.19096,3.32489c0.24736,-0.04306 0.4141,-0.04306 0.4141,-0.04306zM321.81573,206.07029c-9.24179,-1.38781 -18.36914,-3.2797 -27.57308,-4.80522c-6.68093,-0.0204 -13.36244,0.02293 -20.02144,0.36136c-3.26263,0.16532 -6.52445,0.31224 -9.78563,0.44863c4.39859,0.61066 8.80412,1.19302 13.21849,1.74086c9.56028,1.18873 19.24812,1.54727 28.85868,2.21008c8.06256,0.55605 16.12694,1.02119 24.19397,1.37059c-2.96422,-0.43905 -5.92788,-0.88134 -8.89101,-1.3263zM216.0403,186.83653c-6.54973,-1.57529 -14.16035,-1.60565 -20.23088,-4.86483c0,0 0,0 -0.00001,0l0,0l-0.78832,-0.26278c-0.3066,3.01442 -0.30547,6.12393 -0.35992,9.17184c8.15559,1.37145 16.29991,2.75897 24.44534,4.12249c4.11957,-0.23523 8.22696,-0.34139 12.27848,-0.30726c0.30184,-1.36439 0.59505,-2.73164 0.87931,-4.10205c-5.42415,-1.20251 -10.83266,-2.46072 -16.22401,-3.75741zM195.80949,175.62833c4.33519,-1.44302 8.68465,-2.85233 13.04286,-4.24261c-0.21294,-0.34445 -0.35232,-0.79537 -0.35232,-1.38567c0,-2.5 2.5,-2.5 2.5,-2.5c2.51393,0 5.0914,0.1244 7.65306,0.14877c-0.22444,-0.28396 -0.40494,-0.66052 -0.50453,-1.15846c-0.49032,-2.45145 1.96113,-2.94177 1.96113,-2.94177c3.50239,-0.69028 7.13471,-1.06295 10.82573,-1.22432c-1.27206,-17.53676 -4.26458,-34.96122 -5.67485,-52.50695c-3.85796,0.56696 -9.03156,1.05206 -12.16605,0.26393c-1.15607,-0.29068 -2.70448,-0.48914 -3.83915,-1.02475c-0.10476,0.99642 -0.21223,1.99275 -0.32281,2.98897c-1.23419,11.10751 -1.00602,23.12244 -4.33826,33.87387c-0.06742,0.21752 -3.87174,9.06791 -4.02956,9.44257c-2.59327,6.1564 -5.07637,12.35358 -7.75908,18.47218l-0.0421,0.096c0.34842,-0.07675 0.75947,-0.07631 1.24275,0.04451c1.16089,0.29022 1.62721,0.99718 1.79791,1.65545zM202.12628,178.80654c0.89549,0.33999 1.72488,0.63808 2.30084,0.77345c4.19808,0.98665 8.53875,1.37703 12.73259,2.38346c5.34465,1.28261 10.70551,2.52876 16.08144,3.7208c0.60895,-3.19134 1.22854,-6.38066 1.83096,-9.57324c0.21553,-1.14224 1.14584,-2.3865 0.63242,-3.42937c-0.81507,-1.6556 -6.03565,-0.8773 -6.73947,-0.8101c-2.16309,0.20653 -4.30073,0.34574 -6.43315,0.43936c-6.81836,2.1317 -13.62809,4.27657 -20.40564,6.49564zM237.20993,142.03141c-0.01405,-0.09216 -0.81014,-6.07183 -1.27525,-6.97399c-0.94881,-1.84036 -2.27468,-3.52066 -3.42708,-5.2943c0.80998,6.4616 1.64655,12.91969 2.31705,19.389c0.86889,-2.37287 1.78803,-4.74138 2.38528,-7.12071zM232.74618,115.3019c0.31126,-0.64765 2.12056,-3.37724 0.988,-4.69394c-0.67542,-0.78524 -1.2739,-1.90792 -2.29207,-2.098c-0.41725,-0.0779 -0.82982,-0.03487 -1.24078,0.06755c0.25066,3.1121 0.55584,6.21968 0.89425,9.32438c0.55752,-0.86038 1.20894,-1.68103 1.65059,-2.59998zM218.41327,98.31986c0,0 2.08013,-1.38674 3.46687,0.69339c1.38674,2.08013 -0.69339,3.46687 -0.69339,3.46687c-1.40542,0.93372 -2.6766,1.83832 -4.08144,2.60217c2.00487,0.02522 4.25962,0.07051 4.93938,0.02254c0.94553,-0.06672 1.89599,-0.26882 2.84621,-0.51141c-0.24557,-4.05582 -0.3894,-8.11934 -0.39088,-12.19343c0,-3.46507 -0.00306,-6.93285 0.00091,-10.402c-0.50249,0.14416 -1.00997,0.20267 -1.52869,0.10186c-0.27059,-0.05259 -0.53492,-0.12208 -0.79394,-0.20592l-0.02136,0.05963l-4.59967,-1.64767c-0.99446,-0.33015 -1.71173,-1.26791 -1.71173,-2.37319c0,-1.02581 0.61784,-1.90733 1.50169,-2.29272l4.48709,-2.07517c0.90352,-0.41767 1.80498,-0.84157 2.70425,-1.27131c0.06393,-8.57442 0.2283,-17.14958 0.64545,-25.70524c-3.12309,0.63308 -6.24831,1.25856 -9.38094,1.85783c-0.42306,2.37272 -0.82751,4.7554 -1.16591,7.16218c-2.22835,15.84833 -3.27191,31.75816 -4.8001,47.65315c2.61785,-2.20282 6.9281,-3.83863 8.57619,-4.94157zM232.72231,103.67662c2.10529,0.62386 3.76673,2.40495 5.14355,4.11545c0.17136,0.21289 0.32464,0.42414 0.46102,0.63387c-0.31046,-5.49424 -0.67076,-10.97602 -0.95065,-16.40781c-0.21903,-4.25064 -0.45858,-8.49759 -0.70833,-12.74209c-2.41654,0.19483 -4.81423,0.49001 -7.16453,0.93697c-0.00773,4.06462 -0.00334,8.12768 -0.00334,12.18698c-0.0014,3.69501 0.12419,7.37981 0.34184,11.05708c0.97211,-0.09834 1.93419,-0.06085 2.88043,0.21954zM235.06773,123.19956c0.50649,2.88131 2.34774,5.02743 3.92508,7.30433c0.05728,-5.4453 -0.10874,-10.92828 -0.36885,-16.4117c-1.29702,3.0558 -4.11039,5.9549 -3.55623,9.10738zM240.90441,63.72394c-0.05656,0.00906 -0.11312,0.01809 -0.16968,0.0271c0.00151,0.02463 0.00302,0.04927 0.00453,0.0739c0.05527,-0.03365 0.11031,-0.06732 0.16515,-0.101zM231.36825,64.97548c-0.84468,-0.45814 -1.40006,-1.3432 -1.7064,-2.35059c-0.04544,2.39932 -0.07837,4.79919 -0.10218,7.19916c2.12661,-1.07492 4.23944,-2.17895 6.33675,-3.30672c-0.0366,-0.5973 -0.07319,-1.19458 -0.10975,-1.79184c-1.54634,0.48173 -3.0992,0.96551 -4.41843,0.24999zM232.63505,56.92998c0.83849,-0.59482 1.69972,-1.16257 2.57661,-1.71056c-0.20848,-3.51534 -0.41056,-7.0306 -0.60035,-10.54649c-1.45692,0.29357 -2.91315,0.58957 -4.36922,0.8861c-0.22907,4.42511 -0.38788,8.85577 -0.49787,13.28912c0.61495,-0.8498 1.98837,-1.27797 2.89083,-1.91817zM245.4165,49.47238c6.34537,-3.56885 12.41278,-7.97638 19.18761,-10.58621c1.15697,-0.44569 -2.42447,0.52047 -3.63544,0.78651c-0.95382,0.20955 -1.9194,0.36144 -2.8792,0.54162c-0.03291,0.00618 -9.83704,1.84448 -9.85356,1.84741c-2.89868,0.51451 -5.78814,1.0614 -8.67252,1.6261c0.15554,2.90848 0.31986,5.81649 0.48958,8.72443c1.79462,-0.98693 3.60057,-1.9482 5.36354,-2.93987zM152.24453,99.46884c-0.26027,8.58849 -0.36063,17.15414 -0.27095,25.71841c0.35945,-0.08724 0.62642,-0.08724 0.62642,-0.08724c0.01908,0 0.03818,-0.00002 0.05729,-0.00005c-0.12359,-8.09337 -0.15727,-16.1914 -0.15727,-24.29997c0,-2.64574 -0.01137,-5.29182 -0.02286,-7.93792c-0.08788,2.20125 -0.16586,4.40346 -0.23264,6.60677zM240.03232,176.74061c-0.00506,0.06072 -1.86789,9.81852 -1.89803,9.97652c-0.00219,0.01146 -0.00437,0.02292 -0.00656,0.03438c12.21936,2.62693 24.51447,4.9477 36.87176,6.75598c-0.06647,-0.05522 -0.13197,-0.11168 -0.19646,-0.16942c-0.11545,-0.10336 -0.22131,-0.21427 -0.31846,-0.33179c-0.62993,-0.32251 -1.24498,-0.67259 -1.84092,-1.04978l-2.61142,-2.58874c0,0 -1.76776,-1.76778 0.00002,-3.53553c1.76778,-1.76776 3.53553,0.00002 3.53553,0.00002l0.10575,0.10685c0.17375,-0.63371 0.36077,-1.26754 0.45399,-1.90907c0.43126,-2.96803 0.5939,-5.96893 0.89233,-8.95324c0.06221,-0.62208 0.12683,-1.24334 0.19364,-1.86388c-10.05168,-0.41516 -20.10329,-0.85672 -30.16425,-1.2334c-1.50196,-0.05623 -3.00156,-0.14362 -4.49967,-0.24488c0.18585,1.58442 -0.38234,3.38803 -0.51727,5.00599zM236.48137,194.80304c6.59022,0.20777 13.17037,0.63275 19.77535,0.67358c-6.38811,-1.17055 -12.75789,-2.45172 -19.10694,-3.81602c-0.2177,1.04924 -0.44055,2.09668 -0.66841,3.14244zM200.44549,196.92303c-1.99337,-0.33639 -3.98723,-0.6724 -5.98175,-1.00741c-0.04063,0.66706 -0.08395,1.33526 -0.13034,2.0043c2.01975,-0.36005 4.059,-0.69283 6.11209,-0.99689zM322.0315,88.20467c-0.14216,-0.76914 -0.28311,-1.53807 -0.42249,-2.3068c-9.9585,2.86866 -19.95088,5.6105 -30.012,8.12981c-5.79019,1.44987 -11.76409,2.33799 -17.50281,3.974c-0.58269,0.16612 -1.16508,0.33922 -1.74702,0.5185c0.23698,0.7953 0.47009,1.59157 0.69976,2.38875c16.35631,-4.10754 32.69463,-8.32029 48.98456,-12.70427zM376.93424,73.22339c0.17438,-0.04209 0.34928,-0.08364 0.52467,-0.1247c-2.46586,0.23438 -4.93238,0.50082 -7.40341,0.80122c1.37308,-0.00003 2.74615,-0.00003 4.11923,-0.00003c0.91849,-0.22854 1.83826,-0.45411 2.75952,-0.67649zM354.31595,78.90396c-0.0108,0.11672 -0.02956,0.23839 -0.05721,0.36519c0.4302,-0.12262 0.86035,-0.24494 1.29046,-0.36695c-0.41094,0.00044 -0.82203,0.00102 -1.23325,0.00176zM344.25368,79.42868c-2.07208,0.47643 -4.1338,1.0042 -6.17874,1.61893c-3.1343,0.94029 -6.27007,1.87321 -9.40838,2.79575c-0.00729,0.85824 -0.01589,1.71565 -0.02595,2.57235c6.89066,-1.87611 13.77191,-3.78451 20.64145,-5.73021c-1.65859,-0.45685 -3.33649,-0.87535 -5.02837,-1.25683zM335.43069,69.83465c-0.32176,0.16312 -0.72508,0.26536 -1.23064,0.26536c-1.28864,0 -1.91304,-0.66423 -2.21559,-1.30794c-1.09415,-0.32585 -2.18897,-0.64683 -3.28441,-0.96248c0,1.36559 0,2.73117 0,4.09676c3.20486,0.30596 6.41689,0.72196 9.60651,1.25386c1.88107,-0.2105 3.76189,-0.42272 5.64146,-0.64469c-2.83386,-0.92441 -5.6732,-1.82746 -8.51733,-2.70088zM329.2868,62.7962c0.71187,0.20339 1.42348,0.40905 2.13483,0.61686c-1.0101,-9.63654 -2.20748,-19.21433 -2.72158,-28.89952c0,9.39876 0,18.79752 0,28.19628c0.34824,0.01823 0.58675,0.08637 0.58675,0.08637zM236.23178,72.00352c-2.22195,1.17256 -4.4602,2.31726 -6.71274,3.42852c-0.00025,0.05089 -0.00049,0.10177 -0.00073,0.15266c2.28092,-0.43617 4.56848,-0.76435 6.86929,-1.0094c-0.0517,-0.85734 -0.10367,-1.71459 -0.15581,-2.57177z"/><path d="M66.6799,115.44367c0.48691,0.18072 0.93457,0.05247 1.82509,-0.88131c1.63927,-1.71891 2.63014,-7.81425 1.75529,-9.93696c-0.39502,-0.95847 -1.54499,-1.43527 -2.4878,-1.86633c-1.57403,-0.71965 -3.09346,1.08669 -3.90241,1.92527c-2.40731,2.4955 -2.98161,4.39494 -3.49952,7.06107c0.96982,-0.5732 2.22445,-0.9516 3.11141,-1.58147l3.61804,3.83607c0,0 0,0.76129 -0.4201,1.44367zM59.30121,115.65304c-0.42881,0.55226 -1.1645,1.04381 -2.39147,0.79842c-2.45145,-0.49028 -1.96117,-2.94174 -1.96117,-2.94174c0.18328,-0.91558 1.28915,-6.87565 1.81114,-7.81928c3.4623,-6.25902 12.97489,-12.67797 17.98869,-3.26887c0.979,1.83723 0.41038,4.15581 0.33654,6.23629c-0.1148,3.23473 -0.4481,7.2289 -3.18991,9.57978c-3.31327,2.84086 -6.93508,3.21192 -10.47022,0.10369c-0.80287,-0.70591 -1.64389,-1.66129 -2.12359,-2.68829z"/><path d="M72.55927,135.77311c0.37841,-1.87312 2.44073,-1.87312 2.44073,-1.87312h2.40002c2.95842,0.43606 10.1102,-0.17001 5.27015,7.10158c-1.2698,1.90773 -4.0428,2.52761 -6.32908,2.68499c-0.8248,0.05678 -1.99526,-0.43262 -2.84298,-1.10332c-0.02087,0.27732 -0.03236,0.55401 -0.00538,0.82648c0.1378,1.39146 0.43145,2.76305 0.64385,4.14508c0.60446,3.93296 1.28344,6.56593 2.52168,9.36792l2.50951,2.50951c0.45241,0.45241 0.73223,1.07741 0.73223,1.76777c0,1.38071 -1.11929,2.5 -2.5,2.5c-0.22872,0 -0.45027,-0.03071 -0.66074,-0.08824l-3.14562,-0.78642l0.13917,-0.55667l-1.23145,-0.03437c-0.34373,-0.80356 -1.92258,-6.57957 -3.01076,-7.27355c-4.83564,-3.08388 -8.47414,4.96929 -12.0871,-2.64883c-0.58337,-1.23007 0.6992,-2.63159 1.06748,-3.94223c0.31678,-1.12734 0.3751,-2.38228 0.79878,-3.46054c-0.2345,-0.38076 -0.36976,-0.82915 -0.36976,-1.30914c0,-0.29691 0.05176,-0.58172 0.14674,-0.84592l0.7633,-2.28994c0.01458,-0.0474 0.03053,-0.0942 0.0478,-0.14035c1.9185,-5.64035 -2.2703,-9.89596 -4.02957,-15.13324c0,0 -0.79056,-2.37171 1.58115,-3.16227c2.37171,-0.79056 3.16227,1.58115 3.16227,1.58115c2.18024,6.59956 6.22505,10.8028 4.12829,17.96331v2.82725h-0.25325c0.40651,2.22569 0.05661,4.35664 -2.25025,6.4881c-0.07717,0.0713 0.16697,-0.13069 0.26241,-0.17464c1.19774,-0.55157 2.29524,-1.64594 3.61339,-1.61019c1.1495,0.03118 2.19354,0.18432 3.13492,0.44921c-0.31796,-1.90952 -0.54647,-3.83508 -0.69997,-5.76219c-0.16495,-2.07085 -0.32922,-7.16703 2.48144,-8.15497c0.54893,-0.19295 1.06654,-0.10522 1.57058,0.1378z"/><path d="M66.5101,359.68068c-2.48069,0.31009 -2.79078,-2.17061 -2.79078,-2.17061l-0.35965,-2.87721c-1.8108,-14.48649 -1.75243,-29.45719 0.47937,-43.93549c0.28851,-1.87162 0.62775,-3.74061 0.99784,-5.60747c-0.0584,0.01935 -0.10321,0.03418 -0.13313,0.04408c-1.95115,0.64585 -3.96564,1.16609 -6.02642,1.56997c-0.14477,1.68637 -0.27562,3.3732 -0.38276,5.06086c-0.5828,9.18023 -0.85159,18.37498 -1.46384,27.55582l-0.13357,2.79868c0,0 -0.11928,2.49715 -2.61643,2.37787c-2.49715,-0.11928 -2.37787,-2.61643 -2.37787,-2.61643l0.13604,-2.84571c0.61282,-9.1955 0.88228,-18.40497 1.46655,-27.59983c0.08422,-1.32536 0.18354,-2.65033 0.29304,-3.97508c-13.20103,1.37838 -27.65719,-1.447 -39.27822,-6.25429l-4.53126,-0.73982c0,0 -2.46599,-0.41099 -2.05499,-2.87698c0.41099,-2.46599 2.87698,-2.05499 2.87698,-2.05499l5.06872,0.86015c11.40629,4.55836 25.56415,7.58646 38.37574,6.01194c0.7558,-7.85942 1.64827,-15.71756 1.64455,-23.60611c0,0 0,-2.5 2.5,-2.5c2.5,0 2.5,2.5 2.5,2.5c-0.00341,7.59122 -0.8122,15.14997 -1.5433,22.7101c1.34621,-0.31248 2.66993,-0.68435 3.9659,-1.11955c1.01854,-0.34204 1.98159,-0.62888 2.89976,-0.90704c0.85422,-3.86341 1.75538,-7.71984 2.52616,-11.57381c0,0 0.49028,-2.45145 2.94174,-1.96117c2.45145,0.49028 1.96117,2.94174 1.96117,2.94174c-0.55452,2.77264 -1.1781,5.54674 -1.80274,8.32387c0.98122,-0.6037 1.92824,-1.36293 2.86299,-2.37393c2.1258,-2.20843 5.1826,-3.75163 6.47267,-6.53226c0.60399,-1.30184 0.14724,-2.87011 0.34524,-4.29151c0.86752,-6.22758 0.56514,-12.60155 -2.9309,-18.16586c-0.53457,0.75188 -1.11601,1.45928 -1.81895,2.05135c-1.66147,1.39941 -7.72913,2.91268 -9.70057,3.47549c-6.39619,1.82597 -13.58698,3.2336 -20.26795,3.47765c-6.69338,0.2445 -13.66142,-1.00614 -20.29282,-1.77203c-4.52917,-0.52309 -11.55123,-0.67892 -15.61676,-3.23724c-1.12541,-0.70819 -2.71969,-1.29835 -3.40112,-2.37081c-1.49366,0.25839 -2.99132,0.57266 -4.49415,0.95039c0,0 -2.42535,0.60637 -3.03172,-1.81898c-0.60637,-2.42535 1.81898,-3.03172 1.81898,-3.03172c2.23073,-0.55499 4.44848,-0.97998 6.65733,-1.2967c0.0438,-0.08382 0.08761,-0.16759 0.13123,-0.25132c-0.73949,0.19893 -1.90664,0.22503 -2.72591,-1.1404c-1.28625,-2.14373 0.85748,-3.42998 0.85748,-3.42998c5.63966,-3.37125 11.63198,-5.40626 17.77174,-7.70833c11.5214,-4.31987 23.29494,-6.69464 35.55017,-4.07092c5.66778,1.21341 10.00209,2.86666 14.53713,6.42134c2.27516,1.78333 4.22582,2.85783 5.31352,5.69027c0.3059,0.79658 0.46654,1.63536 0.59717,2.48287c0.75335,0.75573 1.40953,1.51661 1.91965,2.25865c4.51223,6.56359 5.27355,14.71569 4.06729,22.25338c-0.30014,1.87551 0.05245,3.93006 -0.7591,5.64732c-0.2294,0.48542 -6.74533,7.19951 -7.39734,7.87686c-1.12647,1.13543 -2.01108,2.57817 -3.37942,3.40629c-0.16723,0.10121 -2.21467,0.80369 -4.42048,1.54721c-0.5789,2.72814 -1.11141,5.46027 -1.5334,8.19789c-2.16175,14.0238 -2.21338,28.5234 -0.45962,42.55357l0.35965,2.87721c0,0 0.31009,2.48069 -2.17061,2.79078zM50.83608,267.91804c-1.11802,2.23608 -3.35409,1.11806 -3.35409,1.11806l-0.70834,-0.54633c-10.09942,-0.91819 -19.92167,-2.33028 -29.81069,-1.98432c3.27675,0.74496 6.57287,1.22515 9.92756,1.61044c6.37812,0.73254 13.10058,1.97768 19.5382,1.74253c6.28233,-0.22949 13.06173,-1.56845 19.07686,-3.2886c4.07329,-1.16484 6.74502,-1.61224 9.53444,-4.35017c-2.16959,-1.78318 -4.8253,-3.43054 -6.65137,-4.33335c-2.32096,-1.14748 -5.03274,-1.21915 -7.54426,-1.84826c-7.72584,-1.93525 -16.35184,-3.50983 -24.34102,-2.48814c-3.23068,0.41315 -6.35621,1.42502 -9.53546,2.13239c-4.44151,0.96969 -10.09276,2.41878 -13.21251,6.01697c11.12179,-0.76657 22.10245,0.77748 33.47096,1.81104l2.49167,1.05364c0,0 2.23608,1.11802 1.11806,3.35409z"/><path d="M4.83988,336.4885c-2.48847,0.23987 -2.72834,-2.24859 -2.72834,-2.24859l-0.27358,-2.84245c-1.87269,-14.03611 -4.24875,-28.94138 -2.6168,-43.10555c0.50927,-4.42009 1.87396,-8.97809 2.95348,-13.29822c0,0 0.60633,-2.42536 3.03169,-1.81903c2.42536,0.60633 1.81903,3.03169 1.81903,3.03169c-1.02831,4.1114 -2.3523,8.45051 -2.83706,12.65786c-1.58701,13.77414 0.79839,28.31467 2.61702,41.96288l0.28315,2.93309c0,0 0.23987,2.48847 -2.24859,2.72834z"/><path d="M244.50003,12.39999c0,-1.38071 1.11929,-2.5 2.5,-2.5c1.38071,0 2.5,1.11929 2.5,2.5c0,1.38071 -1.11929,2.5 -2.5,2.5c-1.38071,0 -2.5,-1.11929 -2.5,-2.5z"/><path d="M440.50003,132.39999c0,-1.38071 1.11929,-2.5 2.5,-2.5c1.38071,0 2.5,1.11929 2.5,2.5c0,1.38071 -1.11929,2.5 -2.5,2.5c-1.38071,0 -2.5,-1.11929 -2.5,-2.5z"/></g></g></svg>