<svg version="1.1" xmlns="http://www.w3.org/2000/svg" xmlns:xlink="http://www.w3.org/1999/xlink" width="315.33816" height="217.14497" viewBox="0,0,315.33816,217.14497"><g transform="translate(-70.10001,-64.65544)"><g data-paper-data="{&quot;isPaintingLayer&quot;:true}" fill="#ff6666" fill-rule="nonzero" stroke="none" stroke-width="0.5" stroke-linecap="butt" stroke-linejoin="miter" stroke-miterlimit="10" stroke-dasharray="" stroke-dashoffset="0" style="mix-blend-mode: normal"><path d="M358.10001,244.39999c0,-1.38071 1.11929,-2.5 2.5,-2.5c1.38071,0 2.5,1.11929 2.5,2.5c0,1.18523 -0.82478,2.17782 -1.9317,2.43512c2.87366,-0.24917 7.28639,-0.40706 9.83216,0.09716c2.32487,0.46047 4.43387,2.33466 6.79242,2.10159c1.65721,-0.16376 0.77094,-3.24936 0.94661,-4.90535c0.27701,-2.61134 0.48961,-5.2306 0.62677,-7.85301c0.54816,-10.41507 1.63198,-21.29075 0.73949,-31.70623c-0.54849,-6.4009 -1.41494,-13.19927 -2.66055,-19.50112c-1.61289,-8.16002 -4.73353,-16.02754 -6.30041,-24.1971c-1.56783,-8.17457 -2.09365,-16.70639 -3.12634,-24.96792c-0.82724,-6.61867 -2.20109,-13.28651 -2.71754,-19.93208c-0.50173,-6.45626 -0.18749,-13.09148 -0.20089,-19.5661c-0.00967,-4.66827 0,-9.33667 0,-14.00495c0,-1.68229 0.99932,-3.5683 0.1903,-5.04329c-1.58981,-2.89851 -4.64564,-2.82909 -7.13403,-4.44387c-1.26505,-0.82092 -1.95742,-2.43679 -3.32904,-3.06364c-0.98964,-0.45229 -2.17583,0.04382 -3.2639,0.05054c-4.98726,0.0308 -9.97597,0.00027 -14.96333,0.00027c-13.25897,0 -26.6503,-0.55311 -39.8961,-0.00216c-20.63859,0.85845 -41.36022,3.3751 -61.95745,4.99787c-8.31396,0.32061 -16.66653,0.43298 -24.96958,0.9601c-7.6734,0.48715 -15.43686,1.99395 -23.1232,2.04362c-18.36094,0.11866 -36.62314,-2.85069 -54.96703,-2.95795c-8.23329,-0.04815 -16.62772,-0.49749 -24.84796,-0.04524c-4.23983,0.23326 -8.7811,0.58455 -13.1433,1.19344c1.16019,0.53031 1.37555,1.93018 1.37555,1.93018c4.49409,29.21161 9.06827,58.38978 14.13234,87.50814c2.45414,14.11129 4.2788,28.35163 6.85828,42.43522c3.4985,19.10125 7.03845,37.94396 7.03845,57.43678c0,2.33333 0,4.66667 0,7c0,1.33333 0.23362,2.68729 0,4c-0.08207,0.46113 -1.36323,1.16534 -0.90341,1.07623c1.04919,-0.20334 1.83505,-1.14235 2.85705,-1.45485c8.94694,-2.73574 18.88991,-3.26987 28.07065,-5.0757c16.25049,-3.19644 32.39892,-5.97304 48.79275,-8.3839c9.63935,-1.41744 19.33428,-2.80949 28.91716,-4.57038c8.14814,-1.49725 16.19579,-3.7986 24.38247,-5.06184c16.3714,-2.52617 32.8669,-3.02956 49.38333,-3.02956c10,0 20,0 30,0c3.98863,0 8.74916,0.46796 12.71711,0.01606c4.38555,-0.49946 8.60477,-2.54159 13,-3c0.05838,-0.00609 0.11779,-0.01216 0.17818,-0.01821c-1.33215,-0.05489 -2.39529,-1.15221 -2.39529,-2.49785zM70.10001,76.39999c0,-2.5 2.5,-2.5 2.5,-2.5h3c4.94669,0.01974 7.71553,-1.02104 12.55855,-1.96072c5.88308,-1.14147 12.42604,-1.70653 18.40546,-2.0355c8.32198,-0.45784 16.81692,-0.01095 25.15186,0.03778c18.30014,0.107 36.5154,3.05369 54.83047,2.95901c7.61098,-0.03935 15.31438,-1.55228 22.91374,-2.03473c8.31108,-0.52763 16.67143,-0.64234 24.99347,-0.96156c20.62455,-1.63169 41.37581,-4.14251 62.04255,-5.00213c13.31544,-0.55385 26.77538,-0.00216 40.1039,-0.00216c5.00273,0 10.03632,-0.14586 15.03667,0.00027c1.67364,0.04891 3.46673,-0.3452 5.01449,0.29347c1.68815,0.6966 2.66434,2.53168 4.20569,3.51115c3.17498,2.01757 7.273,3.4243 9.05284,6.73841c0.62474,1.16328 0.15419,2.63677 0.1903,3.95671c0.1183,4.32466 0,8.67393 0,13c0,7.6733 -0.40867,15.53312 0.18587,23.18366c0.51032,6.56683 1.87629,13.15874 2.69396,19.6993c1.01913,8.15304 1.52827,16.57918 3.07539,24.64598c1.56481,8.159 4.68388,16.01831 6.29507,24.16969c1.28523,6.50232 2.18759,13.52709 2.74398,20.13209c0.89498,10.62456 -0.17584,21.68506 -0.73492,32.30759c-0.25577,4.83051 0.81696,15.13779 -4.95221,17.22782c-2.75725,0.99888 -6.78622,-1.38684 -9.20758,-1.89841c-2.44441,-0.51644 -6.8979,-0.23215 -9.31665,0.01622c-4.3851,0.45029 -8.61388,2.50047 -13,3c-4.15028,0.47267 -9.09782,0.01606 -13.28289,0.01606c-10,0 -20,0 -30,0c-16.26188,0 -32.4966,0.48379 -48.61667,2.97044c-8.13993,1.25565 -16.1435,3.54986 -24.2455,5.03863c-9.64142,1.77164 -19.39514,3.17319 -29.09333,4.59951c-9.85393,1.44911 -19.79742,2.62027 -29.60492,4.35247c-10.8129,1.90977 -21.51636,4.44601 -32.33695,6.36371c-4.85918,0.86118 -9.82633,2.17101 -14.72755,2.71098c-2.31349,0.25488 -4.9548,1.54968 -6.97167,0.38803c-1.44597,-0.83282 -0.73534,-3.2636 -0.90341,-4.92377c-0.36206,-3.57635 0,-7.39873 0,-11c0,-19.1976 -3.51898,-37.75155 -6.96155,-56.56322c-2.57847,-14.08987 -4.40609,-28.33495 -6.86124,-42.45207c-5.06964,-29.15045 -9.64909,-58.36077 -14.14814,-87.60456c0,0 -0.21487,-1.39667 0.72853,-2.25146c-0.61172,0.1046 -1.21758,0.21514 -1.81615,0.33203c-5.0089,0.97816 -8.25566,2.02098 -13.44145,2.03928h-3c0,0 -2.5,0 -2.5,-2.5z"/><path d="M350.86161,182.33457c1.06542,2.26161 -1.19619,3.32703 -1.19619,3.32703l-2.90744,1.36852c-3.19303,1.28555 -6.23605,2.9911 -9.54399,3.94275c-3.61651,1.04042 -6.34112,0.6308 -9.93159,1.57763c-6.39121,1.68541 -11.77292,5.01189 -18.43692,5.78204c-4.51695,0.49848 -8.6993,0.64641 -13.2455,0.56745c-1.98628,-0.0345 -4.10006,0.51635 -5.95671,-0.1903c-5.35,-2.03622 -2.44601,-3.75057 -3.39397,-7.45864c-0.16222,-0.63455 -0.94035,-0.91425 -1.36895,-1.4095c-1.14927,-1.32795 -2.37862,-2.60149 -3.36176,-4.05672c-1.71835,-2.54347 -2.38374,-5.72734 -4.23008,-8.17949c-0.05128,-0.06811 -0.10316,-0.13569 -0.1556,-0.20275l-0.76516,0.76516c-0.45241,0.45241 -1.07741,0.73223 -1.76777,0.73223c-1.3549,0 -2.45805,-1.07782 -2.49883,-2.42283l-0.10108,-2.87387c-0.04275,-0.40002 -0.09138,-0.79372 -0.14554,-1.18198c-0.52659,-0.45254 -1.04498,-0.91264 -1.54223,-1.39204c-1.05705,-1.0191 -1.87897,-2.34014 -3.14447,-3.08474c-5.63579,-3.31601 -8.78549,0.82589 -13.70179,2.80065c-5.38763,2.16409 -11.89552,3.00942 -17.56996,4.14509c-0.33312,0.06662 -9.8712,1.97836 -10.05546,1.9981c-7.94063,0.85065 -16.46596,-0.18452 -24.40632,-0.68137c-4.6551,-0.29128 -9.8374,-0.37559 -14.40541,-1.37313c-4.42781,-0.96692 -9.00641,-3.25099 -13.25184,-4.82252c-4.46008,-1.65098 -10.58083,-2.99974 -14.58021,-5.54227c-3.07694,-1.95611 -3.63453,-4.99861 -4.91805,-8.14063c0,0 -0.92848,-2.32119 1.39272,-3.24967c2.32119,-0.92848 3.24967,1.39272 3.24967,1.39272c0.44036,1.12939 1.3473,4.89669 3.08195,5.85937c3.9644,2.20014 9.24997,3.41463 13.50966,4.99143c4.04593,1.49767 8.43722,3.73205 12.65828,4.64378c4.29905,0.92857 9.20045,0.97756 13.57512,1.25066c7.66944,0.47878 15.9458,1.52574 23.61315,0.69485c3.23041,-0.35007 6.36994,-1.28698 9.55616,-1.92422c5.41607,-1.08245 11.67997,-1.87237 16.81843,-3.93258c2.53975,-1.01828 4.49923,-3.33682 7.1416,-4.04753c2.89977,-0.77995 8.29042,0.216 10.75942,1.58847c-0.41011,-1.21151 -0.85143,-2.44165 -1.3104,-3.72446c-1.08348,-3.02828 -1.72885,-6.24715 -3.22698,-9.0932c-2.17659,-4.13496 -5.87044,-8.05997 -8.59683,-11.86095c-1.91502,-2.66982 -3.57921,-4.20957 -5.62446,-5.79451c-6.08947,0.52598 -12.20233,0.70809 -18.36788,0.64595c-2.1403,-0.02157 -5.34664,0.08956 -8.03951,-0.31354c-4.35176,2.26917 -8.61619,4.69721 -13.1298,6.68322c-10.78023,4.74334 -22.85832,8.42966 -34.69031,8.76129c-3.15697,0.08849 -6.29467,-0.5237 -9.44132,-0.79369c-4.53942,-0.3895 -11.64072,-0.44288 -15.76774,-2.49138c-1.4897,-0.73943 -2.405,-2.29779 -3.6075,-3.44668c0,0 -1.76777,-1.76777 0,-3.53553c1.76777,-1.76777 3.53553,0 3.53553,0c0.7975,0.85111 1.34319,2.04407 2.3925,2.55332c1.27633,0.61943 2.8075,0.41238 4.2063,0.6492c4.90252,0.83002 9.69366,1.28389 14.6488,1.71533c12.38112,1.07802 25.45623,-3.03671 36.71004,-7.98842c3.33992,-1.46958 6.54626,-3.17398 9.75133,-4.87962c-0.31367,-0.40552 -0.57778,-0.84412 -0.7767,-1.30217c-0.59513,-1.37043 0.20122,-3.03785 -0.19694,-4.4779c-1.14163,-4.12905 -6.00665,-7.4928 -8.85271,-10.35021c-0.01028,-0.01113 -0.02053,-0.0223 -0.03076,-0.03351c-2.61909,-0.64067 -5.24222,-1.27643 -7.883,-1.63217c-0.33447,-0.04506 -0.72308,-0.09852 -1.14906,-0.15255c-2.40968,1.91382 -4.637,4.75728 -6.33607,5.83066c-2.41243,1.52405 -5.36603,1.94331 -8.0564,2.89434c-4.74701,1.67804 -9.81882,3.55328 -14.79824,4.40976c-4.5697,0.78601 -9.6444,0.52227 -14.27237,0.76545c-4.74357,0.24925 -10.97751,1.18764 -15.64346,0.21179c-0.33192,-0.06942 -8.99733,-3.93922 -9.49637,-4.16101c0,0 -2.28453,-1.01535 -1.26918,-3.29988c0.0485,-0.10913 0.0999,-0.21073 0.15381,-0.30528c-2.64444,-0.17676 -5.32335,-1.34915 -7.33106,-2.65127c-0.16783,-0.10885 -4.00755,-3.9619 -4.30599,-4.26034c0,0 -1.76777,-1.76777 0,-3.53553c1.76777,-1.76777 3.53553,0 3.53553,0c1.23897,1.23897 2.25437,2.7409 3.69401,3.73966c1.37027,0.95064 5.22408,2.83162 7.02074,1.04134c0.98955,-0.98603 1.45317,-2.38662 2.21086,-3.56024c2.7106,-4.19857 5.54834,-8.32251 8.3205,-12.48075c0.15784,-0.23676 5.08812,-7.73011 5.51216,-7.99151c5.6265,-3.46841 6.78968,-1.78496 11.86884,0.46525c4.28783,1.89964 10.31426,3.75415 14.06821,6.53348c0.2737,0.20264 6.66323,7.40382 7.06259,7.85238c1.06852,1.30068 2.14143,2.59776 3.20555,3.90204c0.65319,0.8006 1.33801,1.57733 1.94633,2.41252c0.31998,0.43931 0.37185,1.69112 0.83215,1.40214c0.76662,-0.4813 0.26221,-1.9746 0.97281,-2.53532c1.14492,-0.90343 2.67669,-1.25195 4.11703,-1.48095c1.96454,-0.31235 3.92866,-0.3617 5.88836,-0.23842c2.54574,-1.82406 5.40549,-2.67509 9.59993,-0.68861c1.33854,0.63393 2.24531,1.88758 3.21938,3.04463c1.39427,0.32335 2.78156,0.63295 4.16032,0.89423c0.47333,0.0897 6.79905,1.29237 8.01142,1.01079c2.43361,-0.56521 4.93261,-2.74274 6.2778,-4.74029c0.79269,-1.17711 0.61529,-3.07889 1.8019,-3.85729c2.43155,-1.59507 7.74058,0.28748 9.8984,0.83c6.27727,1.57823 11.32212,5.48373 15.84625,9.98045c0.55114,0.64084 0.90822,1.52363 1.65341,1.92253c0.48502,0.25964 1.09339,-0.13031 1.64284,-0.15802c0.45687,-0.02304 1.18711,0.42421 1.37235,0.00594c0.31775,-0.71745 -0.66337,-1.61224 -0.3436,-2.32879c0.83473,-1.87053 2.18471,-3.50023 3.60394,-4.9772c3.1384,-3.26607 8.92306,-6.93406 12.94489,-9.00245c0.16541,-0.08507 9.27507,-3.52969 9.60976,-3.65644c11.88101,-4.49956 24.6383,-8.97692 37.45861,-7.50589c4.29393,0.4927 5.96608,0.231 9.78817,3.21628c1.45111,1.1334 2.35886,2.82791 3.53828,4.24186c1.32861,1.62858 2.70791,3.22219 4.19582,4.70664l0.73223,3.76777c0,0 0,2.5 -2.5,2.5c-2.5,0 -2.5,-2.5 -2.5,-2.5l0.73223,-0.23223c-1.60254,-1.60595 -3.09472,-3.32259 -4.53183,-5.07814c-0.92993,-1.16708 -1.63915,-2.55104 -2.7898,-3.50123c-2.58742,-2.13665 -4.17113,-1.82566 -7.21727,-2.15154c-6.08137,-0.6506 -10.38687,0.0018 -16.3487,1.45079c-6.50906,1.58199 -12.51944,3.38798 -18.78691,5.76159c-4.73763,1.79423 -8.79142,3.23503 -13.01074,6.05738c-1.45041,0.9702 -6.42414,4.17802 -7.77924,5.46114c-0.93362,0.88403 -1.90905,1.83285 -2.39606,3.0228c-0.46555,1.1375 0.4661,2.74653 -0.3436,3.67121c-1.5503,1.77044 -6.76044,2.77012 -8.98481,1.84792c-1.36903,-0.56758 -2.18368,-2.00427 -3.27552,-3.0064c-3.8277,-3.85384 -8.17522,-7.33721 -13.52339,-8.66527c-1.51874,-0.37713 -3.04095,-0.74195 -4.54983,-1.15677c-0.42674,-0.11732 -0.96425,-0.77384 -1.25319,-0.4386c-0.52456,0.60862 0.02982,1.70547 -0.41527,2.37441c-2.19131,3.29345 -5.59143,6.06237 -9.50503,7.02802c-1.35446,0.3342 -4.31181,-0.02298 -6.75838,-0.4159c1.97941,2.09161 3.69976,4.3829 4.56742,7.16889c0.14386,0.46192 -1.03108,4.08013 0.81386,4.57899c0.02324,0.00628 0.0465,0.01252 0.06978,0.0187c2.61979,-1.33632 5.28135,-2.59824 8.05491,-3.66179c3.08248,-1.14764 6.44228,-1.66284 9.73135,-1.634c1.25832,0.01103 2.60538,-0.34638 3.77311,0.12254c1.78617,0.71727 3.17156,2.18214 4.741,3.29647c0.85088,0.60414 1.64196,1.1703 2.38761,1.72217c4.50222,-0.48919 8.98383,-1.19291 13.37983,-2.06572c4.71101,-0.93535 10.29866,-4.21708 15.22111,-3.02441c4.77328,1.15653 8.29759,3.7328 11.9206,6.80476c4.84726,4.15486 10.08155,10.38217 16.01601,13.10746c4.93638,-1.32173 10.42485,-1.94799 14.96265,-0.87003c0.0354,0.00841 0.07056,0.01739 0.1055,0.02691c0.42727,-0.0541 0.86017,-0.09314 1.29987,-0.11271c1.80411,-0.08033 3.60005,0.2918 5.39851,0.45551c1.80093,0.16393 3.65252,0.0599 5.39942,0.5274c0.5248,0.14044 8.6149,3.97872 9.37785,4.28991c4.83475,1.97196 9.44022,3.35833 14.06295,5.85787l2.14622,1.16449c0,0 2.19739,1.19225 1.00514,3.38964c-1.19225,2.19739 -3.38964,1.00514 -3.38964,1.00514l-2.14622,-1.16449c-4.45497,-2.42615 -8.89404,-3.71707 -13.56678,-5.62295c-0.92493,-0.37725 -1.81948,-0.83255 -2.70628,-1.30623c0.21088,0.50831 0.25193,1.162 -0.1291,1.96644c-1.07017,2.25937 -3.32954,1.1892 -3.32954,1.1892l-2.64487,-1.25409c-0.32334,-0.12924 -9.25056,-3.6942 -9.40493,-3.77018c-0.68982,-0.33953 -1.24953,-0.94757 -1.88444,-1.38176c-1.89727,0.50996 -3.73918,1.39796 -5.69014,1.62792c-3.07868,0.36289 -6.33207,0.16366 -9.30302,-0.82314c-8.73932,2.24495 -17.62715,8.09166 -22.96064,14.78446c-2.40017,3.01188 -2.64799,8.03039 -5.08846,11.03653c0.42753,0.41267 0.70112,0.68098 0.72954,0.71871c2.25778,2.99859 2.38375,5.44066 4.39852,8.41732c0.88403,1.30608 2.05002,2.39784 3.04008,3.62549c0.76678,0.95079 1.85517,1.74552 2.2292,2.90829c0.46766,1.45384 -0.91399,4.39336 0.60603,4.54136c5.32522,0.51853 11.41811,-0.13198 16.73663,-0.72717c6.36821,-0.67453 11.5888,-4.03205 17.71412,-5.64734c3.20506,-0.8452 6.63788,-0.62917 9.82273,-1.54761c3.09794,-0.89338 5.93695,-2.51774 8.92826,-3.72083l2.77613,-1.30896c0,0 2.26161,-1.06542 3.32703,1.19619zM243.8269,127.77745c-0.67999,-0.30047 -1.48352,0.11366 -2.22689,0.12254c-2.33144,0.02785 -4.72516,0.24585 -6.94949,0.95043c0.98624,-0.0245 1.95837,-0.04381 2.90436,-0.03498c2.52769,0.0236 5.07182,-0.03756 7.62063,-0.17525c-0.4178,-0.34074 -0.85695,-0.64549 -1.34861,-0.86275zM260.55416,135.98966c2.87989,3.96239 6.68968,8.13141 8.96789,12.45942c0.10779,0.20477 3.36186,9.32299 3.51028,9.73787c1.47105,4.11183 2.71828,7.75407 3.47464,11.82738c0.03538,0.03364 0.07089,0.0674 0.10651,0.10128c4.15108,-12.21602 14.27147,-20.07195 26.16055,-25.1064c-4.70199,-3.27444 -8.96042,-7.99064 -13.00471,-11.45712c-3.04466,-2.64277 -5.68801,-4.57459 -9.67197,-5.70315c-3.57514,-1.01275 -9.85803,2.35891 -13.24206,3.03079c-3.09145,0.6138 -6.18231,1.11578 -9.27644,1.51911c0.99389,1.03797 1.96465,2.20027 2.97531,3.59082zM142.11898,121.95445c4.23963,0.88355 10.04166,-0.08705 14.34271,-0.3138c4.44643,-0.23441 9.35219,0.05224 13.74145,-0.70896c4.68302,-0.81215 9.46101,-2.6074 13.92474,-4.18701c0.67386,-0.23846 1.36946,-0.43176 2.06882,-0.61699c-3.24528,-1.84244 -6.20139,-6.613 -7.87072,-8.64585c-2.09266,-2.34952 -3.70939,-5.21168 -6.23809,-7.08388c-3.56317,-2.63809 -9.17736,-4.08255 -13.1836,-6.01c-2.65181,-1.27582 -3.95063,-3.10675 -6.83033,-0.9687c-0.79911,0.5933 -0.99028,1.72765 -1.52634,2.56623c-0.89767,1.40427 -1.849,2.7735 -2.7735,4.16025c-2.77254,4.1588 -5.49616,8.35701 -8.3205,12.48075c-1.0949,1.59864 -1.85058,3.51627 -3.33614,4.76027c-0.54983,0.46042 -1.13568,0.81636 -1.74632,1.08159c2.55657,1.24624 4.97487,2.90821 7.74782,3.4861zM192.11749,113.38676c-0.2583,0.20956 -0.47521,0.4836 -0.67209,0.78595c0.64515,-0.42331 1.25638,-0.88919 1.84461,-1.37766c-0.45814,0.14309 -0.85767,0.33626 -1.17252,0.59171z"/><path d="M282.60001,234.89999c-2.5,0 -2.5,-2.5 -2.5,-2.5l0.73353,-0.23094c-3.10044,-3.09696 -5.98291,-5.2765 -9.62634,-7.69299c-5.26121,-3.48947 -7.95388,-6.63574 -14.60719,-6.57607c-4.50817,-0.00355 -9.05175,0.18117 -13.51127,0.95176c-5.70354,0.98556 -11.39883,3.35341 -17.03168,4.76092c-6.01036,1.50183 -12.0736,2.47555 -18.17658,3.53694c-11.11768,1.93351 -22.5829,3.91344 -33.77076,1.70183c0,0 -2.45145,-0.49029 -1.96116,-2.94174c0.49029,-2.45145 2.94174,-1.96116 2.94174,-1.96116c6.55939,1.32866 12.56017,0.70117 19.19332,0.1973c11.76077,-0.89338 23.9814,-3.50835 35.36565,-6.58464c4.10924,-1.11041 8.267,-2.87647 12.46201,-3.61297c4.78265,-0.83967 9.65176,-1.04464 14.48873,-1.04824c4.48264,0.03288 5.44718,-0.41359 9.90138,1.86548c0.87519,0.44781 6.19679,4.69969 7.49143,5.55844c2.7745,1.84037 5.17594,3.59279 7.52798,5.64662c-0.92546,-2.65232 -2.12363,-6.33747 -2.25162,-6.66654c-2.72319,-7.00138 -5.6776,-14.86011 -10.41846,-20.64962c-0.87453,-1.06798 -1.36364,-2.56136 -2.55459,-3.25922c-1.36119,-0.79761 -6.24168,-0.41604 -7.66813,-0.36531c-6.03175,0.19055 -11.52326,1.13237 -17.32586,2.76952c-4.2191,1.19039 -8.2732,3.2419 -12.54696,4.20748c-0.24867,0.05618 -9.70559,1.17531 -10.13503,1.23497c-8.42255,1.17002 -17.075,2.3856 -25.60431,1.00089c-6.21468,-1.00894 -11.99636,-4.83789 -17.53388,-7.60665c0,0 -2.23607,-1.11803 -1.11803,-3.3541c1.11803,-2.23607 3.3541,-1.11803 3.3541,-1.11803c4.99393,2.49697 10.45182,6.27177 16.08136,7.14056c8.08013,1.24698 16.16169,0.09219 24.13278,-1.01511c3.2323,-0.44902 6.538,-0.44042 9.7211,-1.15959c4.16656,-0.94137 8.12866,-2.96582 12.24458,-4.12916c6.2021,-1.75298 12.12064,-2.75477 18.5684,-2.96815c3.07366,-0.09076 7.52404,-0.53207 10.30155,1.01635c1.70722,0.95175 2.62152,2.90027 3.90132,4.37761c3.49787,4.03782 5.12395,8.25246 7.27678,13.09633c1.32919,2.99068 2.81287,5.91753 3.98492,8.97322c0.64014,1.66893 1.50477,3.31193 1.68739,5.09006c0.00156,0.01518 0.00222,0.03088 0.00202,0.04707c2.24034,-2.85789 5.47658,-4.75616 8.27774,-7.17768c10.07993,-8.71382 23.0205,-15.92355 36.59221,-16.3783c5.51956,-0.14137 10.00622,0.87945 15.37438,2.06077c6.05025,1.33143 11.84833,2.63532 17.10381,6.16982c0.15886,0.10684 5.18258,4.29711 6.23209,5.17171l-0.60046,-0.57945c0,0 2.5,0 2.5,2.5c0,2.5 -2.5,2.5 -2.5,2.5l-2.60046,-0.57945c-1.9262,-1.60517 -3.68983,-3.42531 -5.76791,-4.82829c-4.74097,-3.20079 -9.98271,-4.26989 -15.44166,-5.47119c-4.96867,-1.09341 -9.05571,-2.11526 -14.15401,-1.94606c-12.36789,0.29926 -24.31949,7.26146 -33.46893,15.16372c-2.93121,2.53165 -4.62275,4.41786 -8.03721,6.34204c-1.57289,0.88638 -3.13469,2.48023 -4.80766,3.00597c0.01477,0.01472 0.02955,0.02945 0.04432,0.0442l0.73353,3.76906c0,0 0,2.5 -2.5,2.5z"/></g></g></svg>