<svg version="1.1" xmlns="http://www.w3.org/2000/svg" xmlns:xlink="http://www.w3.org/1999/xlink" width="454.42712" height="344.00278" viewBox="0,0,454.42712,344.00278"><g transform="translate(-6.62964,10.60279)"><g data-paper-data="{&quot;isPaintingLayer&quot;:true}" fill="#dd0000" fill-rule="nonzero" stroke="none" stroke-width="0.5" stroke-linecap="butt" stroke-linejoin="miter" stroke-miterlimit="10" stroke-dasharray="" stroke-dashoffset="0" style="mix-blend-mode: normal"><path d="M171.49941,123.84904c0.03396,-0.1867 0.06563,-0.37345 0.09488,-0.56023c0.06994,0.00092 0.13987,0.00185 0.2098,0.00279c-0.10163,0.18578 -0.20319,0.37159 -0.30468,0.55744z"/><path d="M303.06029,130.64127c-0.03007,0.00815 -0.0601,0.01636 -0.09011,0.02464c0.02001,0.02262 0.03996,0.0453 0.05984,0.06803c0.01006,-0.0309 0.02015,-0.06179 0.03026,-0.09267z"/><path d="M433.60001,68.39999c0,5 -5,5 -5,5h-3c-5.47757,-0.05316 -10.73946,1.41317 -15.61429,3.7884c-5.94708,1.78739 -10.85558,3.7378 -16.9733,4.19456c-6.12044,0.45696 -12.27493,0.01704 -18.4124,0.01704c-12.77649,0 -25.38289,-0.45283 -38.13873,-1.00192c-12.56754,-0.54099 -25.27961,0.00192 -37.86127,0.00192c-23.33333,0 -46.66667,0 -70,0c-27.45858,0 -54.71267,-2.26122 -82.13499,-3.00182c-14.54903,-0.39293 -29.23312,-0.19613 -43.79032,0.06398c-9.60305,0.17159 -19.84676,-0.19922 -29.38633,0.89023c-4.35261,0.49708 -12.47949,4.2924 -16.07744,4.01015c-0.2055,-0.01612 -0.40908,-0.04001 -0.61092,-0.07098v0.10844h-2.46466c2.2276,12.15502 4.28685,24.3435 6.4717,36.48157c5.86326,32.57366 12.45059,65.21297 13.21889,98.40224c0.33423,14.70606 0.77384,29.40613 0.77408,44.11619c0.00018,11.34523 0.76744,23.56676 -1.06118,34.77977c-0.56437,3.46067 -1.78632,6.78144 -2.68427,10.17089c-0.96194,3.63098 -1.61456,7.40153 -2.37469,11.12605c4.48521,-1.45204 9.43511,-2.38815 13.44145,-3.30269c3.41687,-0.77998 6.7762,-1.89437 10.25488,-2.32119c0.28742,-0.03526 19.97378,-0.41208 20.55494,-0.41793c16.58991,-0.16705 33.28086,0.61087 49.85686,-0.03099c8.56313,-0.33159 17.11926,-1.43001 25.6721,-1.99234c18.15548,-1.19369 36.1507,-2.01157 54.33992,-2.01157c24.66667,0 49.33333,0 74,0c13.05985,0 26.70284,-0.77842 39.67605,1.04592c11.94369,1.67956 23.60963,5.58854 35.63423,6.94076c9.33128,1.04935 19.27098,0.01332 28.68971,0.01332c5.15676,0.02278 9.87131,-1.15056 15,-1c1.14233,0.03353 2.27759,0.31609 3.41886,0.25658c0.40395,-0.02106 1.07461,-0.08961 1.109,-0.49265c0.54237,-6.35655 -1.35423,-9.67072 -3.30709,-15.7941c-3.84929,-12.06983 -8.8329,-23.60068 -13.65166,-35.31286c-2.8138,-6.83906 -6.42515,-14.32802 -7.47836,-21.70865c-1.33751,-9.37294 -1.52987,-20.27179 -0.03792,-29.67324c1.7565,-11.06855 6.83214,-21.73874 10.36603,-32.34305c3.87627,-11.59661 7.38168,-24.25284 8.61347,-36.49972c0.54418,-5.41043 0.06657,-10.93011 1.04005,-16.27999c1.49951,-8.24076 5.27088,-16.01312 7.03796,-24.19693c0.50496,-2.3386 0.48363,-4.77334 1.02342,-7.10415c0.44919,-1.93961 1.59872,-3.68909 1.93081,-5.65215c0.36972,-2.18552 -0.33214,-4.48451 0.14998,-6.64801c0.26141,-1.17308 1.5998,-1.86674 2,-3c0.24078,-0.68181 -0.29142,-1.44801 -0.17708,-2.162c0.29451,-1.83907 0.69031,-3.68576 1.38997,-5.41185c0.37732,-0.93087 1.56627,-1.4463 1.78711,-2.42615c0.33392,-1.48155 -0.18367,-3.03268 -0.21454,-4.55108c-0.08792,-4.32405 0,-8.67332 0,-13c0.87273,-4.78461 -4.33386,-4.16619 -9.14172,-6.07152c-2.89498,-1.14727 -5.6393,-2.74395 -8.65766,-3.5099c-6.16714,-1.565 -16.45595,-1.88472 -22.71634,-2.62124c-11.32871,-1.33279 -22.67584,-2.39309 -34.00446,-3.65866c-14.68516,-1.64055 -29.2632,-4.89931 -43.98303,-6.16406c-16.59869,-1.42619 -33.22516,-2.182 -49.82051,-3.75259c-4.52023,-0.42779 -9.12587,-0.31957 -13.55905,-1.30057c-8.37007,-1.85217 -16.57816,-4.34509 -24.96042,-6.19647c-22.78421,-5.03232 -45.5679,-10.06699 -68.35174,-15.10097c-7.21433,-1.59397 -14.92518,-4.15987 -22.29777,-4.64835c-5.49041,-0.36377 -11.00487,0.02433 -16.50731,0.02433c-3.33333,0 -6.6667,0.01578 -10,0c-3.01827,-0.01429 -6.09093,-0.6626 -9.05446,-0.09022c-2.98055,0.57566 -5.59627,2.35567 -8.42173,3.46557c-3.11867,1.22508 -6.27238,2.35904 -9.40857,3.53857c-8.05502,3.02305 -8.54815,3.47455 -17.63341,5.58802c-9.32897,2.17016 -19.02932,2.98048 -28.30108,5.35665c-3.28241,0.84122 -6.424,2.2131 -9.74006,2.90997c-2.99272,0.62892 -6.16699,0.23443 -9.11372,1.05215c-3.87701,1.07588 -7.52613,2.8822 -11.13021,4.67088c-1.80786,0.89723 -3.37381,2.21714 -5.02681,3.37513c-0.56953,0.39898 -1.48749,0.5987 -1.6516,1.27444c-1.35883,5.59539 0.56102,10.27268 0.60081,15.51779c0.3811,-0.29327 0.77333,-0.57196 1.15174,-0.84846c0.02329,-0.01702 8.5351,-5.43175 11.10044,-7.06374c9.52686,-5.71707 18.98594,-10.95037 29.78331,-14.0328c8.79645,-2.51121 11.6019,-2.40928 20.59243,-3.31246c4.42659,-0.44469 8.20403,-0.93032 12.86384,-0.36403c4.67211,0.56779 9.27045,1.70649 13.80149,2.97957c2.37995,0.66869 6.74907,0.09609 6.96081,2.55912c0.86524,10.06485 -7.53944,15.43536 -13.60646,20.77177c-6.54042,5.7528 -12.80927,12.04019 -19.58439,17.50857c-1.75506,1.41655 -3.54471,2.809 -5.35307,4.18714c5.60106,-0.50188 11.22343,-0.48535 17.00477,-0.66589c18.03687,-0.56325 36.26091,-0.86313 54.30092,-0.37592c27.33224,0.73817 54.49712,2.99818 81.86501,2.99818c23.33333,0 46.66667,0 70,0c12.67575,0 25.47651,-0.53504 38.13873,0.00192c12.66544,0.5371 25.17558,0.99808 37.86127,0.99808c5.86254,0 11.73842,0.4126 17.5876,0.01704c4.72437,-0.3195 9.83774,-2.2515 14.18322,-3.5524c6.04833,-2.8742 12.50219,-4.41777 19.22918,-4.46464h3c0,0 5,0 5,5zM57.70781,318.36732c0.65533,-3.05638 1.30913,-6.11368 2.03507,-9.15407c0.58039,-2.43079 3.79475,-13.83818 3.9183,-14.59302c0.45807,-2.7985 0.275,-5.66482 0.42014,-8.49685c1.17114,-22.85086 0.26678,-45.75006 -0.25282,-68.61236c-0.65377,-29.33286 -6.11585,-58.22078 -11.29199,-87.01729c-5.06526,-28.17968 -9.39098,-56.67429 -16.19837,-84.50073c-0.36987,0.21831 -0.73969,0.4384 -1.10949,0.66025c-2.5623,1.63108 -10.84795,6.90566 -10.89956,6.93626c-2.85779,1.69428 -5.407,4.77553 -8.72909,4.81048c-2.91379,0.03065 -5.58804,-2.36529 -7.40837,-4.64071c-1.12275,-1.40344 -0.47642,-3.5657 -0.59163,-5.35929c-0.4862,-7.56933 -2.15884,-14.44293 0.48165,-22.14115c0.69451,-2.0248 2.76228,-3.28807 4.3484,-4.72556c3.00603,-2.72434 6.71472,-4.28471 10.36193,-5.79495c3.18851,-1.3203 6.15695,-3.2316 9.48105,-4.15904c3.14764,-0.87821 6.53223,-0.52654 9.72975,-1.20089c3.20763,-0.67648 6.24036,-2.0253 9.41647,-2.83699c15.05977,-3.84868 30.08303,-5.04991 44.77598,-10.5875c6.50261,-2.44523 12.63683,-6.15298 19.45923,-7.4637c0.61259,-0.11769 19.78208,-0.09022 20.94554,-0.09022c2.22351,0 17.06915,-0.00541 17.49269,0.02433c7.78472,0.54671 15.85808,3.15363 23.46967,4.83515c22.78398,5.03334 45.56812,10.06599 68.35174,15.10097c8.26596,1.8267 16.32585,4.24717 24.56865,6.11809c4.15791,0.94375 8.49103,0.78625 12.73574,1.18797c16.61614,1.57255 33.26625,2.31791 49.88471,3.75887c14.7563,1.2795 29.36407,4.53284 44.08606,6.17503c14.65861,1.63512 29.33707,3.11162 43.99352,4.83367c3.27329,0.38459 13.69056,1.59352 14.07754,1.69172c3.44356,0.87385 6.61686,2.58955 9.91188,3.91791c5.4718,2.20591 12.19396,3.36712 15.04721,9.44287c0.83961,1.78789 0.25373,3.94228 0.3806,5.91342c0,6.46146 1.15848,14.21413 -0.21454,20.44892c-0.30134,1.36837 -1.62931,2.3 -2.21289,3.57385c-0.89882,1.96198 -0.13241,4.3698 -0.78711,6.42615c-0.36461,1.14521 -1.74008,1.82659 -2,3c-0.38597,1.74246 0.43887,3.59083 0.14998,5.35199c-0.36026,2.19618 -1.57039,4.17894 -2.06919,6.34785c-0.52033,2.26249 -0.4829,4.6274 -0.97658,6.89585c-1.75105,8.04599 -5.48016,15.71259 -6.96204,23.80307c-0.94583,5.16386 -0.42434,10.49764 -0.95995,15.72001c-1.32714,12.93988 -4.98521,26.26429 -9.06197,38.52661c-3.32505,9.97271 -8.33364,20.22905 -9.95852,30.63062c-2.06628,13.2271 -0.66606,26.09274 3.75896,38.5862c5.22801,14.7606 12.36221,28.66688 17.05047,43.6474c2.30832,7.37585 5.92477,15.20918 2.71554,23.27755c-1.08677,2.73226 -4.18757,4.35071 -6.891,5.50735c-2.01841,0.86356 -4.38634,0.20606 -6.58114,0.25658c-5.11343,0.11772 -9.81488,0.98057 -15,1c-9.76314,0 -20.01731,0.99944 -29.69867,-0.06435c-12.14754,-1.33478 -23.92302,-5.28185 -35.97738,-6.98156c-12.51566,-1.76476 -25.7245,-0.95408 -38.32395,-0.95408c-24.66667,0 -49.33333,0 -74,0c-17.96238,0 -35.73028,0.81008 -53.66008,1.98843c-8.6506,0.56852 -17.30378,1.6726 -25.965,2.00799c-19.98486,0.77386 -40.09287,-0.12622 -60.09639,0.2278c-9.68032,0.17132 -18.8145,1.61226 -28.13723,4.44053c-3.07914,0.93413 -5.81284,3.14674 -9.01645,3.44773l-0.39685,0.15118c-0.36166,1.02755 -0.85285,1.96693 -1.65094,2.67736c-1.53586,1.36717 -4.05137,0.70598 -6.07706,1.05897h-3c-2.76142,0 -5,-2.23858 -5,-5c0,-2.17545 1.38933,-4.02641 3.32911,-4.714l3.89577,-1.4841c0.19372,-1.29026 0.60871,-2.55568 0.88292,-3.83458zM86.22315,45.83616c0.2618,-0.23316 13.90643,-12.1907 14.56972,-12.67741c0.17144,-0.1258 0.34404,-0.25854 0.51817,-0.39426c-0.57972,-0.17635 -1.15722,-0.34759 -1.72917,-0.46926c-4.84305,-1.03025 -9.78393,-2.08233 -14.73204,-1.90148c-14.43407,0.52755 -27.13529,4.46806 -39.44439,10.63821c0.0312,0.09902 0.04529,0.15535 0.04529,0.15535c2.56476,10.2659 4.75984,20.62656 6.77066,31.02908l3.21717,-1.17221c10.48817,-8.26691 20.80504,-16.32054 30.7846,-25.20803z"/></g></g></svg>