<svg version="1.1" xmlns="http://www.w3.org/2000/svg" xmlns:xlink="http://www.w3.org/1999/xlink" width="484" height="296.28509" viewBox="0,0,484,296.28509"><g transform="translate(-41.60001,-29.1149)"><g data-paper-data="{&quot;isPaintingLayer&quot;:true}" fill="#dd0000" fill-rule="nonzero" stroke="none" stroke-width="0.5" stroke-linecap="butt" stroke-linejoin="miter" stroke-miterlimit="10" stroke-dasharray="" stroke-dashoffset="0" style="mix-blend-mode: normal"><path d=""/><path d=""/><path d="M337.2861,85.78856c0.10843,-0.23278 0.21685,-0.46556 0.32528,-0.69834c-0.00024,0.19915 -0.0005,0.3983 -0.00079,0.59745z"/><path d=""/><path d="M269.60001,293.39999c-5,0 -5,-5 -5,-5v-2c0,-9.69927 0.8276,-19.85332 0.02433,-29.50731c-0.55109,-6.62325 -2.28947,-13.35708 -3.00043,-20.00431c-0.37435,-3.5001 -0.61401,-6.99426 -0.76882,-10.48838c-4.46385,0 -8.88637,0 -13.25508,0c-24.97355,0 -49.96553,-0.61618 -74.91608,-1.7957c-0.45771,3.34999 -0.92602,6.69856 -1.09157,10.07221c-0.71517,14.57414 -0.99235,29.10782 -0.99235,43.7235c0,5.66667 0,13.33333 0,19v3c0,0 0,5 -5,5c-5,0 -5,-5 -5,-5c0,-5.66667 0,-14.33333 0,-20v-2c0,-14.79803 0.26848,-29.52154 1.00765,-44.2765c0.16861,-3.36562 0.63216,-6.70665 1.087,-10.04895c-13.74965,-0.85712 -27.49306,-2.23836 -41.25398,-2.67709c-12.58374,-0.4012 -25.24916,0.00254 -37.84067,0.00254c0,0 -5,0 -5,-5c0,-5 5,-5 5,-5c12.69779,0 25.4693,-0.40205 38.15933,0.00254c13.99662,0.44625 27.97439,1.86021 41.9594,2.71712c0.15942,-4.2325 -0.11873,-8.48116 -0.11873,-12.71966c0,-17.33687 0,-34.67374 0,-52.01061c-13.45633,-0.0422 -26.98338,-0.23537 -40.38319,-1.0041c-8.09132,-0.46419 -16.15933,-2.28158 -24.22302,-3.09129c-11.33047,-1.13774 -22.85471,-2.14849 -34.32014,-2.61723c0.25669,18.531 1.13498,37.04001 1.84656,55.56582c0.13174,14.87857 2.0201,30.61177 4.99387,45.23443c0.63773,3.13586 1.65963,6.20199 2.05607,9.37739c0.30018,2.40437 -0.12974,4.85081 0.0222,7.26908c0.18928,3.01252 0.78748,5.98903 1,9c0.35452,5.02293 0.00765,10.23923 0.00765,15.2765c0,3.07011 0.34269,6.44969 -0.02433,9.49269c-0.38148,3.16283 -0.68295,6.33504 -0.97567,9.50731c-0.02082,0.22569 -0.0548,0.4604 -0.11211,0.68789c2.44657,-0.87583 7.08682,-1.41865 8.2107,-1.60596c9.45986,-1.84973 19.28467,-1.08192 28.9014,-1.08192c8.29964,0 17.50785,-1.09821 25.69351,0.04833c2.50528,0.35091 4.82557,1.55737 7.30634,2.05266c4.1318,0.82492 8.29362,1.57863 12.49284,1.92334c2.32551,0.1909 4.67473,-0.19377 7,0c1.6938,0.14115 3.30921,0.82649 5,1c4.69452,0.48176 9.78594,-0.02433 14.50731,-0.02433c7.10269,0 14.5108,0.47787 21.5876,0.01704c1.45153,-0.09452 9.47043,-1.70932 10.91971,-1.9927c3.99996,-0.01772 8.01291,0.32114 12,0c2.92587,-0.23566 5.70311,-1.45909 8.57459,-1.93932c3.98521,-0.66649 7.97973,-1.27897 11.95693,-1.99176c6.07357,-1.0885 11.93057,-0.77617 17.94302,-1.98849c4.89336,-0.98668 9.43206,-3.48237 14.40723,-4.0673c16.0056,-1.88176 32.48526,-1.03746 48.61092,-1.03746c2.08933,0.04217 4.12852,-0.65287 6.19909,-0.93544c5.25668,-0.71736 11.56585,-0.1194 16.93989,0.07949c0.26244,-8.37918 0.80915,-16.76451 0.86107,-25.16632c0.03338,-5.40081 -0.72825,-11.95521 0.13371,-17.1265c0.27172,-1.63019 1.59589,-2.91229 2.13688,-4.47392c0.85386,-2.46475 0.48666,-5.19422 0.7464,-7.78972c0.2019,-2.01751 0.82862,-3.97967 1,-6c0.15875,-1.87145 0.23023,-3.73323 0.23363,-5.5876c-27.85873,0 -57.55756,0 -85.98724,0c0.14848,3.1682 0.37239,6.33702 0.71266,9.51162c0.71263,6.6486 2.44652,13.36793 2.99957,19.99569c0.83328,9.98608 0.02433,20.46059 0.02433,30.49269v2c0,0 0,5 -5,5zM260.55292,207.5044c-0.54136,-11.33891 -0.50214,-22.77384 -1.18113,-34.0949c-0.59978,-10.0004 -2.00134,-19.98771 -3.41256,-29.93465c-12.89573,1.10179 -25.89525,1.37221 -38.8195,1.89592c-2.22255,0.39587 -16.40481,2.92773 -16.96558,2.99614c-8.73385,1.06555 -17.761,1.04218 -26.57416,1.03415c0,17.33297 0,34.66595 0,51.99892c0,4.41238 0.27361,8.83498 0.1046,13.24124c24.6111,1.15495 49.26221,1.75876 73.8954,1.75876c4.33347,0 8.66693,0 13.0004,0c-0.03245,-2.96002 -0.03822,-5.92402 -0.04748,-8.89559zM251.6709,111.239c-3.75676,-22.404 -9.60473,-44.59854 -14.93131,-66.66581c0,0 -0.00115,-0.00475 -0.00322,-0.01399c-6.7935,0.0828 -13.58961,0.11605 -20.34416,-0.16353c-9.05295,-0.37472 -18.08244,-1.50059 -27.10289,-2.00534c-0.57668,-0.03227 -1.15375,-0.05785 -1.73114,-0.07767c-0.24747,0.43021 -0.49454,0.86064 -0.74118,1.29131c-0.08886,-0.44423 -0.1876,-0.88469 -0.29725,-1.32093c-7.39801,-0.16958 -14.8446,0.51455 -22.23043,0.10729c-0.51998,-0.02867 -1.03809,-0.07814 -1.55505,-0.14037c2.92277,19.04783 5.39705,38.11183 7.67299,57.2659c1.08248,9.11003 2.7301,18.43064 3.18446,27.59633c0.0063,0.12717 0.0081,6.66813 0.00849,12.2896c8.43038,0.01218 17.07397,0.05387 25.42564,-0.96872c5.72301,-0.70073 11.35496,-2.01012 17.03442,-3.00386c12.82057,-0.54793 25.71944,-0.80241 38.51603,-1.87297c-0.98658,-7.42234 -1.66774,-14.9363 -2.9054,-22.31724zM261.52911,109.56099c1.27371,7.59134 1.97365,15.32082 2.99668,22.95247c3.56466,-0.42082 7.12904,-0.84261 10.70825,-1.10005c11.36747,-0.81761 22.7604,-0.44806 34.1169,-1.0072c7.69598,-0.37892 15.22559,-2.64281 22.86831,-2.99169c6.46969,-0.29533 13.03119,-0.06344 19.52766,-0.0209c0.23044,-4.76853 0.5855,-9.76697 -0.08234,-14.19271c-0.15728,-1.04229 -0.87342,-1.95354 -1,-3c-0.53346,-4.41019 -0.06456,-9.33859 -0.06456,-13.80091c0,-10.33333 0,-20.66667 0,-31c0,-7 0,-14 0,-21c0,-1.0771 -0.30346,-2.75794 -0.10936,-3.88773c-0.95509,0.02539 -1.9343,-0.11898 -2.89064,-0.11227c-3.50236,0.02458 -7.01987,-0.34816 -10.50731,-0.02433c-1.69239,0.15715 -3.30534,0.86954 -5,1c-2.67331,0.2058 -5.37553,-0.26051 -8.04366,0.00413c-3.15631,0.31306 -6.24094,1.13676 -9.35829,1.72191c-9.04375,1.69759 -17.89186,1.29829 -27.09074,1.29829c-11.66667,0 -23.33333,0 -35,0c-1.86625,0 -3.73533,0.01186 -5.6063,0.03005c5.23279,21.56318 10.86365,43.24726 14.5354,65.13094zM269.35386,172.81083c0.68581,11.43483 0.65187,22.98701 1.19584,34.43948c0.01028,3.05732 0.01419,6.1057 0.0479,9.14969c28.5724,0 57.1448,0 85.7172,0c-0.80718,-8.22571 -2.28505,-16.38365 -2.70425,-24.67561c-0.33536,-6.63355 -0.25086,-13.28919 -0.76277,-19.91145c-0.24041,-3.17268 -0.16493,-6.35932 -0.17364,-9.54306c-0.0885,0.09044 -0.17882,0.1806 -0.27098,0.27046c-0.19238,0.18759 -0.40464,0.33718 -0.63273,0.45603c0.31482,-0.62557 0.61214,-1.26075 0.89591,-1.90339c-0.00926,-0.82883 -0.02757,-1.65733 -0.062,-2.48518c-0.29539,-7.10274 -0.76238,-14.1272 -0.93631,-21.2149c-6.21869,-0.0434 -12.49178,-0.26245 -18.68725,-0.00741c-7.7038,0.31713 -15.36715,2.61634 -23.13169,3.00831c-11.27715,0.5693 -22.59452,0.18141 -33.8831,0.9928c-3.3625,0.24168 -6.71173,0.6304 -10.06047,1.02624c1.42828,10.1011 2.83923,20.24183 3.44836,30.39801zM163.6083,127.68779c-0.43935,-8.96246 -2.07272,-18.08404 -3.13119,-26.992c-2.36052,-19.86597 -4.93468,-39.63341 -8.00693,-59.38762c-4.40906,0.02893 -8.82798,0.38939 -13.22461,0.07925c-8.32693,-0.58739 -16.6185,-1.34636 -24.95624,-1.99708c-8.45279,-0.6597 -17.19736,0.00966 -25.68931,0.00966c-3.06644,0 -6.17053,-0.54506 -9.19909,-0.06456c-2.08214,0.33034 -3.93709,1.56545 -6,2c-2.87072,0.60472 -5.8672,0.06456 -8.80091,0.06456c-0.74993,0 -1.49986,0 -2.24979,0c0.9366,6.20817 2.00696,12.51449 2.24013,18.68931c0.90731,24.0273 0.00966,48.26576 0.00966,72.31069c0,0.09074 0.00002,0.18147 0.00006,0.2722c11.82195,0.47032 23.70467,1.49818 35.39285,2.67184c7.97923,0.80123 15.98386,2.62274 23.99028,3.07066c13.18107,0.73742 26.48051,0.92929 39.7144,0.97339c0.06299,-3.90236 0.10169,-7.8041 -0.0893,-11.70029zM155.81005,30.46279c2.13598,-0.34176 3.49572,0.38843 4.35109,1.32701c1.57955,0.24679 3.15577,0.53063 4.74955,0.61985c8.30643,0.46504 16.6917,-0.45837 25,0c8.95268,0.49393 17.91279,1.61909 26.89711,1.99466c11.88091,0.49665 23.89675,-0.00432 35.79221,-0.00432c11.66667,0 23.33333,0 35,0c6.31422,0 13.22347,0.71473 19.51552,0.02353c5.40558,-0.59382 10.62506,-2.45514 16.03546,-3.00332c2.6386,-0.26734 5.31203,0.20738 7.95634,0.00413c1.69467,-0.13026 3.30704,-0.84911 5,-1c0.24964,-0.02225 10.41964,-0.03075 11.49269,-0.02433c1.93372,0.01156 3.9272,-0.41356 5.80091,0.06456c2.24236,0.57219 4.89744,1.13791 6.2553,3.01189c1.36665,1.88611 0.74329,4.603 0.94379,6.92355c0.70111,8.11473 0,16.89449 0,25c0,10.33333 0,20.66667 0,31c0,3.89007 -0.56398,8.35558 -0.06456,12.19909c0.33817,2.60253 1.04728,5.17656 1.06456,7.80091c0.09207,13.97621 0.415,27.83378 0.99568,41.79221c0.17811,4.28153 -0.11156,8.58159 0.22263,12.85377c0.51004,6.662 0.44687,13.35602 0.77116,20.02964c0.41891,8.62095 1.89811,17.08283 2.70101,25.62167c1.45087,0.4644 3.30952,1.65423 3.30952,4.70271c0,2.69165 -1.449,3.93431 -2.78692,4.508c0.02552,2.28863 -0.04037,4.58862 -0.23012,6.9044c-0.16558,2.02082 -0.79839,3.98246 -1,6c-0.34095,3.41199 -0.20256,6.94635 -1.2536,10.21028c-0.40747,1.26536 -1.6446,2.21482 -1.86312,3.52608c-0.72974,4.37893 0.16189,10.30473 0.13371,14.8735c-0.06574,10.65737 -0.95322,21.30633 -0.9983,31.93028c0.2028,0.86928 0.14841,1.8978 -0.41458,3.06622c-0.33818,0.87678 -0.95332,1.83563 -2.07225,2.42289c-1.07926,0.65733 -2.21795,0.69149 -3.14378,0.53037c-1.39227,-0.12762 -2.34107,-0.67837 -2.98766,-1.36977l-2.71806,-1.78369c-4.38197,0.17041 -9.54117,-0.53551 -13.86442,0.11686c-2.59503,0.39159 -5.17674,1.02927 -7.80091,1.06456c-15.75829,0 -31.72712,-0.64694 -47.38908,0.96254c-4.6342,0.47623 -9.00027,3.02037 -13.59277,3.9327c-6.09291,1.2104 -11.96133,0.88566 -18.05698,2.01151c-4.0021,0.73918 -8.02827,1.34148 -12.04307,2.00824c-3.17256,0.52688 -6.22113,1.78622 -9.42541,2.06068c-0.85416,0.07316 -9.89249,0.01138 -12,0c-8.9473,1.83653 -17.36804,2.02433 -26.49269,2.02433c-11.57396,0 -23.02399,-0.05506 -34.49269,-1.02433c-4.53911,-0.38362 -9.04064,-1.18178 -13.50716,-2.07666c-2.27844,-0.45649 -4.39434,-1.61146 -6.69366,-1.94734c-2.08015,-0.30386 -4.20428,0.04069 -6.30649,0.04833c-5.9997,0.02179 -12.00024,0 -18,0c-8.93371,0 -18.31612,-0.88462 -27.0986,0.91808c-6.64942,1.10824 -14.50945,4.88783 -19.30978,-2.55879c-0.63758,-0.98905 -0.7074,-10.41677 -0.56729,-11.85198c0.16514,-1.69163 0.78095,-3.3145 1,-5c0.76987,-5.92383 -0.02902,-12.55595 -0.02433,-18.50731c0.02007,-25.50081 -7.80543,-50.30162 -8.07689,-75.91648c-0.71994,-18.69331 -1.60276,-37.36938 -1.85367,-56.0682c-1.02427,-0.01055 -2.04748,-0.01576 -3.06944,-0.01532c0,0 -5,0 -5,-5c0,-5 5,-5 5,-5c0.99893,0.00041 1.99899,0.00594 3,0.01636c0,-0.00545 0,-0.0109 0,-0.01636c0,-23.84312 0.85592,-47.86225 0.00966,-71.68931c-0.22607,-6.36519 -1.40757,-12.91006 -2.36315,-19.31069c-1.2155,0 -2.43101,0 -3.64651,0h-2c0,0 -5,0 -5,-5c0,-5 5,-5 5,-5c2.88506,0 6.35537,0 9.77776,0c0.30056,-0.0205 0.58397,-0.0196 0.8512,0c2.61062,0 5.16234,0 7.37105,0c2.39979,0 4.86349,0.61589 7.19909,0.06456c2.05179,-0.48434 3.91502,-1.68809 6,-2c0.4869,-0.07284 8.39772,-0.06456 10.80091,-0.06456c8.70425,0 17.64244,-0.64786 26.31069,0.00966c8.368,0.63474 16.68801,1.39828 25.04376,2.00292c4.51219,0.32651 9.04875,-0.0709 13.57384,-0.08297c0.57532,-0.40157 1.31985,-0.71291 2.28177,-0.86682z"/><path d="M424.60001,260.39999c-5,0 -5,-5 -5,-5v-3c0.05328,-3.96158 -0.42563,-5.99768 1.74675,-9.62866c0.69431,-1.1605 2.19857,-1.68 2.90225,-2.83484c0.48467,-0.79541 0.29705,-1.84018 0.50029,-2.74918c0.72871,-3.25931 1.66097,-6.55059 2.83801,-9.68319c-0.0511,-4.15475 -0.22697,-8.42113 0.0276,-12.48979c0.52905,-8.45545 2.52443,-17.34625 4.09394,-25.65188c0.84616,-4.47779 2.00616,-8.90466 3.42593,-13.23488c1.00178,-3.05539 2.78075,-5.83794 3.61526,-8.94318c1.52736,-5.68335 1.08182,-11.72493 1.90917,-17.55149c0.05114,-0.36014 0.10432,-0.71996 0.15935,-1.07949c-0.00971,-0.00605 -0.01942,-0.0121 -0.02913,-0.01813c-5.26942,-3.27562 -10.62878,-6.47172 -15.46542,-10.35802c-5.42844,-4.36182 -9.21061,-10.30971 -12.92571,-16.06701c-2.40073,-3.72041 -4.58882,-7.60369 -6.35948,-11.66198c-0.72177,-1.65428 -1.87934,-3.14555 -2.30504,-4.89952c-0.40493,-1.6684 -0.13376,-3.43193 -0.13376,-5.14876c0,-3.04991 -0.38791,-6.1438 0.13376,-9.14876c0.30871,-1.77829 1.58028,-3.24654 2.30504,-4.89952c1.71924,-3.9211 3.9501,-7.65772 6.60855,-11.01383c1.29869,-1.63951 2.24103,-3.64748 3.91122,-4.90647c1.76835,-1.33299 4.06478,-1.75878 6.09727,-2.63795c3.30201,-1.42832 6.60414,-2.85636 9.90621,-4.28454c3.30182,-0.01103 6.65664,-0.62239 9.90547,-0.03309c11.09435,2.0124 21.00306,9.17698 30.24806,15.12585c1.78679,1.14974 3.55446,2.32963 5.35794,3.453c1.81626,1.13134 4.24685,1.5759 5.50002,3.31034c0.27979,0.38724 2.42313,8.97371 2.87718,10.82229c1.31268,5.34434 0.49854,10.25663 1.11183,15.60176c0.66601,5.80471 2.57817,12.27507 -0.55416,17.97021c-3.43069,6.23761 -10.33351,7.80485 -15.48482,11.69692c-1.50448,1.13671 -2.48788,2.87348 -4,4c-1.32656,0.98828 -2.94261,1.51223 -4.41392,2.26834c-1.55312,1.01593 -3.202,1.90551 -4.91281,2.63859c0.41432,0.81498 0.68431,1.85391 0.40318,3.02964v1.00722c-0.11368,6.69229 -3.31916,12.11974 -5.20728,18.42473c-0.50735,1.6942 -0.50038,3.52141 -1.06335,5.19795c-1.09848,3.27131 -3.03978,6.31734 -4.68152,9.38002c-0.19449,0.90766 -0.38762,1.81541 -0.57929,2.72323c-1.33848,6.33975 -1.23638,12.92737 -2.57358,19.26738c-1.42437,6.75333 -4.29397,13.55612 -6.88743,19.95917c-0.00437,0.47427 -0.00681,0.94919 -0.00755,1.42478v0.62272c0,0.63195 -0.11724,1.23651 -0.33115,1.79313c-0.25541,0.75174 -0.70782,1.59639 -1.50917,2.23006c-0.73806,3.3128 -1.36641,6.80013 -2.80868,9.4403c-0.70774,1.29556 -2.18442,2.00533 -3.09775,3.16516c-0.90299,1.1467 -0.2827,2.91208 -0.25325,4.37134v3c0,0 0,5 -5,5zM453.01887,141.65658c1.80985,-0.56789 3.5045,-1.51223 5.0715,-2.58113c1.19536,-0.57722 2.52697,-0.93145 3.58608,-1.73166c1.50448,-1.13671 2.48788,-2.87348 4,-4c3.68235,-2.74334 10.06594,-3.98931 12.51518,-8.30308c1.85205,-3.26195 -0.20816,-8.82443 -0.55416,-12.02979c-0.39352,-3.64549 0.35332,-7.3504 0,-11c-0.24907,-2.57275 -1.51617,-4.96026 -1.91565,-7.51398c-0.15782,-1.00888 0.48561,-2.22218 -0.09534,-3.06197c-0.49181,-0.71092 -1.73665,-0.28393 -2.49998,-0.68966c-2.03459,-1.08144 -3.87978,-2.48667 -5.81849,-3.73184c-8.2246,-5.28239 -16.79483,-11.56071 -26.57551,-13.6893c-1.98507,-0.43201 -4.06302,-0.02206 -6.09453,-0.03309c-2.69793,1.23849 -5.35996,2.55837 -8.09379,3.71546c-1.26889,0.53705 -2.79708,0.53983 -3.90273,1.36205c-0.99842,0.74247 -1.33723,2.10193 -2.08878,3.09353c-1.15743,1.52712 -2.64679,2.81217 -3.63262,4.4553c-0.8335,1.38923 -1.09084,3.0549 -1.75883,4.53087c-0.48565,1.07306 -1.51241,1.93687 -1.69496,3.10048c-0.35401,2.25658 0.13376,4.56706 0.13376,6.85124c0,0.95146 -0.37517,1.93091 -0.13376,2.85124c0.29885,1.1393 1.20712,2.02841 1.69496,3.10048c1.62587,3.57303 3.50744,7.04257 5.64052,10.33802c3.21855,4.97242 6.34278,10.16772 11.07429,13.93299c3.43687,2.73502 7.16855,5.07211 10.9092,7.38761c0.69095,-3.42547 1.37134,-6.85466 1.86504,-10.31745c0,0 0.70711,-4.94975 5.65685,-4.24264c4.94975,0.70711 4.24264,5.65685 4.24264,5.65685c-0.6166,4.30797 -1.51885,8.56636 -2.37127,12.82961z"/><path d="M430.60001,320.39999c0,-2.76142 2.23858,-5 5,-5c2.76142,0 5,2.23858 5,5c0,2.76142 -2.23858,5 -5,5c-2.76142,0 -5,-2.23858 -5,-5z"/><path d="M515.60001,283.39999c0,-2.76142 2.23858,-5 5,-5c2.76142,0 5,2.23858 5,5c0,2.76142 -2.23858,5 -5,5c-2.76142,0 -5,-2.23858 -5,-5z"/></g></g></svg>