<svg version="1.1" xmlns="http://www.w3.org/2000/svg" xmlns:xlink="http://www.w3.org/1999/xlink" width="505.04735" height="346.88949" viewBox="0,0,505.04735,346.88949"><g transform="translate(4.29819,-2.46397)"><g data-paper-data="{&quot;isPaintingLayer&quot;:true}" fill="#9966ff" fill-rule="nonzero" stroke="none" stroke-width="0.5" stroke-linecap="butt" stroke-linejoin="miter" stroke-miterlimit="10" stroke-dasharray="" stroke-dashoffset="0" style="mix-blend-mode: normal"><path d="M364.66603,176.81098c-0.41099,2.46599 -2.87697,2.055 -2.87697,2.055l-4.59526,-0.77449c-7.4634,-0.00917 -15.34179,-1.58368 -22.78203,-2.53772c-9.92493,-1.27266 -20.00669,-1.90399 -29.88019,-3.52086c-4.93094,-0.80748 -9.72794,-2.05123 -14.6851,-2.75804c0,0 -0.01006,-0.00144 -0.02882,-0.00477c19.07514,15.64654 38.92479,30.26473 57.95313,45.985c27.32688,21.57255 52.40536,45.18701 77.00642,69.787c10.01885,10.01842 21.03052,18.88657 31.15894,28.75905c5.81878,5.67175 11.2611,11.79429 16.87227,17.67265l0.75943,0.75854c0,0 1.7677,1.76783 -0.00013,3.53553c-1.76783,1.7677 -3.53553,-0.00013 -3.53553,-0.00013l-0.84054,-0.84156c-5.56404,-5.82899 -10.95919,-11.90191 -16.72771,-17.5273c-10.14659,-9.89483 -21.1825,-18.78194 -31.22218,-28.82118c-24.47666,-24.47559 -49.42526,-47.96776 -76.61247,-69.43276c-22.41614,-18.51611 -45.96527,-35.51187 -68.05623,-54.44682c0,0 -0.13981,-0.11983 -0.31101,-0.3324c-0.90711,1.01143 -2.14856,1.95775 -2.91295,2.95167c-2.07004,2.69165 -4.15434,5.48304 -6.86984,7.5217c-0.88139,0.6617 -3.09474,0.03048 -3.10636,1.13255c-0.01101,1.04421 2.12127,0.12999 3.08891,0.52265c3.08872,1.25336 5.81164,3.26807 8.67155,4.98038c1.14974,0.68838 2.66636,1.02221 3.40173,2.14248c1.21897,1.85697 1.80426,4.11407 2.14601,6.30893c0.1322,0.84902 -0.74362,1.59812 -0.78117,2.45655c-0.07299,1.66857 1.42249,3.02237 2.14931,4.5261c2.92302,6.0475 5.79484,12.12499 8.35359,18.33468c4.77481,11.59265 11.9009,21.72028 18.15986,32.56913c2.27432,3.94215 5.55895,8.20798 7.16354,12.47167c2.31544,6.15255 3.12726,13.42948 4.60695,19.84144c2.09127,9.06213 4.6077,18.09341 5.76772,27.32567c0.20672,1.6538 0.41344,3.30759 0.62016,4.96139l0.35965,2.87721c0,0 0.31008,2.4807 -2.17061,2.79078c-2.4807,0.31008 -2.79078,-2.17061 -2.79078,-2.17061c-0.20672,-1.6538 -0.77309,-6.1848 -0.97981,-7.8386c-1.12627,-9.05986 -3.62642,-17.93016 -5.67828,-26.82154c-1.42456,-6.1731 -2.17545,-13.20752 -4.38746,-19.1342c-1.50238,-4.02536 -4.69665,-8.08599 -6.842,-11.8046c-6.37232,-11.04534 -13.58836,-21.35488 -18.45213,-33.16353c-2.98633,-7.2536 -7.00167,-14.12049 -9.88928,-21.39093c-0.42856,-1.07904 -0.94843,-2.17907 -0.99029,-3.33935c-0.03098,-0.85871 0.817,-1.59807 0.78117,-2.45659c-0.04637,-1.11118 -0.35939,-2.28048 -1.0163,-3.17789c-0.44171,-0.60343 -1.36502,-0.61474 -2.02175,-0.97242c-2.92731,-1.59435 -5.94143,-3.06791 -8.67155,-4.98038c-1.95041,-1.36628 -5.355,-2.08729 -5.58264,-4.45773c-0.22172,-2.30884 3.10222,-3.44905 4.65814,-5.16923c0.0411,-0.04544 0.73418,-0.80791 1.65725,-1.82285c-17.39741,0.55822 -34.67364,3.11701 -52.10436,3.1198c0,0 -2.5,0 -2.5,-2.5c0,-2.5 2.5,-2.5 2.5,-2.5c18.10222,0.00298 36.04105,-2.76962 54.12066,-3.17654l1.0234,-0.02291c0,0 0.65696,-0.01471 1.30479,0.30777c0.36707,-0.40208 0.59596,-0.65181 0.60604,-0.6604c0.80138,-0.68291 2.5764,-0.49501 2.76267,-1.5313c0.14523,-0.80799 -1.63802,-0.22586 -2.45701,-0.16921c-1.42904,0.09885 -2.83365,0.42213 -4.25047,0.6332c0,0 -2.4807,0.31008 -2.79078,-2.17061c-0.31008,-2.4807 2.17061,-2.79078 2.17061,-2.79078c1.89077,-0.20237 3.8457,-1.13576 5.67231,-0.60712c2.175,0.62946 5.07199,1.41475 6.19661,3.27939c1.44038,-0.91357 2.8682,0.31029 2.8682,0.31029c2.63155,2.25567 5.28388,4.48371 7.95258,6.69c-0.08979,-0.31935 -0.1184,-0.69767 -0.05444,-1.14542c0.35356,-2.47487 2.82844,-2.12131 2.82844,-2.12131c4.98998,0.71421 9.82303,1.96078 14.786,2.77351c9.81571,1.6074 19.84108,2.23038 29.70813,3.49575c7.36621,0.94466 15.17168,2.52347 22.55846,2.51415l5.00484,0.82548c0,0 2.46599,0.41099 2.055,2.87697z"/><path d="M201.39999,192.29999h1.60004c0,0 1.65494,0 2.27184,1.3465c2.55412,0.23386 5.13278,0.52882 7.77365,0.82097l2.23059,0.24785c0,0 2.48471,0.27608 2.20862,2.76079c-0.27608,2.48471 -2.76079,2.20862 -2.76079,2.20862l-2.23059,-0.24785c-5.78667,-0.64567 -11.26398,-1.34211 -16.86524,-1.27911c-2.05231,5.59872 -4.10786,11.19688 -6.29808,16.74846c-2.32814,5.90116 -4.87334,11.71658 -7.20626,17.61585c-1.1602,2.9338 -2.93712,5.70137 -3.4463,8.81488c-0.65527,4.00679 0.42208,9.57611 0.42255,13.66308v0.59998c0,0 0,2.5 -2.5,2.5c-2.5,0 -2.5,-2.5 -2.5,-2.5v-0.59998c0.00051,-4.37271 -1.05468,-10.20392 -0.357,-14.47005c0.04954,-0.30293 3.51911,-9.31052 3.73326,-9.85204c2.32881,-5.88865 4.86916,-11.69374 7.19376,-17.58404c1.91257,-4.84626 3.72269,-9.72792 5.51731,-14.61457c-0.91809,0.10156 -1.84293,0.22933 -2.77632,0.38665c0,0 -0.56629,0.09438 -1.20135,-0.07868c-1.61225,2.81623 -3.19318,5.62438 -4.61245,8.44884c-5.12223,10.19365 -10.83466,20.7445 -14.94863,31.38013c-1.48622,3.84225 -2.41204,8.00669 -3.61412,11.95241l-0.76847,4.64233c0,0 -0.41099,2.46599 -2.87698,2.05499c-2.46599,-0.41099 -2.05499,-2.87698 -2.05499,-2.87698l0.8315,-4.95764c1.25346,-4.16902 2.25106,-8.56344 3.81976,-12.61892c4.1724,-10.78671 9.94958,-21.48348 15.14425,-31.82129c4.70502,-9.36337 11.42182,-18.63002 14.6988,-28.58177c0,0 0.79061,-2.37169 3.16231,-1.58108c2.37169,0.79061 1.58108,3.16231 1.58108,3.16231c-1.80533,5.35999 -4.51338,10.50622 -7.37805,15.57845c0.97021,-0.11226 1.93295,-0.19771 2.89013,-0.25961c2.49556,-6.79533 5.02044,-13.57957 7.80854,-20.27095c0,0 0.96154,-2.30769 3.26923,-1.34615c2.30769,0.96154 1.34615,3.26923 1.34615,3.26923c-2.3868,5.72829 -4.58007,11.52497 -6.72732,17.33838c1.20653,0 2.41305,0 3.61958,0z"/><path d="M154.22538,340.20633c-0.60633,2.42536 -3.03169,1.81903 -3.03169,1.81903l-1.54931,-0.38732c-4.63979,-1.16821 -9.2345,-2.62383 -13.46565,-4.94355c-2.08607,-1.14369 -5.27971,-1.55758 -6.03221,-3.81445c-0.60539,-1.81566 1.97672,-3.29001 3.16245,-4.7924c1.95522,-2.47736 4.94071,-4.10304 6.6021,-6.78631c0.7854,-1.26848 0.82597,-2.87963 1.45287,-4.23348c0.46193,-0.99756 2.02432,-1.69579 1.79007,-2.76986c-0.17161,-0.78683 -1.61598,-0.19856 -2.41423,-0.09199c-1.43761,0.19193 -2.82278,0.66845 -4.23923,0.98027c-1.78277,0.39246 -3.56314,1.13236 -5.3505,1.59593c-1.06228,0.33054 -2.12597,0.65647 -3.19125,0.97709l-3.38276,1.01792c-0.24429,0.0797 -0.50513,0.12279 -0.77603,0.12279c-1.38071,0 -2.5,-1.11929 -2.5,-2.5c0,-0.88154 0.45627,-1.65652 1.14554,-2.10165l2.36776,-1.57847l0.0402,0.06031c0.12084,-0.10044 0.24669,-0.19567 0.37817,-0.28501c1.50898,-1.02523 3.56252,-0.78808 5.34607,-1.17159c1.46433,-0.31487 3.64791,-1.01752 5.99257,-1.54507c4.3935,-1.44751 8.77567,-2.93055 13.181,-4.34432c4.22509,-3.90829 8.59151,-7.66756 12.9023,-11.48096c1.24833,-1.10429 2.46416,-2.24645 3.74498,-3.31287c0.99576,-0.82908 2.45781,-1.23425 3.08082,-2.37036c0.39079,-0.71263 -0.43048,-1.58089 -0.46888,-2.39273c-0.0519,-1.09731 0.73394,-2.37357 0.31009,-3.32996c-2.4717,2.24209 -5.44938,3.66398 -8.48467,4.9946c-0.00374,0.0062 -0.00747,0.0124 -0.01119,0.01861c-3.05766,5.09863 -6.70178,7.34575 -11.42492,10.76756l-0.13312,0.09644c0,0 -2.02453,1.46673 -3.49125,-0.5578c-1.46673,-2.02453 0.5578,-3.49125 0.5578,-3.49125l0.13312,-0.09644c1.01996,-0.73894 2.10606,-1.40163 3.18125,-2.07651c-1.90477,0.58729 -3.85854,1.04718 -5.05378,-0.20795c-1.63167,-1.71343 0.01674,-5.05443 1.42893,-6.95282c1.19732,-1.60955 3.66893,-1.6245 5.52242,-2.39183c1.99051,-0.82405 3.99613,-1.61113 6.00725,-2.38403c-0.55779,-1.09315 -0.45028,-2.71382 -1.5008,-3.32844c-1.10755,-0.64799 -2.58107,0.52557 -3.83967,0.27558c-0.0264,-0.00524 -0.05278,-0.01056 -0.07914,-0.01594l-0.00086,0.01094l-4.9622,-0.39025c-1.29973,-0.08915 -2.3264,-1.17171 -2.3264,-2.49407c0,-0.67934 0.27096,-1.29539 0.7107,-1.74597c-1.42283,0.44092 -2.8825,0.75946 -4.36096,0.99027l0.14085,0.42256l-4.68806,1.56269c-0.2642,0.09499 -0.54902,0.14675 -0.84593,0.14675c-1.38071,0 -2.5,-1.11929 -2.5,-2.5c0,-0.99801 0.5848,-1.85944 1.43043,-2.2603l3.04687,-1.5234c5.27213,-3.5237 10.4986,-7.09616 15.93647,-10.36003c0,0 2.14373,-1.28625 3.42998,0.85748c1.28625,2.14373 -0.85748,3.42998 -0.85748,3.42998c-1.17098,0.70235 -2.33192,1.41957 -3.48554,2.14776c0.00105,0.00018 0.00209,0.00037 0.00313,0.00055c2.09442,0.37387 5.35695,1.17592 5.46277,3.30081c0.05904,1.18562 -0.66596,2.09939 -1.62572,2.93176c0.59648,0.18738 1.24499,0.48383 1.96241,0.91296c0.7987,0.47775 1.35038,1.21803 1.80726,2.05293c3.02091,-0.57043 6.11551,-0.78336 9.18941,-0.79049h3c1.38071,0 2.5,1.11929 2.5,2.5c0,0.77872 -0.35604,1.47427 -0.9142,1.93277l-1.10744,0.92287c0.62661,1.28955 0.60822,3.26581 0.91446,6.20093c0.16172,1.54997 0.80158,3.2682 0.12779,4.67339c-0.37601,0.78417 -7.14869,6.67884 -8.15411,7.56826c-4.56132,4.03502 -9.09468,8.10338 -13.71776,12.0676c-1.6625,0.57117 -3.32531,1.14227 -4.9892,1.7106c0.139,0.19405 0.26806,0.40231 0.38643,0.62555c1.06665,2.01179 -0.93011,4.46322 -1.57329,6.64756c-1.01934,3.46186 -3.21189,6.59026 -5.69935,9.20485c-1.15056,1.20937 -2.13248,2.6122 -3.47081,3.60982c-0.50322,0.37511 -2.4258,0.1082 -1.84903,0.35574c0.9604,0.41219 2.12428,-0.09275 3.12936,0.19376c4.42601,1.26169 8.13227,3.54697 12.6742,4.67362l1.54931,0.38732c0,0 2.42536,0.60633 1.81903,3.03169z"/><path d="M257.5332,308.13084c1.92578,-1.15997 3.8528,-2.3179 5.78057,-3.47456c0,0 2.14373,-1.28624 3.42997,0.8575c1.28624,2.14373 -0.8575,3.42997 -0.8575,3.42997c-2.73148,1.63888 -5.46455,3.27511 -8.19973,4.90781l-0.23044,0.03126l0.02175,0.058l-4.62769,1.73541c-0.28795,0.11573 -0.60242,0.17941 -0.93177,0.17941c-1.38071,0 -2.5,-1.11929 -2.5,-2.5c0,-0.53301 0.16681,-1.02707 0.45107,-1.43281l2.26325,-3.32852l3.66733,-1.09429c0,0 0.99827,0 1.73318,0.63081z"/><path d="M375.89999,276.39999c0,0.85888 -0.29507,1.4227 -0.68247,1.79281c2.05449,5.1309 4.18651,10.22991 6.65462,15.16131l0.96393,1.92784c0,0 1.11804,2.23606 -1.11802,3.35411c-2.23606,1.11804 -3.35411,-1.11802 -3.35411,-1.11802l-0.96393,-1.92784c-2.78805,-5.58124 -5.16016,-11.36689 -7.47143,-17.17425c-1.24193,-0.40297 -2.48488,-0.7878 -3.72854,-1.17013v0.0542h-1.62115c0.65711,2.31471 1.15796,4.68359 2.07343,6.90534c1.24064,3.0109 3.03546,5.76236 4.54847,8.64602l0.41298,0.7871c0,0 1.16154,2.21378 -1.05224,3.37532c-2.21378,1.16154 -3.37532,-1.05224 -3.37532,-1.05224l-0.41298,-0.7871c-0.13721,-0.26152 -4.68581,-8.92339 -4.74384,-9.06423c-0.17061,-0.41405 -0.43689,-1.24949 -0.74428,-2.26823c-0.4685,-0.48652 -0.65679,-1.05142 -0.65679,-1.05142l-0.82101,-2.46612c-0.4865,-1.78222 -0.87425,-3.59578 -1.34378,-5.38325c-1.76258,-4.48267 -3.72212,-8.91519 -5.79809,-13.31118c-4.19451,-7.29211 -9.56426,-14.22215 -14.39355,-20.5606c-6.37318,-8.3648 -12.7892,-17.06289 -20.23964,-24.50168c0,0 -1.76777,-1.76777 0,-3.53553c1.76777,-1.76777 3.53553,0 3.53553,0c5.78733,5.79581 10.97573,12.30767 15.99656,18.85783c-0.53796,-1.0576 -1.07182,-2.11488 -1.60038,-3.17202c0,0 -1.11802,-2.23608 1.11806,-3.35409c2.23608,-1.11802 3.35409,1.11806 3.35409,1.11806c5.44753,10.89526 11.44113,21.80158 16.70935,32.93933c1.95967,3.4254 3.67527,6.92789 4.9899,10.48644c0.02138,0.05786 0.25904,0.91747 0.57937,2.08546l1.03933,-0.34644c0.2642,-0.09499 0.54902,-0.14675 0.84593,-0.14675c0.73865,0 1.40249,0.32035 1.86015,0.82969c0.01495,-0.00393 0.03006,-0.00759 0.04534,-0.01097c0.17045,-0.03765 0.55781,0.02413 1.06106,0.14405c-0.43604,-1.09442 -0.87422,-2.1874 -1.31695,-3.27769c-4.08321,-10.05567 -8.58505,-20.09994 -12.02131,-30.3945c0,0 -0.79057,-2.37171 1.58114,-3.16228c2.37171,-0.79057 3.16228,1.58114 3.16228,1.58114c3.39311,10.19425 7.86822,20.1396 11.91053,30.09451c0.89019,2.19225 1.76097,4.39632 2.63278,6.60146c0.49083,0.03653 2.38497,0.31848 2.38497,2.49456z"/><path d="M104.60001,274.89999c-0.32184,0 -0.64133,-0.00147 -0.95882,-0.00353c-2.95994,4.70093 -5.9302,9.3879 -8.93042,14.0432c-0.84709,1.35538 -1.69418,2.71075 -2.54128,4.06612c4.74132,-5.77332 9.02997,-11.90932 13.24512,-18.10579zM94.00636,275.62534c0,0 -2.42536,0.60633 -3.03169,-1.81902c-0.60633,-2.42536 1.81902,-3.03169 1.81902,-3.03169c2.44964,-0.5989 4.79678,-0.79216 7.18961,-0.85208c3.28568,-5.10132 6.5044,-10.24526 9.72943,-15.38369c-2.83135,0.62042 -5.79737,1.72543 -8.45583,2.46178c-0.87558,0.53941 -1.74342,1.06452 -2.60429,1.56292c0,0 -2.0859,1.20763 -3.34722,-0.79675c-4.33972,5.96711 -8.12714,12.36259 -12.52988,18.2803c-12.53433,16.84733 -26.86004,32.11173 -40.19245,48.27522c-6.29576,8.81575 -13.18453,15.60128 -21.95645,21.97611l-2.25883,2.26933c0,0 -1.76776,1.76778 -3.53553,0.00002c-1.76778,-1.76776 -0.00002,-3.53553 -0.00002,-3.53553l2.54116,-2.53072c8.48395,-6.23892 15.12177,-12.65504 21.24356,-21.22384c13.30038,-16.15933 27.62707,-31.38711 40.14704,-48.21514c4.97908,-6.69236 9.17555,-13.99091 14.26439,-20.59963c2.85692,-3.71019 6.23704,-7.13414 9.32012,-10.65765c10.89845,-12.45537 22.00982,-24.80667 34.1772,-36.06175c9.13716,-8.45207 19.89698,-15.08846 28.70658,-23.91128c0,0 1.76778,-1.76776 3.53553,0.00002c1.76776,1.76778 -0.00002,3.53553 -0.00002,3.53553c-8.88755,8.8748 -19.69836,15.56873 -28.8934,24.08872c-12.01497,11.13289 -22.9925,23.33213 -33.76301,35.64129c-0.45646,0.52167 -0.9198,1.04104 -1.38716,1.55943c1.53679,-0.21835 3.07359,-0.43671 4.61038,-0.65506l1.17051,-0.03707c1.98094,-0.93514 4.00782,-1.7359 6.0935,-2.31548c5.21964,-8.1493 10.58751,-16.19772 16.40143,-23.9496c0,0 0.28692,-0.38255 0.77709,-0.68755c1.31806,-1.89803 2.64711,-3.78697 3.98856,-5.66556c0,0 1.45309,-2.03433 3.48743,-0.58124c2.03433,1.45309 0.58124,3.48743 0.58124,3.48743c-6.20221,8.68045 -12.13669,17.58508 -17.94386,26.58726c1.37279,0.14553 3.24681,0.38381 4.90626,0.60301c3.29248,-3.71789 6.66997,-7.3732 9.92181,-11.08959c0,0 1.61357,-1.84408 3.47146,-0.28341c3.26598,-4.44962 6.60395,-8.85725 10.04781,-13.21948c0,0 1.54911,-1.96221 3.51132,-0.4131c1.96221,1.54911 0.4131,3.51132 0.4131,3.51132c-6.54364,8.28862 -12.70023,16.74177 -18.70827,25.33649c-0.16903,0.94847 -0.66886,1.45395 -1.19934,1.72032c-0.91977,1.32277 -1.83642,2.64884 -2.75079,3.97812c0.00606,0.15345 0.00031,0.31714 -0.01907,0.49173c-0.15868,1.42966 -1.04866,1.94543 -1.77585,2.12567c-1.41885,2.07505 -2.83358,4.15777 -4.24746,6.24784c-5.06266,7.4839 -10.86739,14.87552 -14.45812,23.174l-0.51096,1.17423c0,0 -0.99751,2.29237 -3.28989,1.29486c-2.29237,-0.99751 -1.29486,-3.28989 -1.29486,-3.28989l0.51096,-1.17423c3.75619,-8.58773 9.65374,-16.22302 14.90144,-23.98051c0.88123,-1.30269 1.76284,-2.60257 2.64559,-3.89955c-0.14744,-0.01809 -0.29531,-0.03644 -0.44357,-0.05501c-10.64887,13.53176 -19.19096,28.72228 -30.20244,41.94841l-0.79907,0.95889c0,0 -1.60046,1.92055 -3.52101,0.32009c-0.77021,-0.64184 -0.97414,-1.33517 -0.94211,-1.93545c-1.09581,1.7533 -2.19162,3.50659 -3.28743,5.25988l-0.05001,0.08002c0,0 -1.325,2.12 -3.44499,0.795c-2.12,-1.325 -0.795,-3.44499 -0.795,-3.44499l0.05001,-0.08002c1.58371,-2.53393 3.16742,-5.06786 4.75114,-7.60179c-0.98811,-1.34454 0.08453,-2.84625 0.08453,-2.84625l1.09382,-1.53136c2.7723,-3.88071 5.45219,-7.82129 8.07514,-11.79843c-0.00417,-0.02484 -0.00798,-0.0498 -0.01141,-0.07488c-0.83178,0.1101 -1.66845,0.26531 -2.51688,0.48307zM102.12513,249.55353c-0.00169,-0.01182 -0.00331,-0.02359 -0.00487,-0.03531c-0.74009,0.81336 -1.47721,1.63035 -2.2004,2.45607c0.82109,-0.50265 1.64655,-1.01037 2.47748,-1.51563c-0.12577,-0.24907 -0.22112,-0.54759 -0.2722,-0.90513zM122.36778,247.69435c-0.5735,0.0377 -1.14282,0.09934 -1.70811,0.1828c-0.31661,0.49618 -0.63292,0.99258 -0.94894,1.48919c1.22324,0.12215 2.4471,0.26941 3.6577,0.42066c0.49642,-0.60686 0.99794,-1.2104 1.50374,-1.81111c-1.33314,-0.16903 -2.36466,-0.29072 -2.50439,-0.28153zM119.75462,254.38079c-1.0231,-0.10859 -2.04603,-0.19936 -3.05952,-0.25781c-3.33276,5.27457 -6.64218,10.56434 -9.95596,15.84433c0.43159,0.09236 1.03254,0.31146 1.45508,0.83117c3.75519,-5.54939 7.51839,-11.09389 11.56039,-16.41769z"/><path d="M258.89999,187.60001c0,-1.38071 1.11929,-2.5 2.5,-2.5c0.41533,0 0.80701,0.10128 1.15169,0.28049c0.40387,-0.56886 1.45931,-1.67009 3.16634,-0.81659c1.23238,0.61618 1.44595,1.57196 1.38939,2.30586c0.93213,0.36322 1.59263,1.2696 1.59263,2.33024c0,0.88154 -0.45627,1.65652 -1.14554,2.10165l-2.36776,1.57847l-0.02545,-0.03817l-0.10647,0.12031c-1.11226,0.55793 -2.22452,1.11586 -3.33678,1.67379c0,0 -2.23607,1.11803 -3.3541,-1.11803c-1.11803,-2.23607 1.11803,-3.3541 1.11803,-3.3541c0.24333,-0.12123 0.48665,-0.24247 0.72998,-0.3637c-0.78129,-0.42276 -1.31196,-1.24952 -1.31196,-2.20022z"/><path d="M358.25146,162.49038c-0.49032,2.45145 -2.94177,1.96113 -2.94177,1.96113l-3.99999,-0.80005c-5.58197,-1.11656 -11.18639,-2.10797 -16.78813,-3.12034c-14.0096,-2.53187 -28.21279,-3.53485 -42.29601,-5.65933c-9.32941,-1.40736 -18.66371,-2.63816 -27.99541,-3.99931c-3.94611,-0.57559 -7.62202,-1.58611 -11.63016,-1.5725c0,0 -2.5,0 -2.5,-2.5c0,-2.5 2.5,-2.5 2.5,-2.5c4.26357,0.01258 8.1746,1.01614 12.36984,1.62751c9.33481,1.36036 18.6722,2.59297 28.00459,4.00069c14.1307,2.13151 28.37873,3.14209 42.43636,5.68264c5.63228,1.01789 11.26708,2.01535 16.87953,3.13773l4.00001,0.80005c0,0 2.45145,0.49032 1.96113,2.94177z"/><path d="M135.96781,61.03223c1.76776,1.76777 -0.00001,3.53553 -0.00001,3.53553l-2.06449,2.06448c-1.32966,1.29812 -2.49147,2.7941 -3.98897,3.89437c-0.57781,0.42454 -1.55549,0.06922 -2.0763,0.56203c-1.5814,1.4964 -1.52159,4.07983 -2.28888,6.11731c-1.67214,4.44023 -2.105,6.78544 -0.9238,11.38773c0,0 0.60633,2.42536 -1.81903,3.03169c-2.42536,0.60633 -3.03169,-1.81903 -3.03169,-1.81903c-1.35885,-5.55811 -0.87915,-8.999 1.08615,-14.33798c0.81624,-2.21741 2.00038,-6.40087 3.70123,-8.15698c0.67594,-0.6979 1.93739,-0.46723 2.72363,-1.038c1.19394,-0.86674 2.05475,-2.11778 3.08212,-3.17667l2.06449,-2.06448c0,0 1.76777,-1.76776 3.53553,0.00001z"/><path d="M154.266,69.61102c-0.41101,2.46598 -2.87699,2.05498 -2.87699,2.05498l-5.06263,-0.85847c-1.18497,-0.506 -2.27537,-1.36655 -3.55492,-1.51801c-7.59404,-0.89891 -7.96772,9.67268 -6.92002,14.62019c0,0 0.49028,2.45145 -1.96117,2.94174c-2.45145,0.49028 -2.94174,-1.96117 -2.94174,-1.96117c-1.63336,-8.56915 0.83875,-21.57309 12.28005,-20.57982c1.57829,0.13702 2.96339,1.12134 4.44508,1.68201l4.53735,0.74157c0,0 2.46598,0.41101 2.05498,2.87699z"/><path d="M82.10001,162.79999c0,-1.38071 1.11929,-2.5 2.5,-2.5c1.38071,0 2.5,1.11929 2.5,2.5c0,1.38071 -1.11929,2.5 -2.5,2.5c-1.38071,0 -2.5,-1.11929 -2.5,-2.5z"/><path d="M78.43199,254.90111c-1.70113,1.83199 -3.53311,0.13086 -3.53311,0.13086l-0.20807,-0.19321c-5.40669,-5.02049 -13.66813,-16.24636 -22.59243,-12.19298c-1.11145,0.50481 -1.59787,1.88013 -2.13106,2.97825c-1.44092,2.96762 -3.13088,5.81885 -4.41318,8.85838c-0.68496,1.6236 -0.93791,3.51175 -2.06456,4.8667c-0.06132,0.07375 -0.12357,0.14656 -0.1867,0.21849l0.03176,0.02305l-2.91801,4.02076c-0.45277,0.6398 -1.19866,1.05748 -2.0421,1.05748c-1.38071,0 -2.5,-1.11929 -2.5,-2.5c0,-0.25089 0.03696,-0.49315 0.10573,-0.72163l1.31728,-4.76381l0.05776,0.01597c0.29102,-0.77466 0.8187,-1.61525 0.33037,-2.1728c-0.47492,-0.54224 -1.2947,1.43403 -1.897,1.03805c-4.51384,-2.96761 -3.36838,-4.03823 -2.45309,-7.58487c0.07172,-11.16671 1.77328,-22.61702 0.77294,-33.77354c-0.15388,-1.71622 -0.81153,-3.38291 -0.80651,-5.10601c0.0035,-1.20189 0.64616,-2.32098 0.83157,-3.5085c0.66164,-4.23764 1.50685,-9.13012 1.43881,-13.41442c-0.07705,-4.85138 -1.42789,-9.64205 -2.32085,-14.35844c-0.4828,-2.55001 -0.9034,-5.19144 -2.08758,-7.50085c0,0 -1.11803,-2.23607 1.11805,-3.3541c2.23607,-1.11803 3.3541,1.11805 3.3541,1.11805c1.34242,2.74024 1.9493,5.80232 2.5266,8.7986c0.96297,4.998 2.33503,10.07964 2.40911,15.22123c0.06554,4.54819 -0.7839,9.80439 -1.50538,14.30655c-0.1578,0.98469 -0.77179,1.89416 -0.76841,2.89141c0.00516,1.52119 0.65383,2.97931 0.79346,4.49409c1.06296,11.53154 -0.55382,23.4856 -0.82704,35.02632c-0.31419,0.65828 -1.58082,2.06509 -0.85311,2.01511c0.98331,-0.06753 2.32825,-1.36263 2.90299,-0.56193c0.32191,0.44847 0.56296,0.9349 0.75001,1.44667c0.57069,-1.31181 1.23054,-2.61246 1.8855,-3.92971c0.73074,-1.46967 1.73915,-2.78957 2.47535,-4.25652c0.49231,-0.98098 0.49767,-2.22273 1.19972,-3.06642c1.20856,-1.4524 4.41158,-3.10448 6.37467,-3.3351c9.58747,-1.12631 14.92961,4.60464 21.42951,10.64025c1.22132,1.13408 2.44265,2.26817 3.66397,3.40225l0.20807,0.19321c0,0 1.83199,1.70113 0.13086,3.53311z"/><path d="M454.89999,237.19998c0,-1.38071 1.11929,-2.5 2.5,-2.5c1.38071,0 2.5,1.11929 2.5,2.5c0,0.29739 -0.05193,0.58266 -0.14721,0.84722c0.26456,-0.09528 0.54983,-0.14721 0.84722,-0.14721c1.38071,0 2.5,1.11929 2.5,2.5c0,1.38071 -1.11929,2.5 -2.5,2.5c-0.29599,0 -0.57996,-0.05144 -0.84347,-0.14586c0.02497,0.07636 0.04797,0.15616 0.06881,0.23953c0.60634,2.42536 -1.81902,3.0317 -1.81902,3.0317l-3.03711,0.75336c-4.65738,1.72849 -4.83023,2.18902 -4.66921,7.22131c0,0 0,2.5 -2.5,2.5c-2.5,0 -2.5,-2.5 -2.5,-2.5c0.04277,-1.86354 -0.46931,-3.82499 0.1283,-5.59063c1.57054,-4.64023 4.1188,-4.75792 8.00255,-6.38813l3.36279,-0.84661c0,0 0.69992,-0.17498 1.44176,0.03906c-0.08776,-0.25508 -0.13541,-0.52883 -0.13541,-0.81371c0,-0.29739 0.05193,-0.58266 0.14721,-0.84722c-0.26456,0.09528 -0.54983,0.14721 -0.84722,0.14721c-1.38071,0 -2.5,-1.11929 -2.5,-2.5z"/><path d="M445.85995,243.35927c-2.15929,1.25995 -3.41924,-0.89935 -3.41924,-0.89935l-0.03064,-0.0525c-0.86808,-1.49193 -1.73617,-2.98385 -2.60425,-4.47578c-0.19354,-0.47535 -0.39216,-0.94871 -0.59385,-1.42085c-0.19148,0.00619 -0.39871,-0.0074 -0.62294,-0.04477c-2.46599,-0.41099 -2.055,-2.87698 -2.055,-2.87698c0.02463,-0.13894 0.04927,-0.27787 0.0739,-0.41681c-4.77779,0.57745 -9.59558,0.94548 -14.34029,1.53743c-2.41913,0.14335 -4.84425,0.18969 -7.26762,0.19034h-3.20001c0,0 -2.5,0 -2.5,-2.5c0,-2.5 2.5,-2.5 2.5,-2.5h3.20001c2.27057,0.00063 4.54299,-0.03536 6.8096,-0.16931c3.71106,-0.46478 7.4703,-0.78361 11.21839,-1.17976c-0.12943,-0.05938 -0.25866,-0.11906 -0.38768,-0.17905c-0.99779,-0.46395 -1.90003,-0.9662 -2.7795,-1.45767c-0.43289,0.34629 -0.86649,0.69164 -1.29906,1.03801c0,0 -1.95215,1.56176 -3.51391,-0.3904c-0.974,-1.21747 -0.58128,-2.2831 -0.14773,-2.91275c-0.24246,-0.06871 -0.49087,-0.13197 -0.74619,-0.18912c-3.79307,-0.84915 -9.68696,1.6832 -13.09249,-0.48938c-1.41794,-0.90458 -1.14962,-3.16128 -1.72442,-4.74191c-0.21105,-2.06778 -0.4482,-4.13517 -0.69383,-6.20259c-2.23672,-0.12087 -4.47304,-0.32904 -6.74705,-0.706c-1.94495,-0.32242 -4.22875,0.11361 -5.82064,-1.04944c-7.41706,-5.41901 -4.71341,-6.53245 -0.17555,-10.47063c1.10785,-0.96144 2.26456,-1.88951 3.53977,-2.61446c2.05447,-1.16794 4.43782,-1.62846 6.63183,-2.50668c0,0 0.2856,-0.11424 0.69652,-0.16239c-0.14716,-2.29227 -0.2177,-4.59383 -0.28545,-6.89586c-1.44323,0.03471 -2.88255,0.09536 -4.31694,0.18644c-4.1488,0.25928 -8.44618,0.16529 -12.57508,0.48565c-3.31908,0.25753 -6.55288,1.24865 -9.87089,1.51957c-2.52552,0.20621 -5.09328,-0.29277 -7.60148,0.06738c-1.09255,0.15688 -2.10915,0.78471 -3.21278,0.80162c-0.87859,0.01346 -1.70966,-1.00756 -2.5377,-0.7135c-0.47874,0.17001 0.29363,0.99303 0.5913,1.40471c0.8154,1.12771 1.83062,2.09695 2.71658,3.17012c2.89439,3.50597 5.76694,7.00024 8.79308,10.39672c7.2484,8.13546 14.62734,16.14229 21.78429,24.35953c9.40243,10.79539 18.93362,21.15224 29.05687,31.27549c3.06955,3.06955 6.04831,6.87988 9.48234,9.51277c3.29596,2.52703 7.51471,4.22051 11.08718,6.36507c7.27538,4.36743 14.47569,8.87465 20.89782,14.43309l0.26056,0.22593c0,0 1.88881,1.6378 0.25102,3.52661c-1.6378,1.88881 -3.52661,0.25102 -3.52661,0.25102l-0.26056,-0.22593c-6.18415,-5.37277 -13.16461,-9.70253 -20.18104,-13.91509c-3.73971,-2.24527 -8.11854,-4.04603 -11.57061,-6.69275c-3.60543,-2.7643 -6.75278,-6.72235 -9.97562,-9.94519c-10.20362,-10.20362 -19.81483,-20.64621 -29.29174,-31.52712c-9.07065,-10.41446 -18.698,-20.37462 -27.55391,-30.97087c-2.84119,-3.39953 -10.50905,-9.85215 -6.09647,-15.17965c1.17129,-1.41415 3.65349,-0.39733 5.4623,-0.7135c2.05348,-0.35894 4.1118,-0.82223 6.19627,-0.84658c0.78575,-0.00918 1.56052,-0.04357 2.32752,-0.09661c-11.81709,0.12548 -23.65867,1.11925 -35.41834,1.12443c0,0 -2.5,0 -2.5,-2.5c0,-2.5 2.5,-2.5 2.5,-2.5c16.25677,0.00748 32.6636,-1.87237 48.95539,-0.79516c3.98032,0.26318 7.92233,1.09751 11.89213,1.51231c-1.68665,-2.26863 -3.76725,-4.25122 -5.38672,-6.5733c-0.96281,-1.38053 -1.24239,-3.1554 -2.17297,-4.55786c-3.84973,-5.80191 -10.17852,-11.18823 -15.35028,-15.80595c-0.05048,-0.0451 -0.10098,-0.09019 -0.15149,-0.13524c-1.6324,-0.52327 -3.26771,-1.04385 -4.91049,-1.55206c-17.71138,-5.47914 -36.2385,-9.72954 -54.59707,-12.56745c-20.2784,-1.36024 -40.53632,-2.93612 -60.82528,-4.12961c0,0 -1.43651,-0.0845 -2.06571,-1.21514c-9.38718,-0.27807 -18.78548,-0.38052 -28.1875,-0.38052c0,0 -2.5,0 -2.5,-2.5c0,-2.5 2.5,-2.5 2.5,-2.5c1.77969,0 3.55924,0.00367 5.3386,0.01151c-1.43858,-0.58196 -1.43858,-2.31152 -1.43858,-2.31152l0.07464,-1.40632c0.39167,-1.3453 0.56835,-2.89992 0.05365,-4.20312c0,0 -0.79056,-2.37171 1.58115,-3.16227c2.37171,-0.79056 3.16227,1.58115 3.16227,1.58115c0.66891,2.23439 0.56273,4.72076 0.05365,6.99689l0.07464,0.19366c0,0 0,1.75205 -1.46673,2.32269c27.12537,0.17029 54.20342,1.35124 81.06086,5.25892c1.04501,0.15205 2.09073,0.30866 3.13699,0.46981c7.89773,0.52902 15.7986,1.02491 23.70568,1.45233c4.63658,0.25759 9.29522,0.49541 13.96437,0.74495c-5.68663,-4.02385 -11.53947,-7.81834 -17.52692,-11.39408c-16.51237,-0.65397 -32.96837,-1.917 -49.47019,-2.75645c-10.03825,-0.51065 -20.24882,0.00184 -30.30408,0.00184c0,0 -2.5,0 -2.5,-2.5c0,-2.5 2.5,-2.5 2.5,-2.5c10.12085,0 20.39161,-0.50596 30.49596,0.00184c13.26348,0.66657 26.49736,1.6193 39.75457,2.30756c-4.20697,-2.30238 -8.46972,-4.504 -12.77798,-6.60833c-24.69504,-2.2909 -49.47574,-3.09743 -74.32317,-3.98001c-4.99683,-0.17749 -9.99396,-0.34831 -14.99055,-0.53247c-3.41048,-0.1257 -8.13757,0.08808 -11.19893,-1.84506c-2.85368,-1.802 -3.14193,-5.84902 -2.98106,-9.67435l-0.40714,1.2214c0,0 -0.79058,2.37171 -3.16228,1.58113c-2.37171,-0.79058 -1.58113,-3.16228 -1.58113,-3.16228l0.81887,-2.4566c0.23571,-0.70477 0.46199,-1.41143 0.68094,-2.11954c-0.84071,0.0168 -1.68185,0.03781 -2.5232,0.06343c0.56932,0.33606 1.0951,0.95677 1.0951,2.10327c0,2.5 -2.5,2.5 -2.5,2.5h-2.40002c-5.55807,-0.00508 -11.02855,0.79695 -16.59998,0.80002c-12.46361,-0.00282 -25.05047,0.89331 -37.56674,2.49023c-0.93991,0.40307 -1.88228,0.80529 -2.82548,1.21295c-12.14344,5.24844 -25.67651,9.52899 -38.92694,12.03706c0.0072,0.30525 0.01346,0.61073 0.01877,0.91644l0.00038,1.64331c0,0 0,2.5 -2.5,2.5c-2.5,0 -2.5,-2.5 -2.5,-2.5l0.00016,-0.65092c-0.76478,-0.00371 -1.32422,-0.41614 -1.6783,-0.79722c-9.90415,1.41409 -19.84296,1.47783 -29.82353,1.54368c-3.33839,-0.22666 -6.67264,-0.52501 -10.01501,-0.68231c-3.74282,-0.17614 -8.11641,-0.00767 -11.54357,-1.99877c-1.94692,-1.13111 -3.57067,-2.61589 -4.92993,-4.32808c-2.29172,2.44485 -4.58796,4.88724 -6.90963,7.31035c1.02638,1.3892 2.0233,2.80804 2.98462,4.27785c12.09541,18.49328 21.1267,38.83741 24.98641,60.64211c-0.16703,1.55622 -0.33406,3.11244 -0.50109,4.66867l-0.81869,4.10496c0,0 -0.4903,2.45145 -2.94175,1.96115c-2.45145,-0.4903 -1.96115,-2.94175 -1.96115,-2.94175l0.78134,-3.89504c0.14807,-1.24273 0.29615,-2.48545 0.44422,-3.72818c-3.92311,-20.87709 -12.57881,-40.31995 -24.17471,-58.07653c-0.73219,-1.12118 -1.48168,-2.2783 -2.25744,-3.44202c-0.81055,0.82714 -1.62535,1.65101 -2.44526,2.47091c-3.57037,3.56908 -7.25292,6.96947 -10.86638,10.43488c0.32497,6.41543 0.90518,12.77874 1.93389,19.09012c0.17721,-0.03676 0.37126,-0.05887 0.58375,-0.0633c2.49946,-0.05203 2.55149,2.44743 2.55149,2.44743l0.07577,3.63976c0.03203,1.59098 -0.03008,3.18255 -0.15715,4.77117l0.24245,-0.03031l0.61529,4.92227c0.01595,0.11412 0.0242,0.2307 0.0242,0.34921c0,1.38071 -1.11929,2.5 -2.5,2.5c-0.93729,0 -1.7541,-0.5158 -2.18208,-1.27903c0.02095,1.2096 -0.18317,2.43985 -0.1212,3.65132c0.21831,4.26813 0.90445,8.04772 1.9413,12.17202l0.38732,1.54931c0,0 0.60633,2.42536 -1.81903,3.03169c-2.42536,0.60633 -3.03169,-1.81903 -3.03169,-1.81903l-0.38732,-1.54931c-0.71129,-2.86015 -1.2746,-5.58674 -1.64778,-8.39211c-0.9631,2.79324 -1.87755,5.60589 -2.74749,8.46188c-0.31244,1.02573 -2.42886,8.1277 -2.46812,8.19482c-0.03634,0.06211 -0.07344,0.12367 -0.11127,0.1847l0.02342,0.01171l-1.57575,3.15154c-0.40086,0.84562 -1.26228,1.43042 -2.26029,1.43042c-1.19196,0 -2.18909,-0.83418 -2.43944,-1.9506l-0.95046,-3.8452l0.00387,-0.00096l-0.00751,-0.01396c-0.06314,-0.2696 -2.30404,-9.82403 -2.32481,-9.97047c-0.7012,-4.94364 -0.54031,-10.23836 -0.79862,-15.22728c-0.06267,-2.00362 -0.15532,-4.01721 -0.25634,-6.03595c-0.43013,0.63368 -1.30026,1.42179 -2.81729,0.91611c-2.3717,-0.79058 -1.58112,-3.16229 -1.58112,-3.16229l0.01884,-0.05652c0.84476,-2.53243 2.11662,-6.67211 3.34032,-9.11676c0.15026,-0.30019 0.32005,-0.58904 0.50241,-0.87059c-0.05242,-2.29702 -0.05898,-4.58808 0.01216,-6.86612c0.35127,-11.2489 2.45977,-22.88482 4.66595,-33.88682c0.32949,-1.64312 0.69224,-3.36147 1.1072,-5.11014c-0.13705,-0.3767 -0.16442,-0.67089 -0.16442,-0.67089l-0.33688,-3.6215c-0.86636,-9.36684 1.07174,-19.62847 -1.94557,-28.61951c0,0 -0.79056,-2.37171 1.58115,-3.16227c2.37171,-0.79056 3.16227,1.58115 3.16227,1.58115c2.3239,7.01382 1.90188,14.50939 1.89344,21.9196c1.37915,-2.89491 3.06631,-5.54394 5.16706,-7.6968c0,0 1.76777,-1.76777 3.53553,0c1.76777,1.76777 0,3.53553 0,3.53553c-5.46166,5.28606 -7.63131,15.47769 -9.09689,22.82541c-2.00694,10.0619 -3.96963,20.66427 -4.48734,30.99087c0.08961,-0.12425 0.18282,-0.24612 0.28009,-0.36532c2.93205,-3.5931 6.14914,-6.88423 9.46406,-10.07872c-0.03413,-0.8166 -0.06443,-1.63413 -0.09124,-2.45263c-0.28119,-8.58516 -0.54996,-16.97831 1.06569,-25.44896c0.97436,-5.10846 1.89023,-9.94726 3.54504,-14.88559c0.5647,-1.68519 0.66517,-3.61135 1.70706,-5.05122c0.06522,-0.09014 0.13291,-0.17793 0.20284,-0.26358l-0.03718,-0.02479l1.57847,-2.36773c0.44513,-0.68926 1.22011,-1.14553 2.10164,-1.14553c1.38071,0 2.5,1.11929 2.5,2.5c0,0.03382 -0.00067,0.06749 -0.002,0.10099l-0.09944,2.84891l-0.00586,-0.0002l0.00521,0.01708c-0.31434,6.23544 -1.74083,12.08837 -3.40815,18.0496c1.07388,0.46473 2.13895,0.94306 3.04454,1.66786c1.43775,1.15072 2.36422,2.82415 3.53616,4.24466c1.06587,1.29193 2.11575,2.57343 3.14429,3.86298c2.43782,-2.5497 4.84918,-5.11945 7.25813,-7.68986c-1.53126,-3.10896 -2.5298,-6.53107 -3.21897,-9.78569c-1.05882,-5.00028 -2.01745,-10.43519 -1.59312,-15.59158c0.01725,-0.20962 2.05218,-9.70239 2.13652,-10.09661c0.99048,-4.62984 1.52156,-9.25386 2.67938,-13.84252l0.98724,-2.10364c0,0 1.11802,-2.23608 3.35409,-1.11806c2.23608,1.11802 1.11806,3.35409 1.11806,3.35409l-0.61273,1.09637c-1.15199,4.52059 -1.66147,9.09114 -2.63644,13.65863c-0.67357,3.15553 -1.77834,6.24606 -2.04297,9.46181c-0.38427,4.66971 0.54008,9.6258 1.50216,14.14884c0.46173,2.17074 1.07651,4.60234 1.98782,6.9153c5.64537,-6.00439 11.34429,-11.95875 17.40502,-17.615c0.04814,-0.04493 0.09626,-0.08988 0.14437,-0.13484c0.49172,-1.42904 1.46075,-2.549 2.69602,-3.35201c-0.0932,-0.51944 -0.19009,-1.03701 -0.31735,-1.54149c-0.44603,-1.76802 -1.2513,-3.49936 -1.26175,-5.32275c-0.05757,-10.05033 8.02993,-21.38753 18.33802,-22.30074c3.45832,-0.30638 7.38087,0.90235 10.54767,3.0932c0.16172,-0.61481 0.59563,-1.25441 1.6235,-1.59704c0.02106,-0.00702 0.04199,-0.01379 0.0628,-0.02031c-0.6922,-0.16899 -1.47013,-0.65003 -1.72366,-1.91768c-0.49029,-2.45145 1.96116,-2.94174 1.96116,-2.94174c7.56874,-1.51375 14.97268,-3.56692 22.504,-5.22792c5.13917,-1.13342 10.3035,-2.13733 15.48632,-3.03555c0.14035,-1.90957 2.18988,-2.16577 2.18988,-2.16577c7.48186,-0.93524 14.97408,-1.93615 22.47577,-2.91985c-0.57357,-0.22836 -1.31453,-0.04507 -1.9418,-0.16674c-2.71937,-0.52744 -5.4975,-0.70322 -8.25903,-0.9203c-7.6395,-0.60052 -14.96039,-0.52984 -22.63213,-0.09763c-24.83037,1.39401 -50.15984,3.12732 -74.89809,6.69548c-1.04115,1.25505 -2.44925,2.19403 -3.65197,3.3068c-1.27879,1.18316 -2.37744,2.61492 -3.87127,3.51137c-6.10834,3.66562 -15.32713,4.36869 -19.54399,-2.36585c-0.75216,0.39818 -1.52606,0.77277 -2.3186,1.12498c-1.62963,-0.41468 -3.53287,-0.24962 -4.8889,-1.24404c-3.49009,-2.5594 -3.71252,-7.01907 0.12579,-9.77018c1.3349,-0.95679 3.27791,-0.68429 4.92368,-0.33457c-0.10903,-0.64021 -0.17787,-1.07611 -0.18384,-1.18289c-0.09779,-1.7502 0.23436,-3.49821 0.32084,-5.24901c0.21579,-4.36822 -0.33527,-9.56956 5.12918,-11.09964c7.41204,-2.07542 10.48467,4.97809 9.58491,11.03567c-0.83804,5.64207 -3.57307,9.95414 -7.4569,13.22963l1.16422,1.15969c0,0 0.93595,0.93596 0.76474,2.12683c3.10597,1.02535 7.40283,-0.22633 9.7561,-1.68753c0.54234,-0.33675 1.01219,-0.76714 1.45995,-1.22638c-0.4461,0.07294 -0.89196,0.14654 -1.33758,0.22081c0,0 -2.46598,0.411 -2.87698,-2.05499c-0.411,-2.46598 2.05499,-2.87698 2.05499,-2.87698c2.58862,-0.43144 5.18533,-0.84034 7.78887,-1.22846c0.38691,-0.93789 0.63012,-1.95387 1.0109,-2.89509c0.58788,-1.33 1.5622,-2.54989 1.76363,-3.99c0.20144,-1.44011 -0.42314,-2.87758 -0.60115,-4.32078c-0.18333,-1.48634 -0.00645,-3.04696 -0.48275,-4.4668c-0.47629,-1.41985 -1.54845,-2.56397 -2.30861,-3.85431c-2.07006,-3.51388 -4.02884,-7.53155 -8.2327,-9.00168c-2.53921,-0.88799 -5.16739,-0.37528 -7.72139,-0.13984c-4.57359,0.42163 -8.7622,1.24529 -13.2645,2.14753c-6.46819,1.2962 -15.36517,4.04248 -17.56959,11.00597c0,0 -0.79056,2.37171 -3.16227,1.58115c-2.37171,-0.79056 -1.58115,-3.16227 -1.58115,-3.16227c3.05902,-8.85095 12.78204,-12.57568 21.31958,-14.32516c7.05229,-1.44513 16.55249,-4.3536 23.64769,-1.82082c5.45119,1.94592 8.18378,6.52861 10.88323,11.19577c0.9192,1.58923 2.14622,3.04289 2.7301,4.78348c0.58389,1.74059 0.49349,3.63872 0.70685,5.46219c0.21844,1.86693 0.84883,3.74667 0.58845,5.60822c-0.26039,1.86154 -1.40312,3.48767 -2.10467,5.23151c-0.02375,0.05501 -0.04715,0.11022 -0.07024,0.1656c23.86107,-3.28333 48.2186,-4.93603 72.12219,-6.28751c7.89386,-0.44472 15.44341,-0.5169 23.30648,0.10519c3.29007,0.2603 10.38951,-0.12632 13.20635,2.32198c0.94088,0.81778 1.60013,1.86177 2.06376,3.03773c9.14717,-1.18264 18.30808,-2.30986 27.48112,-3.23171c-0.00603,-0.08225 -0.00915,-0.16751 -0.00915,-0.2559c0,-2.5 2.5,-2.5 2.5,-2.5c15.1849,0.02066 30.32108,-3.32177 45.59998,-3.20001c6.11275,0.04871 12.16846,0.43195 18.20734,1.00128c7.89526,-0.53327 15.80651,-0.98954 23.73961,-1.40444c33.74317,-1.76474 67.41374,0.32693 101.00374,3.42359c20.59376,3.11076 41.17344,6.32919 61.56132,10.63256c11.08709,2.34021 22.15909,4.79733 33.32835,6.74287c0.32126,-0.60644 0.94574,-1.19586 2.15963,-1.19586c2.5,0 2.5,2.5 2.5,2.5l-2.91101,4.06599c-12.10968,-2.01916 -24.09692,-4.68473 -36.10101,-7.21899c-20.249,-4.2749 -40.68833,-7.46481 -61.14044,-10.56309c-24.44403,-2.24298 -48.92686,-3.96426 -73.4514,-4.02965c5.56695,0.45205 11.1271,0.96532 16.67495,1.50221c9.69892,0.9386 19.70944,1.55643 29.28799,3.38604c4.92459,0.94065 9.72586,2.58624 14.62506,3.65278c11.96451,2.60463 24.00774,4.85841 35.97899,7.41883l1.89278,0.09073c0,0 2.49514,0.15589 2.33925,2.65102c-0.15589,2.49514 -2.65102,2.33925 -2.65102,2.33925l-2.62712,-0.19166c-11.97686,-2.56345 -24.02668,-4.81496 -35.99681,-7.42268c-4.84967,-1.05651 -9.60507,-2.6909 -14.47922,-3.62329c-9.43215,-1.8043 -19.29982,-2.39992 -28.85151,-3.32428c-10.03595,-0.97122 -20.1124,-1.86582 -30.19636,-2.45585c27.62463,7.83155 54.80858,17.93192 77.7943,35.58962c2.14538,1.6503 4.29621,3.29388 6.44715,4.93716c7.31253,4.43447 15.87476,8.99072 21.13215,15.53287l2.30106,2.29521c0,0 0.45699,0.457 0.67391,1.13863c2.62378,2.19012 5.21552,4.41846 7.76444,6.69798c5.86698,5.24687 11.16906,11.38493 17.29739,16.31949c3.47068,2.79461 6.85199,4.8173 10.10132,7.74858c3.32303,0.09616 6.64827,0.16278 9.9793,0.16296c13.47196,0.00012 26.94391,0.00011 40.41587,0.00011l-0.96778,-0.06775c0,0 1.76777,-1.76777 3.53553,0c1.76777,1.76777 0,3.53553 0,3.53553l-2.56775,1.53222c-13.47201,0 -26.94401,0.00001 -40.41602,-0.00011c-2.68642,-0.00014 -5.36908,-0.04324 -8.04985,-0.11012c-0.05159,0.05929 -0.10696,0.11865 -0.16632,0.17802c-1.76777,1.76777 -3.53553,0 -3.53553,0l-0.29298,-0.29298c-5.99429,-0.19193 -11.98375,-0.45524 -17.98922,-0.5753c-3.60407,-0.07205 -7.20724,-0.12901 -10.80979,-0.17633c1.56497,3.82355 3.38431,7.50398 3.74319,11.78975c0.10177,1.21536 0.16691,2.4408 0.20541,3.67278c11.00653,1.89325 21.87377,4.20902 32.94783,5.80554c0.9183,0.14898 1.83514,0.30045 2.75078,0.45456c-0.17228,-0.46692 -0.19753,-1.05468 0.09244,-1.77708c0.93128,-2.32007 3.25135,-1.38879 3.25135,-1.38879l4.38441,1.75997c0.12887,0.05369 9.38506,3.90797 9.41122,3.92845c0.0482,0.03772 0.09604,0.07582 0.14354,0.11428l0.01583,-0.02639l3.96071,2.37645c0.74893,0.43183 1.25304,1.24069 1.25304,2.1673c0,1.38071 -1.11929,2.5 -2.5,2.5c-0.34826,0 -0.67989,-0.07121 -0.98112,-0.19987l-3.79439,-1.51776c-6.23727,-1.28713 -12.45781,-2.42858 -18.74492,-3.4488c-10.80893,-1.55786 -21.42145,-3.79255 -32.15672,-5.66684c-0.04875,3.86291 -0.22288,7.74254 -0.22288,11.53324v1.60007c0,0 0,2.2708 -2.1642,2.48399c0.01309,0.07368 0.02617,0.14736 0.03924,0.22104c3.42563,4.00917 6.38829,8.31186 10.02719,12.15068l1.77112,1.78204c0,0 1.76219,1.77333 -0.01114,3.53552c-1.77333,1.76219 -3.53552,-0.01114 -3.53552,-0.01114l-1.81561,-1.82737c-1.72929,-1.83709 -3.30831,-3.77139 -4.85793,-5.72615c0.10883,0.83526 0.20926,1.67094 0.29953,2.50709c0.22359,2.07106 0.35355,4.1529 0.44419,6.2392c1.56527,0.12261 3.12898,0.24718 4.69265,0.37994c9.60042,0.37357 19.26693,1.41582 28.74691,1.90909c14.30782,0.74447 28.73585,0.25602 43.06359,0.25602c0,0 2.5,0 2.5,2.5c0,2.5 -2.5,2.5 -2.5,2.5c-2.62856,0 -5.26038,0.01609 -7.89416,0.03787c-0.02741,2.10212 -2.22978,2.34683 -2.22978,2.34683l-2.23053,0.24784c-1.80443,0.18728 -3.59991,0.6139 -5.41328,0.56183c-1.14463,-0.03287 -2.19835,-0.6984 -3.3377,-0.81311c-7.79261,-0.78456 -15.63563,-0.952 -23.46151,-1.92105c-5.93111,-0.73443 -11.89407,-0.9005 -17.82033,-1.63914c-3.39448,-0.4243 -6.77372,-0.74623 -10.15345,-1.03086c-1.26354,-0.04479 -2.52565,-0.07689 -3.78567,-0.09335c0.08436,2.80389 0.17976,5.60629 0.41745,8.39192c0.30861,3.61676 0.73473,7.22779 1.17066,10.83834c2.98872,0.0073 5.98349,0.02111 8.90241,0.31693c0.05497,-0.04428 0.10912,-0.08889 0.16233,-0.13388c0.2452,-0.20728 0.50215,-0.41312 0.76866,-0.61731c0.01655,-0.02247 0.03334,-0.04481 0.05037,-0.06703c0.49839,-0.65008 1.2103,-1.04451 1.98713,-1.36121c1.49905,-0.9765 3.10706,-1.89979 4.55039,-2.74482c0.12596,-0.09193 0.31632,-0.21603 0.55294,-0.32494c0.00281,-0.00166 0.00562,-0.00332 0.00842,-0.00497l0.00204,0.00018c0.22641,-0.10319 0.49444,-0.19201 0.78847,-0.22571l2.70443,-0.67612c0.21047,-0.05753 0.43202,-0.08824 0.66074,-0.08824c1.38071,0 2.5,1.11929 2.5,2.5c0,0.94657 -0.52607,1.77028 -1.30179,2.19469l-4.29908,2.45661l-0.10625,-0.18594c-0.40854,0.36489 -0.82141,0.72464 -1.23911,1.07839c0.62548,0.27754 1.21712,0.59087 1.77767,0.93737c0.08139,-0.03338 0.16284,-0.06663 0.24434,-0.09974c4.88162,-1.98269 9.19664,-3.21262 13.86574,-3.82615l-0.12314,-0.45151l4.76857,-1.30055c0.22596,-0.06712 0.4653,-0.10316 0.71305,-0.10316c1.38071,0 2.5,1.11929 2.5,2.5c0,0.80902 -0.38428,1.52828 -0.98027,1.98521l-3.55499,2.77893c-3.60615,3.59165 -6.0072,6.67333 -7.13199,11.37288c0.84982,-0.39324 1.77353,-0.16234 1.77353,-0.16234c2.19786,0.54941 4.3122,1.0981 6.40065,1.72343c2.52117,-0.82936 5.02125,-1.75686 7.52076,-2.50601c4.17185,-1.25038 8.70829,-1.41944 12.94188,-2.43882c8.72763,-2.10148 18.59803,-4.55692 26.61244,-8.58931c0,0 2.23609,-1.118 3.35408,1.11809c1.118,2.23609 -1.11809,3.35408 -1.11809,3.35408c-8.39244,4.17247 -18.55726,6.78209 -27.67797,8.97821c-4.16581,1.00306 -8.66888,1.14957 -12.76771,2.39355c-0.54372,0.16502 -1.08764,0.33765 -1.63191,0.51528l1.04726,0.83247c0,0 1.84435,1.68771 0.15664,3.53206c-0.9405,1.02779 -1.92964,0.95873 -2.62115,0.69611c0.16215,0.46141 0.1804,1.03861 -0.10203,1.74468c-0.92848,2.32119 -3.24967,1.39271 -3.24967,1.39271l-3.35762,-1.34305c-1.00132,-0.40053 -2.01046,-0.79309 -3.02378,-1.18244c0.13498,0.30736 0.2099,0.64708 0.2099,1.00429c0,0.93506 -0.51336,1.75023 -1.27361,2.17903c0.56742,0.96949 1.13483,1.93899 1.70225,2.90848l0.03064,0.0525c0,0 1.25995,2.15929 -0.89935,3.41924zM401.76026,202.61445c-1.04014,0.5982 -1.81824,1.59061 -2.86026,2.18553c-0.6751,0.38544 -2.1018,-0.05348 -2.21987,0.71488c-0.11983,0.77985 1.13816,1.18812 1.89131,1.42328c1.3019,0.4065 2.71592,0.25992 4.0682,0.43751c1.75813,0.23088 3.55506,0.3414 5.37177,0.39551c-0.28617,-2.39258 -0.56369,-4.78564 -0.80523,-7.17982c-1.83205,0.644 -3.76695,1.05752 -5.44592,2.02311zM424.33262,213.71562c-0.28309,0.17869 -0.60454,0.30213 -0.9492,0.35517c0.28819,-0.0181 0.56228,-0.06104 0.73657,-0.12428c0.35477,-0.12874 0.70777,-0.262 1.0594,-0.3988c-0.15094,-0.02513 -0.30283,-0.04836 -0.45548,-0.06983zM441.67645,212.84993c-1.20506,0.1858 -2.41463,0.36831 -3.55094,0.73922c-0.8217,0.26822 -1.65644,0.61151 -2.50047,0.99451c0.8888,1.12503 1.66609,2.37294 2.36077,3.71596c0.92856,-1.93438 2.24806,-3.75569 3.69064,-5.44969zM425.08002,218.85348c-3.16297,0.43487 -7.77691,0.05773 -7.89298,-4.37322c-0.39688,0.26515 -0.8739,0.41974 -1.38702,0.41974c-0.82837,0 -1.56263,-0.40288 -2.01754,-1.02339c0.17139,1.4977 0.33412,2.99581 0.48052,4.49472c-0.04148,0.55274 -0.64952,1.48063 -0.12445,1.65823c1.1057,0.374 2.29731,-0.44461 3.46146,-0.52949c0.11256,-0.00821 7.23794,-0.00606 7.44605,0.04011c1.93753,0.42989 3.24334,0.92537 4.41253,1.49734c1.04841,-0.72852 2.11828,-1.4253 3.21189,-2.08126c-0.41541,-0.77336 -0.90723,-1.51206 -1.50802,-2.20269c-2.02846,0.97149 -4.0721,1.82352 -6.08244,2.09992zM405.88158,177.65244c-0.38605,-3.57581 -0.96031,-7.14332 -1.58237,-10.7073c-0.39211,-0.43709 -0.79128,-0.86979 -1.19904,-1.29713c-1.52866,-1.60205 -3.11,-3.13868 -4.72749,-4.63293l-1.16596,-0.11435l0.00696,-0.07093l-0.18927,0.04625c-2.20495,-0.54851 -4.38638,-1.15347 -6.55472,-1.79261c3.13751,3.03624 6.11835,6.26121 8.37697,9.6269c0.91955,1.37028 1.17408,3.12083 2.1167,4.47534c1.52535,2.19188 3.44254,4.09509 5.08413,6.19873c-0.04876,-0.5781 -0.10366,-1.15547 -0.1659,-1.73198zM401.93935,153.05303c-0.27311,-1.91164 -0.46895,-3.83728 -0.64572,-5.76489c-4.29084,-0.59243 -8.60499,-1.08702 -12.93266,-1.50992c1.10181,0.96082 2.20181,1.91546 3.30912,2.84054c2.89899,2.42191 5.78618,4.8371 8.58585,7.3515l1.65724,0.38244c0.19722,0.04115 0.38591,0.10553 0.56308,0.19016c-0.19008,-1.1631 -0.37068,-2.32633 -0.53691,-3.48984zM399.74859,134.49028c0,0 -0.49028,-2.45145 1.96117,-2.94174c0.73921,-0.14784 1.3001,-0.0282 1.723,0.21106c-0.50303,-1.15982 -1.01349,-2.31888 -1.47133,-3.5006c-13.04661,-0.14151 -26.08686,-0.19209 -39.13374,-0.41057c5.94138,3.3944 11.70661,7.05462 17.19887,11.05027c0.5692,0.4141 1.13261,0.84048 1.69127,1.27644c6.39766,0.52054 12.77821,1.16331 19.11193,2.00919c-0.25409,-2.59022 -0.56695,-5.16472 -1.08117,-7.69406zM406.11654,140.68707c-0.1334,-1.697 -0.52909,-3.29527 -1.05519,-4.84626c0.36562,2.33886 0.60949,4.69895 0.83091,7.06603c0.12087,0.0184 0.24173,0.03689 0.36256,0.05545c-0.03367,-0.76164 -0.07894,-1.52033 -0.13829,-2.27522zM21.90092,110.50633c-0.67313,5.82425 -0.36127,11.7982 -0.13723,17.66314c2.55536,-2.39082 5.11517,-4.78292 7.59749,-7.26617c1.02771,-1.02771 2.04746,-2.06161 3.06093,-3.10036c-2.8781,-3.84403 -6.17857,-7.36185 -10.24661,-9.42146c-0.10131,0.71043 -0.193,1.41906 -0.27457,2.12485zM7.87874,170.0841c0.35461,6.84183 0.84004,13.17025 2.04409,19.71049c0.37698,-0.97331 0.7891,-1.94937 1.08518,-2.92138c1.90512,-6.2545 4.00826,-12.31155 6.39586,-18.39634l0.7581,-3.03241c0.25265,-1.1133 1.24829,-1.9444 2.43804,-1.9444c0.05756,0 0.11467,0.00195 0.17126,0.00577c-1.84152,-7.92091 -2.88777,-15.91191 -3.46415,-23.99095c-2.05302,2.08271 -4.05527,4.22267 -5.97069,6.46636c-1.03813,1.21605 -1.37077,2.88945 -2.09063,4.31714c-0.56284,1.11627 -1.37706,2.08657 -2.11809,3.09922c0.17179,5.56965 0.57869,11.16667 0.75104,16.68649zM27.18676,37.3627c2.2277,-2.44142 3.69506,-5.4129 4.5528,-9.20561c0.49096,-2.17089 0.25196,-6.41862 -3.21508,-5.36436c-2.41616,0.73471 -1.51752,5.17058 -1.58396,6.55612c-0.0757,1.57861 -0.4094,3.15223 -0.32266,4.73027c0.06101,1.10983 0.3276,2.19486 0.5689,3.28359zM22.0667,41.39923c-1.98572,-2.18541 -4.52098,-0.3361 -0.91545,0.51317c0.31245,-0.16827 0.61756,-0.33925 0.91545,-0.51317zM100.13929,110.05719l-2.97127,-0.55711c-4.47349,-0.83878 -8.83272,-1.35305 -13.01431,-3.18485c-4.3177,-1.92792 -6.56295,-3.28305 -9.93867,-6.38187c-1.02783,-0.94352 -2.81769,-1.37458 -3.1797,-2.72202c-0.19129,-0.71199 -0.23834,-1.33082 -0.17653,-1.87725c-2.00261,-0.03909 -3.76221,-0.54268 -5.0271,-1.93842c-3.59222,3.44352 -7.17389,6.88208 -10.66392,10.3721l-0.33173,0.95029c0,0 -1.11805,2.23606 -3.35411,1.11801c-0.20507,-0.10254 -0.38192,-0.21447 -0.53402,-0.33323c-0.61341,0.65131 -1.22601,1.30336 -1.8382,1.95582c1.04501,1.44147 2.30911,2.66846 3.85055,3.5269c2.80739,1.56346 6.44287,1.29685 9.45243,1.43293c0.13803,0.00624 9.70693,0.66349 9.93858,0.67938c9.41233,-0.06873 18.78114,-0.12251 28.12403,-1.37924c-0.01799,-0.55053 -0.04508,-1.09405 -0.07886,-1.63332c-0.15973,-0.00986 -0.25718,-0.02813 -0.25718,-0.02813zM94.60572,80.16367c-2.96089,4.21236 -6.20775,7.22603 -10.01702,10.5457c0.21634,0.51926 0.25732,1.18882 -0.15261,2.00868c-1.11803,2.23607 -3.3541,1.11803 -3.3541,1.11803c-0.02502,-0.01252 -0.05009,-0.02502 -0.07521,-0.03748c-0.04293,0.02012 -0.08637,0.03941 -0.13033,0.05781c-0.92234,0.38607 -1.91074,0.55069 -2.91146,0.67382c-0.53371,0.40362 -1.18742,0.66477 -1.77819,0.98725c-0.12524,0.06836 -0.55178,0.01173 -0.42208,0.07117c3.68346,1.68822 6.44378,4.39938 10.4197,6.15752c3.76997,1.70516 7.85094,2.0794 11.90505,2.83955l1.85536,0.34788c-0.00119,-0.01244 -0.00238,-0.02488 -0.00357,-0.03733c-0.44085,-0.28951 -0.82775,-0.78129 -0.99268,-1.606c-0.22728,-1.13643 0.17762,-1.85141 0.67742,-2.29145c-0.38207,-6.06103 -0.3089,-12.36051 -0.0271,-18.56212c-0.56241,-2.74979 -1.16564,-5.49705 -1.79875,-8.2464c-0.83314,2.10601 -1.92311,4.12014 -3.19442,5.97336zM81.03614,87.15463c3.56295,-3.21817 6.68516,-5.83197 9.46957,-9.85276c0.88548,-1.2425 1.63346,-2.59408 2.24752,-4.00576c-1.06915,0.12434 -2.15319,-0.0094 -3.2387,-0.16868c-0.28324,0.11138 -0.59174,0.17255 -0.91452,0.17255c-0.76513,0 -1.44998,-0.34372 -1.90856,-0.88518c-2.86135,3.18035 -5.83461,6.27372 -8.86766,9.31636c1.196,0.79318 2.15306,1.89492 2.68593,3.31212c0.27435,0.72966 0.44621,1.43277 0.52643,2.11134zM83.97699,57.52064c-4.90316,0.46234 -8.60726,3.67102 -10.84919,7.88963c3.9739,-0.99527 7.3754,-0.8872 11.11714,-0.15564c1.43805,-1.51871 2.72384,-3.13072 3.71902,-5.17265c0,0 0.53841,-1.07682 1.61523,-1.3623c-1.93272,-0.8928 -4.00703,-1.34944 -5.60219,-1.19903zM73.2799,90.34453c-0.90608,-0.48328 -1.77087,-1.0204 -2.56018,-1.64387c-0.3552,0.34277 -0.71067,0.68524 -1.06631,1.02747c0.18451,0.27221 0.3852,0.5334 0.5846,0.78324c0.65548,0.82127 1.87632,0.28704 3.04189,-0.16683zM72.59058,70.77171c0,0 -0.68056,0.22685 -1.43408,0.07295c-0.55855,2.574 -0.65658,5.2407 -0.25218,7.72358c2.9829,-2.94792 5.93012,-5.93251 8.89361,-8.90114c-2.33001,-0.03716 -4.6099,0.23292 -7.20735,1.1046zM93.58197,67.7066c0.01415,-0.00733 0.02842,-0.01474 0.04281,-0.02223c-0.02318,0.00327 -0.04633,0.00666 -0.06946,0.01022c0.00861,0.00383 0.0175,0.00784 0.02665,0.01202zM159.0124,92.56933c1.16418,-0.58432 2.77095,-0.58328 3.55436,-1.62395c0.71529,-0.95018 0.22783,-2.36771 0.34175,-3.55157c-0.03711,-13.04137 -1.44213,-26.14041 -2.37868,-39.24642c-2.30888,-0.37083 -4.60196,-0.80392 -6.87212,-1.30693c0,0 -2.44047,-0.54233 -1.89813,-2.9828c0.05325,-0.23961 0.12479,-0.45047 0.21053,-0.63591c-9.03501,1.20228 -18.03623,2.64561 -26.96798,4.45764c6.99691,-1.09678 14.05378,-1.7779 21.19792,-1.7794h1.59998c0,0 2.5,0 2.5,2.5c0,2.5 -2.5,2.5 -2.5,2.5h-1.59998c-13.31097,-0.0029 -26.31546,2.45231 -39.18992,5.51048c0.21854,0.80925 -0.03841,1.58009 -0.03841,1.58009c-1.64658,4.82003 -1.47199,10.51115 -1.8343,15.57483c-0.19793,2.76633 -0.37924,5.59287 -0.51726,8.44376c1.15072,5.6873 2.12486,11.38775 2.83466,17.13761c15.90712,-2.67832 32.0875,-3.72848 48.23271,-4.94593c1.11103,-0.53351 2.21929,-1.07661 3.32488,-1.63152zM167.89148,87.8062c-0.37501,1.80272 -0.1321,3.87495 -0.9288,5.49374c7.22522,-0.62461 14.42893,-1.36699 21.5833,-2.38904c6.29383,-0.89666 12.66939,-1.37477 19.03894,-1.58892c0.13649,-0.06434 0.22452,-0.09369 0.22452,-0.09369c0.5643,-0.18439 1.13246,-0.3532 1.70409,-0.50747c-0.13264,-0.30244 -0.21351,-0.6712 -0.21351,-1.12082c0,-2.5 2.5,-2.5 2.5,-2.5c0.38447,0.00045 0.76897,0.00326 1.1535,0.00835c-1.06587,-9.39786 0.03012,-19.40309 0.5636,-28.47242c0.1694,-2.87985 0.34127,-5.84246 0.58921,-8.82196c-2.15297,0.32498 -4.32195,0.59404 -6.58359,1.02839c-1.69173,0.3249 -3.30941,1.01337 -5.01722,1.23891c-4.63214,0.61176 -9.83487,0.01938 -14.50547,0.01873c-7.4221,-0.00104 -14.96792,-0.33068 -22.40538,-1.23876c0.95375,12.99994 2.32921,25.99829 2.29683,38.94496zM108.45631,110.02575c0.00534,0.09043 0.0106,0.18088 0.01578,0.27134c3.51404,-0.76853 7.03116,-1.70034 10.48379,-2.67351c-3.52073,0.7583 -7.02212,1.56059 -10.49957,2.40216zM366.06882,146.36382c-0.05529,-0.41827 0.01106,-0.90662 0.28678,-1.46505c-0.36388,-0.28109 -0.72855,-0.56115 -1.09401,-0.84019c-3.32286,-0.1919 -6.6435,-0.36902 -9.95754,-0.54304c3.60805,0.89954 7.19878,1.84945 10.76477,2.84829zM388.46442,152.45591c-2.88689,-2.4118 -5.72043,-5.03561 -8.6738,-7.42784c-1.91489,-0.14988 -3.83117,-0.28916 -5.74798,-0.4201c1.39329,1.13044 2.77418,2.27635 4.14214,3.43788c3.58189,1.79078 7.22045,3.51969 10.91616,4.94188c-0.2121,-0.17725 -0.42428,-0.35451 -0.63652,-0.53182zM351.95748,127.62206c-0.51689,-0.01314 -1.0338,-0.02665 -1.55073,-0.04055c5.70355,3.65062 11.27044,7.50791 16.67297,11.58106c1.68284,0.10014 3.36606,0.20446 5.04912,0.31443c-6.4481,-4.33477 -13.22264,-8.24991 -20.17137,-11.85494zM347.71268,118.76983c-1.13578,-0.17209 -2.27175,-0.33969 -3.40793,-0.50295c2.99415,1.41358 5.97012,2.87271 8.91699,4.38523c10.28413,0.25078 20.56208,0.35699 30.84027,0.4456c-12.1516,-1.13378 -24.26088,-2.49629 -36.34934,-4.32788zM218.89999,52.39999c0,0 0,-2.5 2.5,-2.5c1.06981,0 1.68182,0.45779 2.03194,0.98158c0.47135,-1.58559 0.93643,-3.17221 1.39066,-4.76076c0.1433,-0.50114 0.27463,-1.00559 0.39922,-1.51188c-1.25567,0.42813 -2.60409,1.18486 -3.77624,1.57285c-0.76236,0.25234 -1.51636,0.46847 -2.26514,0.65741c-0.29641,3.35855 -0.47364,6.7062 -0.66178,9.91697c0.22883,-1.42029 0.38751,-2.85758 0.38133,-4.35617zM220.73639,83.82637c-0.06474,0.5503 -0.13221,1.10081 -0.19952,1.65159c8.1638,0.66046 16.31268,2.07992 24.36201,3.39704c9.42922,0.85142 19.03788,1.9694 28.1697,4.03154c2.11412,0.47741 4.22263,1.03725 6.32582,1.64678c0.31383,0.06736 0.62737,0.13555 0.9406,0.2046c6.52142,1.43762 12.97441,3.53515 19.41808,5.29251c8.13583,2.2271 15.81592,5.82545 23.60952,9.03792c1.71105,0.70528 3.42436,1.41936 5.13795,2.14366c6.66022,0.73242 13.31406,1.5871 19.96115,2.59423c16.44598,2.49182 32.93067,4.10736 49.5093,5.46438c9.5538,0.78201 19.66687,1.17982 29.30336,2.75596c-0.76107,-0.55752 -1.52971,-1.13815 -2.30676,-1.76389c-6.19768,-4.99086 -11.56266,-11.18192 -17.49456,-16.48685c-10.01367,-8.95527 -20.69656,-17.11138 -31.37983,-25.27106c-0.4851,-0.29289 -0.96267,-0.58507 -1.43096,-0.87714c-10.60972,-6.61723 -20.61396,-14.23599 -32.10852,-19.33243c-1.72125,-0.76509 -3.45,-1.52618 -5.18579,-2.28122c4.7512,2.59449 9.45163,5.31311 14.15025,8.15888l3.83352,1.98818c0,0 2.21893,1.15168 1.06725,3.37061c-1.15168,2.21893 -3.37061,1.06725 -3.37061,1.06725l-3.97773,-2.06606c-12.08375,-7.31028 -24.15353,-13.78606 -37.11109,-19.45429c-2.96737,-1.29823 -5.83055,-2.86258 -8.89565,-3.90942c-2.44148,-0.83385 -5.07454,-0.93471 -7.61022,-1.41054c-5.90159,-1.10744 -12.12137,-2.21526 -18.12661,-2.47969c-6.98991,-0.30779 -14.33294,0.93018 -21.29354,1.59014c-7.28891,0.69109 -14.11438,1.35804 -21.22712,3.13629c0,0 -0.01501,0.00375 -0.04296,0.00949c1.20377,2.57452 1.93214,5.24629 2.66194,8.15881l0.07464,1.40635c0,0 0,2.5 -2.5,2.5c-2.5,0 -2.5,-2.5 -2.5,-2.5l0.07464,-0.19368c-0.73665,-2.95385 -1.40851,-5.70264 -2.83556,-8.28468c-0.03984,0.134 -0.07629,0.25854 -0.1089,0.37278c-2.70582,9.47756 -5.79748,18.88278 -8.31241,28.41564c-0.12691,2.64318 -0.27185,5.28507 -0.58141,7.91631zM228.93633,105.69174c4.99707,0.17046 9.99372,0.35498 14.99055,0.53247c20.76411,0.73754 41.48176,1.42641 62.14213,2.96235c-3.37899,-1.64428 -6.81128,-3.14755 -10.34649,-4.20837c-5.79209,-1.75254 -11.62175,-3.85441 -17.49256,-5.56097c-10.88351,-2.32964 -22.12435,-3.65465 -33.10304,-5.43895c-0.28853,-0.04689 -0.57721,-0.09401 -0.86605,-0.14131c-2.06336,-0.18516 -4.11771,-0.3577 -6.15579,-0.52517c-1.95881,-0.16096 -3.97002,-0.35987 -6.00806,-0.54518c-4.06837,1.14588 -7.99431,1.37002 -12.06965,1.41039c1.14184,3.02722 2.7347,5.85778 4.92474,8.39231l1.54604,1.80372c0,0 0.45955,0.53614 0.60524,1.28278c0.65721,0.0107 1.27853,0.01702 1.83295,0.03593zM231.61204,40.69003c0.27499,0.36064 0.50828,0.7727 0.74293,1.18308c0.55138,-0.52662 1.23871,-0.69846 1.23871,-0.69846c7.35894,-1.83981 14.43578,-2.54907 21.97283,-3.26373c7.17091,-0.67995 14.70274,-1.91667 21.90641,-1.60987c0.46205,0.01968 0.92532,0.04413 1.38959,0.07301c-4.89268,-0.92042 -9.80149,-1.77453 -14.59185,-3.12631c-10.54745,0.19024 -21.09078,0.70968 -31.63374,1.13407c0.02894,1.68569 -0.43905,4.02569 -1.02488,6.30821zM107.99951,104.12056c0.02708,0.28435 0.05345,0.56883 0.07911,0.85347c3.65983,-0.87809 7.34497,-1.71261 11.05033,-2.49842c-3.72254,0.47373 -7.4337,1.01442 -11.12945,1.64495zM226.76799,38.4126c0.33578,-1.06387 1.3495,-1.96052 1.31952,-3.07572c-0.01285,-0.47812 -0.9159,0.3098 -1.39294,0.34441c-1.18649,0.08608 -2.38082,-0.0467 -3.5688,0.01557c-0.78759,0.04128 -1.5737,0.10251 -2.35887,0.17592c-0.40646,1.83179 -0.72849,3.70471 -0.98984,5.59575c2.00333,-0.67372 4.37596,-1.83185 6.72912,-2.17809c0.08294,-0.29383 0.16985,-0.58654 0.2618,-0.87784zM214.70266,36.55058c-10.8456,1.17087 -21.67249,2.39335 -32.53789,3.38112c-5.61769,0.51069 -11.23762,1.05948 -16.85131,1.67673c0.02804,0.74347 0.0402,1.47955 0.05069,2.19264c7.50657,0.96468 15.14342,1.3 22.63588,1.29894c4.45587,-0.00063 9.47761,0.61996 13.89455,0.01873c3.28766,-0.44751 6.4866,-1.43588 9.77458,-1.88107c0.98215,-0.13298 1.96474,-0.28463 2.94197,-0.46504c0.25481,-2.1249 0.56948,-4.2395 0.97077,-6.31987c-0.29303,0.03343 -0.5861,0.06617 -0.87925,0.09782zM157.43498,42.52337c0.93914,0.1843 1.88196,0.35673 2.82791,0.51788c-0.01308,-0.28445 -0.02702,-0.56879 -0.04242,-0.85297c-0.92875,0.10952 -1.85726,0.22117 -2.78548,0.33509zM97.73519,54.11366c0.06795,-0.08584 0.14057,-0.1646 0.21577,-0.23673c-0.17198,0.03534 -0.34404,0.07043 -0.51618,0.10525c0.10643,0.0368 0.20649,0.08122 0.30042,0.13149zM100.40637,58.02536c0,0 -0.319,0.07975 -0.75454,0.06572c0.46326,2.03656 0.73712,4.09904 1.07739,6.16407c0.21466,-2.23985 0.54329,-4.45646 1.12401,-6.59025c-0.48243,0.11969 -0.96471,0.23988 -1.44685,0.36047zM219.828,104.15107c0.07745,0.172 0.18476,0.32047 0.33009,0.43801c-0.11156,-0.14536 -0.22158,-0.29137 -0.33009,-0.43801z"/><path d="M438.17171,250.79064c-0.79061,2.3717 -3.1623,1.58109 -3.1623,1.58109l-2.65407,-0.90047c-3.12237,-1.86134 -6.12258,-3.77818 -9.14206,-5.79111c0,0 -2.08014,-1.38673 -0.69342,-3.46687c1.38673,-2.08014 3.46687,-0.69342 3.46687,-0.69342c2.79627,1.86414 5.57935,3.66886 8.45791,5.40884l2.14598,0.69963c0,0 2.3717,0.79061 1.58109,3.1623z"/><path d="M472.50003,133.20001c0,-1.38071 1.11929,-2.5 2.5,-2.5c1.38071,0 2.5,1.11929 2.5,2.5c0,1.38071 -1.11929,2.5 -2.5,2.5c-1.38071,0 -2.5,-1.11929 -2.5,-2.5z"/><path d="M488.50003,298.80002c0,-1.38071 1.11929,-2.5 2.5,-2.5c1.38071,0 2.5,1.11929 2.5,2.5c0,1.38071 -1.11929,2.5 -2.5,2.5c-1.38071,0 -2.5,-1.11929 -2.5,-2.5z"/><path d="M452.50003,254.00003c0,-1.38071 1.11929,-2.5 2.5,-2.5c1.38071,0 2.5,1.11929 2.5,2.5c0,1.38071 -1.11929,2.5 -2.5,2.5c-1.38071,0 -2.5,-1.11929 -2.5,-2.5z"/><path d="M475.10001,276.39999c0,2.5 -2.5,2.5 -2.5,2.5c-1.66667,0 -7.13332,0 -8.79999,0c0,0 -2.5,0 -2.5,-2.5c0,-2.5 2.5,-2.5 2.5,-2.5c1.66667,0 3.33333,0 5,0h3.79999c0,0 2.5,0 2.5,2.5z"/><path d="M489.30002,244.39999c0,-1.38071 1.11929,-2.5 2.5,-2.5c1.38071,0 2.5,1.11929 2.5,2.5c0,1.38071 -1.11929,2.5 -2.5,2.5c-1.38071,0 -2.5,-1.11929 -2.5,-2.5z"/></g></g></svg>