<svg version="1.1" xmlns="http://www.w3.org/2000/svg" xmlns:xlink="http://www.w3.org/1999/xlink" width="397.50595" height="243.71573" viewBox="0,0,397.50595,243.71573"><g transform="translate(77.89999,33.10001)"><g data-paper-data="{&quot;isPaintingLayer&quot;:true}" fill-rule="nonzero" stroke="none" stroke-width="0.5" stroke-linecap="butt" stroke-linejoin="miter" stroke-miterlimit="10" stroke-dasharray="" stroke-dashoffset="0" style="mix-blend-mode: normal"><path d="M-77.89999,-30.60001c0,-1.38071 1.11929,-2.5 2.5,-2.5c1.38071,0 2.5,1.11929 2.5,2.5c0,1.38071 -1.11929,2.5 -2.5,2.5c-1.38071,0 -2.5,-1.11929 -2.5,-2.5z" fill="#ff6666"/><path d="" fill="#ff6666"/><path d="M-72.89999,-25.6c0,-1.38071 1.11929,-2.5 2.5,-2.5c1.38071,0 2.5,1.11929 2.5,2.5c0,1.38071 -1.11929,2.5 -2.5,2.5c-1.38071,0 -2.5,-1.11929 -2.5,-2.5z" fill="#ff6666"/><path d="" fill="#ff6666"/><path d="" fill="#667eff"/><path d="M272.85337,149.09573l2.34582,-0.76868c3.84648,-1.93989 8.3165,-4.89059 12.57297,-5.64658c2.26854,-0.40292 4.6126,0.06958 6.91164,-0.08221c6.03989,-0.39879 12.08373,-0.89599 18.13677,-0.9007c0,0 5,0 5,5c0,5 -5,5 -5,5c-5.86448,-0.00483 -11.71734,0.53169 -17.57119,0.8847c-1.85887,0.1121 -3.74488,-0.36099 -5.58615,-0.08221c-0.99363,0.15044 -2.06566,0.52334 -3.1603,1.01256c4.60286,1.01429 9.13201,2.21159 13.511,3.58376l0.02654,0.00837c0,0 4.76872,1.50309 3.26564,6.27181c-0.48797,1.54813 -1.32011,2.43526 -2.22153,2.9274c0.32006,0.33652 0.64218,0.66949 0.98834,0.96097l1.7854,1.7854c0.90482,0.90482 1.46447,2.15482 1.46447,3.53553c0,2.45114 -1.76377,4.49033 -4.09139,4.91764c0.33321,0.66985 0.52059,1.42502 0.52059,2.22395c0,1.89314 -1.05214,3.54055 -2.60358,4.38937l-5.82473,3.32842c5.74439,0.68116 11.47282,1.5337 17.1803,2.61795l0.29028,0.20667l0.03665,-0.10994l5.24681,1.74894c2.04312,0.62835 3.52824,2.53068 3.52824,4.77988c0,2.14621 -1.35223,3.97659 -3.25118,4.68564l-4.35536,1.74214l-0.03946,-0.09865c-0.28243,0.13673 -0.57269,0.25945 -0.87196,0.36605c-3.77866,1.34599 -10.36016,-0.34913 -14.89759,0.07924c-4.48306,0.42324 -8.89039,1.62384 -13.39049,1.7854c-5.8198,0.20894 -11.65221,0.25181 -17.47065,0.0078c-4.09005,-0.17152 -8.16396,-1.16061 -12.24866,-0.89002c-10.81002,0.71611 -21.11569,2.37201 -31.71538,4.43966l-0.49269,-0.25374v0.27807h-2.6781c-1.97755,0 -3.68696,-1.14805 -4.4981,-2.81402c-4.29211,1.12706 -8.59768,2.2247 -12.91764,3.30469l-4.47298,1.11825c-0.42094,0.11506 -0.86402,0.17648 -1.32146,0.17648c-2.76142,0 -5,-2.23858 -5,-5c0,-0.58917 0.1019,-1.15453 0.28904,-1.67944c-1.74834,-0.77897 -2.96714,-2.53188 -2.96714,-4.56946c0,-1.68778 0.83625,-3.18024 2.11701,-4.08564l-0.88209,0.11026c-0.22823,0.0319 -0.4614,0.04839 -0.69842,0.04839c-0.23369,0 -0.46363,-0.01603 -0.68878,-0.04705c-0.8171,0.2451 -1.41667,0.41205 -1.67348,0.45589l-9.44646,2.9066c-0.49712,0.16565 -1.02896,0.25536 -1.58175,0.25536c-2.76142,0 -5,-2.23858 -5,-5c0,-0.97036 0.27642,-1.87616 0.75482,-2.64295l2.63582,-4.39303l0.31711,0.19026l0.25738,-0.96648c5.28831,-4.0591 8.01597,-9.37337 12.98473,-13.86183c0.01305,-0.01179 0.05838,-0.04288 0.13219,-0.09098c0.443,-0.5842 1.01147,-1.06803 1.66528,-1.41135l6.93873,-3.8163c0.68408,-0.40605 1.15039,-0.67755 1.24382,-0.72065c0.13038,-0.06014 0.26088,-0.11973 0.39149,-0.17877l0.09979,-0.05488c5.67548,-4.31447 12.33334,-6.16379 18.88951,-8.52737c5.51966,-1.98991 10.81081,-4.84102 16.5796,-5.91225c3.50308,-0.6505 7.10623,-0.52964 10.66017,-0.78297c5.47478,-0.39025 10.9498,-1.43162 16.42882,-1.10624c3.63149,0.21567 7.3095,0.5552 10.99644,1.01461c1.02532,-1.187 2.42547,-1.65371 2.42547,-1.65371zM287.18653,163.913c-1.13737,-0.27251 -2.28097,-0.53263 -3.42936,-0.78036c-0.25633,0.33345 -0.55377,0.63365 -0.88473,0.89304c1.43847,-0.06435 2.87949,-0.10143 4.31409,-0.11268z" fill="#667eff"/><path d="M230.15575,197.5814c0,-5 5,-5 5,-5h2.6781c3.85182,0 7.23589,-0.35818 10.99417,-0.85524c0.31893,-0.04218 3.11466,0.11673 3.13311,-0.52168c0.00803,-0.27761 -0.32074,-0.51535 -0.32448,-0.77975c-1.25143,-0.07714 -2.43497,-1.03105 -3.50177,-1.74225c-0.1181,-0.04001 -0.23586,-0.08125 -0.35337,-0.1234c-3.46124,2.05806 -9.14799,4.71289 -11.97851,1.47343c-7.25828,-8.30693 -1.56193,-10.77025 4.99073,-12.58955c1.84351,-0.51184 3.78301,-0.29663 5.67818,0.19341c2.52688,-1.56996 5.62391,-3.89084 4.06996,-5.9927c-1.75252,-2.37044 -2.72388,-1.18263 -6.45913,-1.19945c-2.28731,-0.0103 -4.60951,0.16161 -6.82161,0.74341c0,0 -4.85071,1.21268 -6.06339,-3.63803c-1.21268,-4.85071 3.63803,-6.06339 3.63803,-6.06339c3.01567,-0.72601 6.14516,-1.0298 9.24697,-1.04199c1.30258,-0.00512 7.8287,-0.11763 9.05501,0.3806c1.37568,0.55891 2.3261,1.85171 3.40751,2.86926c5.68093,5.3454 5.16461,12.17427 0.50956,18.07816c0.81997,0.39762 1.57398,0.87697 2.16853,1.56122c1.28516,1.47907 1.96615,3.4807 2.2926,5.41272c1.03519,6.12655 -2.26355,10.65803 -7.95001,12.72796c-1.10273,0.40141 -2.35573,0.00192 -3.5161,0.17708c-4.13353,0.62396 -7.9806,0.93016 -12.216,0.93016h-2.6781c0,0 -5,0 -5,-5z" fill="#ff6666"/></g></g></svg>